<svg height="401.004" viewBox="0 0 511.99989 401.00402" width="511.99991" xmlns="http://www.w3.org/2000/svg"><g transform="translate(-85.170063 -66.672988)"><path d="m153.84387 66.672988s-68.673807 0-68.673807 68.505792v263.99241s0 68.5058 68.673807 68.5058h374.65226s68.67383 0 68.67383-68.5058v-263.99241s0-68.505792-68.67383-68.505792z" fill="#0154d5" stroke-width=".730571"/><g stroke="#028b3f"><path d="m285.62526 266.48775 7.27877 159.58627s39.32799 38.6295 138.55965 16.07675c111.67225-25.38893 90.64608-62.47488 90.64608-62.47488l-133.48622-133.83145" fill="none" opacity=".65" stroke-width="5.33334"/><ellipse cx="226.8855" cy="480.60059" fill="#e9e7c4" rx="117.13352" ry="41.64048" stroke-width="5.39733" transform="matrix(.9844258 -.17580058 .38415363 .92326918 0 0)"/><path d="m485.9463 166.54916c7.63747 33.62522-59.3733 74.34111-149.69624 90.9472-90.31443 16.59079-169.72546 2.78425-177.36294-30.84097s59.3818-74.34876 149.69623-90.93955c90.32293-16.59844 169.72547-2.7919 177.36295 30.83332z" fill="none" stroke-width="5.05784"/><path d="m267.5468 207.39741s12.73196 17.6059 52.18658 8.79912c39.45463-8.80678 48.7931-23.34412 48.36785-24.49483s-10.18047-43.62734-58.12306-36.35483c-57.85941 8.7761-42.43137 52.05054-42.43137 52.05054z" fill="none" stroke-width="5.06523"/><circle cx="277.96542" cy="202.36305" fill="none" r="8.760134" stroke-width="5.33333"/><circle cx="318.42365" cy="200.88318" fill="none" r="8.760134" stroke-width="5.33333"/><circle cx="355.5564" cy="185.55721" fill="none" r="8.75163" stroke-width="5.33333"/><path d="m237.03942 126.63015s19.57847 6.27668 32.32744 21.24545c12.74898 14.96877 12.74898 17.36718 12.74898 17.36718" fill="#e9e7c4" stroke-width="5.33333"/><path d="m280.63597 109.62869s7.57794 3.88677 14.22884 15.7087 8.86219 30.30326 8.86219 30.30326" fill="#e9e7c4" stroke-width="5.33333"/><path d="m325.908 105.5633s-7.02511 10.71628-8.50498 20.87974 1.47987 27.15642 1.47987 27.15642" fill="#e9e7c4" stroke-width="5.33333"/><circle cx="235.17683" cy="125.27785" fill="none" r="4.601197" stroke-width="5.33333"/><circle cx="277.85486" cy="108.13181" fill="none" r="4.601197" stroke-width="5.33333"/><circle cx="327.59201" cy="102.36543" fill="none" r="4.601197" stroke-width="5.33333"/></g><g fill="#ee8019" stroke-width=".657514"><path d="m570.37956 157.23514c-1.8279-1.59118-3.4651-1.4531-6.20694-1.07175-2.74184.38136-6.06887.84165-9.33015-1.97254-3.26127-2.81418-3.28758-6.23984-3.28758-8.96852s-.0856-4.41192-1.91336-6.0031c-1.82789-1.5912-3.45854-1.44654-6.20038-1.06519-2.74184.38136-6.06887.84165-9.33671-1.97254-3.26787-2.81417-3.28758-6.24639-3.28758-8.97509 0-2.72868-.0856-4.40535-1.91337-5.99653-1.8279-1.59119-3.4125-1.44654-6.16092-1.09148-2.74841.35502-6.06887.84161-9.33671-1.97254-3.26786-2.81417-3.28758-6.23982-3.28758-8.96852 0-2.72868-.0855-4.41192-1.9068-5.99653-1.82131-1.58462-3.45853-1.45311-6.20036-1.07175-2.74184.38135-6.06886.84162-9.33014-1.97255-3.26128-2.814172-3.28758-6.239822-3.28758-8.968512 0-2.72868-.0855-4.41193-1.90679-5.99654l2.5906-2.97197c3.28758 2.84047 3.28758 6.23983 3.28758 8.96851 0 2.72869.0855 4.41193 1.90681 5.99654 1.8213 1.58461 3.45852 1.45311 6.20035 1.07175 2.74185-.38134 6.06888-.84162 9.33672 1.972542 3.26785 2.81417 3.28758 6.2464 3.28758 8.97509s.0855 4.40535 1.90679 5.99654c1.82132 1.59119 3.45853 1.44653 6.20037 1.06518s6.06887-.84163 9.33671 1.97254c3.26785 2.81417 3.28759 6.23982 3.28759 8.97509 0 2.73526.0856 4.40535 1.90679 5.99653 1.82131 1.59119 3.45853 1.44654 6.20036 1.06518 2.74184-.38135 6.06887-.84161 9.33672 1.97255s3.28758 6.24639 3.28758 8.97507c0 2.7287.0856 4.40537 1.90679 5.99655 1.82133 1.59118 3.45854 1.4531 6.20038 1.07175 2.74183-.38137 6.06885-.84166 9.33672 1.97255z"/><path d="m114.69036 332.24983-3.78729-1.09804c.65752-2.32104-.13801-3.74785-1.63721-6.07546-1.49915-2.32761-3.28757-5.15491-2.10405-9.31041 1.18352-4.15549 4.29357-5.58887 6.76582-6.73296 2.47226-1.14407 3.94509-1.93309 4.64207-4.25412.69694-2.32103-.13801-3.74784-1.63723-6.07544-1.49911-2.3276-3.28757-5.15493-2.10406-9.31042 1.18355-4.15549 4.29361-5.5823 6.77243-6.73295 2.47884-1.15066 3.94509-1.92653 4.6026-4.24755.65752-2.32103-.13801-3.74784-1.63721-6.07545-1.49913-2.32761-3.28757-5.15492-2.10405-9.31041 1.18354-4.1555 4.29357-5.58888 6.77242-6.73296 2.47883-1.14408 3.94509-1.9331 4.6026-4.25414.65752-2.32102-.13801-3.74783-1.6372-6.07542-1.49916-2.32761-3.28757-5.14835-2.10405-9.31043 1.18352-4.16206 4.35931-5.58888 6.83157-6.75925 2.47227-1.17038 3.94509-1.9331 4.64207-4.25412l3.78727 1.10462c-1.20982 4.15549-4.29357 5.58231-6.7724 6.73296-2.47883 1.15064-3.94509 1.92652-4.60261 4.24754-.65752 2.32103.13801 3.74784 1.63722 6.07545 1.49913 2.3276 3.28758 5.14834 2.10406 9.3104-1.18354 4.16208-4.29359 5.58232-6.77242 6.7264-2.47885 1.14408-3.94509 1.9331-4.63548 4.25411-.69036 2.32103.13801 3.74784 1.6372 6.07545 1.49914 2.32761 3.28758 5.15492 2.10406 9.31042-1.18354 4.15549-4.29359 5.58887-6.77242 6.73295-2.47882 1.14408-3.94509 1.9331-4.60261 4.24755-.65752 2.31446.13801 3.75441 1.63721 6.07545 1.49914 2.32102 3.28757 5.15492 2.10406 9.31699-1.18354 4.16207-4.29358 5.5823-6.77242 6.72638-2.47883 1.14409-3.94509 1.93309-4.60261 4.25412-.65752 2.32104.13801 3.75442 1.63723 6.07544 1.49914 2.32103 3.21524 5.18123 2.00543 9.3433z"/><path d="m527.39353 459.63355c-8.83701-8.04141-11.12517-21.99389-5.31931-32.4418 2.78129-5.01684 7.03542-8.46222 11.6709-9.45506a13.288385 13.288385 0 0 1 1.97253-.26298c.89423-10.46766 7.305-21.0405 17.17431-27.40525s23.27605-9.20522 38.53041-8.02169l-.30244 3.9451c-14.393-1.12435-26.86607 1.43996-36.08444 7.40361-8.88303 5.73355-14.65602 15.19518-15.40558 24.47932a11.065983 11.065983 0 0 1 7.75209 6.66719c.94684 2.57745.46684 5.20753-1.21639 6.70008-2.20925 1.97254-5.56916 1.26244-7.41021-.49312-1.84105-1.75563-2.38678-4.09637-2.69582-5.75988a26.714847 26.714847 0 0 1 -.41428-3.54402 7.4693743 7.4693743 0 0 0 -1.07832.15122c-3.51771.74962-6.81186 3.49141-9.04742 7.51541-4.85904 8.74494-2.86676 20.86952 4.5303 27.61564zm12.24292-37.57042c.0655.73645.16432 1.47942.30244 2.20268.33535 1.81473.80874 2.93251 1.53859 3.62948.59832.57213 1.65036.76927 2.07775.38782.42737-.38136.47993-1.40707.12502-2.38019a6.7789832 6.7789832 0 0 0 -4.04373-3.83988z"/><path d="m154.88503 451.54592a28.930675 28.930675 0 0 1 -13.84725-3.46511c-6.72638-3.72811-11.26981-10.30326-12.10486-16.89156a30.488988 30.488988 0 0 1 -19.72546-17.83181c-3.9451-10.26382-1.47942-20.31066 1.31502-26.95813a55.343066 55.343066 0 0 1 19.6663-23.89412l2.2487 3.24155a51.483451 51.483451 0 0 0 -18.29866 22.22402c-2.49856 5.91764-4.77357 14.93218-1.27556 23.95987a26.464992 26.464992 0 0 0 16.04336 15.12285c.0459-.40109.11168-.80219.19067-1.19668.59836-2.9654 1.97256-5.26012 4.06346-6.57515a8.0677135 8.0677135 0 0 1 8.98824.12485 6.3844746 6.3844746 0 0 1 2.5643 4.91821 6.8052833 6.8052833 0 0 1 -2.32104 5.35875c-2.13033 1.83447-5.42449 2.63006-9.31699 2.27501 1.0849 4.93794 4.76041 9.86274 9.86274 12.68346 6.91048 3.82016 16.03022 3.99771 22.69743.43393l1.86076 3.47826a26.95813 26.95813 0 0 1 -12.61115 2.99169zm-22.09906-23.59823h.11841c3.01799.36818 5.53628-.0986 6.91706-1.28215a2.8667669 2.8667669 0 0 0 .94682-2.22898 2.3933559 2.3933559 0 0 0 -.9797-1.89364 4.1817975 4.1817975 0 0 0 -4.45138 0c-1.18352.78246-1.97254 2.16324-2.37363 4.1029a10.684625 10.684625 0 0 0 -.1775 1.30187z"/><path d="m118.96188 156.32486a31.29773 31.29773 0 0 1 -15.57653-4.04372l1.97254-3.41907a28.075907 28.075907 0 0 0 28.27317-.5786 28.20741 28.20741 0 0 0 12.78209-22.35552 13.150308 13.150308 0 0 1 -7.62718-.99285 8.79098 8.79098 0 0 1 -4.6026-6.04914 6.4896766 6.4896766 0 0 1 1.31503-5.64806 6.6080296 6.6080296 0 0 1 4.72096-2.21583 8.5937256 8.5937256 0 0 1 6.20037 2.25528c1.9068 1.78844 3.1232 4.3922 3.63605 7.75211 16.17488-4.95109 29.45669-18.55508 33.96066-34.848312l3.80702 1.05202c-4.94451 17.877842-19.65312 32.731112-37.47836 37.846582a32.218252 32.218252 0 0 1 -14.6363 26.59649 31.613335 31.613335 0 0 1 -16.74692 4.64864zm21.69801-41.42346h-.19726a2.702388 2.702388 0 0 0 -1.97254.85477 2.6300614 2.6300614 0 0 0 -.46027 2.31445 4.92479 4.92479 0 0 0 2.47883 3.28758c1.7227.85477 3.79387.85477 5.70724.55893-.34851-2.63006-1.17694-4.60261-2.48541-5.81244a4.6026074 4.6026074 0 0 0 -3.0706-1.17695z"/><path d="m536.40692 328.58613-.5194-3.94509c12.44019-1.63722 23.8152-10.60572 28.31262-22.31607 4.34618-11.30926 2.20925-24.98558-5.26012-34.53928a14.616566 14.616566 0 0 1 -4.54344 2.82732c-3.28758 1.26901-7.57458.92052-9.49451-2.20925a5.5954553 5.5954553 0 0 1 0-5.74668 7.6929292 7.6929292 0 0 1 6.36473-3.9451c2.53143 0 5.02342 1.01258 7.4628 3.1232 2.49856-4.18838 3.33361-9.96136 3.13636-15.12286-.87449-23.05248-14.28781-36.95235-26.40583-40.07556l.99286-3.82016c8.62659 2.24213 16.02365 8.048 21.3824 16.79295a56.322762 56.322762 0 0 1 7.94935 26.95811c.13803 3.57689-.11167 8.89619-2.05803 13.92618a21.296922 21.296922 0 0 1 -2.20924 4.26071c8.7055 10.60572 11.26324 26.18226 6.34503 38.99066-4.97739 13.0451-17.628 23.05248-31.45554 24.84092zm14.99134-65.92249h-.0723a3.7412623 3.7412623 0 0 0 -2.96538 1.92653 1.7752914 1.7752914 0 0 0 -.1052 1.78844c.74954 1.22298 2.97854 1.25586 4.69465.59178a10.697775 10.697775 0 0 0 3.28757-2.05803c-1.6703-1.49255-3.29435-2.24869-4.83951-2.24869z"/><path d="m496.9005 275.84226a22.250319 22.250319 0 0 1 -10.6386-2.63007 22.723731 22.723731 0 0 1 -9.57343-10.35587 28.930675 28.930675 0 0 1 -10.4808 3.68866c-7.76524 1.13751-16.28665-.48657-25.3275-4.81958l1.70955-3.55715c8.31758 3.98453 16.06968 5.49024 23.01304 4.4711a24.880381 24.880381 0 0 0 9.66548-3.54401 22.092516 22.092516 0 0 1 -.48657-9.79041c.5063-2.80759 1.51228-4.85246 3.07718-6.24639 1.97253-1.79502 5.50339-2.47226 7.89017-.49312 2.16323 1.80159 2.63007 5.02343 1.2164 8.62003a22.91441 22.91441 0 0 1 -7.01568 9.39589 18.811514 18.811514 0 0 0 8.17292 9.16577 19.140271 19.140271 0 0 0 21.698-2.7813l2.6958 2.87992a23.013037 23.013037 0 0 1 -15.61597 5.99655zm-14.59685-30.5416a2.7812898 2.7812898 0 0 0 -1.78186.69043c-.88108.78901-1.47941 2.10404-1.8279 4.01084a17.95017 17.95017 0 0 0 0 6.43708 18.44988 18.44988 0 0 0 4.60261-6.68693c.59833-1.54517.80874-3.42566-.0655-4.16207a1.4531088 1.4531088 0 0 0 -.90737-.28934z"/><path d="m242.09826 442.28359-3.85962-.8482a96.069575 96.069575 0 0 0 1.18353-34.96667c-1.36763-9.13288-4.97738-21.24431-14.39301-27.0436a16.792942 16.792943 0 0 0 -3.22839-1.55831c.65752 3.06403.27615 6.46338-1.12436 8.79099a6.5751534 6.5751534 0 0 1 -8.9422 2.538 6.4765262 6.4765269 0 0 1 -1.57804-1.22298 7.9230606 7.9230606 0 0 1 -2.38677-6.57515c.49311-3.72811 3.66893-6.93679 7.69949-7.89018-4.44481-6.3253-13.62372-11.29611-25.20256-9.94164l-.46029-3.94509c11.02653-1.31503 24.6371 3.12977 30.24571 13.69605a18.528782 18.528782 0 0 1 7.02225 2.66951c8.48194 5.22068 14.09056 15.5305 16.22749 29.82489a100.20535 100.20535 0 0 1 -1.20326 36.47238zm-24.63052-65.02169a3.8070139 3.8070139 0 0 0 -.59833.0723c-2.63005.41428-4.88534 2.41309-5.17464 4.64863a3.9450923 3.9450926 0 0 0 1.22956 3.20868 2.6300614 2.6300617 0 0 0 4.35932-.54577c1.006-1.66351 1.17695-4.49739.42083-6.7461a4.6749339 4.6749347 0 0 0 -.2367-.63779z"/><path d="m442.83981 94.125758a37.774256 37.774256 0 0 1 11.87891 12.646082l-3.45344 1.90598c-3.04342-5.53506-8.31233-10.408492-15.24068-14.108092-5.12155-2.7301-12.70493-5.51757-19.68218-3.19955l-.0425.0317a11.335565 11.335565 0 0 1 1.44655 4.17734 7.7126548 7.7126548 0 0 1 -1.14385 5.360202 5.5297037 5.5297037 0 0 1 -5.62667 2.36367c-2.29016-.54022-4.01964-2.78541-4.20466-5.459842-.21152-2.98353 1.28173-5.53791 3.42548-7.41322-.13701-.0945-.27777-.19433-.4198-.28483a17.095399 17.095399 0 0 0 -7.69824-2.43756 31.29773 31.29773 0 0 0 -27.42217 11.57149l-3.10656-2.43545a35.34145 35.34145 0 0 1 30.96038-13.04748 20.895837 20.895837 0 0 1 9.46161 3.08622 13.886724 13.886724 0 0 1 1.73885 1.34967 14.254932 14.254932 0 0 1 1.4169-.55544c8.3075-2.75893 16.99595.3822 22.77544 3.44022a50.155269 50.155269 0 0 1 4.93649 3.00912zm-31.29908 5.1906a.9073712.9073712 0 0 0 .31307.14296 1.5977623 1.5977623 0 0 0 1.4916-.75145 3.8990659 3.8990659 0 0 0 .47798-2.64644 7.2326688 7.2326688 0 0 0 -.96871-2.74326c-1.35167 1.15636-2.26111 2.63823-2.14866 4.23186a2.4130813 2.4130813 0 0 0 .8346 1.76638z"/><path d="m182.94393 318.39651c-1.19009 0-2.34075-.0459-3.4125-.12494-8.60029-.65752-16.1157-3.23497-21.75061-7.52198l2.39336-3.13633c5.01684 3.82017 11.83528 6.14778 19.64656 6.71982 5.7927.43392 13.85385-.0987 19.29807-5.04973h.0655a11.243512 11.243512 0 0 1 -3.01798-3.23497 7.7652565 7.7652565 0 0 1 -1.15066-5.33246 5.516554 5.516554 0 0 1 4.2081-4.46452c2.30787-.43392 4.79985.91395 6.05571 3.28758 1.4005 2.63006 1.07175 5.57573-.13149 8.15976.16432.0391.3288.0655.49967.0987a17.095399 17.095399 0 0 0 8.00197-.91394 31.310883 31.310883 0 0 0 20.38298-21.69801l3.82017.96655a35.315148 35.315148 0 0 1 -23.01305 24.46614c-3.68207 1.17696-6.91706 1.50571-9.8956 1.01257a14.80067 14.80067 0 0 1 -2.1435-.53258 12.690047 12.690047 0 0 1 -1.06518 1.07833c-5.38505 4.99055-12.7032 6.2201-18.79178 6.2201zm17.14144-18.32495h-.15785a1.5977623 1.5977623 0 0 0 -1.05203 1.31503 3.8333144 3.8333144 0 0 0 .65752 2.58403 7.153767 7.153767 0 0 0 1.97254 2.12378c.76273-1.61091.99285-3.3336.24996-4.74068a2.2487024 2.2487024 0 0 0 -1.6701-1.28216z"/></g></g><g transform="matrix(.3138106 0 0 .3138106 188.008637 206.482122)"><g fill="#e9e7c4"><path d="m611.74 79.75-6.52 7.29-7.58 6.27-7.45 5.96-6.25-7.81 7.39-5.91 6.93-5.74 6.03-6.73z"/><path d="m635.78 128.07-7.54 5-6.62 5.9-6.33 6.99-7.41-6.72 6.88-7.55 7.36-6.57 8.14-5.39z"/><path d="m106.75 498.14 6.09-8.11 7.78-6.34 7.24-5.98 6.37 7.71-14.13 11.59-5.36 7.14z"/><path d="m107.63 459.29-8.18 6.25-10.29 3.52-9.54 2.24-2.29-9.74 9.29-2.18 8.04-2.77 6.89-5.27z"/><path d="m576.8 48.88-6.86 5.08-4.25 7.87-6.12 7.71-7.83-6.22 5.57-7.02 4.89-9.05 8.65-6.41z"/><path d="m590.86 437.09 8.27 3.52 8.23 5.49-5.55 8.32-7.45-4.98-9.14-3.89-7.63-7.45 6.98-7.16z"/><path d="m552.54 472.05 8.57 4.39 6.9 7.82-7.51 6.61-5.63-6.4-8.7-4.45-6.75-8.07 7.67-6.42z"/><path d="m611.92 396.2 8 2.4 9.11 2.65-2.8 9.6-9.14-2.66-10.26-3.07-8.08-7.48 6.8-7.34z"/><path d="m140.97 36.73 3.91 8.79 7.41 3.81-4.57 8.9-10.55-5.43-4.09-9.2-7.04-4.39 5.28-8.48z"/><path d="m110.3 78.67-5.25 8.51-16.53-10.28-7.36-5.87 6.24-7.82 7.13 5.69z"/><path d="m67.54 106.8 9.28 1.51 8.79 5.62-5.39 8.42-7.05-4.5-10.96-1.79-7.47-9.08 7.72-6.35z"/></g><g><path d="m303.14 111.2 1.89 26.41 25.15-8.17 4.41 17.61-78.62 17.61-38.36 6.92 2.51-22.64-14.46-1.26 33.33-71.7-23.9-4.4-45.91 41.51-34.59 55.34-15.1 54.72-2.51 42.14 5.03 41.51 15.09 42.14 27.68 46.54 35.22 33.96 53.46 29.56 58.49 14.46 64.78-1.25 62.26-18.87 51.57-34.59 39-42.14 26.41-55.98 9.43-62.26-5.66-50.31-21.38-52.84-27.04-38.36-44.66-45.91-13.83 3.77 6.29 13.21-16.99 4.4-13.2-14.46-67.93 23.27-9.43-15.73-23.9 3.78v16.35z" fill="#008b3f"/><path d="m233.33 231.33-5.66-21.39-40.88 2.52 13.21-40.88 110.69-17.61 5.03 36.47-47.8 15.73-2.52 23.27z"/><g fill="#e9e7c4"><path d="m415.09 286.04-10.69 5.03.63 8.81-5.03 9.43 6.92 8.18 8.18 2.52 9.43.63 4.4-5.03 9.43-.63-1.26 6.92-3.77 5.03s2.52 5.03 4.4 5.03c1.89 0 9.43-2.52 9.43-2.52l4.4-10.06 5.66-3.77 5.03-8.81 3.14-6.29-4.4-9.43-.63-7.55-6.29-2.52h-5.66l-5.66-6.92-7.55.63-4.4 3.77-10.06 1.89z"/><path d="m249.05 368.43s32.74 4.57 42.8 1.43 21.35-18.41 21.35-18.41l-24.53-5.66-23.27 8.81z"/><path d="m229.56 276.61-12.58-10.06 5.03-13.84 16.98 6.29 10.06-8.81 10.07 2.52.62 11.32-15.72 21.38z"/><path d="m145.91 255.85-3.78-18.86-11.32 12.57-1.25 10.07 9.43 5.66z"/><path d="m151.57 342.02 10.69 3.14 3.14 7.55-1.25 8.18 6.92 4.4.62 10.06.63 9.43 3.15 8.81-6.92 6.92-25.16-39.62-11.95-29.56 11.95-3.78 6.29 5.66z"/><path d="m292.45 469.69 51.57 3.14-8.17-15.72-3.78-11.32-5.66.63-6.29-3.77-10.69-16.36-3.77 5.66 1.88 7.55-8.8-8.17-4.4 6.28-5.66-.62-4.41 5.66-4.4 3.77 3.77 11.32z"/><path d="m406.91 414.34 18.24-18.23 26.42-11.95 1.26 17.61-11.32 23.9-20.76 13.83-21.38.63z"/><path d="m522.64 358.37 13.83 6.29-12.57 14.46-6.92 8.18z"/><path d="m555.34 246.42-5.66 8.18 2.52 11.95-8.18 11.32-5.66 8.8 26.42-8.8v-34.59z"/><path d="m517.61 190.44 12.57-4.4-7.54-11.95-17.61-2.51-16.98 13.2 1.25 13.21 13.21-2.51 3.78 10.06 13.83-3.77z"/><path d="m374.84 133.84 4.4-7.55-7.55-5.03-8.17-9.43-8.18 2.51 1.89 13.21-6.29 8.18 5.66 5.66z"/><path d="m198.74 113.09 5.66-3.15-7.55-18.87 21.38 1.26-.62-5.66-14.47-6.29-18.87 18.24z"/><path d="m610.66 78-5.88 8.05-7.11 6.67-6.45 6.67-7.19-6.95 6.7-6.93 6.53-6.12 5.33-7.29z"/><path d="m636.37 126.95-7.12 7.47-8.2 4.91-6.59 6.13-6.81-7.32 7.35-6.84 7.95-4.76 6.18-6.49z"/><path d="m128.15 492.36-15.33 11.75-6.07-7.94 14.69-11.27 6.23-6.53 7.24 6.9z"/><path d="m107.24 456.32-7.3 8.92-9.94 3.29-7.54 4.6-5.21-8.53 8.52-5.21 8.27-2.73 5.45-6.67z"/><path d="m576.79 47.73-5.89 6.21-4.2 9.42-8.97 6.42-5.82-8.13 6.77-4.84 3.78-8.5 7.06-7.46z"/><path d="m591.37 435.11 8.12 5.56 7.97 4.65-5.05 8.64-8.42-4.94-7.31-5.01-8.31-3.22 3.62-9.32z"/><path d="m553.44 471.56 8.39 4.64 6.18 8.93-8.23 5.69-4.85-7-8.45-4.69-6.08-9.08 8.3-5.56z"/><path d="m615.67 410.3-8.84-6.35-7.76-5.5 5.78-8.16 14.49 10.33 8.6.88-1.02 9.95z"/><path d="m96.34 67.02 6.47 6.47 7.89 3.7-4.24 9.06-9.49-4.45-6.96-6.97-7.46-4.86 5.46-8.38z"/><path d="m69.28 105.04 7.3 6.63 7.37 5.45-5.94 8.04-7.97-5.92-6.61-6.01-7.74-4.27 4.82-8.76z"/><path d="m141.14 36.07 5.09 8.46 6.85 5.25-6.07 7.94-8.37-6.41-4.76-7.91-7.44-4.39 5.09-8.61z"/></g><path d="m465.35 73.38c28.72 25.67 55.28 54.61 73.42 88.85 17.92 33.84 25.58 72.22 22.65 110.37-2.88 37.49-15.67 74.05-37.37 104.8-20.27 28.72-47.77 52.25-78.92 68.47-32.33 16.83-68.32 25.69-104.78 25.53-38.75-.17-77.33-10.13-111.68-27.96-15.95-8.28-31.5-18.01-44.54-30.46-11.99-11.45-22.09-24.76-30.79-38.83-7.7-12.44-14.35-25.54-19.83-39.11-4.85-12-8.17-23.77-10.42-36.39-7.3-40.94-5.28-83.38 10.46-122.17 13.57-33.44 35.91-63.06 63.07-86.67 6.6-5.74 13.49-11.12 20.64-16.16 2.35-1.66-.38-6.17-2.91-4.38-30.14 21.26-56.01 49.01-73.88 81.36-8.89 16.08-15.82 33.24-20.18 51.1-5.23 21.41-6.82 43.52-5.54 65.5 1.03 17.78 3.46 36.02 8.69 53.09 3.89 12.69 9.18 24.96 15.17 36.78 7.39 14.59 16.01 28.59 26.19 41.41 10.75 13.54 23.11 25.22 37.45 34.89 32.73 22.05 70.75 36.46 109.93 41.33 37.78 4.7 76.3.33 111.83-13.48 33.55-13.04 64-33.91 88.07-60.69 25.25-28.1 42.43-62.6 50.07-99.57 7.81-37.8 5.54-77.84-7.58-114.21-13.44-37.25-37.81-69.59-65.55-97.42-6.79-6.81-13.81-13.38-20.99-19.77-2.54-2.25-4.9 1.8-2.68 3.79z"/><path d="m384.99 93.74c3.87 7.31 8.11 14.42 12.7 21.31.68 1.02 2.13 1.58 3.18.75 1.06-.83 1.03-2.49.33-3.54-4.6-6.88-8.85-13.98-12.73-21.28-.58-1.08-2.18-1.51-3.15-.75-1.13.89-.91 2.4-.33 3.51z"/><path d="m400.94 116.87c4.25-1.6 8.51-3.17 12.79-4.7 4.27-1.53 8.61-2.89 12.88-4.44 2.69-.98.94-5.6-1.78-4.79-8.67 2.6-17.2 5.96-25.58 9.36-2.53 1.02-.86 5.53 1.69 4.57z"/><path d="m426.17 107.4c1.52 2.6 3.05 5.21 4.57 7.81.74 1.26 1.47 2.52 2.21 3.78.89 1.51 1.74 3.88 3.79 3.88.75 0 1.28-.57 1.56-1.2.8-1.83-.99-3.91-1.89-5.42-.74-1.26-1.48-2.51-2.23-3.77-1.53-2.6-3.07-5.19-4.6-7.79-.61-1.03-2.11-1.51-3.1-.73-1.07.84-.93 2.38-.31 3.44z"/><path d="m435.71 120.4c-3.1 1.48-6.17 3.02-9.18 4.67-1.55.85-3.1 1.73-4.63 2.62-1.5.87-3.07 1.7-4.47 2.73-.97.71-.99 2.21-.48 3.17.47.88 1.69 1.89 2.77 1.33 2.99-1.54 5.81-3.46 8.76-5.1 2.96-1.64 5.94-3.25 8.96-4.77 1.15-.58 1.55-1.86 1.11-3.06-.38-1.01-1.68-2.14-2.84-1.59z"/><path d="m416.64 135.11c3.15 4.63 6.15 9.36 8.96 14.21 1.37 2.35 2.7 4.73 3.98 7.13 1.35 2.53 2.54 5.18 3.98 7.65 1.45 2.48 4.77.41 3.74-2.11-1.08-2.64-2.55-5.17-3.91-7.68-1.37-2.53-2.78-5.03-4.25-7.51-2.89-4.89-5.95-9.66-9.19-14.32-.66-.95-2-1.5-3-.71-.99.79-.98 2.37-.31 3.34z"/><path d="m435.15 163.51c.01.05.02.09.02.14.21-.57.41-1.13.62-1.7-.04.03-.08.06-.12.09.28-.1.56-.21.84-.31h.09c.38.28.76.56 1.14.84-.03-.05-.05-.1-.08-.15.09.66.18 1.32.27 1.97.04-.09.08-.19.13-.28-.18.25-.36.51-.54.76.66-.43 1.68-.6 2.43-.9.81-.33 1.62-.66 2.43-1.01 1.69-.71 3.38-1.42 5.08-2.11 3.32-1.35 6.66-2.66 10.01-3.93s6.71-2.52 10.1-3.72c1.65-.59 3.31-1.16 4.97-1.72 1.8-.61 3.8-1.04 5.43-2.03 1.78-1.08.34-4.45-1.59-4.28-2.16.19-4.41 1.28-6.46 1.99-2.11.73-4.21 1.47-6.31 2.23-4.05 1.47-8.07 3.01-12.06 4.62-3.99 1.62-7.97 3.27-11.89 5.04-1.66.75-4.67 1.61-5.02 3.69-.29 1.75 1.63 3.9 3.32 2.46.46-.39.76-1.09.62-1.7-.01-.05-.02-.09-.03-.14-.22-.94-.85-1.91-1.94-1.86-1 .04-1.62 1.1-1.46 2.01z"/><path d="m475.99 147.55c2.45 6.66 5.37 13.1 8.72 19.35.43.8 1.71 1.43 2.59 1.02 7.18-3.37 14.47-6.51 21.86-9.4 2.65-1.03.87-5.81-1.78-4.77-7.4 2.88-14.68 6.01-21.85 9.43.86.34 1.73.68 2.59 1.02-3.17-5.83-5.95-11.87-8.35-18.05-.41-1.05-1.56-1.95-2.72-1.52-1.15.42-1.44 1.86-1.06 2.92z"/><path d="m511.16 154.56c-1.04-3.32-2.06-6.64-3.12-9.95-.5-1.58-1.02-3.15-1.52-4.72-.46-1.42-1.34-3.13-1.4-4.62-.04.41-.09.82-.13 1.24-.02.08-.28.14.14-.12.27-.17.57-.3.86-.45.62-.33 1.25-.66 1.87-.98 1.26-.66 2.52-1.31 3.79-1.96 2.53-1.3 5.21-2.5 7.6-4.04 2-1.28.04-5.37-2.23-4.38-3.04 1.33-5.97 3.07-8.92 4.59-1.51.78-3.02 1.56-4.52 2.37-1.61.87-2.95 1.88-2.81 3.92.11 1.68.91 3.39 1.43 4.98.57 1.73 1.13 3.46 1.7 5.19 1.14 3.46 2.31 6.9 3.47 10.35.36 1.07 1.59 1.94 2.72 1.52 1.21-.45 1.41-1.86 1.07-2.94z"/><path d="m432.63 164c1.95 6.19 5.99 11.46 7.94 17.65.38-1.04.76-2.08 1.13-3.12-6.98 2.87-14.37 4.6-21.34 7.5-2.66 1.1-.86 5.94 1.8 4.83 6.97-2.9 14.35-4.65 21.3-7.58 1.25-.52 1.52-1.94 1.13-3.12-1.99-6.18-6.07-11.43-8.06-17.6-.36-1.11-1.66-2.01-2.82-1.58-1.22.45-1.43 1.91-1.08 3.02z"/><path d="m419.28 189.73c3.17 8.24 6.34 16.48 9.52 24.72 1.28 3.33 2.77 8.37 7.34 7.69 2.07-.31 4.11-1.05 6.12-1.61 2.16-.6 4.32-1.19 6.47-1.79 4.8-1.32 9.59-2.66 14.38-4 2.77-.77.98-5.64-1.81-4.86-4.95 1.37-9.9 2.76-14.85 4.15-2.55.72-5.11 1.44-7.66 2.15-1.08.3-2.17.7-3.27.91-.83.16-.95.07-1.32-.67-.99-1.98-1.66-4.21-2.48-6.27-.98-2.48-1.97-4.96-2.95-7.43-1.91-4.8-3.81-9.6-5.72-14.4-.42-1.05-1.55-1.96-2.72-1.52-1.13.42-1.45 1.88-1.05 2.93z"/><path d="m460.56 213.8c2.82 4.99 5.61 9.98 8.38 14.99 2.77 5 5.42 10.09 8.3 15.03.61 1.05 2.15 1.53 3.14.75 1.13-.89.9-2.39.33-3.5-2.61-5.08-5.52-10.03-8.32-15.01-2.81-4.98-5.64-9.95-8.49-14.91-.59-1.02-2.07-1.47-3.03-.72-1.06.83-.9 2.32-.31 3.37z"/><path d="m482.18 244.26c6.38-4.47 12.84-8.82 19.36-13.07 3.23-2.11 6.47-4.18 9.74-6.23 1.63-1.02 3.27-2.04 4.91-3.05.82-.5 1.64-1.01 2.47-1.51.92-.56 1.96-.99 2.48-1.97.82-1.55.02-3.75-1.91-3.8-1.1-.03-1.87.59-2.77 1.14-.89.54-1.78 1.09-2.67 1.63-1.64 1.01-3.28 2.03-4.91 3.05-3.33 2.09-6.64 4.22-9.93 6.38-6.58 4.31-13.05 8.8-19.45 13.38-2.15 1.56.35 5.69 2.68 4.05z"/><path d="m517.78 216.85c1.79 3.75 3.57 7.51 5.36 11.26 1.79 3.76 3.46 7.61 5.43 11.28.82 1.53 2.21 2.87 4.05 2.89 1.91.02 3.88-1.28 5.56-2.06 3.72-1.71 7.5-3.32 11.16-5.15 2.55-1.27.89-6-1.81-4.86-3.32 1.4-6.56 3.01-9.83 4.52-1.6.74-3.2 1.53-4.82 2.22-.19.08-.41.2-.62.22 0 0 .16.24.06-.1-.19-.65-.67-1.33-.97-1.95-3.19-6.59-6.44-13.16-9.66-19.74-.51-1.05-1.55-2.05-2.82-1.58-1.11.43-1.59 1.99-1.09 3.05z"/><path d="m552.78 231.13c-1.29-5.94-2.64-11.87-3.99-17.79-.33-1.44-.68-2.88-.99-4.33-.07-.31-.24-.75-.15-.98.14-.36.94-.75 1.25-.98 2.51-1.82 4.98-3.7 7.55-5.44 2.35-1.59-.45-6.19-2.87-4.32-2.63 2.03-5.4 3.87-8.07 5.86-1.15.86-2.04 1.9-2.31 3.35-.32 1.71.31 3.46.69 5.11 1.55 6.57 3.1 13.15 4.72 19.7.28 1.14 1.04 2.35 2.39 2.29 1.17-.06 2.03-1.34 1.78-2.47z"/><path d="m477.2 243.19c1.62 6.81 3.59 13.52 5.99 20.09 1.2 3.29 2.51 6.55 3.9 9.77 1.13 2.61 2.41 7.51 6.12 6.99 1.58-.22 3.09-1.24 4.51-1.92 1.78-.84 3.56-1.69 5.33-2.53 3.26-1.55 6.52-3.1 9.77-4.65 1.55-.74 3.11-1.48 4.66-2.23.17-.08 2.06-.84 2.07-.9-.19-.09-.38-.18-.57-.26.01.01.01.02.02.04-.03.02.74 1.61.81 1.75.71 1.53 1.42 3.07 2.12 4.6.37.8.76 1.6 1.11 2.41.06.12.11.25.17.37.14.49.18.51.14.07.08-.34.02-.4-.16-.19-.22.18-.44.35-.67.52-5.97 4.59-12.41 8.57-19.15 11.91-1.21.6-1.63 1.96-1.17 3.21.39 1.05 1.77 2.27 2.98 1.67 6.42-3.19 12.58-6.9 18.36-11.15 1.26-.93 2.82-1.84 3.66-3.19 1.16-1.86.4-3.84-.43-5.64-.74-1.61-1.49-3.21-2.23-4.82-.76-1.65-1.41-3.8-2.7-5.13-1.3-1.35-3.01-1.49-4.68-.82-1.79.71-3.51 1.67-5.25 2.51-3.4 1.63-6.8 3.26-10.21 4.9-1.63.78-3.25 1.57-4.88 2.35-.89.43-1.77.85-2.66 1.28-.34.16-1.08.37-1.33.64-.09.1-1.04.38 0 .54-.22-.03-.85-1.83-.97-2.11-.39-.85-.76-1.71-1.13-2.57-.74-1.72-1.46-3.44-2.15-5.18-2.98-7.53-5.46-15.26-7.43-23.12-.62-2.47-4.58-1.83-3.95.79z"/><path d="m501.34 292.35c3.17 14.29 6.37 28.57 9.6 42.85.28 1.22 1.13 2.51 2.55 2.45 1.24-.06 2.18-1.43 1.9-2.64-3.24-14.29-6.5-28.57-9.81-42.84-.27-1.17-1.07-2.4-2.43-2.34-1.19.06-2.07 1.37-1.81 2.52z"/><path d="m515.85 338.45c4.93-3.13 9.87-6.27 14.8-9.4 4.92-3.12 9.99-6.11 14.75-9.47 2.3-1.62-.27-5.67-2.79-4.2-5.04 2.93-9.87 6.3-14.76 9.47-4.9 3.18-9.81 6.36-14.71 9.54-2.24 1.44.29 5.6 2.71 4.06z"/><path d="m543.48 318.17c1.39 4.43 2.72 8.88 4.18 13.28.36 1.1 1.73 2.14 2.91 1.63 1.26-.55 1.51-1.93 1.14-3.13-1.36-4.43-2.86-8.83-4.29-13.24-.35-1.07-1.69-2.08-2.83-1.58-1.23.52-1.48 1.87-1.11 3.04z"/><path d="m513.24 335.34c-2.72 6.32-5.44 12.64-8.15 18.96-1.17 2.72-2.19 5.58-3.63 8.18-1.26 2.27-2.85 4.11-5.42 4.82-2.81.78-5.96.52-8.85.82-1.54.16-3.07.36-4.6.61-1.54.25-3.37.39-4.81 1.05-3.02 1.4-3.11 5.5-3.71 8.34-.35 1.62-.69 3.23-1.04 4.85-.35 1.65-.9 3.37-1.05 5.05-.16 1.92.69 3.84 2.56 4.55 1.59.6 3.6.42 5.27.51 3.89.21 7.79.42 11.68.63 1.35.07 2.06-1.53 1.92-2.66-.17-1.36-1.21-2.4-2.57-2.47-3.16-.17-6.32-.34-9.49-.51-1.54-.08-3.08-.16-4.62-.25-.23-.01-.79-.12-.97-.05-.5.18.47 1.94.73 1.19.27-.74.34-1.68.5-2.45.65-3.07 1.31-6.15 1.96-9.22.16-.75.18-2.32.84-2.79.32-.23 1.14-.29 1.5-.36.8-.16 1.6-.3 2.41-.43 3.06-.5 6.13-.74 9.23-.92 2.79-.16 5.55-.57 7.92-2.14 4.31-2.85 6.01-8.67 7.92-13.18 2.82-6.64 5.62-13.28 8.43-19.92 1.07-2.47-2.73-5.07-3.96-2.21z"/><path d="m489.15 391.2c-2.26 5.68-4.53 11.35-6.76 17.03-1.09 2.77-2.17 5.53-3.26 8.3-1.14 2.9-2.48 5.8-3.41 8.78-.82 2.64 2.71 5.27 4.13 2.31 1.31-2.74 2.26-5.7 3.36-8.52 1.11-2.85 2.22-5.69 3.33-8.54 2.22-5.7 4.41-11.41 6.61-17.12.97-2.54-2.84-5.16-4-2.24z"/><path d="m384.67 89.39c-4.74 1.51-9.41 3.2-14.01 5.08-4.6 1.89-9.32 3.85-13.61 6.37-2.13 1.26-.03 5.59 2.32 4.56 4.48-1.96 8.8-4.25 13.32-6.15 4.51-1.89 9.1-3.59 13.75-5.11 2.68-.87.93-5.61-1.77-4.75z"/><path d="m360.36 102.33c-1.51-4.19-3.14-8.33-4.92-12.41-.82-1.89-1.54-4.13-2.76-5.8-1.44-1.98-3.4-1.77-5.52-1.3-4.46.99-8.93 1.99-13.39 2.98-2.05.46-4.31.72-6.29 1.44-2.19.79-2.99 2.73-2.84 4.95.17 2.45.59 4.9.9 7.33.15 1.21.3 2.41.45 3.62.13 1.02.52 2.52.36 3.38.14-.38.28-.77.42-1.15.24-.13.47-.26.71-.39.38.1.76.19 1.14.29-.06-.04-.12-.07-.19-.11.41.5.83.99 1.24 1.49-.03-.07-.06-.13-.09-.2-.51-1.11-1.65-2.15-2.96-1.66-1.21.45-1.65 2.07-1.16 3.19.86 1.97 3.47 3.07 4.89.95 1.14-1.7.32-4.36.09-6.23-.27-2.17-.54-4.34-.81-6.51-.13-1.05-.26-2.09-.39-3.14-.02-.16-.13-.97-.16-.93-.08.14.29-.04.37-.05 2.04-.27 4.12-.95 6.13-1.41 2.15-.49 4.3-.97 6.45-1.46s4.3-.97 6.45-1.46c.19-.04 1.19-.12 1.31-.28.07-.09-.25-.4-.39-.37.11-.02 1.26 2.73 1.4 3.03 2.04 4.49 3.91 9.05 5.62 13.67.41 1.1 1.64 2.03 2.84 1.59 1.2-.45 1.49-1.95 1.1-3.05z"/><path d="m325.67 105.58c-8.12 1.95-16.35 3.41-24.66 4.29-1.3.14-2.07 1.35-1.89 2.62 1.19 8.61 2.18 17.28 3.6 25.86.2 1.22 1.16 2.48 2.52 2.42 1.33-.06 2.02-1.4 1.88-2.6-.97-8.64-2.38-17.25-3.57-25.86-.63.87-1.26 1.75-1.89 2.62 8.68-.92 17.29-2.49 25.71-4.8 2.6-.73.9-5.18-1.7-4.55z"/><path d="m305.9 141.22c8.31-2.99 16.57-6.14 24.83-9.29-.98-.55-1.97-1.1-2.95-1.65 1.03 3.6 2.06 7.2 3.08 10.8.27.94.54 1.88.8 2.82.18.62.3 1.93.69 2.42.28.35-.07.06.26-.09-.2.09-.44.24-.67.33-.83.31-1.7.55-2.55.79-6.88 1.97-14.02 2.77-20.89 4.8-1 .3-1.49 1.6-1.34 2.55 1.87 11.99 3.86 23.96 5.74 35.94.2 1.25 1.2 2.53 2.57 2.47 1.32-.06 2.11-1.44 1.92-2.66-1.87-11.99-3.85-23.96-5.73-35.94-.45.85-.89 1.7-1.34 2.55 3.84-1.14 7.76-1.91 11.68-2.7s7.99-1.52 11.75-2.93c1.89-.71 3.1-2.08 3.15-4.16.05-2.09-.94-4.32-1.51-6.31-1.17-4.07-2.33-8.14-3.5-12.21-.33-1.17-1.77-2.11-2.95-1.65-8.25 3.16-16.51 6.31-24.71 9.61-2.49 1-.86 5.42 1.67 4.51z"/><path d="m317.89 193.63c7.55-1.79 15.11-3.56 22.65-5.39 7.53-1.83 15.12-3.49 22.6-5.51 1.27-.34 1.53-2.09 1.14-3.14-.47-1.28-1.62-1.91-2.92-1.63-7.57 1.65-15.08 3.67-22.6 5.52-7.53 1.85-15.04 3.75-22.55 5.64-2.6.64-.92 5.12 1.68 4.51z"/><path d="m366.11 179.46c-1.02-7.61-2.07-15.23-3.1-22.84-.43.83-.87 1.65-1.3 2.48 7.19-2.08 14.36-4.27 21.57-6.25.52-.14 1.12-.32 1.67-.23.16.03-.01-.39.21.2.07.19.13.39.2.59.62 1.74 1.19 3.51 1.78 5.26 1.2 3.54 2.4 7.08 3.59 10.62.39 1.16 1.73 2.11 2.96 1.66 1.29-.48 1.55-2.03 1.16-3.19-1.36-4-2.72-8-4.08-12-1.18-3.48-2.16-8.35-6.8-8.18-1.86.07-3.74.84-5.51 1.35-2.06.6-4.12 1.2-6.17 1.8-4.12 1.2-8.23 2.4-12.35 3.6-.99.29-1.43 1.56-1.3 2.48 1.05 7.61 2.13 15.22 3.19 22.84.17 1.19 1.16 2.42 2.46 2.36 1.26-.07 1.97-1.38 1.82-2.55z"/><path d="m395.15 171.21c12.76-2.95 25.61-5.51 38.54-7.56 1.3-.21 2.06-1.31 1.9-2.63-.14-1.11-1.23-2.65-2.54-2.44-13.31 2.11-26.52 4.78-39.57 8.13-1.2.31-1.44 1.98-1.07 2.96.43 1.19 1.52 1.82 2.74 1.54z"/><path d="m313.62 192.42c.28 9.06 1.04 18.09 2.28 27.07.44-.84.89-1.68 1.33-2.53-4.37 1.34-8.74 2.69-13.11 4.05-4.26 1.32-8.67 2.43-12.84 4.02-1.59.61-3.12 1.52-3.98 3.04-1.16 2.04-.7 4.33-.34 6.52.72 4.38 1.53 8.75 2.41 13.1 1.01 4.98 2.14 9.95 3.36 14.88.27 1.08 1.16 2.77 2.59 2.49 9.38-1.83 18.79-3.54 28.21-5.13 1.33-.23 2.11-1.34 1.94-2.69-.14-1.13-1.26-2.73-2.6-2.5-9.42 1.6-18.83 3.32-28.21 5.16.81.6 1.61 1.2 2.42 1.8-1.96-7.92-3.63-15.92-5.04-23.96-.33-1.9-.88-3.91-.95-5.84-.04-1.28 1.31-1.72 2.35-2.08 3.87-1.37 7.87-2.46 11.79-3.68 4.61-1.43 9.21-2.87 13.81-4.31 1-.31 1.47-1.57 1.33-2.53-1.29-8.97-2.09-18-2.42-27.06-.04-1.21-1.25-2.44-2.48-2.38-1.38.06-1.88 1.38-1.85 2.56z"/><path d="m321.23 257.87c3.03 11.9 6.63 23.64 10.81 35.18.42 1.17 1.74 2.15 3.01 1.68 1.29-.48 1.6-2.07 1.18-3.24-4.2-11.53-7.88-23.25-10.99-35.12-.3-1.16-1.74-2.04-2.88-1.61-1.32.49-1.42 1.95-1.13 3.11z"/><path d="m336.16 295.48c16.56-1.88 32.96-5.17 48.96-9.84 4.5-1.32 8.99-2.72 13.41-4.28 2.75-.97.94-5.84-1.83-4.91-15.43 5.23-31.16 9.37-47.24 12.07-4.63.78-9.28 1.44-13.94 2-2.9.34-2.08 5.26.64 4.96z"/><path d="m401.53 277.09c-1.21-9.28-3.35-18.42-6.35-27.28-.39 1.06-.77 2.13-1.16 3.19 11.55-2.82 23.06-5.83 34.5-9.05-1-.56-2-1.12-3-1.68 2.51 6.68 4.39 13.55 5.61 20.58.22 1.26 1.19 2.56 2.59 2.49 1.31-.06 2.15-1.45 1.94-2.68-1.31-7.48-3.3-14.84-5.98-21.94-.47-1.24-1.68-2.05-3-1.68-11.44 3.23-22.94 6.26-34.49 9.1-1.33.33-1.51 2.16-1.16 3.19 2.87 8.43 4.93 17.11 6.19 25.93.17 1.19 1.15 2.42 2.46 2.36 1.3-.06 2.01-1.37 1.85-2.53z"/><path d="m435.3 265.33c15.75-5.85 31.16-12.55 46.22-20.02 1.2-.6 1.63-1.95 1.16-3.2-.39-1.04-1.76-2.26-2.97-1.66-15.04 7.48-30.46 14.2-46.15 20.21-2.59 1-.87 5.64 1.74 4.67z"/><path d="m331.8 293.68c.68 6.36 1.63 12.7 2.88 18.97 1.26 6.3 2.6 12.75 4.68 18.84.4 1.17 1.74 2.13 2.98 1.67 1.37-.51 1.47-2.02 1.17-3.21-1.51-5.99-3.24-11.89-4.46-17.95-1.23-6.12-2.19-12.29-2.87-18.5-.14-1.22-1.2-2.46-2.5-2.4-1.34.05-2.01 1.39-1.88 2.58z"/><path d="m342.59 331.77c4.34-.64 8.63-1.64 12.93-2.51 4.28-.87 8.55-1.76 12.83-2.64 4.23-.88 8.46-1.9 12.71-2.63.58-.1.82.08.29-.54-.75-.86-.24-.37-.32-.07-.05.19.12.84.14.99.15 1.07.31 2.14.46 3.21.32 2.22.64 4.44.95 6.66.71 4.93 1.41 9.87 2.12 14.8.64-.89 1.29-1.78 1.93-2.67-8.98 1.59-17.91 3.43-26.77 5.56-2.23.53-4.45 1.09-6.67 1.66-2.05.53-4.21.97-4.83 3.32-.54 2.07.33 4.55.74 6.6.44 2.2.92 4.4 1.43 6.58 1.16 5 2.47 9.96 3.94 14.87.36 1.2 1.8 2.15 3.02 1.69 1.35-.5 1.54-2.06 1.18-3.26-2.28-7.62-4.16-15.34-5.63-23.15-.05-.27-.06-1.16-.24-1.35-.19-.19.39-.26-.22.13-.7.45.09.15.12.14.92-.13 1.88-.51 2.79-.75 2.06-.53 4.12-1.04 6.19-1.53 3.98-.95 7.96-1.86 11.96-2.71 4.52-.96 9.07-1.84 13.62-2.65 1.3-.23 2.13-1.3 1.93-2.67-.69-4.77-1.38-9.54-2.07-14.31-.35-2.38-.69-4.77-1.04-7.15-.31-2.13-.26-4.99-1.5-6.83-1.53-2.25-3.95-1.72-6.21-1.24-2.34.49-4.67.98-7.01 1.47-4.67.98-9.35 1.95-14.02 2.93-5.3 1.12-10.66 2.1-15.89 3.51-2.26.6-1.1 4.88 1.14 4.54z"/><path d="m358.28 385.62c2.56.66 5.16.38 7.78.25 2.59-.13 5.17-.31 7.76-.53 5.16-.44 10.32-1.01 15.45-1.71 10.3-1.4 20.53-3.35 30.65-5.77.97-.23 1.53-1.65 1.33-2.54-1.73-8.11-3.03-16.3-3.89-24.55-.45.85-.89 1.7-1.34 2.54 11.68-3.6 23.37-7.2 35.05-10.79-1-.56-2-1.12-3-1.68 2.71 5.81 4.61 11.92 5.61 18.26.2 1.25 1.2 2.54 2.58 2.48 1.32-.06 2.12-1.44 1.93-2.67-1.07-6.78-3.04-13.4-5.95-19.62-.55-1.18-1.62-2.1-3-1.68-11.68 3.6-23.37 7.2-35.05 10.8-1.04.32-1.44 1.58-1.34 2.54.86 8.25 2.15 16.44 3.89 24.55.45-.85.89-1.69 1.34-2.54-9.89 2.38-19.88 4.26-29.95 5.66-4.97.69-9.96 1.26-14.96 1.7-2.58.23-5.16.44-7.74.63s-5.18.13-7.64 1.02c-1.69.61-1.01 3.26.49 3.65z"/><path d="m458.17 363.36c18.88-8.98 37.7-18.09 56.53-27.17 1.21-.59 1.63-1.97 1.17-3.21-.39-1.06-1.76-2.26-2.98-1.67-18.83 9.1-37.67 18.18-56.45 27.38-1.16.57-1.56 1.88-1.12 3.07.37 1.02 1.67 2.16 2.85 1.6z"/><path d="m355.07 384.96c2.49 7.87 4.61 15.85 6.36 23.91.63-.88 1.27-1.75 1.9-2.63-4.94.74-9.87 1.47-14.81 2.22-2.3.35-4.62.64-6.9 1.08-1.87.36-3.72.96-4.98 2.48-1.51 1.81-1.26 4.15-.93 6.32.36 2.34.79 4.66 1.29 6.98 1.02 4.7 2.31 9.33 3.87 13.88.4 1.17 1.74 2.13 2.98 1.67 1.29-.48 1.56-2.04 1.17-3.21-1.36-3.96-2.52-7.98-3.43-12.06-.44-2-.83-4.01-1.17-6.04-.15-.92-.32-1.83-.42-2.76-.07-.62-.13-.91.34-1.31.99-.84 2.66-.94 3.89-1.13 2.14-.33 4.28-.65 6.41-.98 4.44-.68 8.88-1.38 13.32-2.07 1.22-.19 2.19-1.32 1.9-2.63-1.89-8.5-4.2-16.89-6.92-25.17-.36-1.1-1.64-1.99-2.79-1.56-1.22.46-1.43 1.91-1.08 3.01z"/><path d="m343.71 441.38c5.03-.21 10.05-.6 15.05-1.21 5-.6 10.1-1.26 15-2.47 2.48-.61 1.21-5.33-1.22-4.95-4.9.77-9.74 1.75-14.67 2.36-4.92.61-9.85 1.02-14.8 1.24-2.96.14-2.13 5.14.64 5.03z"/><path d="m370.37 436.41c1.64 10.63 1.69 21.41.2 32.06-.41 2.95 4.02 4.48 4.49 1.13 1.56-11.07 1.43-22.34-.34-33.38-.19-1.21-1.16-2.46-2.49-2.39-1.28.06-2.05 1.4-1.86 2.58z"/><path d="m185.91 215.01c14.22-1.31 28.44-2.68 42.66-4.07-.85-.82-1.7-1.64-2.56-2.45.86 5.06 1.72 10.12 2.58 15.18.38 2.25.52 4.81 1.46 6.91 1.02 2.3 2.93 3.55 5.43 3.67 2.41.12 4.9-.21 7.31-.34 2.55-.14 5.11-.28 7.66-.42 5.19-.28 10.38-.56 15.56-.85 1.02-.06 1.92-.99 1.96-2.02.31-8.27.61-16.55.91-24.82-.45.64-.91 1.27-1.36 1.91 16.02-4.27 31.95-8.87 47.78-13.8 2.81-.87.98-5.84-1.85-4.96-15.83 4.92-31.76 9.52-47.78 13.8-.77.2-1.34 1.16-1.36 1.91-.3 8.27-.61 16.55-.91 24.82.65-.67 1.3-1.35 1.96-2.02-9.3.52-18.61 1.05-27.91 1.57-.83.05-1.98.31-2.8.06-.55-.17-.57-.27-.72-.85-.52-1.9-.71-4.02-1.05-5.98-.8-4.65-1.6-9.3-2.4-13.95-.2-1.18-1.18-2.59-2.56-2.45-14.21 1.41-28.42 2.85-42.62 4.34-2.84.29-2.05 5.06.61 4.81z"/><path d="m183.13 211.9c-1.04 10.34-1.39 20.72-1.09 31.1.63-.88 1.27-1.75 1.9-2.63-7.16-.15-14.32.39-21.38 1.66-1.05.19-1.85.89-1.94 2.01-.33 4.21-.48 8.44-.43 12.66.02 2.17.08 4.34.19 6.51.1 1.86.11 3.79.45 5.62.36 1.93 1.26 3.67 3.05 4.63 1.7.92 3.92.96 5.79 1.16 4.17.46 8.35.62 12.54.46-.87-.83-1.73-1.66-2.6-2.49.39 12.06.77 24.12 1.16 36.18.04 1.27 1.32 2.56 2.6 2.5 1.46-.07 1.98-1.45 1.94-2.69-.39-12.06-.78-24.12-1.17-36.18-.04-1.27-1.32-2.54-2.6-2.49-3.51.14-7.02.07-10.52-.25-1.64-.15-3.33-.3-4.94-.65-.59-.13-.63-.06-.79-.54-.16-.52-.12-1.27-.17-1.81-.56-7.16-.53-14.33.02-21.49-.65.67-1.29 1.34-1.94 2.01 7.06-1.27 14.2-1.87 21.37-1.75 1.41.02 1.94-1.49 1.9-2.63-.33-9.96-.01-19.92.92-29.84.11-1.22-.64-2.6-1.88-2.9-1.21-.3-2.26.65-2.38 1.84z"/><path d="m183.37 313.38c17.68-1.98 35.4-3.5 53.17-4.28-.85-.82-1.71-1.64-2.56-2.46.33 7.95.65 15.91.98 23.86.06 1.4 1.31 2.35 2.58 2.47 8.72.89 17.5 1.07 26.25.52 2.12-.13 4.25-.31 6.36-.53 1.86-.19 3.93-.3 5.45-1.54 1.49-1.21 2.05-3.17 2.24-5.01.21-2.02.26-4.06.38-6.08.3-5 .6-10 .9-15-.65.67-1.3 1.35-1.95 2.02 20.02-2.89 39.91-6.65 59.6-11.27 1.33-.31 1.58-2.2 1.18-3.26-.49-1.31-1.68-2.01-3.02-1.69-19.3 4.53-38.79 8.2-58.41 11.03-1.04.15-1.89.92-1.95 2.02-.32 5.25-.63 10.49-.95 15.74-.08 1.31-.16 2.62-.24 3.94-.05.87.01 1.95-.38 2.75-.31.65-.87.81-1.55.94-1.12.21-2.29.27-3.42.37-10.36.99-20.79.94-31.15-.09.86.82 1.72 1.65 2.58 2.47-.34-7.95-.67-15.9-1.01-23.86-.05-1.25-1.3-2.52-2.56-2.46-17.76.81-35.5 2.26-53.13 4.62-2.79.38-2.02 5.08.61 4.78z"/><path d="m181.21 313.76c4.38 11.76 8.74 23.53 13.14 35.29.45 1.21 1.69 2.08 2.99 1.68 6.37-2.01 12.97-2.98 19.65-2.96-.81-.6-1.61-1.2-2.42-1.8 2.59 8.02 5.43 15.95 8.51 23.79.4-1.09.79-2.18 1.19-3.26-4.13 1.07-8.25 2.15-12.38 3.22-2.06.54-4.13 1.07-6.19 1.61-1.75.46-4.23.66-5.5 2.1-1.64 1.86-.63 4.24.06 6.27s1.39 4.06 2.08 6.08c1.42 4.13 2.83 8.27 4.25 12.4.41 1.19 1.77 2.17 3.03 1.7 1.32-.49 1.59-2.08 1.19-3.27-1.2-3.51-2.39-7.02-3.59-10.54-.59-1.72-1.17-3.43-1.76-5.15-.29-.86-.59-1.72-.88-2.58-.26-.77-.67-1.58-.69-2.39-.05.43-.09.87-.14 1.3-.06.24-.33.09.15.01.5-.08 1.01-.27 1.51-.4l2.85-.75c1.98-.52 3.97-1.04 5.95-1.56 3.97-1.04 7.93-2.08 11.9-3.12 1.31-.34 1.6-2.21 1.19-3.26-3.09-7.84-5.93-15.77-8.53-23.78-.33-1.03-1.35-1.8-2.42-1.8-7.06-.01-14.09 1.09-20.82 3.22 1 .56 2 1.12 2.99 1.68-4.42-11.75-8.87-23.48-13.31-35.22-.42-1.11-1.65-2.06-2.87-1.61-1.22.46-1.54 1.98-1.13 3.1z"/><path d="m210.99 399.26c15.45.03 30.91.03 46.36.02-.79-.59-1.58-1.18-2.38-1.77 1.21 3.97 2.55 7.9 4.02 11.78.73 1.94 1.5 3.87 2.3 5.78.74 1.77 1.4 3.78 2.56 5.33 2.65 3.53 7.12 2.74 11 2.62 4.38-.14 8.77-.28 13.15-.42 4.88-.16 9.76-.32 14.64-.48 1.29-.04 2.18-1.47 1.94-2.68-1.32-6.61-2.64-13.21-3.96-19.82-.45.85-.9 1.71-1.35 2.56 20.39-4.41 40.66-9.35 60.79-14.83 2.81-.77 1-5.71-1.84-4.94-20.13 5.48-40.4 10.42-60.79 14.83-.99.21-1.53 1.68-1.35 2.56 1.32 6.61 2.64 13.21 3.96 19.82.65-.89 1.29-1.79 1.94-2.68-10.26.33-20.51.66-30.77 1.01-1.54.05-3.46.49-4.32-1.08-1.18-2.15-2-4.62-2.9-6.9-1.82-4.6-3.45-9.27-4.91-14-.31-1-1.33-1.77-2.38-1.77-15.44.04-30.89.1-46.33.19-2.87.02-2.06 4.87.62 4.87z"/><path d="m206 398.21c2.34 4.64 4.68 9.28 7.03 13.92 1.18 2.34 2.38 4.68 3.57 7.01.6 1.18 1.2 2.36 1.8 3.53.41.81 1.38 2.07 1.41 2.96.04-.42.09-.84.13-1.26-.21.6-1.23 1.2-1.72 1.59-.76.6-1.57 1.16-2.41 1.63-1.69.93-3.49 1.5-5.35 1.98-2.48.65-1.21 5.43 1.23 4.98 3.54-.66 6.91-2.27 9.69-4.57 1.53-1.26 3.2-2.74 2.87-4.93-.17-1.13-.83-2.15-1.35-3.15-.49-.95-.98-1.91-1.47-2.86-3.92-7.63-7.87-15.25-11.82-22.87-1.26-2.41-4.8-.33-3.61 2.04z"/><path d="m239.79 451.66c2.01-1.19 4.03-2.37 6.04-3.56.5-.3 1.01-.59 1.51-.89.05-.03.52-.24.53-.31-.25-.07-.5-.15-.76-.22.09.11.19.21.28.32.62.98 1.65 1.87 2.42 2.74 3.08 3.48 6.06 7.08 9.27 10.43 2.03 2.11 4.72-1.2 3.04-3.24-3.5-4.25-7.31-8.26-10.98-12.37-.84-.94-1.73-2.29-3.02-2.62-1.43-.37-2.6.5-3.76 1.2-2.44 1.46-4.88 2.93-7.32 4.39-1.1.66-.92 2.49-.32 3.4.74 1.1 1.96 1.38 3.07.73z"/><path d="m119.93 291.45c5.69 3.11 11.35 6.29 17.12 9.25 1.32.68 2.91.92 3.9-.46.85-1.2.92-3.13 1.22-4.54.7-3.23 1.4-6.46 2.1-9.69-.83.64-1.67 1.28-2.5 1.92 4.84.65 9.68 1.29 14.52 1.94-.67-1.03-1.33-2.05-2-3.08-.05 4.01.08 8.01.43 12 .33 3.7.86 7.43 4.86 8.76 1.69.56 3.51.82 5.25 1.19 1.93.42 3.86.83 5.8 1.25 4.02.87 8.05 1.73 12.07 2.6 3.18.68 3.36-4.51.54-5.11-6.92-1.47-13.85-2.95-20.77-4.42-.74-.16-2.32-.24-2.76-.88-.22-.33-.2-1.03-.25-1.42-.09-.8-.17-1.6-.24-2.4-.31-3.47-.45-6.95-.42-10.44.01-1.19-.58-2.89-2-3.08-4.84-.63-9.68-1.26-14.52-1.89-1.4-.18-2.22.58-2.5 1.92-.47 2.18-.93 4.36-1.4 6.55-.22 1.05-.45 2.1-.67 3.15-.19.9-.27 1.97-.66 2.8.22-.32.45-.64.67-.96.01-.02.03-.03.04-.05.38-.02.77-.04 1.15-.06-.58-.13-1.23-.62-1.78-.9-.72-.38-1.45-.77-2.17-1.15-1.52-.81-3.04-1.61-4.56-2.42-2.97-1.57-5.96-3.11-8.94-4.66-2.75-1.43-3.89 2.99-1.53 4.28z"/><path d="m121.8 211.62c4.84.68 9.69 1.35 14.53 2.03 2.35.33 4.59.61 6.24-1.46 1.25-1.57 1.77-3.76 2.45-5.6.82-2.21 1.63-4.43 2.45-6.64.44-1.18.82-2.39 1.31-3.55.3-.7.48-.7 1.28-.74 4.93-.27 9.87-.37 14.8-.55-.87-1.05-1.73-2.1-2.6-3.16-1.36 6.05-1.83 12.22-1.55 18.41.05 1.06.98 2.19 2.01 2.44 6.14 1.51 12.42 2.4 18.73 2.71 1.37.07 2.11-1.56 1.96-2.72-.17-1.38-1.24-2.45-2.62-2.52-5.92-.28-11.78-1.15-17.54-2.55.67.81 1.34 1.63 2.01 2.44-.27-5.73.29-11.47 1.54-17.07.33-1.48-1.11-3.22-2.6-3.16-4.77.19-9.54.37-14.31.56-2.48.1-4.18.83-5.21 3.19-.91 2.08-1.59 4.29-2.37 6.42-.81 2.22-1.63 4.43-2.44 6.65-.19.52-.43 1.67-.96 2.02-.55.36-1.73-.01-2.32-.09-4.77-.64-9.53-1.27-14.3-1.91-3.03-.41-3.2 4.47-.49 4.85z"/><path d="m154.38 138.39c1.98.6 3.96 1.2 5.94 1.8 1.75.53 3.84 1.55 5.69 1.5 2.09-.05 3-1.58 3.9-3.22.82-1.51 1.73-2.97 2.72-4.37s2.07-2.74 3.21-4.02c.95-1.06 1.8-2.33 3.34-2.17 1.9.19 3.82.66 5.7.98l3.12.54c.71.12 2 .14 2.59.54-.31-.3-.63-.59-.94-.89-.64-.87-.03-1.09-.29-.38-.16.45-.23.98-.34 1.44-.21.88-.42 1.76-.63 2.64-.44 1.84-.88 3.68-1.32 5.51-.4 1.69.46 3.8 2.46 3.79 5.49-.05 10.98-.09 16.48-.14 3.08-.03 2.22-5.25-.66-5.22-5.49.06-10.98.12-16.47.17.82 1.26 1.64 2.52 2.46 3.79.49-2.08.99-4.16 1.48-6.24.45-1.89 1.37-4.1 1.17-6.06-.24-2.45-2.07-3.41-4.26-3.78-2.08-.35-4.15-.71-6.23-1.06-1.87-.32-3.97-.96-5.87-.77-2.07.2-3.38 1.65-4.71 3.09-2.54 2.73-4.73 5.76-6.51 9.04-.23.42-.43.85-.67 1.27-.08.14-.16.36-.28.47-.39.34.26 0-.14.01-.49.01-1.14-.33-1.61-.47-.55-.16-1.11-.33-1.66-.49-2.38-.7-4.75-1.41-7.13-2.11-1.23-.36-2.3.71-2.43 1.87-.17 1.28.64 2.56 1.89 2.94z"/><path d="m217.21 73.28c7.24 2.01 14.49 4.01 21.74 5.99-.53-1.41-1.05-2.83-1.58-4.24-9.14 15.8-17.51 32.04-25.06 48.65-2.16 4.75-4.29 9.53-6.28 14.36-1.11 2.69 2.95 5.48 4.28 2.39 7.09-16.48 14.67-32.69 23.21-48.47 2.45-4.53 4.96-9.01 7.54-13.47.89-1.54.25-3.75-1.58-4.24-7.25-1.97-14.5-3.9-21.76-5.83-2.99-.8-3.14 4.13-.51 4.86z"/><path d="m388.21 92.51c10.4-2.97 20.81-5.94 31.21-8.92 1.2-.34 2.4-.69 3.6-1.03 1.21-.35 2.63-1 3.89-1.08.82-.06 1.28.64 1.81 1.2.96 1 1.91 2 2.86 3 1.8 1.88 3.59 3.76 5.39 5.64 1.69 1.77 3.32 3.74 6 3.68 1.36-.03 2.75-.55 4.06-.91 1.41-.39 2.82-.77 4.22-1.16 2.89-.79 5.79-1.59 8.68-2.38 1.69-.47 1.52-2.75.86-3.89-2.42-4.21-4.85-8.41-7.27-12.61-.29 1.3-.58 2.59-.86 3.89l12.36-4.02c2.79-.91.97-5.86-1.84-4.95-4.12 1.34-8.24 2.68-12.36 4.02-1.66.54-1.55 2.69-.86 3.89 2.42 4.2 4.84 8.41 7.27 12.61.29-1.3.58-2.59.86-3.89-2.5.69-5 1.39-7.5 2.08s-5.01 1.55-7.54 2.09c-.93.2-1.17.04-1.8-.59-.95-.94-1.86-1.93-2.78-2.9-1.86-1.93-3.71-3.87-5.57-5.8-1.59-1.66-3.16-3.73-5.59-4.04-1.27-.16-2.48.24-3.68.59-1.36.4-2.72.79-4.07 1.19-5.19 1.51-10.39 3.02-15.58 4.54-5.83 1.71-11.66 3.42-17.48 5.12-2.66.76-.94 5.39 1.71 4.63z"/><path d="m205.51 138.99c-1.09 2.9-1.79 5.95-2.06 9.03-.12 1.41.93 3.16 2.52 3.06 2.87-.18 5.74-.27 8.62-.28h2.22c.38 0 1.68.24 1.97.03h.2c-.18-.23-.36-.47-.53-.7-.12.07.15-.23-.05.18-.24.48-.2 1.45-.28 1.99-.84 5.73-1.68 11.45-2.52 17.18.65-.67 1.3-1.35 1.95-2.02-4.17.54-8.34 1.08-12.51 1.62-1.98.26-4.17.3-6.09.87-2.01.6-2.66 2.32-3.32 4.13-2.81 7.69-5.37 15.47-7.69 23.32-1.34 4.54-2.59 9.11-3.77 13.7-.34 1.31.04 2.81 1.31 3.51 1.06.59 2.65.18 2.98-1.11 2.48-9.64 5.31-19.18 8.51-28.6.78-2.28 1.57-4.55 2.39-6.82.22-.6.44-1.21.66-1.81.13-.37.24-.98.49-1.29-.28.16-.24.17.13 0 .13-.05.26-.07.4-.07.64-.13 1.31-.17 1.96-.26 5.07-.67 10.14-1.34 15.21-2.01 1.12-.15 1.79-.93 1.95-2.02.5-3.44.99-6.87 1.49-10.31.25-1.72.5-3.44.74-5.16.23-1.61.62-3.26.54-4.89-.08-1.54-.77-3.12-2.14-3.93-1.42-.84-3.28-.63-4.87-.64-3.53-.02-7.06.13-10.58.38.84 1.02 1.68 2.04 2.52 3.06.21-2.71.77-5.31 1.71-7.87.94-2.58-2.94-5.26-4.06-2.27z"/><path d="m219.78 172.61c24.72-3.6 49.31-8.32 73.84-13.02 7-1.34 14.13-2.43 21.04-4.14 2.45-.61 1.19-5.23-1.2-4.87-6.21.92-12.37 2.38-18.53 3.56-6.02 1.15-12.04 2.29-18.06 3.41-12.29 2.29-24.59 4.53-36.9 6.7-6.93 1.22-13.86 2.47-20.78 3.79-1.17.22-1.87 1.16-1.71 2.37.14 1.02 1.11 2.37 2.3 2.2z"/><path d="m373.58 242.02 7.21.58 9.77-51.53-9.43 1.89-6.39 31.63-16.7-26-10.25 6.32z" fill="#e9e7c4"/><path d="m391.24 238.55 6.24-2.82 12.58-50.04-11.32 2.24-7.58 31.1-16.95-23.55-8.81 4.4z" fill="#e9e7c4"/><path d="m250.1 369.69c13.36-13.1 31.5-23.68 50.88-20.27 5.16.91 10.02 2.77 14.38 5.69 1.09.73 2.54.05 2.96-1.1.49-1.33-.17-2.73-1.29-3.48-8.32-5.53-18.64-7.55-28.52-6.61-10.13.97-19.65 5.03-28.03 10.69-4.73 3.2-9.06 6.96-13.09 11-.91.91-1.04 2.27-.31 3.36.59.89 2.1 1.63 3.02.72z"/><path d="m275.83 347.55c-2.4 2.57-3.15 6.4-2.46 9.78.65 3.2 2.31 6.47 5.23 8.15 3.07 1.76 7.16 1.85 10.41.58 3.64-1.41 6.14-4.47 6.93-8.27.82-3.95-.51-8.49-3.64-11.12-.92-.78-2.44-.98-3.18.18-.7 1.09-.53 2.77.5 3.63.25.21.48.44.71.66.43.41-.17-.31.01.01.08.14.2.26.29.39.17.25.39.54.5.82-.21-.59-.12-.24-.07-.1.08.21.17.42.25.63.05.15.1.31.15.46.16.48 0-.07-.02-.11.14.22.13.69.16.96.02.15.04 1.17.05.51-.01.36-.03.72-.07 1.08-.02.16-.04.32-.07.48 0 .01-.15.63-.05.27.1-.37-.08.25-.08.26-.04.12-.08.25-.12.37-.11.31-.24.61-.38.9.21-.44.02-.04-.05.06-.12.19-.24.39-.37.57-.18.25-.37.48-.57.71-.26.29.39-.34-.1.09-.1.09-.2.19-.3.28-.26.22-.53.43-.81.63-.17.12-.34.23-.52.33.34-.21-.09.04-.2.1-2.45 1.2-4.73 1.34-7.32.39.42.15-.33-.16-.42-.22-.09-.05-.17-.1-.26-.15-.47-.3-.01.01 0 .01-.03.02-.55-.48-.59-.53-.08-.08-.15-.16-.22-.23-.37-.37.27.39-.01-.02-.17-.23-.34-.46-.49-.7-.08-.12-.15-.25-.23-.37-.1-.16-.36-.42.01.06-.34-.43-.51-1.18-.67-1.69-.05-.17-.3-.63-.03-.07-.07-.14-.09-.4-.11-.55-.07-.37-.11-.75-.14-1.12-.01-.13-.01-.25-.02-.38.03.59 0 .01.01-.13.02-.38.05-.76.11-1.13.02-.13.04-.25.07-.38.05-.26.05-.25-.01.03.02-.09.05-.19.08-.28.12-.33.22-.67.37-1 .03-.06.33-.6.09-.19.1-.17.2-.34.31-.51.23-.34.48-.66.75-.96.81-.92.35-2.6-.46-3.35-.97-.88-2.12-.71-2.95.18z"/><path d="m240.03 256.99c-6.2-6.1-18.39-8.36-23.52.24-2.47 4.14-2.41 9.29.57 13.18 2.89 3.78 7.28 5.68 11 8.49 4.35 3.29 8.39 7.06 13.05 9.91 1.1.67 2.49.08 2.91-1.08.47-1.27-.15-2.74-1.28-3.43-3.42-2.08-6.45-4.73-9.58-7.21-1.66-1.32-3.34-2.62-5.08-3.81-1.61-1.1-3.34-2.01-4.92-3.16-2.66-1.93-4.83-4.55-3.79-7.96.97-3.16 3.79-5.5 7.1-5.72 3.89-.26 8.23 1.38 11.05 4.07.84.8 2.23.82 2.93-.17.75-1.03.42-2.51-.44-3.35z"/><path d="m240.36 260.22c2.05-2.84 4.37-5.96 7.73-7.31 2.7-1.08 6.34-1.1 7.97 1.71 1.48 2.55.83 5.74-.35 8.26-1.61 3.44-4.33 6.37-6.6 9.38-2.98 3.93-5.82 7.96-8.54 12.07-1.49 2.24 1.84 5.84 3.52 3.3 2.81-4.24 5.75-8.4 8.83-12.45 2.72-3.59 5.83-7.08 7.37-11.39 1.37-3.82 1.24-8.26-.92-11.77-2.34-3.82-6.87-5.19-11.09-4.16-4.96 1.2-8.31 5.4-11.05 9.42-1.36 1.97 1.53 5.16 3.13 2.94z"/><path d="m420.57 308.38c-2.76.81-5.77-1.51-4.85-4.39 1-3.14 5.02-3.47 7.02-1.14.9 1.05 2.92.71 3.27-.68.78-3.05 2-6.63 4.9-8.31 1.84-1.07 4.93-1.23 6.18.65.95 1.44 3.07 1.53 3.73-.21.94-2.43 2.01-5.48 4.4-6.87.81-.47 1.84-.69 2.77-.6.98.09 1.5.42 1.89 1.1.7 1.2 2.66 1.63 3.5.32.75-1.18 1.83-3.07 3.33-3.41 1.3-.29 1.94 1.07 2.1 2.13.46 3.23-1.81 6.34-4.77 7.42-1.25.45-1.57 2.04-1.15 3.17 1.07 2.88-1.31 5.67-3.91 6.62-1.51.55-3.15.68-4.73.46-2.08-.29-3.9-.23-5.17 1.71-.91 1.37-1.55 2.83-2.75 4.01-1.1 1.08-2.4 1.94-3.89 2.37-2.21.64-5.47-.01-6.52-2.24-.51-1.09-1.61-2.12-2.92-1.63-1.19.44-1.62 2.04-1.14 3.14 1.32 3.03 4.02 5.23 7.3 5.83 3.29.6 6.56-.39 9.15-2.48 1.26-1.02 2.38-2.28 3.25-3.64.38-.59.7-1.65 1.23-2.12.23-.2.99 0 1.53.07 3.48.42 7.32-.29 9.96-2.74 2.97-2.75 4.12-7.05 2.7-10.86-.38 1.06-.77 2.11-1.15 3.17 5.54-2.03 8.72-8.44 6.99-14.08-.86-2.81-3.28-5.44-6.42-5.31-3.01.12-5.12 2.76-6.59 5.09 1.17.11 2.33.21 3.5.32-1.89-3.24-6.23-4.15-9.54-2.67-3.83 1.71-5.62 5.79-7.02 9.48 1.24-.07 2.49-.14 3.73-.21-2.35-3.55-7.17-4.58-10.98-2.83-4.29 1.98-6.41 6.59-7.5 10.93 1.09-.23 2.18-.46 3.27-.68-1.92-2.22-5.04-3.19-7.88-2.6-2.91.6-5.1 2.91-5.82 5.77-1.59 6.3 4.2 12.32 10.55 10.14 2.36-.84.82-4.9-1.55-4.2z"/><path d="m452.05 280.28c-2.25-3.68-5.02-7.47-9.29-8.89-3.63-1.21-8.05-.3-10.15 3.1-.41.67-.75 1.71-1.45 2.13-.71.42-1.83.14-2.6.03-2.11-.29-4.07-.28-6.15.28-3.95 1.07-7.09 3.91-8.87 7.54.57-.44 1.15-.89 1.72-1.33-4.57.5-9.58 2.21-12.13 6.33-2.49 4.03-2.32 9.23.92 12.77.14-1.39.27-2.79.41-4.18-5.63 3.1-7.76 10.46-4.62 16.11 3.08 5.55 10.44 7.32 15.82 4.24-.92-1.39-1.85-2.78-2.77-4.18-2.16 2.13-1.43 5.29.58 7.29 1.58 1.57 3.98 2.27 6.17 2.21 4.5-.12 8.42-3.22 9.4-7.59.53-2.36-3.32-4.41-4.18-1.68-.67 2.1-2.35 3.58-4.51 4.1-.96.23-1.99.25-2.95-.03-.46-.14-.79-.36-1.21-.58-.65-.34.26-.32-.53.46 1.94-1.93-.18-5.67-2.77-4.18-3.04 1.75-7.77.63-9.49-2.46-1.6-2.87-.2-7.34 2.82-9 1.66-.91 1.61-2.87.41-4.18-2.32-2.54.04-6.52 2.33-8.16 1.56-1.12 3.51-1.79 5.39-2.12 1.4-.25 2.51-.14 3.27-1.54.42-.78.92-1.53 1.53-2.18 1.28-1.35 2.91-2.29 4.67-2.82 1.84-.56 3.58-.32 5.44-.1 2.51.28 4.72-.29 6.13-2.53.94-1.5 1.56-2.8 3.43-3.2 4.69-1.01 7.77 3.6 9.88 7 .62.99 2.04 1.48 3.02.72 1.05-.84.95-2.36.33-3.38z"/><path d="m442.37 307.82c-4.61 2.62-6.3 8.31-4.89 13.22.36-.99.72-1.98 1.08-2.96-3.54 1.93-6.89 4.81-6.46 9.27.44 4.5 4.75 6.63 8.89 6.15 7.24-.84 12.74-8 11.75-15.2-.61.84-1.22 1.68-1.82 2.52 3.15.28 6.19-1.3 8.15-3.71 1.04-1.28 1.71-2.89 1.96-4.52.07-.46.01-1.28.22-1.55.36-.47 1.45-.75 1.93-1.06 2.78-1.81 3.96-5.37 3.82-8.55-.16-3.73-2.23-7.02-4.68-9.69-.82-.9-2.36-.81-3.06.17-.79 1.12-.37 2.57.48 3.49 1.59 1.72 3.07 4.01 2.91 6.46-.07 1.02-.39 2.02-1 2.85-.7.95-1.65 1.32-2.63 1.89-1.35.79-1.98 2.05-2.18 3.58-.15 1.14-.21 2.1-.87 3.09-1.28 1.91-3.41 2.88-5.68 2.68-1.27-.11-1.96 1.5-1.82 2.52.61 4.42-2.7 8.62-6.82 9.92-1.29.4-4.8.92-5.31-.87-.67-2.37 2.76-4.31 4.36-5.22.89-.5.84-1.89.6-2.69-.94-3.13.86-6.49 3.5-8.14 2.06-1.28-.21-4.91-2.43-3.65z"/><path d="m400.18 440.58c2.34-21.42 16.03-40.49 35.76-49.23 5.47-2.42 11.25-4.06 17.19-4.79 2.97-.37 2.13-5.4-.64-5.05-11.31 1.42-22.15 5.78-31.25 12.66-9.05 6.84-16.08 16.1-20.45 26.56-2.5 5.99-4.04 12.39-4.61 18.85-.1 1.15.59 2.43 1.76 2.72 1.15.28 2.11-.61 2.24-1.72z"/><path d="m400.26 444.47c12.3.77 24.67-2.99 34.66-10.18 9.95-7.16 17.09-17.93 20.17-29.77 1.76-6.77 2.52-14.16 1.36-21.1-.21-1.24-1.18-2.53-2.56-2.46-1.38.06-2.03 1.43-1.92 2.65.54 5.8.46 11.49-.83 17.2-1.23 5.43-3.37 10.69-6.31 15.42-6.06 9.74-15.44 17.01-26.28 20.72-6.07 2.08-12.49 3-18.9 2.72-1.26-.06-1.93 1.43-1.8 2.49.16 1.28 1.14 2.23 2.41 2.31z"/><path d="m401.41 440.98c14.46-12.78 28.37-26.15 41.74-40.07 3.82-3.97 7.68-7.94 11.32-12.07.79-.9.42-2.53-.28-3.33-.65-.74-2.09-1.39-2.94-.5-6.65 6.94-13.15 14.01-19.92 20.83s-13.69 13.5-20.69 20.07c-3.94 3.7-7.92 7.35-11.94 10.96-2.01 1.8.55 6.02 2.71 4.11z"/><path d="m429.34 392.43c-.54 2.51-.96 5.05-1.24 7.6-.14 1.25-.24 2.51-.31 3.77-.09 1.52-.42 3.52.57 4.81.57.74 1.85 1.5 2.71.64.7-.7.9-1.45.97-2.4.05-.65.04-1.31.07-1.96.06-1.26.15-2.52.28-3.78.26-2.56.65-5.1 1.17-7.62.24-1.18-.72-2.59-1.86-2.87-1.31-.32-2.11.67-2.36 1.81z"/><path d="m412.23 408.14c-.39 2.66-.62 5.34-.66 8.02-.02 1.43 0 2.85.06 4.28.06 1.35.09 2.78.39 4.09.26 1.16 1.07 2.39 2.42 2.33 1.38-.06 1.83-1.35 1.81-2.51-.02-1.31-.23-2.63-.32-3.94-.08-1.16-.12-2.37-.12-3.48 0-2.59.18-5.18.51-7.76.15-1.17-.64-2.5-1.81-2.78-1.2-.3-2.11.63-2.28 1.75z"/><path d="m416.04 429.48c3.17.97 6.42 1.67 9.71 2.05 1.72.2 3.44.36 5.17.41 1.66.05 3.54.19 5.15-.26 2.16-.61 1.35-4.37-.61-4.68-1.68-.27-3.47-.02-5.18-.06-1.46-.04-2.93-.11-4.38-.26-3.17-.34-6.31-.99-9.37-1.88-1.19-.35-2.24.68-2.36 1.81-.14 1.26.66 2.5 1.87 2.87z"/><path d="m432.39 412.45c2.15.82 4.33 1.55 6.56 2.15 2.2.59 4.46 1.18 6.72 1.48 1.23.16 2.37-.57 2.46-1.89.09-1.23-.63-2.72-1.94-3-2.25-.47-4.5-.85-6.73-1.42-2.21-.57-4.41-1.21-6.58-1.94-1.13-.38-2.25.7-2.32 1.78-.1 1.33.62 2.38 1.83 2.84z"/><path d="m133.18 333.62c2.53-2.33 5.89-5.02 9.58-4.21 3.18.69 3.44 3.35 3.83 6.07.43 3.1.94 6.53 3.52 8.64 1.69 1.38 3.74 1.75 5.88 1.75 1.67 0 3.44-.26 4.93.64 1.08.65 1.91 1.78 2.21 2.91.43 1.65-.41 3.23-.97 4.73-.71 1.88-1.25 3.86-.75 5.86.47 1.9 1.76 3.47 3.51 4.34 1.42.71 3.03.93 4.45 1.63 1.14.57 1.47 1.47 1.49 2.73.03 1.84-.69 3.59-1.21 5.32-.67 2.19-1.18 4.48-.83 6.78.37 2.45 1.53 4.61 2.67 6.77.44.83.87 1.66 1.18 2.54.1.27.18.54.25.82-.15-.6.05.41.07.56.12.96.03 2.14-.33 2.85-.7 1.4-1.98 2.02-3.52 2.48-2.82.85-.96 5.56 1.82 4.89 3.55-.85 5.97-3.63 6.54-7.2.56-3.55-.85-6.69-2.48-9.75-.88-1.66-1.9-3.45-1.78-5.39.14-2.33 1.2-4.52 1.72-6.78.94-4.08.21-8.94-3.82-11.08-1.5-.8-3.23-.99-4.72-1.76-.36-.19-.61-.28-.72-.61-.23-.73.32-1.82.56-2.47.77-2.06 1.55-4.04 1.43-6.28-.1-2-.89-4.03-2.11-5.61-1.28-1.67-2.96-2.94-4.98-3.58-2.1-.66-4.25-.17-6.39-.38-.72-.07-1.41-.31-1.84-.66-.39-.32-.55-.68-.77-1.28-.42-1.18-.59-2.85-.82-4.35-.69-4.37-2.48-8.58-7.2-9.74-5.05-1.23-9.48 1.71-12.84 5.18-.8.83-.94 2.02-.28 3.01.56.8 1.87 1.41 2.72.63z"/><path d="m139.33 235.25c-2.08 2.28-4.17 4.56-6.25 6.84-1.92 2.1-3.81 4.21-5.13 6.76-2.46 4.73-2.53 11.17 2.01 14.7 3.46 2.69 8.61 3.26 12.17.4 3.86-3.1 4.51-8.42 4.08-13.04-.26-2.82-1.05-5.56-1.53-8.35-.46-2.69-.82-5.78.49-8.31.62-1.2.55-2.64-.5-3.61-.81-.76-2.53-1.01-3.16.18-2.42 4.61-1.88 9.54-.84 14.47.78 3.67 1.85 7.75.57 11.44-1.08 3.14-4.07 4.79-7.27 3.7-1.33-.45-2.44-1.38-2.88-2.38-.88-1.98-.25-4.37.67-6.22 1.19-2.39 3.11-4.42 4.87-6.4 2.05-2.31 4.1-4.62 6.15-6.93 1.79-1.99-1.43-5.46-3.45-3.25z"/><path d="m291.17 464.26c-2.35-2.47-4.44-5.23-6.24-8.13-.89-1.44-1.72-2.92-2.44-4.45-.63-1.33-1.72-3.11-1.75-4.62-.01-.39.08-.88.53-.99-.13.03 0 0 .17.1.31.17.65.56.91.79 1.17 1.07 2.29 2.2 3.31 3.42 2.17 2.59 3.94 5.51 5.27 8.6 1.24-.7 2.48-1.4 3.72-2.1-2.32-3.41-4.26-7.02-5.77-10.86-.64-1.63-1.42-3.53-1.66-5.08-.1-.63-.17-1.2-.02-1.83.06-.25.18-.52.29-.58 1.34-.73 3.16 1.63 3.94 2.43 1.34 1.37 2.6 2.81 3.76 4.33 2.36 3.1 4.36 6.44 5.93 10.01 1.35-.5 2.7-1 4.05-1.51-1.84-4.07-3.67-8.13-5.51-12.2-.67-1.47-2.03-3.5-1.92-5.19.06-.87.77-1.87 1.66-1.23 1.25.89 2.31 2.42 3.26 3.62 1.14 1.44 2.21 2.94 3.21 4.49 2.03 3.16 3.68 6.5 4.99 10.01 1.36-.51 2.72-1.01 4.08-1.52-2.09-4.27-3.75-8.78-4.76-13.42-.47-2.16-.89-4.39-1.05-6.6-.07-1.02-.06-2.44 1.27-1.84 1.7.77 2.67 2.87 3.57 4.36 1.19 1.98 2.33 3.98 3.42 6.01 2.29 4.26 4.34 8.65 6.19 13.13.88 2.12 4 2.48 4.32-.21.19-1.57.52-4.93 2.84-4.57 2.68.41 2.94 4.04 3.18 6.1.78 6.6 2.98 12.82 7.06 18.13.75.98 2.1 1.63 3.21.76 1.02-.8 1.1-2.57.33-3.57-2.29-2.98-4-6.28-5.07-9.89-1.1-3.71-.76-7.81-2.35-11.38-1.46-3.27-5.19-6.34-8.97-5.01-3.43 1.21-4.36 5.09-4.72 8.3l4.32-.21c-1.74-4.19-3.67-8.29-5.77-12.31-1.07-2.04-2.18-4.06-3.34-6.05-1.06-1.82-2.08-3.73-3.43-5.35-2.28-2.73-6.88-5.36-9.52-1.47-1.1 1.63-1.11 3.71-.92 5.59.23 2.25.61 4.5 1.11 6.71 1.11 4.96 2.75 9.75 5.01 14.31.54 1.09 1.61 2.14 2.94 1.64 1.24-.46 1.58-2.03 1.15-3.16-2.6-6.86-6.46-13.14-11.34-18.6-1.15-1.29-2.4-2.63-4.14-3.08-1.8-.47-3.57.34-4.72 1.72-2.6 3.12-.99 7.17.46 10.38 1.97 4.37 3.94 8.74 5.91 13.1.49 1.1 1.62 2.11 2.91 1.63 1.19-.44 1.62-2.03 1.14-3.13-1.58-3.58-3.49-7.02-5.79-10.19-2.22-3.07-4.79-6.33-7.85-8.62-1.57-1.18-3.59-2.03-5.55-1.33-1.49.54-2.52 1.84-2.95 3.33-1.01 3.45.47 7.14 1.71 10.33 1.68 4.32 3.87 8.44 6.49 12.26 1.58 2.3 4.83.46 3.72-2.1-1.84-4.24-4.31-8.1-7.41-11.53-1.33-1.48-2.89-3.24-4.65-4.22-2.16-1.2-4.6-.29-5.77 1.79-1.31 2.32-.57 4.99.38 7.29.84 2.04 1.82 4.03 2.91 5.94 2.28 4.01 5.13 7.61 8.42 10.84.79.77 2.12.77 2.78-.16.7-.99.34-2.34-.45-3.16z"/><path d="m562.42 241.85c-5.22-.59-10.27 1.97-12.78 6.64-1.35 2.51-1.74 5.21-1.45 8.03.28 2.77 1.18 5.43 1.59 8.18.37 2.43.17 4.67-1.57 6.55-1.91 2.05-4.45 3.5-6.5 5.41-1.1 1.02-2.15 2.11-3.15 3.23-1.04 1.17-2.14 2.4-2.66 3.91-1.1 3.22 1.41 6.45 4.8 5.98 1.64-.23 3.22-.93 4.77-1.5 1.7-.63 3.4-1.29 5.08-1.98 3.46-1.42 7.27-2.76 10.38-4.86 1.97-1.32.07-4.96-2.15-4.23-2.67.88-5.21 2.34-7.79 3.46-2.69 1.16-5.4 2.24-8.15 3.25-.99.37-2.13.59-3.09 1 .67-.28-.43.03-.39.01.35-.24.14 1.41.66.95.38-.33.72-1.13 1.06-1.54 1.64-2.01 3.5-3.82 5.52-5.45 1.97-1.59 4.16-3 5.67-5.08 1.5-2.05 2.03-4.52 1.96-7.02-.06-2.35-.68-4.63-1.19-6.91-.48-2.14-1.01-4.47-.51-6.66 1.01-4.34 5.64-7.35 9.96-7.06 2.28.16 2-4.07-.07-4.31z"/><path d="m518.85 387.17c.42-6.37 1.4-12.71 3.05-18.88.41-1.53.85-3.05 1.33-4.56.12-.38.24-.76.37-1.13.09-.26.58-1.09-.05-.54-.38.15-.42.23-.13.27.22.06.44.13.65.2.39.12.79.24 1.18.36 3.18.98 6.41 2.26 9.69 2.86 2.56.48 3.18-3.5 1.01-4.42-3.56-1.51-7.44-2.39-11.14-3.49-1.67-.5-3.47-.74-4.55.97-.94 1.49-1.28 3.54-1.75 5.22-2.03 7.22-3.28 14.65-3.71 22.14-.07 1.17.58 2.46 1.79 2.76 1.12.26 2.18-.63 2.26-1.76z"/><path d="m184.04 101.66c2.72 3.84 5.83 7.47 9.33 10.62 1.59 1.43 3.48 2.84 5.66 3.15 2.14.3 4.21-.54 5.43-2.34 2.78-4.08.41-8.71-1.62-12.51-2.36-4.42-4.74-8.82-7.12-13.23-.57-1.06-2.13-1.49-3.1-.73-1.1.87-.9 2.36-.32 3.44 1.93 3.58 3.85 7.17 5.79 10.74.88 1.62 1.86 3.21 2.61 4.9.52 1.17 1.03 2.54.45 3.78-2.32 4.98-12.52-8.4-13.93-10.35-1.79-2.45-4.82.21-3.18 2.53z"/><path d="m197.79 92.49c3.92.97 7.9 1.67 11.91 2.1 3.02.32 7.21 1.08 9.43-1.63 1.14-1.39 1.28-3.36.57-4.99-.75-1.73-2.3-2.95-3.92-3.83-1.82-.99-3.69-1.9-5.53-2.85-.94-.48-1.88-.97-2.82-1.45-.97-.5-1.96-1.14-3.03-1.39-2.4-.55-3.05 2.83-1.5 4.14 1.34 1.14 3.12 1.82 4.68 2.62 1.53.79 3.05 1.57 4.58 2.36 1.14.59 2.54 1.15 3.38 1.97.22.23.26.26.12.11.17.27.19.29.06.06.01-.05.02-.42.02-.44-.09.23-.1.28-.05.13.07-.14.03-.11-.1.09.12-.21-.06 0-.06-.01-.91.46-1.68.43-2.78.38-1.54-.07-3.09-.21-4.63-.39-3.32-.39-6.61-.97-9.86-1.74-2.91-.66-3.06 4.12-.47 4.76z"/><path d="m353.72 118.73c.54 2.77 1.72 6.54.25 9.2-.77 1.4-2.25 2.08-3.37 3.14-1.36 1.28-2.16 2.86-2.1 4.75.12 3.88 3.38 6.74 7.06 7.31 3.7.57 7.61-.21 11.07-1.55 3.5-1.36 6.79-3.41 9.67-5.82 2.77-2.31 5.15-5.49 4.53-9.3-.29-1.8-1.15-3.5-2.63-4.61-1.58-1.19-3.34-.96-5.11-1.55-1.17-.39-1.79-1.58-2.35-2.6-.69-1.27-1.27-2.62-2.11-3.8-2.3-3.24-6.59-5.52-10.56-4.06-3.85 1.42-5.74 5.7-4.5 9.53.79 2.43 4.61 1.91 4.03-.81-.45-2.09.89-3.99 3.07-4.24 2.54-.3 4.36 1.63 5.47 3.65 1.2 2.18 2.16 4.49 4.25 6 1.21.88 2.51 1.17 3.96 1.39 1.07.16 1.97.21 2.22 1.29.54 2.31-2.19 4.43-3.78 5.68-2.35 1.85-4.9 3.44-7.67 4.58-2.7 1.11-5.66 1.86-8.6 1.68-1.55-.09-5.38-1.44-3.5-3.57.96-1.09 2.28-1.81 3.25-2.9 1.01-1.14 1.63-2.55 1.94-4.03.67-3.18-.19-6.43-.92-9.52-.23-.98-.89-2-2.04-1.96-1.03.05-1.72 1.16-1.53 2.12z"/><path d="m501.92 197.46c.32 2.41.61 4.82.96 7.22.22 1.55.83 3.08 2.24 3.91 1.07.63 2.28.63 3.46.39 2.38-.48 4.72-1.23 7.07-1.86 1.12-.3 2.33-.5 3.34-1.07 1.39-.79 1.9-2.37 1.66-3.9-.21-1.35-.58-2.69-.87-4.02-.33-1.54-.61-3.1-1.04-4.61-.31-1.09-1.53-1.92-2.64-1.7-1.14.23-1.77 1.43-1.59 2.55.39 2.56 1.14 5.08 1.66 7.62.04.15.06.31.09.46 0-.26.07-.5.21-.72.12-.15.52-.29.12-.17-.55.16-1.1.32-1.65.48-1.26.34-2.51.69-3.77 1.03-1.23.34-2.46.66-3.69 1-.59.16.4-.02-.22.04-.13.02-.26.03-.4.04-.26-.01-.26 0 0 .03-.21-.06-.24-.05-.08.01.16.08.14.06-.06-.04.29.15.48.38.58.66-.09-.28-.1-.28-.01 0-.42-2.5-.69-5.04-1.04-7.56-.16-1.16-1.18-2.51-2.49-2.39-1.28.15-2.01 1.36-1.84 2.6z"/><path d="m502.81 192.94c-5.33.81-10.53 2.1-15.61 3.92.94.53 1.89 1.06 2.83 1.58-2.48-7.18 1.2-15.05 7.19-19.23 3.22-2.24 7.1-3.52 10.99-3.9 4.03-.4 8.53-.09 12.07 2.05 3.68 2.22 5.48 6.56 7.12 10.33.38-1.05.77-2.11 1.15-3.16-4.16 1.39-8.32 2.75-12.46 4.17-2.7.93-.93 5.69 1.79 4.8 4.16-1.36 8.31-2.77 12.46-4.17 1.22-.41 1.62-2.08 1.15-3.16-1.89-4.34-3.96-8.95-7.77-11.98-4.03-3.2-9.32-4.17-14.37-3.99-9.51.34-18.68 5.37-22.59 14.28-2.13 4.85-2.42 10.41-.67 15.41.39 1.11 1.64 2.02 2.83 1.58 4.7-1.71 9.54-3.05 14.47-3.93 1.18-.21 1.88-1.18 1.73-2.4-.12-1-1.11-2.39-2.31-2.2z"/><path d="m249.4 370.7c17.87 6.65 38.5 4.04 54.81-5.54 4.61-2.7 8.84-6.01 12.57-9.83.94-.97 1.1-2.38.33-3.53-.6-.9-2.23-1.72-3.17-.75-12.7 13.01-31.12 19.56-49.19 18.14-5.05-.4-10.08-1.49-14.86-3.13-1.17-.4-2.21.71-2.33 1.79-.15 1.32.66 2.41 1.84 2.85z"/><path d="m468.31 96.19c-4.07 4.5-7.8 9.3-11.16 14.35 1.8 1.12 3.59 2.23 5.39 3.35-3.64 5.21-6.87 10.72-9.64 16.44-2.59-2.13-5.54-3.81-8.69-4.96.81 5.65 1.27 11.35 1.39 17.05 7.51.59 15.12-.04 22.43-1.86-1.87-2.15-3.73-4.29-5.6-6.44 4.7-5.13 19.11-18.21 19.11-18.21l-9.23-5.68 4.42-6.93c.89-1.12 2.97-5.29 2.83-5.95-.11-.5-5.07-4.63-7.14-6.34-1.78 2.13-3.55 4.25-5.33 6.38" fill="#e9e7c4"/><path d="m467.11 94.38c-4.29 4.55-8.15 9.38-11.65 14.57-.84 1.24-.28 2.92.93 3.68 1.79 1.12 3.59 2.25 5.38 3.37-.31-1.24-.62-2.47-.94-3.71-3.76 5.37-7.04 11.04-9.91 16.93 1.08-.22 2.16-.45 3.23-.67-2.94-2.39-6.15-4.21-9.7-5.53-1.48-.55-2.53 1.21-2.36 2.44.79 5.65 1.25 11.34 1.38 17.05.03 1.29 1.25 2.24 2.43 2.33 7.74.59 15.46-.11 23-1.94 1.95-.48 1.3-3.13.41-4.16-1.86-2.15-3.72-4.3-5.59-6.45.16 1.16.32 2.32.48 3.49.39-.42.01-.01.26-.28.2-.21.39-.41.59-.62.39-.4.77-.79 1.17-1.18.9-.9 1.8-1.78 2.71-2.66 2.08-2.01 4.19-3.99 6.3-5.96 2.55-2.37 5.11-4.73 7.69-7.07 1.35-1.23.89-3.39-.59-4.3-3.08-1.89-6.15-3.79-9.23-5.68.33 1.3.65 2.6.98 3.89 1.98-3.1 4.2-6.15 5.9-9.42.61-1.18 1.27-2.39 1.61-3.68.44-1.67-.18-2.88-1.35-4.04-2.03-2.02-4.32-3.81-6.53-5.63-1.01-.83-2.24-.87-3.11.18-1.78 2.13-3.54 4.27-5.27 6.44-1.68 2.1 1.5 5.54 3.48 3.27 1.82-2.09 3.61-4.2 5.39-6.33-1.04.06-2.07.12-3.11.18 2.05 1.69 4.12 3.37 6.07 5.18.2.19.39.39.59.57.22.19.26.52-.04-.09.38.53.25.01-.38-1.56.1-.38.11-.44.03-.17-.09.18-.14.4-.21.59-.43 1.12-.96 2.17-1.56 3.19-1.6 2.71-3.4 5.31-5.09 7.97-.84 1.33-.33 3.09.98 3.89 3.08 1.89 6.16 3.78 9.23 5.67-.2-1.43-.39-2.86-.59-4.3-6.63 6.03-13.42 12.03-19.49 18.64-.92 1-.25 2.65.48 3.49 1.87 2.14 3.73 4.29 5.6 6.43.14-1.39.27-2.77.41-4.16-7.14 1.77-14.54 2.33-21.87 1.78.81.78 1.62 1.55 2.43 2.33-.13-5.71-.6-11.4-1.4-17.05-.79.81-1.57 1.63-2.36 2.44 2.77 1.03 5.39 2.53 7.69 4.39 1.2.97 2.55.72 3.23-.67 2.7-5.55 5.85-10.87 9.36-15.95.85-1.24.27-2.96-.94-3.71-1.8-1.11-3.6-2.22-5.4-3.33.31 1.23.62 2.45.93 3.68 3.35-5.05 7.06-9.89 11.02-14.48 1.38-1.57-1.13-4.95-2.7-3.28z"/><path d="m173.91 146.3c-2.92 7.29-6.07 14.49-9.45 21.58-.11.23-.23.49-.16.75.08.28.35.45.6.59 2 1.12 4.05 2.14 6.15 3.05 5.01-7.13 10.01-14.26 15.02-21.4.12-.17.25-.38.2-.59-.05-.2-.24-.33-.43-.43-3.62-2.06-7.48-3.69-11.49-4.82" fill="#e9e7c4"/><path d="m171.99 145.22c-2.26 5.57-4.65 11.08-7.18 16.54-.61 1.31-1.22 2.61-1.84 3.92-.72 1.5-1.28 2.99-.21 4.53.76 1.11 2.22 1.68 3.37 2.28 1.35.71 2.73 1.37 4.13 1.99.92.41 1.95.35 2.58-.54 4.43-6.23 8.81-12.5 13.2-18.75 1.01-1.43 2.69-3.1 2.45-4.99-.26-2.06-2.36-2.92-3.98-3.74-3.08-1.57-6.49-3.14-9.89-3.82-1.24-.25-2.28.62-2.42 1.86-.15 1.36.69 2.49 1.91 2.95 3.79 1.43 7.8 2.52 11.2 4.83-.31-.29-.61-.58-.92-.86.05.08.11.17.16.25-.16-.64-.32-1.28-.48-1.93-.01.1-.03.2-.04.31.14-.38.27-.76.41-1.13-1.13 1.92-2.57 3.71-3.85 5.53-1.23 1.75-2.45 3.5-3.68 5.25-2.55 3.64-5.1 7.27-7.64 10.92l2.58-.54c-1.12-.48-2.23-.99-3.33-1.53-.55-.27-1.09-.55-1.63-.83-.27-.14-.54-.29-.81-.43-.5-.31-.53-.3-.11.03.16.62.31 1.25.47 1.87.02-.76.83-1.88 1.14-2.56.4-.87.8-1.75 1.2-2.62.83-1.83 1.64-3.66 2.44-5.5 1.6-3.68 3.13-7.38 4.61-11.11.97-2.45-2.7-4.98-3.84-2.18z"/><path d="m158.67 175.5c-2.19.43-3.53 3.02-2.98 5.18s2.63 3.72 4.83 4.07c.61.1 1.24.12 1.84-.05 1.46-.39 2.48-1.85 2.63-3.35s-.45-3.01-1.36-4.2c-.51-.66-1.13-1.27-1.91-1.58s-1.72-.28-2.38.24" fill="#e9e7c4"/><path d="m158.42 173.51c-1.16.23-2.28.68-3.13 1.53-.95.95-1.51 2.24-1.7 3.56-.42 2.91 1.24 5.62 3.56 7.23 2.22 1.53 5.57 2.12 7.81.32 2.43-1.96 2.78-5.53 1.57-8.27-.73-1.66-1.83-3.17-3.36-4.18-1.51-.99-3.77-1.21-5.19.06-.93.83-1.05 2.35-.32 3.37.34.48.83.93 1.42 1.05.61.12 1.07-.02 1.61-.33-.76.43.28-.06.27-.02-.02.07-.55.04-.16.05.09 0 .19-.01.28-.01.41-.01-.15.01-.15-.02 0 0 .31.08.34.08.28.06-.49-.28-.08-.03.1.06.21.13.32.18.28.15-.44-.4-.08-.06.07.07.15.13.22.2.09.08.6.6.3.3s.03.05.07.11c.06.08.12.17.18.26.15.22.26.45.4.67-.41-.64-.04-.05.05.18.04.1.07.2.1.3.01.02.02.05.02.07.08.27.06.2-.05-.21-.04.16.08.44.09.61 0 .05.01.1.01.15.01.21.01.21 0-.01 0-.22 0-.22-.01-.01 0 .07-.01.15-.02.22-.01.09-.03.18-.04.26-.04.31.19-.58.03-.14-.06.17-.12.34-.19.5-.17.43.23-.36.05-.11-.05.07-.09.15-.14.23-.06.09-.14.18-.2.27-.23.34.37-.31.04-.03-.13.11-.27.22-.41.33-.34.29.37-.16.11-.05-.08.04-.16.08-.24.11-.1.04-.21.07-.31.11-.34.11.07-.02.07-.01-.01.05-.78.05-.84.02.07.01.15.02.22.03-.08-.01-.16-.02-.23-.03-.09-.01-.18-.03-.26-.05-.2-.04-.39-.09-.58-.15-.09-.03-.17-.06-.26-.08-.44-.13.37.17.09.04-.2-.1-.41-.19-.6-.3-.17-.1-.34-.23-.51-.32.44.23.29.22.15.11-.08-.07-.17-.14-.26-.21-.15-.13-.29-.28-.43-.42-.13-.13-.15-.3.14.16-.07-.11-.16-.21-.23-.32-.1-.14-.17-.31-.27-.45.34.45.19.38.09.15-.04-.1-.08-.21-.12-.31-.03-.08-.05-.17-.08-.25.22.62.09.43.07.26-.01-.1-.02-.2-.04-.3-.06-.36.01.02-.01.17.04-.22.02-.45.05-.67.01-.09.06-.21.05-.3.01.15-.14.47-.02.13.07-.21.15-.42.24-.63.09-.23.09.04-.08.14.05-.03.16-.26.19-.31.11-.17.22-.34.34-.5-.01.01.15-.18.15-.18-.2.21-.23.24-.08.1.03-.03.06-.05.09-.08.07-.07.15-.12.23-.19.3-.26-.05.03-.06.01-.01-.04.65-.22.68-.23.41-.1.82-.61.94-.98.13-.42.14-.83.04-1.26-.2-.73-1.01-1.81-1.94-1.62z"/><path d="m344.84 206.47c9.03 12.69 17.97 25.45 26.66 38.37.68 1 2.1 1.56 3.14.74s1.02-2.46.33-3.48c-8.71-12.91-17.6-25.7-26.8-38.26-1.89-2.58-5.06.2-3.33 2.63z"/><path d="m374.55 246.59c1.98-.45 3.96-.9 5.94-1.35.77-.18 1.43-.32 1.96-1 .85-1.1.32-3.21-.95-3.78-.46-.21-.89-.35-1.4-.25-.37.07-.75.14-1.12.23-.57.14-1.14.27-1.7.41-1.21.29-2.42.58-3.63.88-.28.07-.55.13-.83.2-.52.13-.97.74-1.15 1.2-.21.56-.2 1.31.03 1.86.24.57.62 1.15 1.19 1.43s1.06.31 1.66.17z"/><path d="m383.03 243.29c.69-2.62 1.27-5.25 1.73-7.91.46-2.68.85-5.37.81-8.11-.01-.87-.82-1.8-1.66-2.01-.78-.19-1.78.27-1.99 1.1-.62 2.57-.91 5.21-1.32 7.82-.4 2.54-.84 5.08-1.3 7.62-.18 1 .53 2.18 1.46 2.52.87.33 2.01-.03 2.27-1.03z"/><path d="m381.83 228.01c1.94 4.39 4.23 8.65 6.7 12.76.58.96 2.09 1.53 3.02.72 1-.87.96-2.29.31-3.36-2.36-3.93-4.56-7.94-6.74-11.97-.47-.86-1.67-1.25-2.51-.77-.88.48-1.18 1.72-.78 2.62z"/><path d="m391.22 242.07c1.65-.25 3.29-.57 4.91-.95.72-.17 1.43-.36 2.14-.58.35-.11.71-.22 1.06-.33.2-.07.4-.13.6-.21.67-.3 1.07-.81 1.23-1.52.26-1.14-.21-2.49-1.31-3.04-.56-.28-1.07-.32-1.68-.16-.21.05-.4.12-.61.19-.7.23-1.41.44-2.12.64-1.47.42-2.95.8-4.45 1.11.18-.04.37-.07.55-.11-.31.06-.62.12-.93.18-.59.11-1.05.28-1.41.79-.32.45-.47 1.15-.38 1.7.17 1.04 1.12 2.48 2.4 2.29z"/><path d="m400.97 238.31c4.34-16.82 8.2-33.77 12.23-50.66.31-1.28-.03-2.72-1.27-3.41-1.01-.56-2.59-.19-2.9 1.08-4.08 17.11-8.33 34.2-12.09 51.38-.5 2.27 3.34 4.27 4.03 1.61z"/><path d="m346.61 206.74c2.04-1.06 4.11-2.06 6.19-3.04 1.09-.51 2.18-1.04 3.27-1.54 1.08-.5 2.33-.88 3.29-1.58.79-.57.95-1.86.6-2.71-.34-.81-1.22-1.83-2.22-1.66-1.17.2-2.24.77-3.31 1.27-1.12.52-2.24 1.04-3.35 1.59-2.06 1.03-4.11 2.09-6.13 3.2-1.05.58-1.55 1.78-1.07 2.94.38.93 1.6 2.11 2.73 1.53z"/><path d="m398.23 188.05c2.31-.41 4.66-.5 7-.58 2.33-.08 4.73-.02 7.04-.35 1.25-.18 2.07-1.31 1.86-2.58-.19-1.18-1.15-2.49-2.49-2.39-2.34.16-4.68.3-7.03.4-2.34.1-4.69.21-7 .64-1.21.23-2.03 1.24-1.82 2.52.18 1.04 1.16 2.57 2.44 2.34z"/><path d="m357.48 200.08c4.58 6.94 9.24 13.84 13.84 20.76.55.83 1.15 1.59 1.84 2.31-.5-.54.1.16.25.32.06.06.11.14.18.2.37.33.85.65 1.37.61-.49-.28-.98-.55-1.47-.83 0 .01.01.01.01.02 1.32 2 3.72-.12 2.49-1.97 0-.01-.01-.01-.01-.02.08.61.17 1.21.25 1.82.33-.85-.1-1.76-.52-2.48-.15-.26.23.54.05.08-.05-.13-.12-.26-.17-.39-.24-.52-.5-1.02-.81-1.51-1.2-1.88-2.45-3.74-3.68-5.6-2.81-4.29-5.58-8.61-8.41-12.88-.66-1-1.32-1.99-1.98-2.99-.62-.94-1.96-1.45-2.92-.69-.98.75-.94 2.27-.31 3.24z"/><path d="m376.47 222.91c.05-1.04.24-2.08.4-3.11.07-.45.14-.9.18-1.36.02-.26.04-.52.05-.78.01-.28 0-.56-.02-.85 0-.07-.02-.34 0-.03.01.35.01-.06.02-.1.02-.53-.07-1.05-.38-1.5-.25-.37-.7-.76-1.15-.85-.97-.19-1.85.48-1.93 1.48-.04.56-.16 1.11-.24 1.66-.07.47-.12.94-.18 1.4-.05.46-.11.91-.15 1.37-.03.34-.04.66-.04 1 0 .14 0 .28.01.42 0 .24.03-.42-.01-.18-.03.17-.02.36-.03.54-.03.53.08 1.06.38 1.5.25.37.7.76 1.15.85.97.22 1.89-.45 1.94-1.46z"/><path d="m376.13 214.8c-1.49-2.91-3.13-5.72-4.87-8.5-1.71-2.73-3.39-5.61-5.42-8.12-.71-.88-1.91-1.51-2.94-.7-1.02.8-.9 2.27-.31 3.27 1.67 2.79 3.64 5.41 5.39 8.15s3.45 5.5 5.19 8.25c.56.88 1.81 1.32 2.69.64.96-.76.76-2.04.27-2.99z"/><path d="m366.05 200.41c2.84-1.24 5.69-2.48 8.51-3.78.9-.41 1.94-.81 2.31-1.82.57-1.55-.65-3.56-2.38-3.38-.42.04-.81.16-1.19.33-1.7.74-3.38 1.5-5.06 2.27-1.3.6-2.59 1.2-3.89 1.8-1.12.52-1.57 1.88-1.1 3.02.43 1.01 1.61 2.08 2.8 1.56z"/><path d="m374.54 195.69c.12.13.24.26.35.4-.13-.15-.25-.3-.38-.45.79.94 1.49 1.96 2.05 3.05-.1-.19-.19-.38-.29-.57.22.44.42.88.65 1.32-.1-.19-.19-.38-.29-.56.2.4.38.82.6 1.21.13.23.24.49.4.69-.08-.17-.17-.33-.25-.5.1.22.19.45.28.68.32.82 1.13 1.5 2.04 1.31.91-.18 1.32-1.1 1.23-1.97-.01-.15-.04-.31-.06-.46-.04-.34-.02.08-.01.19 0-.21 0-.43-.02-.64-.04-.48-.15-.94-.29-1.4-.24-.79-.62-1.52-1.02-2.25-.69-1.26-1.6-2.4-2.66-3.38-.78-.72-2.15-.82-2.78.16-.66 1.05-.35 2.29.45 3.17z"/><path d="m380.71 200.47c.64-2.37 1.25-4.74 1.84-7.13-.38.4-.76.8-1.14 1.19.16-.03.33-.07.49-.1.1-.02.19-.04.29-.06.26-.05-.56.11-.06.01.26-.05.52-.1.78-.16 1.51-.3 3.01-.64 4.51-.96 2-.43 4-.86 6-1.31-.99-1.19-1.98-2.37-2.97-3.56-1.32 5.49-2.64 10.99-3.96 16.48-.61 2.55-1.89 5.56-1.19 8.18.32 1.19 1.07 2.14 1.59 3.24.52 1.11 1.03 2.19 1.68 3.23 1.1 1.77 3.25 1.07 3.65-.75.07-.32.14-.64.21-.97.06-.27-.16.59.01.02.05-.17.09-.34.14-.51.14-.51.27-1.02.39-1.53.67-2.73 1.34-5.45 2.01-8.18 1.47-6 2.96-11.99 4.33-18.01.21-.92.45-1.85.61-2.78.04-.22.07-.44.09-.66.01-.13 0-.24 0-.39.05-1.13.23 1.56 0-.39-.08-.69-.4-1.29-.89-1.78-.52-.52-1.47-.86-2.19-.53-.46.21-.6.32-.91.71-1.7 2.15 1.65 5.79 3.57 3.35 0 0 0 0 .01-.01-.3.23-.6.47-.9.7-.73-.18-1.46-.35-2.19-.53-.3-.59-.59-1.17-.89-1.76-.09-.38.02-.78.12-1.16-.05.2-.1.42-.14.63-.08.4.12-.65.08-.34-.06.43-.2.85-.29 1.28-.18.81-.35 1.63-.53 2.44-.59 2.61-1.18 5.23-1.77 7.84-1.19 5.21-2.61 11.36-3.92 16.97-.16.69-.32 1.37-.47 2.06-.05.23-.1.46-.15.7-.03.13-.18.79-.07.36.09-.38-.12.38-.15.56-.02.1-.05.2-.08.3 1.17-.06 2.35-.13 3.52-.19-.45-.78-.69-1.68-1.07-2.5-.3-.63-1.15-1.63-1.26-2.34-.07-.46.23-1.14.34-1.58.16-.65.31-1.29.47-1.94.27-1.13.55-2.26.82-3.39 1.18-4.84 2.35-9.68 3.53-14.52.47-1.93-.82-4.04-2.97-3.56-3.99.88-7.97 1.83-11.95 2.76-.81.19-1.11 1.08-1.27 1.78-.54 2.41-1.07 4.82-1.57 7.23-.44 2.19 3.18 4.11 3.87 1.56z"/></g></g></svg>