<svg viewBox="0 0 681.61 533.78" xmlns="http://www.w3.org/2000/svg" xmlns:xlink="http://www.w3.org/1999/xlink"><clipPath id="a"><path d="m88.32-.74s-91.46 0-91.46 91.18v351.41s0 91.19 91.46 91.19h498.7s91.46 0 91.46-91.19v-351.41s0-91.18-91.46-91.18h-498.7z"/></clipPath><path d="m91.46 0s-91.46 0-91.46 91.18v351.42s0 91.19 91.46 91.19h498.7s91.46 0 91.46-91.19v-351.42s0-91.18-91.46-91.18z" fill="#028b3f"/><path d="m437.94 522.14-5.99-.4c1.18-17.71 12.06-34.56 27.71-42.93 5.18-2.77 9.94-4.15 14.53-4.23 1.13-.02 2.25.05 3.34.2.41-.67.84-1.31 1.3-1.91 8.08-10.59 21.64-14.1 31.6-15.18 13.03-1.41 25 .41 34.6 5.28l-2.71 5.35c-8.56-4.34-19.36-5.95-31.24-4.66-8.79.96-20.69 3.96-27.48 12.86-.02.02-.03.04-.05.07 2.09 1 3.94 2.36 5.4 4.01 2.05 2.31 3.18 5.02 3.18 7.65.01 3.52-2.03 6.67-5.07 7.84-3.33 1.29-7.43-.05-9.96-3.25-2.82-3.57-3.13-8.05-2.05-12.25-.25-.01-.51-.01-.77 0-3.62.06-7.49 1.21-11.81 3.52-13.85 7.41-23.49 22.34-24.53 38.03zm42.96-40.18c-.71 2.62-.58 5.26.93 7.16.86 1.09 2.25 1.7 3.1 1.38.69-.27 1.23-1.24 1.22-2.22 0-1.17-.6-2.48-1.67-3.69-.96-1.08-2.18-1.97-3.58-2.63zm197.49-363.87-5.89-1.16c1.85-9.42.46-20.25-4.01-31.33-3.31-8.2-9.44-18.83-19.84-22.94-.03-.01-.05-.02-.08-.03-.4 2.28-1.2 4.43-2.39 6.29-1.66 2.6-3.97 4.42-6.5 5.15-3.33.95-7-.18-8.92-2.74-2.15-2.86-1.97-7.17.42-10.47 2.66-3.68 6.9-5.2 11.23-5.3-.06-.25-.13-.5-.21-.74-1.04-3.47-3.2-6.87-6.6-10.41-10.9-11.33-27.89-16.55-43.28-13.29l-1.24-5.87c17.37-3.68 36.54 2.21 48.84 15 4.08 4.24 6.7 8.44 8.02 12.84.33 1.08.56 2.18.71 3.27.75.21 1.49.45 2.19.73 12.39 4.89 19.46 16.99 23.2 26.28 4.93 12.15 6.43 24.16 4.35 34.72zm-35.7-56.56c-2.71.03-5.22.87-6.64 2.84-.81 1.12-1.03 2.63-.48 3.35.44.59 1.53.84 2.47.57 1.12-.32 2.22-1.25 3.1-2.61.77-1.21 1.29-2.62 1.55-4.15zm-367.59-23.13c-6.59 0-9.98-3.9-12.7-7.03-2.76-3.17-4.5-4.97-8.18-4.97-3.67 0-5.42 1.8-8.18 4.97-2.73 3.13-6.12 7.03-12.7 7.03-6.59 0-9.98-3.9-12.71-7.03-2.76-3.17-4.5-4.97-8.18-4.97s-5.42 1.8-8.18 4.97c-2.73 3.13-6.12 7.03-12.71 7.03s-9.98-3.9-12.7-7.03c-2.76-3.17-4.5-4.97-8.18-4.97s-5.42 1.8-8.18 4.97c-2.73 3.13-6.12 7.03-12.71 7.03s-9.98-3.9-12.71-7.03c-2.76-3.17-4.5-4.97-8.18-4.97s-5.42 1.8-8.18 4.97c-2.73 3.13-6.12 7.03-12.71 7.03v-6c3.68 0 5.42-1.8 8.18-4.97 2.73-3.13 6.12-7.03 12.71-7.03s9.98 3.9 12.71 7.03c2.76 3.17 4.5 4.97 8.18 4.97s5.42-1.8 8.18-4.97c2.73-3.13 6.12-7.03 12.7-7.03s9.98 3.9 12.71 7.03c2.76 3.17 4.5 4.97 8.18 4.97s5.42-1.8 8.18-4.97c2.73-3.13 6.12-7.03 12.71-7.03s9.98 3.9 12.7 7.03c2.76 3.17 4.5 4.97 8.18 4.97 3.67 0 5.42-1.8 8.18-4.97 2.73-3.13 6.12-7.03 12.7-7.03 6.59 0 9.98 3.9 12.7 7.03 2.76 3.17 4.5 4.97 8.18 4.97v6zm236.16 487.03-2.18-5.59c3.42-1.34 4.39-3.64 5.81-7.6 1.4-3.91 3.14-8.77 9.28-11.17 6.13-2.39 10.71 0 14.39 1.93 3.73 1.95 6 2.99 9.43 1.66 3.42-1.34 4.39-3.64 5.81-7.6 1.4-3.91 3.14-8.77 9.28-11.17s10.71 0 14.39 1.93c3.72 1.95 6 2.99 9.42 1.66 3.42-1.34 4.39-3.64 5.81-7.6 1.4-3.91 3.14-8.77 9.28-11.17s10.71 0 14.39 1.93c3.73 1.95 6 2.99 9.42 1.66 3.42-1.34 4.39-3.64 5.81-7.6 1.4-3.91 3.14-8.77 9.28-11.17 6.13-2.4 10.71 0 14.39 1.93 3.73 1.95 6 2.99 9.42 1.66l2.18 5.59c-6.14 2.39-10.71 0-14.39-1.93-3.73-1.95-6-2.99-9.42-1.66-3.42 1.34-4.39 3.64-5.81 7.6-1.4 3.91-3.14 8.77-9.28 11.17-6.14 2.39-10.71 0-14.39-1.93-3.72-1.95-6-2.99-9.42-1.66s-4.39 3.64-5.81 7.6c-1.4 3.91-3.14 8.77-9.28 11.17-6.14 2.39-10.71 0-14.39-1.93-3.73-1.95-6-2.99-9.42-1.66s-4.39 3.64-5.81 7.6c-1.4 3.91-3.14 8.77-9.28 11.17s-10.71 0-14.39-1.93c-3.73-1.95-6-2.99-9.43-1.66-3.42 1.34-4.39 3.64-5.81 7.6-1.4 3.9-3.14 8.77-9.28 11.17zm-423.27-4.25c-3.29-5.7-1.61-10.59-.26-14.52 1.37-3.98 2.05-6.38.22-9.57-1.84-3.18-4.26-3.79-8.39-4.6-4.08-.79-9.15-1.78-12.44-7.49-3.29-5.7-1.61-10.59-.26-14.52 1.37-3.98 2.05-6.38.21-9.57-1.84-3.18-4.26-3.79-8.39-4.59-4.08-.79-9.15-1.78-12.44-7.48-3.29-5.71-1.61-10.59-.26-14.52 1.37-3.98 2.05-6.38.21-9.57-1.84-3.18-4.26-3.79-8.39-4.6-4.08-.79-9.15-1.78-12.44-7.49s-1.61-10.59-.26-14.52c1.37-3.98 2.05-6.39.21-9.57s-4.26-3.79-8.39-4.6c-4.08-.79-9.15-1.78-12.44-7.49l5.2-3c1.84 3.18 4.26 3.79 8.39 4.6 4.08.79 9.15 1.78 12.44 7.49s1.62 10.59.27 14.52c-1.37 3.98-2.05 6.39-.21 9.57s4.26 3.79 8.39 4.6c4.08.79 9.15 1.78 12.44 7.49s1.61 10.59.26 14.52c-1.37 3.98-2.05 6.38-.21 9.57 1.84 3.18 4.26 3.79 8.39 4.6 4.08.79 9.15 1.78 12.44 7.48 3.29 5.71 1.61 10.59.26 14.52-1.37 3.98-2.05 6.38-.21 9.57 1.84 3.18 4.26 3.79 8.39 4.6 4.08.79 9.15 1.78 12.44 7.49 3.29 5.7 1.61 10.59.26 14.52-1.37 3.98-2.05 6.38-.22 9.57zm74.29-1.61c-2.25 0-4.49-.17-6.7-.53-16.52-2.67-27.78-13.68-34.32-22.44-9.37-12.56-14.98-27.84-16.22-44.19l5.98-.45c1.15 15.21 6.36 29.41 15.05 41.05 5.87 7.87 15.93 17.75 30.47 20.1 11.4 1.84 23.82-1.94 32.2-9.4-.49-.37-.96-.76-1.42-1.17-3.43-3.07-5.35-6.67-5.55-10.42-.26-4.92 2.72-9.84 7.08-11.69 2.72-1.15 5.79-1 8.42.42 2.74 1.48 4.7 4.16 5.25 7.16.76 4.21-.72 9.14-4.18 13.98 7.31 2.37 16.58 1.33 24.23-3.21 10.34-6.12 17.58-17.96 18.03-29.45l6 .23c-.53 13.44-8.96 27.26-20.97 34.38-10.07 5.96-22.19 6.87-31.48 2.89-8.13 7.99-20.09 12.74-31.87 12.74zm30.36-33.9c-.44 0-.92.08-1.43.3-2.26.96-3.54 3.78-3.43 5.84.11 2.15 1.31 4.26 3.55 6.26.49.44 1.01.85 1.55 1.23.04-.05.08-.1.11-.15 2.8-3.68 4.13-7.34 3.64-10.06-.22-1.21-1.06-2.34-2.19-2.96-.46-.24-1.08-.46-1.8-.46zm98.18-368.67c-3.46 0-6.71-.28-9.61-.68-15.53-2.17-30.33-8.93-42.83-19.54l3.88-4.57c11.62 9.88 25.38 16.16 39.77 18.17 9.73 1.36 23.82 1.16 35.72-7.53 9.32-6.8 15.38-18.3 15.97-29.51-.61.09-1.22.15-1.83.19-4.59.29-8.5-.89-11.31-3.38-3.68-3.28-5.08-8.85-3.33-13.25 1.09-2.75 3.36-4.82 6.22-5.69 2.98-.91 6.26-.42 8.78 1.31 3.53 2.42 5.99 6.94 7 12.8 6.82-3.53 12.6-10.85 14.76-19.48 2.92-11.65-.4-25.13-8.26-33.53l4.38-4.1c9.19 9.83 13.08 25.54 9.69 39.08-2.84 11.35-10.72 20.6-20.08 24.41-.08 13.57-7.2 27.78-18.47 36-9.87 7.23-20.96 9.3-30.45 9.3zm35.68-60.24c-.43 0-.86.06-1.27.19-.79.24-1.85.82-2.4 2.17-.91 2.28.2 5.17 1.74 6.55 1.61 1.43 3.95 2.06 6.95 1.88.66-.04 1.31-.12 1.97-.24-.01-.06-.02-.12-.02-.18-.64-4.58-2.32-8.1-4.6-9.66-.67-.47-1.51-.71-2.37-.71z" fill="#f0bc00"/><path d="m440.9 123.5c-68.19 0-95.27 34.7-103.42 48.68-8.15-13.98-35.23-48.68-103.42-48.68h-194.23v315.1h170.79s65.3 7.23 65.3 70.86h132.11c0-63.63 65.3-70.86 65.3-70.86h170.79v-315.1z" fill="#1026b0"/><path d="m413.42 514.84h-142.89v-5.38c0-24.23-10-42.56-29.72-54.49-14.06-8.5-28.43-10.71-30.53-10.99h-175.84v-325.86h199.62c61.2 0 90.78 27.03 103.42 44.27 12.63-17.24 42.22-44.27 103.42-44.27h208.62v325.86h-175.84c-2.07.28-16.46 2.48-30.53 10.99-19.72 11.92-29.72 30.25-29.72 54.49v5.38zm-132.27-10.77h121.65c1.83-31.95 19.86-49.41 35.12-58.53 17.13-10.25 34.11-12.22 34.82-12.3l.59-.03h165.41v-304.32h-197.84c-64.95 0-90.71 32.17-98.76 46l-4.65 7.99-4.65-7.99c-8.06-13.83-33.82-46-98.77-46h-188.86v304.32h165.7l.3.03c.71.08 17.69 2.06 34.82 12.3 15.26 9.12 33.29 26.58 35.12 58.53z" fill="#ed8019"/><path d="m340.38 463.41v-304.74s-20.93-98.79-106.33-98.79h-171.63v352.46h172.48s65.3 14.23 65.3 77.86h40.19v-26.79z" fill="#e6e4c1"/><path d="m346.55 496.36h-52.51v-6.16c0-24.27-10.11-43.7-30.04-57.75-13.44-9.48-26.89-13.21-29.82-13.94h-177.91v-364.8h177.79c37.12 0 68.36 18.06 90.37 52.22 16.33 25.36 21.76 50.4 21.99 51.46l.13.63zm-40.39-12.32h28.06v-324.68c-.9-3.81-6.47-25.62-20.35-47.05-19.89-30.7-46.74-46.27-79.81-46.27h-165.46v340.14h166.97l.65.14c.72.16 17.74 3.96 34.89 16.05 21.35 15.06 33.39 36.29 35.05 61.67z"/><path d="m340.38 463.41v-304.74s20.93-98.79 106.33-98.79h171.63v352.46h-172.47s-65.3 14.23-65.3 77.86h-40.19z" fill="#e6e4c1"/><path d="m386.73 496.36h-52.51v-338.34l.13-.63c.22-1.05 5.66-26.1 21.99-51.46 22-34.16 53.25-52.22 90.37-52.22h177.79v364.79h-177.9c-2.96.75-16.7 4.59-30.16 14.18-19.71 14.04-29.71 33.39-29.71 57.52zm-40.18-12.32h28.06c1.67-25.38 13.7-46.6 35.06-61.66 17.15-12.09 34.17-15.9 34.89-16.05l.65-.14h166.97v-340.15h-165.47c-33.07 0-59.92 15.57-79.81 46.27-13.88 21.42-19.45 43.23-20.35 47.05z"/><path d="m346.55 452.53h-12.33c0-27.81-12.58-49.83-37.39-65.42-17.39-10.93-35.12-14.86-38.25-15.49h-196.15v-12.33h197.28l.53.09c.88.15 21.72 3.92 42.8 17.06 28.46 17.76 43.51 44.07 43.51 76.09z"/><path d="m346.55 452.53h-12.33c0-32.02 15.04-58.33 43.51-76.08 21.08-13.15 41.92-16.91 42.8-17.06l.53-.09h197.28v12.33h-196.16c-3.11.63-20.85 4.55-38.25 15.49-24.8 15.58-37.38 37.59-37.38 65.41z"/><path d="m382.36 310.32h92.87v12.33h-92.87zm8.37-32.85h98.58v12.33h-98.58zm10.89-32.85h99.63v12.33h-99.63zm-19.26-32.86h203.44v12.33h-203.44zm31.82-32.84h174.14v12.33h-174.14zm80.37 149.71h91.26v12.33h-91.26zm41.74-33.28h49.51v12.33h-49.51z" fill="#ed8019"/><path d="m454.25 365.46h5.69l158.4-128.93-88.75-46.89z" fill="#e6e4c1"/><path d="m462.13 371.62h-17.23l81.66-190.55 102.89 54.36zm70.49-173.41-65.91 153.78 140.5-114.37z"/><g clip-path="url(#a)"><path d="m492.94-70.61 21.27 101.84 71.97 64.73s-12.22 15.39-32.14 7.69-26.93-14.71-26.93-14.71 23.31 132.4 21.05 139.19-19.46 19.46-30.33-33.04l-21.27-69.25s-7.24 27.16-19.92 23.99c-12.67-3.17-14.48-17.2-14.48-17.2s-22.41 14.71-28.97-10.41c0 0-19.46 22.18-27.61 0s-33.04-167.93-33.04-167.93z" fill="#76320a"/><path d="m539.56 242.06c-.3 0-.6-.01-.91-.03-12.73-.75-21.91-15.5-28.08-45.07l-15.33-49.9c-4.19 6.06-11.01 12.39-20.41 10.04-8.86-2.21-14.21-8.26-17.17-14.19-4.78 1.53-10.95 2.39-17 .07-3.18-1.22-7.02-3.64-10.21-8.41-4.69 3.2-10.81 5.91-17.2 4.72-4.6-.86-10.88-4.06-14.71-14.49-8.29-22.56-32.38-163.27-33.4-169.25l-1.22-7.14 134.82-27.88 22.3 106.77 75.39 67.8-4.38 5.52c-5.41 6.82-20.88 17.69-40.71 10.03-5.51-2.13-10.11-4.22-13.92-6.17 2.22 12.86 5.39 31.52 8.46 50.3 11.39 69.72 10.28 73.05 9.39 75.72-1.9 5.73-8 11.55-15.71 11.56zm-43.51-143.41 29.13 94.92c5.53 26.73 12.38 33.29 14.34 33.49.34.04.95-.48 1.32-.96 0-10.39-10.72-76.86-21.1-135.85l-4.12-23.41 16.81 16.81s6.59 6.16 24.33 13.02c7.82 3.02 13.95 1.37 18.01-.9l-67.38-60.6-20.25-96.92-105.99 21.91c8.95 51.91 25.49 143.21 31.46 159.47 1.03 2.79 2.35 4.72 3.38 4.92 2.5.47 8.17-3.46 11.58-7.29l9.31-10.49 3.56 13.56c.86 3.29 2.52 7.46 5.57 8.65 4.04 1.58 10.22-1.45 12.07-2.63l9.97-6.39 1.55 11.72c.05.3 1.42 9.03 8.87 10.89 2.33.6 8.15-8.52 10.85-18.65z"/></g><circle cx="204.26" cy="224.79" r="81.27"/><path d="m204.12 310.62c-15.41 0-31-4.14-45.04-12.83-40.25-24.92-52.73-77.93-27.82-118.19 12.07-19.5 31.01-33.13 53.33-38.38s45.35-1.5 64.85 10.57 33.13 31.01 38.38 53.33 1.5 45.35-10.57 64.85c-16.22 26.22-44.36 40.65-73.13 40.65zm.28-162.54c-5.89 0-11.83.68-17.71 2.07-19.94 4.69-36.86 16.87-47.64 34.29-22.25 35.95-11.11 83.31 24.84 105.56 35.96 22.25 83.31 11.11 105.56-24.84 10.78-17.42 14.13-37.99 9.44-57.93s-16.87-36.86-34.29-47.64c-12.26-7.6-26.11-11.51-40.2-11.51z" fill="#ed8019"/><path d="m153.38 158.85s30.04 4.09 44.53 17.69c14.5 13.6 13.54 32.29 41.29 39.83s46.32 7.82 46.32 7.82"/><path d="m285.46 228.77c-.78-.01-19.47-.38-47.45-7.98-20-5.43-26.79-16.76-32.77-26.75-3.06-5.11-5.95-9.93-10.46-14.16-13.24-12.42-41.73-16.45-42.02-16.49l1.24-9.09c1.29.17 31.67 4.45 47.05 18.88 5.44 5.11 8.8 10.71 12.05 16.14 5.83 9.74 10.87 18.14 27.31 22.61 26.78 7.27 45.01 7.66 45.19 7.66z" fill="#ed8019"/><path d="m212.55 143.93s8.7 40.8 62.55 41.01"/><path d="m275.08 189.53c-29.53-.12-46.16-12.12-54.9-22.16-9.57-10.99-12.01-22.02-12.11-22.48l8.96-1.93c.34 1.52 8.8 37.2 58.08 37.4z" fill="#ed8019"/><path d="m132.33 186.96s3.35 17.89 22.92 22.38 25.63-14.11 38.31 4.91c12.68 19.03 28.35 39.41 42.02 39.73 13.66.32 33.89-4.54 42.72 4.31"/><path d="m275.06 261.53c-4.99-5-16.73-4.18-27.1-3.47-4.43.31-8.62.6-12.49.5-16.01-.38-32.1-21.33-45.72-41.77-5.48-8.23-7.7-7.44-14.27-5.09-5.02 1.79-11.9 4.25-21.25 2.1-22.25-5.1-26.25-25.15-26.41-26l9.01-1.71c.12.61 3.18 15.05 19.45 18.78 6.74 1.55 11.51-.16 16.12-1.8 7.28-2.6 15.53-5.54 24.98 8.64 6.16 9.24 24.91 37.37 38.31 37.69 3.45.08 7.43-.19 11.64-.49 12.32-.85 26.28-1.82 34.22 6.14z" fill="#ed8019"/><path d="m123.08 228.64s35.93-8.2 50.75 7.58 15.77 35.92 29.02 37.98 24.38-.56 24.38-.56 16.96 4.55 20.55 19.8"/><path d="m243.32 294.49c-2.46-10.46-13.1-14.97-16.35-16.12-3.47.66-13.37 2.14-24.82.36-9.9-1.54-14.29-10.27-18.94-19.51-3.2-6.36-6.82-13.58-12.72-19.86-6.49-6.91-18.49-8.33-27.39-8.26-10.23.05-18.91 2-19 2.02l-2.04-8.94c1.57-.36 38.68-8.59 55.11 8.91 6.81 7.25 10.76 15.1 14.23 22.02 4.41 8.79 7.16 13.79 12.15 14.57 12.14 1.88 22.53-.47 22.63-.49l1.12-.26 1.11.3c.8.21 19.66 5.46 23.83 23.18z" fill="#ed8019"/><path d="m134.57 266.63s15.95-15.32 27.59-2.53 8.98 24.4 20.04 21.8 25.23 5.49 28.62 19.89"/><path d="m206.35 306.84c-2.8-11.89-14.51-18.51-23.11-16.48-10.22 2.4-13.46-4.35-16.31-10.31-1.85-3.86-3.95-8.24-8.16-12.87-2.12-2.33-4.46-3.5-7.15-3.59-6.82-.21-13.8 6.27-13.87 6.34l-6.35-6.61c.39-.38 9.75-9.22 20.53-8.89 5.23.18 9.81 2.39 13.63 6.59 5.12 5.62 7.74 11.09 9.65 15.07 2.91 6.06 3.08 6.02 5.95 5.35 12.84-3.01 30.02 5.81 34.13 23.31z" fill="#ed8019"/><path d="m150.39 161.78c-14.34-6.03-38.81-14.88-53.06-4.93-8.94 6.25-8.25 18.85-4.01 27.67 9.47 19.69 28.56 37.78 45.73 50.19 21.02 15.19 42.82 29.3 65.3 42.24 25.16 14.54 47.26 24.46 74.79 33.97 6.34 2.19 20.52 4.28 26.33.94 12.49-7.2 9.94-26.14 4.23-36.73-5.88-10.92-15.16-19.52-23.47-28.55-.51-.56-1.03-1.12-1.55-1.67l-8.19 17.59s20.19 15.7 18.18 23.77-49.6-.52-117.38-49.93-74.48-71.5-39-59.38z" fill="#1026b0"/><path d="m296.2 318.18c-7.42 0-15.29-1.8-18.56-2.93-28.21-9.76-50.81-20.03-75.58-34.34-22.53-12.97-44.63-27.27-65.69-42.49-29.62-21.42-42.27-41.72-47.18-51.92-5.12-10.65-5.58-25.65 5.51-33.41 15.78-11.03 40.35-2.74 57.46 4.46l5.58 2.35-17.89 22.43-3.05-1.04c-9.79-3.34-13.75-3.14-15.04-2.89.75 4.3 11.98 20.52 58.22 54.23 61.88 45.1 102.39 53.16 110.14 51.56-.92-3.32-7.57-11.16-16.46-18.08l-2.88-2.24 12.58-27.05 4.64 4.94c.53.57 1.06 1.13 1.58 1.71 1.63 1.77 3.3 3.53 4.97 5.29 6.96 7.32 14.15 14.9 19.16 24.2 6.73 12.5 9.33 34.06-5.98 42.88-2.98 1.73-7.17 2.34-11.53 2.34zm-182.79-161.31c-8.1 0-11.71 2.52-13.45 3.74-7.16 5.01-5.42 15.85-2.5 21.92 7.71 16.02 23.85 33.69 44.28 48.46 20.8 15.04 42.63 29.16 64.9 41.98 24.57 14.19 46 23.93 74 33.61 6.77 2.34 18.91 3.39 22.54 1.3 9.44-5.44 7.51-21.26 2.48-30.58-4.43-8.22-11.19-15.34-17.74-22.23-.66-.69-1.31-1.38-1.96-2.07l-3.82 8.2c1.99 1.69 4.76 4.16 7.47 6.95 7.76 7.98 10.78 14.08 9.5 19.21-.34 1.38-1.46 3.88-5.09 5.2-12.75 4.63-59.53-8.87-119.43-52.53-21.34-15.55-38.17-29.57-48.7-40.54-11.53-12.03-15.36-19.92-12.4-25.61 3.63-6.97 14.3-5.05 23.2-2.29l6.28-7.87c-13.65-5.22-23.06-6.85-29.56-6.85z" fill="#ed8019"/><path d="m150.34 113.07h12.33v23.17h-12.33z" transform="matrix(.8673 -.4979 .4979 .8673 -41.2852 94.4632)"/><path d="m191.08 102.91h12.33v21.9h-12.33z" transform="matrix(.9855 -.1699 .1699 .9855 -16.4774 35.1673)"/><path d="m230.12 110.12h22.49v12.33h-22.49z" transform="matrix(.218 -.9759 .9759 .218 75.2607 326.4913)"/><path d="m274.75 137.93h22.8v12.33h-22.8z" transform="matrix(.68779733 -.72590278 .72590278 .68779733 -15.263235 252.68628)"/><path d="m299.2 185.36h19.72v12.33h-19.72z"/><path d="m89.88 256.9h22.59v12.33h-22.59z" transform="matrix(.962 -.2732 .2732 .962 -68.0136 37.6432)"/><path d="m110.21 295.35h25.07v12.33h-25.07z" transform="matrix(.76520238 -.64378981 .64378981 .76520238 -165.292519 149.820331)"/><path d="m151.57 318.64h23.27v12.33h-23.27z" transform="matrix(.27189397 -.96232722 .96232722 .27189397 -193.753455 393.543401)"/><path d="m201.69 321.49h12.33v20.1h-12.33z" transform="matrix(.9998 -.0185 .0185 .9998 -6.1026 3.905)"/><path d="m244.48 315.51h12.33v27.04h-12.33z" transform="matrix(.9284 -.3715 .3715 .9284 -104.308 116.6785)"/><path d="m486.6 79.32h12.33v46.83h-12.33z" transform="matrix(.9868 -.1622 .1622 .9868 -10.1382 81.2886)"/><path d="m455.36 99.81h12.33v40.71h-12.33z" transform="matrix(.9871 -.1598 .1598 .9871 -13.2735 75.3046)"/><path d="m424.78 95.07h12.33v27.33h-12.33z" transform="matrix(.9863 -.1648 .1648 .9863 -12.0281 72.5128)"/><path d="m72.94 18.21h12v24.35h-12z"/><path d="m34.59 35.69h12v18.76h-12z" transform="matrix(.26769245 -.96350441 .96350441 .26769245 -13.694992 72.11352)"/><path d="m20.18 77.57h20.55v12h-20.55z" transform="matrix(.9865008 -.16375642 .16375642 .9865008 -13.277441 6.116451)"/><path d="m661.05 201.14h12v18.54h-12z" transform="matrix(.04510146 -.99898241 .99898241 .04510146 426.744329 867.275161)"/><path d="m655.28 244.78h21.04v12h-21.04z"/><path d="m660.88 273.6h12v23.45h-12z" transform="matrix(.14449436 -.98950562 .98950562 .14449436 288.162554 903.964258)"/><path d="m658.62 318.6h19.86v12h-19.86z"/></svg>