<svg viewBox="0 0 681.61 533.78" xmlns="http://www.w3.org/2000/svg" xmlns:xlink="http://www.w3.org/1999/xlink"><clipPath id="a"><path d="m-658.9-600.89s-91.45 0-91.45 91.18v351.41s0 91.19 91.45 91.19h498.7s91.46 0 91.46-91.19v-351.41s0-91.18-91.46-91.18z"/></clipPath><clipPath id="b"><path d="m-659.53-.69s-91.55 0-91.55 91.29v351.78s0 91.28 91.55 91.28h499.23s91.55 0 91.55-91.28v-351.78s0-91.29-91.55-91.29z"/></clipPath><clipPath id="c"><path d="m91.46 0s-91.46 0-91.46 91.18v351.42s0 91.18 91.46 91.18h498.7s91.45 0 91.45-91.18v-351.42s0-91.18-91.45-91.18z"/></clipPath><g clip-path="url(#a)"><path d="m-227.43 41 18.66-109.78 18.68-129.85 15-8.94 2.17 1.28c.41.25 41.48 24.44 61.49 29.26 18.1 4.35 67.58 24.19 79.14 63.13 10.29 34.81 34.21 136.67 34.45 137.7l1.16 4.94zm45.17-234.41-18.13 126-16.88 99.41 210-11.16c-4.94-20.93-24.24-102.15-33.19-132.32-9.24-31.15-49.67-51.67-73-57.28-18.72-4.51-52.64-23.71-61.65-28.93z"/></g><g clip-path="url(#b)"><path d="m29.94 225.99h17.18v10h-17.18z" transform="matrix(.51264241 -.85860221 .85860221 .51264241 -179.55 145.65)"/><path d="m-272.39 216.85s9.19 1.46 23.87-15.5l25.28 4.92-5.24 29.4-35.16 9.33.85 15.5 19.35-2.24 1.53 1.39-14.62 29.54 10.7 6.3 24.64-33.66 2 .23 7 25.93 11.87-3.91-.35-37.74s22.78 3.83 36.35-36.17l241.32 33.36-1.67 25.33-35.18 9.34.85 15.51 19.36-2.24 1.52 1.39-14.62 29.54 10.74 6.29 24.61-33.69 2 .23 7 25.94 11.87-3.91-.35-37.75s22.78 3.83 36.35-36.17l312.07 26.15 1.57-13.73-636.81-176.4-47.71 4.56s-2.41-23.08-18.22-24.92-24.21 12.73-24.21 12.73-9.12-19.1-28-13.24c-15 4.66-14.42 30.27-14.42 30.27l-254.45 8.76s-.48-18.91-15-20.58c-19.41-2.22-19.86 19.85-21 30.25a213.7 213.7 0 0 0 -1 22.93l14.34.2s274.64 9.65 317 8.92c3.37-.06 5.26-.08 5.43-.06l.82 4.7-76.43 36.86-232.46 15.26 9.73 10.81z" fill="#028b3f"/><path d="m59.32 335.29-18.61-10.94 13.43-27.13-17.85 2.06-1.35-24.86 35.61-9.42 1.13-17.1-232.68-32.2c-10.69 28.14-26.25 34.33-34.65 35.5l.34 36.51-20.36 6.7-6.21-23.16-22.6 30.86-18.61-10.95 13.44-27.16-17.85 2.07-1.35-24.87 36-9.57 3.82-21.42-17.65-3.44c-13.81 15-23.44 15.3-26.09 15l-298.81-10.12-18.06-20.05 241.7-15.86 65.39-31.53c-57.11-.07-306.18-8.79-311.06-9l-19.14-.26-.06-4.87a214.94 214.94 0 0 1 1-23.57c.1-.83.19-1.74.28-2.7.85-8.44 2.12-21.2 10.46-27.93 4.21-3.39 9.53-4.74 15.85-4 12.22 1.41 17.34 12.13 18.92 20.39l245.3-8.27c.7-8.64 3.83-25.88 17.76-30.21s24.06 2.51 29.85 9.52c4.7-4.8 12.87-10.52 24.39-9.2 14.58 1.67 19.92 16.52 21.75 24.44l44.05-4.21.89.25 640.86 177.52-2.61 22.8-313.06-26.23c-10.69 28.32-26.31 34.53-34.73 35.71l.35 36.5-20.37 6.71-6.21-23.17zm-5.52-14.84 2.8 1.64 23.69-32.36 8.3.95 6.46 24.11 3.38-1.11-.38-40.06 5.89 1c.7.1 18.92 2.12 30.79-32.84l1.26-3.71 311.12 26.07.54-4.66-631.79-175-51.72 5-.52-4.93c0-.18-2.21-19.12-13.81-20.45-12.23-1.4-19 9.81-19.32 10.29l-4.78 8.07-4-8.44c-.75-1.53-7.82-15-22-10.62-11 3.43-10.92 25.17-10.91 25.39l.09 4.93-4.92.17-259.51 8.91-.12-5c0-.58-.59-14.59-10.63-15.74-3.61-.41-6.36.2-8.43 1.86-5.09 4.11-6.11 14.36-6.79 21.14-.1 1-.19 2-.29 2.85-.7 6.06-.91 12.94-1 17.43l9.49.14c2.75.09 275 9.65 316.76 8.91a59.56 59.56 0 0 1 6.08 0l3.72.42 2.11 12.11-80.7 38.93-223.07 14.45 1.42 1.57 295.34 10c1.28-.08 8.36-1.1 19.35-13.8l1.9-2.19 32.94 6.42-6.66 37.38-34.3 9.12.33 6.13 16.34-1.89 6 5.47-14.25 28.75 2.8 1.64 23.69-32.35 8.3.95 6.46 24.11 3.38-1.12-.38-40.05 5.88 1c.69.08 18.93 2.11 30.8-32.85l1.33-3.91 250 34.54-2.22 33.56-34.67 9.22.33 6.14 16.3-1.9 6 5.46z"/><path d="m144.06 245.34-9.2-3.92c.08-.19 7.74-18.58 2.11-32.11-2.28-5.49-6.4-9.36-12.59-11.84l-.27-.12c-1.2-.53-12.38-4.94-21.56 9.9l-8.55-5.25c11.24-18.14 27.18-17 34.18-13.75 8.65 3.49 14.7 9.31 18 17.27 7.27 17.48-1.73 38.91-2.12 39.82z"/><path d="m-183.69 79.36 32.41-27.91 17.73 24.23 33.44-2.55 11.29 15.43 30.61-13.37 18.35 25.08 23.69-14.48 15.61 25.49 27.41-12.35 16.67 22.79 27.13-14.12 16.13 25.91 29.29-15.36 18.27 24.97 25.86-8.02 13.62 23.25 29.41-11.49 11.36 23.46 23.41-13.13 15.2 24.25 26.6-11.55 13.68 22.85 27.08-10.88 13.05 23.39 21.97-10.25 16.75 22.9 26.23-10.68 18.69 18.26 23.38-7.96 12.47 38.27z" fill="#025bc7"/><path d="m460.74 263.09-654.74-181.42 43.61-37.54 19.28 26.35 33.44-2.55 10.57 14.44 30.56-13.37 18 24.6 24-14.69 15.93 26 27.08-12.2 16.53 22.6 27.45-14.31 16.12 25.89 29-15.2 18.7 25.56 26.24-8.13 13.47 23 29.74-11.62 11.05 22.84 22.94-12.86 15.44 24.64 26.69-11.58 13.73 22.95 27.22-10.93 12.92 23.17 21.47-10 16.88 23.07 25.65-10.44 18.84 18.39 25.27-8.6zm-634.07-186.09 618.79 171.48-8-24.59-21.46 7.31-18.54-18.11-26.86 10.91-16.6-22.73-22.46 10.48-13.17-23.61-27 10.83-13.61-22.74-26.52 11.5-15-23.85-23.89 13.4-11.61-24.08-29.07 11.36-13.78-23.51-25.48 7.95-17.83-24.37-29.58 15.46-16.14-25.91-26.86 13.96-16.81-23-27.71 12.51-15.31-25-23.35 14.28-18.7-25.56-30.61 13.37-12-16.42-33.44 2.56-16.18-22.11z"/><path d="m79.84 245.03-9.2-3.91 3.73-8.78-225.79-44.49-8.17 23.95-9.47-3.23 11-32.22 246.45 48.56z"/><path d="m-7.8 221.31h19.21v10h-19.21z" transform="matrix(.59888384 -.80083591 .80083591 .59888384 -180.52 92.22)"/></g><path d="m91.46 0s-91.46 0-91.46 91.18v351.42s0 91.18 91.46 91.18h498.7s91.45 0 91.45-91.18v-351.42s0-91.18-91.45-91.18z" fill="#f0bc00"/><path d="m29.47 342.1h-6c0-3.68-1.79-5.42-5-8.18s-7-6.12-7-12.71 3.9-10 7-12.7 5-4.51 5-8.18-1.79-5.42-5-8.18-7-6.12-7-12.71 3.9-10 7-12.7 5-4.5 5-8.18-1.79-5.42-5-8.18-7-6.11-7-12.7 3.9-10 7-12.7 5-4.51 5-8.18-1.79-5.42-5-8.18-7-6.12-7-12.7 3.9-10 7-12.71 5-4.5 5-8.17h6c0 6.58-3.9 10-7 12.7s-5 4.5-5 8.18 1.8 5.41 5 8.17 7 6.12 7 12.71-3.9 10-7 12.7-5 4.5-5 8.18 1.8 5.42 5 8.18 7 6.12 7 12.7-3.9 10-7 12.71-5 4.5-5 8.17 1.8 5.42 5 8.18 7 6.12 7 12.71-3.9 10-7 12.7-5 4.51-5 8.18 1.8 5.42 5 8.18 7 6.12 7 12.71z" fill="#1026b0"/><g clip-path="url(#c)"><path d="m438 160.74a47.76 47.76 0 0 1 36.81 25c4 7.76 6.4 17.24 13.86 21.8 5.43 3.33 12.21 3.13 18.56 3.59 8.49.61 17.08 2.68 24.06 7.55 9.52 6.63 15 17.76 17.73 29 2.24 9.42 3.28 20.15 10.65 26.44 6.59 5.63 16.23 5.81 23.85 9.95 12 6.52 16.66 21.42 17.5 35 1 16.79-2.76 35-15.22 46.34-9.23 8.36-21.92 11.8-34.3 13.19-13.07 1.46-26.73.86-38.69-4.6-18.2-8.32-29.82-26.54-37.66-44.95-7.72-18.13-12.79-37.29-20.24-55.54s-17.7-36-33.4-47.91c-4.51-3.43-9.41-6.32-14.05-9.57-2.39-1.68-4.79-3.54-6.2-6.11a16.8 16.8 0 0 1 -1.66-8.05c-.1-20.92 18.33-40.2 39.23-41"/><path d="m539.7 379.86c-10.35 0-19.29-1.77-27.11-5.34-15.59-7.12-28-21.91-37.91-45.2-4.08-9.57-7.47-19.59-10.75-29.28-2.93-8.67-6-17.65-9.49-26.26-9-21.93-19.83-37.53-33.24-47.71-2.68-2-5.55-3.91-8.32-5.73-1.88-1.23-3.84-2.51-5.72-3.83-2.29-1.61-4.85-3.55-6.35-6.27a17.64 17.64 0 0 1 -1.72-8.29c-.1-21 18-40.2 38.92-41.5v-.2a48.57 48.57 0 0 1 37.2 25.27c1 2 1.95 4.06 2.84 6.09 2.65 6 5.38 12.18 10.84 15.52 4.46 2.73 9.95 3 15.26 3.32 1 .06 2.06.11 3.08.19 9.87.71 18 3.28 24.3 7.64 10.83 7.55 15.73 20.12 17.92 29.33.39 1.61.73 3.25 1.08 4.9 1.68 7.95 3.42 16.17 9.42 21.29 3.75 3.21 8.45 4.59 13.43 6.05a53 53 0 0 1 10.33 3.84c6 3.27 16.32 12.22 17.76 35.43 1.23 19.72-4.38 36.76-15.39 46.73-8 7.25-19.3 11.6-34.57 13.31a104.8 104.8 0 0 1 -11.81.7zm-100.87-218.53v.06c-20.75.84-38.86 19.79-38.76 40.56a16.66 16.66 0 0 0 1.6 7.82c1.39 2.54 3.85 4.4 6.05 5.94 1.87 1.31 3.82 2.58 5.7 3.82 2.78 1.82 5.66 3.71 8.37 5.76 13.56 10.29 24.53 26 33.55 48.12 3.53 8.64 6.58 17.63 9.52 26.32 3.27 9.67 6.66 19.67 10.72 29.21 9.82 23.06 22.06 37.68 37.42 44.69 10.49 4.79 23.06 6.29 38.43 4.56 15.05-1.69 26.18-6 34-13.06 10.78-9.78 16.27-26.53 15.07-45.95-1.42-22.74-11.42-31.45-17.26-34.63a51.56 51.56 0 0 0 -10.14-3.76c-4.85-1.43-9.87-2.9-13.79-6.25-6.24-5.33-8-13.72-9.73-21.83-.35-1.64-.7-3.27-1.08-4.87-2.15-9.05-6.95-21.38-17.53-28.76-6.11-4.26-14.12-6.77-23.81-7.47-1-.07-2-.13-3.06-.18-5.44-.3-11.05-.61-15.72-3.47-5.72-3.5-8.52-9.83-11.22-16-.89-2-1.81-4.11-2.82-6a47.61 47.61 0 0 0 -35.51-24.63z"/><path d="m249.15 226.49s-62.41 22.7-75.76 79.52-19 131.34-19 131.34h5.27l115.68-2.93 10.87-189.64-16.95-20.51z" fill="#e679a6"/><path d="m154.39 441.25h-4.21l.32-4.2c.05-.75 5.82-75.47 19.09-131.93 5.67-24.15 21-46 44.36-63.32a148.3 148.3 0 0 1 33.86-19l.44-.16 22.68-2.51 19.27 23.32-11.2 194.78-119.29 3zm4.25-7.81h1l112-2.84 10.58-184.51-14.63-17.7-17.52 1.93c-5.35 2.09-60.73 24.91-72.87 76.59-11.33 48.2-17.14 110.01-18.56 126.53z"/><path d="m403.35 163.85s1.33 21.8 25.24 13.06 20.2-28.82 7.83-36.82z" fill="#de2c71"/><path d="m418.37 182.89a18.24 18.24 0 0 1 -10.21-2.89c-8-5.22-8.69-15.5-8.72-15.94l-.13-2.15 37-26.58 2.24 1.45c7.88 5.1 12.35 13.94 11.39 22.51-.61 5.43-4 15.42-20 21.26a34.05 34.05 0 0 1 -11.57 2.34zm-10.78-17.27c.52 2.27 1.81 5.9 4.89 7.89 3.36 2.18 8.33 2.08 14.77-.27 8.92-3.26 14.21-8.51 14.92-14.79.54-4.8-1.74-10-5.79-13.51z"/><path d="m280.66 188.08c-15-2-31-4.27-42.63-14-9.88-8.25-15.18-20.62-19.92-32.58-9.73-24.54-18.7-51.23-12.47-76.89 3.36-13.91 11.16-26.93 11.36-41.26.1-6.8-1.53-13.51-1.84-20.31a53.14 53.14 0 0 1 27-47.89c-.82-4.36.77-8.77 2.56-12.83 7.22-16.46 18.47-31.63 34-40.74s35.58-11.37 51.6-3.22c17.43 8.87 28 28.31 46 36 14.23 6.06 32.81 4.78 42.28 17s3.83 31.64 13.1 44.1c4.65 6.26 12.31 9.69 17.15 15.81a23.76 23.76 0 0 1 3.83 21.84c-2.34 7-8.07 14-5.45 20.91.9 2.36 2.68 4.26 4.27 6.23 13.09 16.32 13.21 40.42 4.48 59.43s-24.93 33.61-42.28 45.32c-7.45 5-15.24 9.65-23.68 12.72-35 12.74-75.63-2.58-110.37 10.79"/><path d="m279.83 189-.2-.52c-13.53-1.76-30.07-4.1-41.91-14-9.76-8.14-15.06-20.15-20.06-32.77-9.37-23.64-18.84-51.06-12.49-77.18a139.91 139.91 0 0 1 5-15.25c3.08-8.35 6.26-17 6.39-25.92a80.43 80.43 0 0 0 -.94-11.41c-.38-2.9-.77-5.89-.91-8.87a53.52 53.52 0 0 1 26.9-48.17c-.69-4.34.86-8.69 2.65-12.76 5.64-12.84 16.15-30.38 34.17-41 16.72-9.83 36.67-11.07 52.07-3.23 8.36 4.25 15.23 11 21.87 17.52 7.24 7.11 14.72 14.46 24.07 18.44 4.92 2.09 10.45 3.33 15.81 4.52 10 2.23 20.39 4.53 26.67 12.65 4.87 6.31 5.86 14.5 6.81 22.42.93 7.67 1.88 15.61 6.4 21.69 2.35 3.17 5.57 5.66 8.68 8.07a47.65 47.65 0 0 1 8.42 7.77 24.39 24.39 0 0 1 3.91 22.3 57 57 0 0 1 -2.63 6.16c-2.37 5-4.61 9.71-2.82 14.42a19.06 19.06 0 0 0 3.36 5.09l.83 1c12.19 15.2 14 39.29 4.54 59.94-7.55 16.43-21.42 31.32-42.42 45.49-9.17 6.18-16.5 10.12-23.79 12.77-17.38 6.33-36.41 5.76-54.83 5.21-18.73-.57-38.08-1.14-55.55 5.62zm28.49-295.17a58.39 58.39 0 0 0 -29.43 8.17c-17.8 10.46-28.2 27.81-33.78 40.52-1.77 4-3.3 8.35-2.52 12.54l.06.34-.31.17a52.51 52.51 0 0 0 -26.69 47.43c.13 2.93.52 5.91.9 8.78a80.71 80.71 0 0 1 .94 11.56c-.13 9.11-3.34 17.81-6.44 26.24a141.6 141.6 0 0 0 -4.94 15.14c-6.27 25.84 3.14 53.08 12.46 76.59 5 12.5 10.19 24.38 19.78 32.38 11.89 9.93 28.78 12.12 42.35 13.88 17.32-6.31 36.31-5.74 54.69-5.19s37.26 1.12 54.47-5.15c7.21-2.63 14.48-6.53 23.57-12.66 20.85-14.07 34.63-28.82 42.1-45.11 9.33-20.32 7.56-44-4.41-58.92-.27-.34-.55-.67-.83-1a19.41 19.41 0 0 1 -3.51-5.36c-1.94-5.1.49-10.23 2.85-15.19a55.48 55.48 0 0 0 2.58-6 23.34 23.34 0 0 0 -3.75-21.38 46.92 46.92 0 0 0 -8.29-7.61c-3.16-2.45-6.43-5-8.86-8.26-4.68-6.29-5.65-14.35-6.59-22.15s-1.91-15.85-6.62-21.94c-6.06-7.84-15.8-10-26.11-12.3-5.39-1.2-11-2.44-16-4.57-9.49-4.05-16.99-11.46-24.34-18.63-6.59-6.47-13.4-13.15-21.65-17.35a47.7 47.7 0 0 0 -21.68-5.01z"/><path d="m282.05 202.37 109.28-2.27 2.4-57.84c-22.11-9.33-26.93-30.83-26.93-30.83-15.44-36.66 30.35-40.07-3.8-66.26s-28.66-31.75-29.62-47-8.19-21.32-33-28.14-24.38-20.96-24.38-20.96c-12.93 1.6-23.76 8.8-31.13 19.4-13 18.7-16.58 42.19-17.16 64.49a654.41 654.41 0 0 0 2.7 77.7c1.84 19.36 7.31 38.65 21.88 52.37 5.7 5.37 12.63 6.6 20.21 8.66.47.13 6 1.13 9.38 1.47z" fill="#c4681f"/><path d="m278.16 206.36-.16-29.76c-2.95-.43-6-1-6.52-1.14l-2.89-.76c-6.53-1.71-13.29-3.47-19-8.83-13.22-12.45-20.77-30.39-23.09-54.85a654 654 0 0 1 -2.72-78.16c.75-29 6.43-50.18 17.86-66.63 8.27-11.89 20.3-19.36 33.86-21l4.53-.56-.15 4.57c0 .38.35 11.21 21.47 17 13.86 3.76 21.65 7.17 26.96 11.67 5.6 4.76 8.35 10.92 8.92 20 .14 2.26.15 4.34.15 6.17 0 10.39.06 16.66 27.94 38 19.59 15 16 24.46 8.79 36.2-5 8.09-10.11 16.45-3.71 31.64l.14.32.07.34a43.21 43.21 0 0 0 24.64 28.09l2.5 1.05-2.67 64.22zm-5.28-252.79c-9.85 2.17-18.56 8.16-24.8 17.13-10.52 15.13-15.75 34.94-16.47 62.36a644.84 644.84 0 0 0 2.7 77.23c2.12 22.48 8.88 38.8 20.66 49.89 4.23 4 9.49 5.36 15.59 6.95l3 .79c.49.11 5.59 1 8.73 1.35l3.5.35.17 28.76 101.65-2.12 2.13-51.53c-20.3-9.85-25.88-29.07-26.64-32.08-7.76-18.72-.75-30.13 4.37-38.47 5.75-9.35 8.63-14-6.87-25.9-29.55-22.63-31-30.72-31-44.19 0-1.81 0-3.68-.14-5.71-.9-14.23-8.31-18.63-30.13-24.62-18.82-5.17-24.65-14.56-26.45-20.19z"/><path d="m332.49 44.86a6.78 6.78 0 0 1 -6.6 6.8 6.49 6.49 0 0 1 -6.89-6.18 6.78 6.78 0 0 1 6.59-6.79 6.49 6.49 0 0 1 6.9 6.17z"/><path d="m340.31 46.05c-15.35-13.18-26.44-1.72-27.66-.37l-5.86-5.18c.17-.19 17.06-18.89 38.61-.38z"/><path d="m263.68 44.18a6.79 6.79 0 0 1 -6.6 6.79 6.49 6.49 0 0 1 -6.94-6.17 6.78 6.78 0 0 1 6.59-6.8 6.49 6.49 0 0 1 6.95 6.18z"/><path d="m271.5 45.36c-15.36-13.18-26.45-1.72-27.66-.37l-5.84-5.17c.17-.19 17.06-18.9 38.61-.39z"/><path d="m283.69 96.46c-7.26 0-14.21-.65-16.75-2.86-2.37-2.08-2.14-5.27 1.09-14.86 1.76-5.24 4.44-12.32 8-21 6-14.78 12.39-29.43 12.45-29.57l7.16 3.14c-10.12 23-20.52 49-22.2 56.71 3.41.62 11 .83 18.41.43l.42 7.8c-2.76.11-5.7.21-8.58.21zm-11.83-8.92"/><path d="m288.65 122.1c-.89 0-1.8 0-2.74-.11l.6-7.79c16.93 1.29 18.76-14.18 18.91-16l7.8.62c-.02.29-2.08 23.28-24.57 23.28z"/><path d="m276.77 23.29c-16.34-14-32.85-2.26-33.55-1.75l-4.61-6.32c7.62-5.56 26.46-12.28 43.25 2.14z"/><path d="m345.11 29.76c-16.34-14-32.85-2.26-33.54-1.76l-4.57-6.31c7.62-5.57 26.46-12.28 43.25 2.14z"/><path d="m260.19 231.65 17-14.86s-9.59-25.08 14.8-23.63 69.32-1.92 91.64-10.09 14 26.85 14 26.85 7.5 11-.12 39.29-30.7 160.17-30.7 160.17h-112.64z" fill="#e89c1f"/><path d="m370.08 413.29h-120l6.22-183.47 16.38-14.29c-1.24-4.47-2.82-13.4 1.9-19.84 3.49-4.75 9.43-6.92 17.64-6.43 33.62 2 75.11-4.39 90.05-9.86 8.11-3 12.9-.85 15.49 1.45 7.61 6.77 5 23.15 3.95 28.48 2.05 4.24 6.05 16.64-.48 40.9-7.49 27.83-30.39 158.51-30.62 159.82zm-111.87-7.82h105.31c3.67-20.86 23.2-131.24 30.2-157.28 6.93-25.74.7-36 .64-36.12l-1-1.43.44-1.62c1.72-7.29 2.49-19-1.22-22.33-1.45-1.28-4-1.26-7.6.05-24 8.8-70.37 11.69-93.21 10.33-5.38-.32-9 .76-10.85 3.23-3.13 4.24-1.11 12.34-.06 15.1l1 2.54-2 1.79-15.86 13.75z"/><path d="m305.79 232.65c-12.65 0-22-2.93-27.94-8.77a21.21 21.21 0 0 1 -6.34-16.72l7.76 1-3.88-.48 3.88.44a13.37 13.37 0 0 0 4.17 10.33c4.32 4.16 14.11 8.47 36.24 5.34 7.88-1.12 14.07-3.34 20.06-5.5 10.1-3.63 20.55-7.39 37.83-5.14l-1 7.76c-15.4-2-24.1 1.12-34.18 4.74-6.36 2.29-12.93 4.65-21.61 5.88a106.88 106.88 0 0 1 -14.99 1.12z"/><path d="m292.12 229.41c-11.2-28.11 13.08-39.39 13.33-39.5l3.2 7.14-1.6-3.57 1.62 3.56a23 23 0 0 0 -8 6.89c-4.38 6.1-4.8 13.7-1.26 22.59z"/><path d="m330 227.79-7.38-2.59c6.12-17.43-2.05-28.92-2.4-29.4l6.28-4.66c.41.61 11 15.14 3.5 36.65z"/><path d="m273.32 215.85c-5.13-1.2-23.64 9.28-24.17 10.64s-17 22.62-20.89 71.94l11.44 9.13-12.47 4.23s-4.46 65.61 20.77 111.69l6.21-14.1 6-177.73z" fill="#e7e5c2"/><path d="m248.33 432.32-3.8-7c-25.44-46.55-21.39-111.11-21.21-113.84l.18-2.6 8.17-2.77-7.46-6 .16-2.07c2.32-29.7 9.54-54.84 20.87-72.72.16-.25.29-.45.37-.59.45-.94 2.07-3.11 12.16-8.1 11.68-5.78 15.26-4.94 16.44-4.67l6.16 1.44-16.31 19.64-6 177.15zm-17.33-117.68c-.44 11.73-1.08 61 16.72 99.67l2.57-5.82 6-178.31 5.7-6.86a66.25 66.25 0 0 0 -9.7 5.49c-.13.22-.29.46-.48.77-10.4 16.4-17.13 39.56-19.52 67.09l15.43 12.33zm14.54-89.64v.09z"/><path d="m185.92 427c-3.1-48.17 7.36-91.64 7.81-93.46l7.59 1.85c-.11.44-10.61 44.17-7.6 91.11z"/><path d="m415.55 204.31s38.46 22.74 57.67 27.36 60.42 23.12 70 55.41 31.67 126.51 31.67 126.51l-202.83 10.78 16.36-96.27 16.94-117.7z" fill="#e679a6"/><path d="m367.39 428.54 17.18-101.09 17.19-119.45 13.78-8.23 2 1.19c.38.22 38.18 22.49 56.6 26.92 16.65 4 62.2 22.26 72.83 58.1 9.5 32 31.5 125.78 31.72 126.73l1.07 4.54zm41.61-215.74-16.71 115.86-15.55 91.55 193.26-10.28c-4.54-19.22-22.31-94-30.54-121.74-8.51-28.67-45.71-47.55-67.16-52.72-17.23-4.15-48.45-21.82-56.74-26.62z"/><path d="m399 193.94s16.51 7.16 16.51 10.37 11.71 17 1.93 104l-14.79 3.19s10.79 13.83 2.67 42.86-26.24 58.66-26.24 58.66l-12.32-3.67z" fill="#e7e5c2"/><path d="m380.89 417.66-18.46-5.5 33.5-223.83 4.67 2c18 7.82 18.82 11.73 18.86 13.7.07.26.25.75.4 1.17 2.47 6.94 10 28.09 1.5 103.55l-.31 2.79-12.44 2.69c2.93 6.81 6.32 20.44.52 41.2-8.17 29.21-25.92 58.41-26.67 59.64zm-9.72-11.06 6.14 1.83c4.49-7.76 17.77-31.79 24.29-55.09 7.49-26.82-1.89-39.28-2-39.41l-3.82-4.93 18.12-3.91c5.17-47.38 4.7-80.1-1.41-97.27a15.75 15.75 0 0 1 -.75-2.5c-1.21-1.19-5.09-3.46-9.6-5.67z"/><path d="m451.85 332.55c-3.4-33 11.17-52.32 24-62.69a77.3 77.3 0 0 1 28.84-14.59l1.71 7.63-.85-3.82.85 3.81a71.08 71.08 0 0 0 -25.87 13.24c-16.3 13.3-23.34 32-20.91 55.62z"/><path d="m462.58 373.38h7.82v41.46h-7.82z" transform="matrix(.9763715 -.21609881 .21609881 .9763715 -74.16 110.14)"/><path d="m269.22 249.14h27.45v7.82h-27.45z" transform="matrix(.58453292 -.81136999 .81136999 .58453292 -87.77 334.7)"/><path d="m310.51 252.07h7.82v24.24h-7.82z" transform="matrix(.67803139 -.73503295 .73503295 .67803139 -92.96 316.14)"/><path d="m333.42 239.45h20.7v7.82h-20.7z" transform="matrix(.74594115 -.66601187 .66601187 .74594115 -74.74 290.78)"/><path d="m372.15 233.96h7.82v27.46h-7.82z" transform="matrix(.95666124 -.29120314 .29120314 .95666124 -55.82 120.21)"/><path d="m357.1 263.53h7.82v23.32h-7.82z" transform="matrix(.57714519 -.81664156 .81664156 .57714519 -72.07 411.21)"/><path d="m320.26 286.35h26.14v7.82h-26.14z" transform="matrix(.96 -.28 .28 .96 -67.9 104.86)"/><path d="m294.48 274.02h7.82v25.07h-7.82z" transform="matrix(.90645525 -.42230187 .42230187 .90645525 -93.1 152.81)"/><path d="m259.34 289.03h21.05v7.82h-21.05z" transform="matrix(.97 -.25 .25 .97 -65.51 78.09)"/><path d="m288.84 304.34h7.82v24.26h-7.82z" transform="matrix(.62959163 -.77692624 .77692624 .62959163 -137.43 344.69)"/><path d="m308.11 324.08h29.66v7.82h-29.66z" transform="matrix(.39089178 -.92043664 .92043664 .39089178 -105.19 497.03)"/><path d="m384.91 198.73h7.82v18.31h-7.82z" transform="matrix(.60237243 -.79821517 .79821517 .60237243 -11.34 393)"/><path d="m367.92 289.54h7.82v22.34h-7.82z" transform="matrix(.24953504 -.96836577 .96836577 .24953504 -12.17 585.72)"/><path d="m353.92 310.87h7.82v23.41h-7.82z" transform="matrix(.7033947 -.71079947 .71079947 .7033947 -123.15 350.01)"/><path d="m345.53 334.85h7.82v27.46h-7.82z" transform="matrix(.53818251 -.84282832 .84282832 .53818251 -132.42 455.46)"/><path d="m308.61 228.31h7.82v12.8h-7.82z" transform="matrix(.95486454 -.29704158 .29704158 .95486454 -55.62 103.44)"/><path d="m258.06 326.51h17.46v7.82h-17.46z" transform="matrix(.98006365 -.19868377 .19868377 .98006365 -60.31 59.57)"/><path d="m297.3 338.63h7.82v24.85h-7.82z" transform="matrix(.75756498 -.65275975 .65275975 .75756498 -156.13 281.7)"/><path d="m262.99 364.6h25.76v7.82h-25.76z" transform="matrix(.70550059 -.70870933 .70870933 .70550059 -179.92 304.05)"/><path d="m290.95 381.71h7.82v26.16h-7.82z" transform="matrix(.96278615 -.27026439 .27026439 .96278615 -95.74 94.4)"/><path d="m316.7 365.83h28.25v7.82h-28.25z" transform="matrix(.91692083 -.39906916 .39906916 .91692083 -120.08 162.77)"/><path d="m348.48 380.39h7.82v28.77h-7.82z" transform="matrix(.80062681 -.59916334 .59916334 .80062681 -166.27 289.84)"/><path d="m309.36 399.32h24.09v7.82h-24.09z" transform="matrix(.38413419 -.92327728 .92327728 .38413419 -174.36 545.05)"/><path d="m291 178.23a69.5 69.5 0 0 1 -19.7-2.82l2.4-7.41c.32.11 32.2 10.07 48.93-11.51l6.18 4.79c-8.38 10.82-21.05 16.68-36.63 17z"/><path d="m366.8 146.66a35.23 35.23 0 1 1 35.2-35.23 35.26 35.26 0 0 1 -35.2 35.23zm0-62.65a27.42 27.42 0 1 0 27.41 27.42 27.45 27.45 0 0 0 -27.41-27.43z"/><path d="m222.31 143.61a35.23 35.23 0 1 1 0-70.46v7.85a27.42 27.42 0 0 0 0 54.84z"/><path d="m264.37 347.17s107.53 50 119.56 83 28.53 139.41 28.53 139.41l-29.39 10.79-459.3 12.23s-2.17-111.1 9-134.45-6.87-32.11 141.22-116l54.76-16.67 73-18.54 51.42 42.57z" fill="#dc0816"/><path d="m-80.07 596.65-.07-3.93c-.09-4.58-2.06-112.3 9.38-136.22a71.2 71.2 0 0 0 3.46-9.17c6-18.64 11.73-36.24 139.35-108.51l.38-.21.41-.12 54.93-16.72 75-19 51.49 42.62 10.6-2.29 1.19.56c4.45 2.07 109.15 51 121.59 85.24 12 33.06 28 135.8 28.71 140.15l.49 3.17-33 12.11h-.64zm155.6-250.81c-124.61 70.59-129.85 86.77-135.39 103.9a76.92 76.92 0 0 1 -3.85 10.13c-8.23 17.22-9.29 89.53-8.68 128.76l454.72-12.11 25.77-9.46c-2.85-17.88-17.24-106.35-27.84-135.52-3.21-8.82-16.66-25-62.55-51.85-24.58-14.4-48.33-25.82-53.81-28.42l-11.73 2.54-51.35-42.51-71 18z"/><path d="m220.17 161.82s-1.77 11-2.19 16c-.16 1.81.61 21.93-4.24 23.06-4.18 1-12.64-2.62-16.58-10.85s-11.55-28-11-37.1c.71-12.41 1-25-1.84-37.13s-8.97-23.8-18.97-31.22-24.18-9.7-35.14-3.83c-6.76 3.62-11.73 9.85-18 14.26-5.64 4-12.59 6.45-19.44 5.62s-13.43-5.41-15.47-12c-2.23-7.19 1.29-15.23 7-20.18s13.1-7.36 20.45-9c20.37-4.62 42.1-4.38 61.76 2.66s37.32 21.11 46.15 40c10.2 21.89 9.45 35.5 7.55 59.7" fill="#263238"/><path d="m76.74 86.08c-.53-2.45.24-3.85-1.17-4.82-1.57-1.11-4.57 1.99-5.57 3.22-.34.39-1.49-1.08-1.93-1.35a8.19 8.19 0 0 1 -.94-3.13c.16-1.72 2.84-2.26 4.08-3.46a12.74 12.74 0 0 1 4.41-2.66c1.41-.54 3.16-.86 4.29.14a4.12 4.12 0 0 1 1 3.19 8.93 8.93 0 0 1 -.56 3.36 4.72 4.72 0 0 1 -2.22 2.51" fill="#263238"/><path d="m221.26 136.54s-23 9.15-35 14.61l.36-11.92 33.52-14.3s1.07 8.82 1.12 11.61z" fill="#ebebeb"/><path d="m218.6 118.1c-.14-.3-7.45 2.72-16.32 6.76s-15.95 7.54-15.82 7.85 7.44-2.71 16.32-6.71 15.95-7.6 15.82-7.9z" fill="#ebebeb"/><path d="m57.79 134.29c1.34 1.61 6.31-.28 12.35-.57 6-.5 11.2.73 12.31-1.05.49-.86-.37-2.49-2.66-4a17.91 17.91 0 0 0 -19.88 1.33c-2.07 1.77-2.72 3.5-2.12 4.29z"/><path d="m222.12 168.57c21.2-2.18 29.36 23 19.48 39.26a26.42 26.42 0 0 1 -22 13l-1 92.7s-10.11 50.36-68.47 51.92-56.17-44.94-56.17-44.94l-.44-16.75s-41.29-7.48-47.25-41.94 2.27-153.62 2.27-153.62l18.59-28.2 17.33-6.8 80.92-3.85 37.34 36.08 1 64.73z" fill="#e59d6c"/><path d="m147.24 369.42c-19.2 0-34-5.17-44-15.41-13.45-13.69-13.3-31.47-13.24-33.49l-.36-13.6a83.49 83.49 0 0 1 -19.47-7.76c-15.54-8.68-25.15-21.35-27.8-36.65-6-34.53 1.94-149.69 2.27-154.58l.08-1 19.83-30.1 19.08-7.49h.64l82.61-3.93 39.73 38.39 1 62.16 14.18-1.23c9.71-1 18.19 3 23.27 11.08 6.19 9.78 6.16 23.81-.08 34.1a30.6 30.6 0 0 1 -21.5 14.57l-1 89.54-.08.36a71.92 71.92 0 0 1 -13.08 27c-9.48 12.34-27.43 27.22-59.11 28.06-1.02-.03-2-.02-2.97-.02zm-94.86-259.93c-.79 11.71-7.83 119.76-2.31 151.69 2.25 13 10.23 23.45 23.72 31a74.3 74.3 0 0 0 20.38 7.72l3.11.57.54 20.06v.15c0 .15-.53 16.15 11 27.89 9 9.09 22.8 13.43 41.12 13 23-.61 40.84-9 53.12-25a65.65 65.65 0 0 0 11.55-23.44l1.06-96.05 3.76-.1a22.4 22.4 0 0 0 18.78-11.15c4.76-7.86 4.83-18.49.16-25.87-2.47-3.91-7.25-8.37-15.9-7.48h-.06l-22.57 2-1-67.3-35-33.79-78.55 3.68-15.58 6.12z"/><path d="m99.1 307.92q-2.94 0-5.94-.23l.61-7.8c32 2.55 58.55-19.31 58.81-19.53l5 6c-1.09.93-26.08 21.56-58.48 21.56z"/><path d="m218.55 313.56 45.82 33.61.92 37.99-21.43.72 10.65 33.82-102.96 155.08-4.16.11 70.18-202.84z" fill="#e7e5c2"/><path d="m141.85 579 71.82-207.59 1.1-65.42 53.46 39.22 1.06 43.78-20.15.67 9.66 30.69-105.11 158.29zm80.48-257.77-.86 51.56-.21.59-64.57 186.62 93.53-140.89-11.63-36.95 22.7-.75-.78-32.2z"/><path d="m302.57 481.59-7.39-2.59c10.4-30.06 29.13-43.34 43-49.18 15.1-6.36 27.69-5.52 28.22-5.49l-.57 7.8.28-3.9-.27 3.9a60.06 60.06 0 0 0 -24.95 5c-17.89 7.71-30.78 22.65-38.32 44.46z"/><path d="m299.93 510.02h7.82v85.56h-7.82z" transform="matrix(.99335269 -.11511052 .11511052 .99335269 -61.62 38.66)"/><path d="m105.32 242.59c-.6 0-1.21 0-1.84-.05l.4-7.81c16.94.87 18.37-14.67 18.48-16.44l7.81.41c-.02.3-1.5 23.89-24.85 23.89z"/><path d="m97.7 217.12c-6.15 0-11.68-.6-13.93-2.46-2.43-2-2.28-5.21.69-14.88 1.62-5.28 4.11-12.43 7.4-21.24 5.57-14.94 11.6-29.75 11.66-29.9l7.24 3c-9.5 23.3-19.2 49.51-20.68 57.28 3.44.52 11.1.53 18.41-.06l.63 7.79c-3.63.24-7.64.47-11.42.47z"/><path d="m126.77 133-5.25-5.8c16.4-14.85 36.37-8.07 44.63-2.41l-4.41 6.46 2.26-3.25-2.2 3.23c-.8-.54-19.16-12.65-35.03 1.77z"/><path d="m50.81 135.91-5.25-5.8c16.44-14.86 35.44-8.64 43.17-3.28l-4.43 6.44c-.71-.49-17.65-11.72-33.49 2.64z"/><path d="m63.31 169.75a6.79 6.79 0 0 0 6.78 6.61 6.49 6.49 0 0 0 6.78-6.36 6.78 6.78 0 0 0 -6.77-6.62 6.5 6.5 0 0 0 -6.79 6.37z"/><path d="m138.79 167.74a6.78 6.78 0 0 0 6.77 6.61 6.49 6.49 0 0 0 6.78-6.35 6.78 6.78 0 0 0 -6.77-6.62 6.49 6.49 0 0 0 -6.78 6.36z"/><path d="m131.65 169.12-5.25-5.8c21.06-19.08 38.43-.83 38.6-.64l-5.72 5.32c-1.28-1.31-12.63-12.48-27.63 1.12z"/><path d="m55.53 171.14-5.25-5.79c21.06-19.08 38.43-.83 38.61-.64l-5.72 5.29c-1.25-1.28-12.64-12.45-27.64 1.14z"/><path d="m218.82 208.36-1.45-7.68c5.25-1 6.26-4.51 6.4-6.53.22-3.27-1.66-7.46-5.57-8.77a37.67 37.67 0 0 0 -11.12-1.76l.16-7.82a45.37 45.37 0 0 1 13.44 2.2 16.52 16.52 0 0 1 10.89 16.71c-.48 7.02-5.37 12.29-12.75 13.65z"/><path d="m153 398.75c-35 0-55.09-17.12-57.67-19.46-2.07-1.46-10.86-8.77-24.81-35.24l6.92-3.65c14.08 26.73 22.36 32.48 22.44 32.53l.35.22.23.23a61.79 61.79 0 0 0 14.31 9.14 89 89 0 0 0 40.9 8.38c35.12-.94 58.58-27 58.81-27.24l5.87 5.17c-1 1.18-25.86 28.86-64.47 29.89z"/><path d="m187.41 407.43h7.82v20.93h-7.82z" transform="matrix(.63338087 -.77384021 .77384021 .63338087 -253.25 301.29)"/><path d="m139.88 412.38h27.14v7.82h-27.14z" transform="matrix(.73939612 -.67327065 .67327065 .73939612 -240.28 211.78)"/><path d="m167.22 425.78h7.82v25.64h-7.82z" transform="matrix(.99989759 -.01431121 .01431121 .99989759 -6.25 2.49)"/><path d="m116.13 393.72h7.82v23.18h-7.82z" transform="matrix(.42325088 -.90601252 .90601252 .42325088 -297.98 342.51)"/><path d="m107.68 426.56h20.93v7.82h-20.93z" transform="matrix(.68467432 -.72884914 .72884914 .68467432 -276.5 221.86)"/><path d="m140.29 435.54h7.82v29.58h-7.82z" transform="matrix(.80198421 -.59734524 .59734524 .80198421 -240.45 175.31)"/><path d="m143.87 474.28h27.67v7.82h-27.67z" transform="matrix(.78260816 -.62251464 .62251464 .78260816 -263.39 202.12)"/><path d="m154.61 494.63h7.82v27.78h-7.82z" transform="matrix(.68848117 -.72525422 .72525422 .68848117 -319.41 273.36)"/><path d="m117.69 467.9h24.61v7.82h-24.61z" transform="matrix(.6449243 -.76424646 .76424646 .6449243 -314.43 266.89)"/><path d="m131.24 499.83h7.82v21.43h-7.82z" transform="matrix(.37557733 -.92679106 .92679106 .37557733 -388.77 444.01)"/><path d="m188.4 387.39h7.82v12.65h-7.82z" transform="matrix(.95891882 -.28368064 .28368064 .95891882 -103.77 70.71)"/><path d="m197.52 65.8c-50.36-56.75-136.28-3.22-151.09 1.42-7.84 2.46-22.43 4.48-22.06-7.64-7.14 6.08-6.72 20.76-3.49 28.53 2.8 6.74 8.46 8.59 14.49 11.61a25.36 25.36 0 0 0 4.47 1.65c-4.19 15.63-3.94 36.63 4.41 56.46l.51-2.91c1.63-9.17 4.12-35.43 13-51.75 13 .11 26 .37 39-.24 11.35-.53 22.56-2.28 33.93-2.42 19.62-.25 38.85 4.69 49.8 22.32a44.79 44.79 0 0 1 4.75 10.42c.28 8.07-.1 16.28.14 24.56 0 0-1.19 34.33 29.89 26.67 2.22-.54 25.38-79.57-17.75-118.68z" fill="#e89c1f"/><path d="m206.84 189.51a23 23 0 0 1 -14.93-5c-10.51-8.51-10.46-24.93-10.42-26.73-.12-4.08-.09-8.16-.06-12.11s.06-7.93-.06-11.8a40.82 40.82 0 0 0 -4.18-9c-8.74-14.06-23.94-20.76-46.43-20.47-6.31.08-12.76.68-19 1.26-4.82.45-9.81.92-14.79 1.15-11.26.53-22.67.41-33.7.3h-3.13c-6.26 12.89-8.94 31.12-10.57 42.26-.36 2.47-.67 4.59-1 6.23l-2.82 16-5.15-12.22c-7.31-17.38-9.28-37.81-5.44-55.42-.55-.23-1.07-.47-1.57-.72-.8-.4-1.59-.77-2.37-1.14-5.41-2.58-11-5.25-14-12.46-3.75-9-4.24-25.5 4.56-33l6.7-5.71-.26 8.8c-.07 2.66.81 3.65 1.48 4.16 2.52 1.9 8.75 1.76 15.51-.36 1.88-.59 5.47-2.26 10-4.37 14.6-6.81 39-18.21 65.86-21.93 33.13-4.6 59.77 4.1 79.17 25.86 15.47 14.1 24.4 34.34 26.57 60.15a167.65 167.65 0 0 1 -4.44 52.6c-3 11.68-4.53 12.07-6.21 12.48a39.34 39.34 0 0 1 -9.32 1.19zm-74.78-92.92c24.38 0 41.8 8.13 51.77 24.18a48.74 48.74 0 0 1 5.17 11.33l.15.5v.51c.14 4.22.11 8.51.08 12.66 0 3.91-.06 7.95.06 11.92v.25c0 .14-.34 14.18 7.54 20.55 3.79 3.07 9.12 3.93 15.87 2.56 4-10.37 20-78-17.82-112.35l-.3-.31c-41.17-46.39-107.58-15.39-136.01-2.19a108.89 108.89 0 0 1 -10.97 4.8c-4.6 1.38-15.87 4.15-22.6-.92a11.16 11.16 0 0 1 -1.59-1.47 31.22 31.22 0 0 0 1 18c1.84 4.44 5.32 6.1 10.14 8.4.82.39 1.65.79 2.49 1.21a20.46 20.46 0 0 0 3.76 1.38l3.75 1-1 3.76c-3.18 11.81-3.33 25.33-.63 38.24 1.92-12.09 5.08-27.84 11.35-39.33l1.12-2.06 7.89.07c10.92.12 22.21.23 33.25-.29 4.8-.22 9.7-.68 14.43-1.12 6.4-.6 13-1.22 19.63-1.3z"/><path d="m79.47 422.88h27.38v7.82h-27.38z" transform="matrix(.82333453 -.56755638 .56755638 .82333453 -225.77 128.27)"/><path d="m85.36 388.81h7.82v20.38h-7.82z" transform="matrix(.99996491 -.00837748 .00837748 .99996491 -3.34 .76)"/><path d="m48.13 395.21h25.87v7.82h-25.87z" transform="matrix(.98 -.2 .2 .98 -78.33 20.18)"/><path d="m43.49 369.31h30.92v7.82h-30.92z" transform="matrix(.61138894 -.79133025 .79133025 .61138894 -272.42 191.66)"/><path d="m25.59 387.09h7.82v35.15h-7.82z" transform="matrix(.85994137 -.51039284 .51039284 .85994137 -202.39 71.72)"/><path d="m35.44 425.97h37.56v7.82h-37.56z" transform="matrix(.6249702 -.78064861 .78064861 .6249702 -315.24 203.53)"/><path d="m76.93 434.02h7.82v33.51h-7.82z" transform="matrix(.56870542 -.82254127 .82254127 .56870542 -335.91 260.92)"/><path d="m109.63 450.26h7.82v25.26h-7.82z" transform="matrix(.96111724 -.27614063 .27614063 .96111724 -123.42 49.36)"/><path d="m52.36 463.29h24.03v7.82h-24.03z" transform="matrix(.85273134 -.52234974 .52234974 .85273134 -234.54 102.41)"/><path d="m75.46 474.52h7.82v26.83h-7.82z" transform="matrix(.98212336 -.18823845 .18823845 .98212336 -90.45 23.67)"/><path d="m78.9 518.74h31.79v7.82h-31.79z" transform="matrix(.84018822 -.5422949 .5422949 .84018822 -268.26 134.91)"/><path d="m122.58 521.26h7.82v33.74h-7.82z" transform="matrix(.9599032 -.28033166 .28033166 .9599032 -145.78 57.04)"/><path d="m50.19 487.83h7.82v33.92h-7.82z" transform="matrix(.9599032 -.28033166 .28033166 .9599032 -139.34 35.41)"/><path d="m29.66 96.91s10.66 6.62 31.29 6.23" fill="#e89c1f"/><path d="m59.23 107.07c-20.38 0-31.17-6.55-31.63-6.84l4.1-6.65c.1.06 10.13 6 29.17 5.65l.15 7.82z"/><path d="m30.9 446.35h7.82v28.02h-7.82z" transform="matrix(.83657313 -.54785528 .54785528 .83657313 -246.49 94.28)"/><path d="m-5.37 434.63h28.71v7.82h-28.71z" transform="matrix(.86854503 -.49561027 .49561027 .86854503 -216.16 62.1)"/><path d="m-15.51 408.46h26.84v7.82h-26.84z" transform="matrix(.93927406 -.34316794 .34316794 .93927406 -141.66 24.33)"/><path d="m-1.57 468.33h25.4v7.82h-25.4z"/><path d="m7.81 498.88h28.41v7.82h-28.41z" transform="matrix(.70710678 -.70710678 .70710678 .70710678 -349.08 162.83)"/><path d="m271.92 353.45h121.16v170.29h-121.16z"/><path d="m393.66 524.33h-122.33v-171.47h122.33zm-121.15-1.18h120v-169.15h-120z"/><ellipse cx="628.06" cy="242.63" rx="176.34" ry="170.39"/><path d="m628.06 413.51c-97.5 0-176.83-76.66-176.83-170.88s79.33-170.87 176.83-170.87 176.83 76.65 176.83 170.87-79.32 170.88-176.83 170.88zm0-340.78c-97 0-175.85 76.22-175.85 169.9s78.89 169.9 175.85 169.9 175.85-76.22 175.85-169.9-78.91-169.9-175.85-169.9z"/><path d="m553.89 478.1s-62.41 22.7-75.76 79.53-19 131.33-19 131.33h5.26l115.69-2.96 10.92-189.61-17-20.51z" fill="#e7e5c2"/><path d="m459.13 692.87h-4.21l.31-4.21c.06-.75 5.83-75.47 19.09-131.93 5.68-24.14 21-46 44.37-63.32a148.07 148.07 0 0 1 33.86-19l.44-.16 22.68-2.5 19.27 23.31-11.17 194.79-119.28 3zm4.25-7.82h1l112-2.84 10.62-184.51-14.67-17.7-17.52 1.94c-5.35 2.09-60.73 24.91-72.87 76.58-11.33 48.21-17.14 110.01-18.56 126.53z"/><path d="m586.79 454 109.28-2.27 2.4-57.84c-22.11-9.34-26.93-30.89-26.93-30.89-15.44-36.66 30.35-40.07-3.86-66.26s-28.68-31.74-29.62-46.99-8.18-21.33-33-28.15-24.34-20.91-24.34-20.91c-12.93 1.59-23.76 8.79-31.13 19.39-13 18.71-16.58 42.19-17.17 64.49a652.3 652.3 0 0 0 2.71 77.7c1.83 19.36 7.31 38.65 21.87 52.37 5.71 5.37 12.64 6.6 20.22 8.66.47.13 6 1.14 9.37 1.47z" fill="#c4681f"/><path d="m582.9 458-.18-29.75c-2.94-.44-6-1-6.51-1.15l-2.88-.76c-6.54-1.7-13.3-3.47-19-8.83-13.22-12.45-20.77-30.39-23.08-54.84a652.17 652.17 0 0 1 -2.72-78.17c.75-29 6.43-50.18 17.86-66.62 8.27-11.9 20.29-19.37 33.86-21l4.53-.56-.15 4.56c0 .38.35 11.21 21.47 17 13.9 3.75 21.65 7.12 26.9 11.64 5.6 4.76 8.36 10.92 8.93 20 .14 2.26.15 4.34.15 6.17 0 10.39.06 16.67 27.94 38 19.59 15 16 24.47 8.79 36.21-5 8.08-10.11 16.44-3.71 31.63l.13.33.08.34a43.17 43.17 0 0 0 24.69 28.07l2.49 1.05-2.66 64.22zm-5.28-252.79c-9.85 2.17-18.56 8.16-24.8 17.13-10.52 15.13-15.75 34.95-16.47 62.36a646.84 646.84 0 0 0 2.65 77.2c2.13 22.48 8.89 38.8 20.66 49.89 4.24 4 9.5 5.36 15.6 7l3 .78c.5.11 5.59 1 8.74 1.35l3.5.35.17 28.76 101.65-2.11 2.13-51.54c-20.3-9.85-25.88-29.07-26.64-32.07-7.76-18.73-.75-30.13 4.37-38.48 5.75-9.34 8.63-14-6.87-25.9-29.56-22.63-31-30.71-31-44.19 0-1.81 0-3.68-.14-5.71-.89-14.22-8.3-18.62-30.12-24.62-18.8-5.21-24.63-14.59-26.43-20.23z"/><path d="m637.23 296.48a6.79 6.79 0 0 1 -6.6 6.79 6.49 6.49 0 0 1 -6.94-6.17 6.78 6.78 0 0 1 6.59-6.8 6.49 6.49 0 0 1 6.95 6.18z"/><path d="m645.05 297.66c-15.76-13.53-27.17-.92-27.65-.38l-5.87-5.16c.17-.19 17.05-18.9 38.61-.39z"/><path d="m568.42 295.79a6.79 6.79 0 0 1 -6.6 6.79 6.48 6.48 0 0 1 -6.94-6.17 6.79 6.79 0 0 1 6.59-6.8 6.5 6.5 0 0 1 6.95 6.18z"/><path d="m576.23 297c-15.35-13.19-26.44-1.72-27.65-.37l-5.86-5.18c.17-.19 17-18.89 38.61-.39z"/><path d="m588.42 348.07c-7.26 0-14.2-.64-16.74-2.86-2.37-2.08-2.14-5.27 1.09-14.85 1.76-5.24 4.44-12.32 8-21.05 6-14.78 12.39-29.42 12.45-29.57l7.16 3.14c-10.12 23.05-20.52 49-22.2 56.71 3.4.62 11 .83 18.41.43l.42 7.8c-2.77.18-5.7.25-8.59.25zm-11.82-8.92"/><path d="m593.38 373.71c-.88 0-1.79 0-2.73-.11l.6-7.79c16.93 1.29 18.76-14.18 18.91-15.95l7.79.63c-.01.24-2.07 23.22-24.57 23.22z"/><path d="m581.51 274.9c-16.34-14-32.85-2.26-33.55-1.75l-4.61-6.31c7.61-5.57 26.46-12.29 43.25 2.13z"/><path d="m649.85 281.37c-16.34-14-32.85-2.26-33.55-1.75l-4.61-6.32c7.62-5.56 26.46-12.28 43.25 2.14z"/><path d="m564.93 483.26 17-14.86s-9.59-25.08 14.8-23.62 69.32-1.92 91.64-10.1 14 26.85 14 26.85 7.5 11-.12 39.29-30.71 160.18-30.71 160.18h-112.63z" fill="#e7e5c2"/><path d="m674.82 664.9h-120l6.22-183.47 16.37-14.28c-1.24-4.47-2.81-13.41 1.91-19.85 3.49-4.75 9.42-6.92 17.63-6.43 33.62 2 75.12-4.38 90.06-9.86 8.11-3 12.9-.85 15.48 1.45 7.62 6.78 5.05 23.15 4 28.48 2 4.24 6 16.64-.48 40.9-7.49 27.84-30.39 158.51-30.62 159.83zm-111.82-7.82h105.3c3.67-20.86 23.21-131.24 30.21-157.27 6.93-25.75.7-36 .63-36.12l-1-1.43.44-1.63c1.72-7.29 2.49-19-1.22-22.33-1.45-1.28-4-1.26-7.6.05-24 8.81-70.37 11.7-93.21 10.33-5.38-.32-9 .77-10.85 3.24-3.13 4.24-1.11 12.33-.07 15.09l1 2.54-2 1.8-15.75 13.74z"/><path d="m610.53 484.26c-12.65 0-22-2.93-27.94-8.76a21.19 21.19 0 0 1 -6.34-16.73l7.76 1-3.88-.48 3.88.45a13.36 13.36 0 0 0 4.17 10.26c4.32 4.16 14.11 8.47 36.24 5.34 7.88-1.11 14.07-3.34 20.06-5.49 10.1-3.64 20.56-7.4 37.83-5.15l-1 7.76c-15.4-2-24.1 1.12-34.18 4.74-6.36 2.29-12.93 4.66-21.61 5.88a106.88 106.88 0 0 1 -14.99 1.18z"/><path d="m596.86 481c-11.2-28.11 13.08-39.38 13.33-39.49l3.2 7.13-1.6-3.57 1.61 3.56a23.1 23.1 0 0 0 -8 6.89c-4.38 6.1-4.8 13.7-1.26 22.59z"/><path d="m634.7 479.4-7.38-2.59c6.18-17.62-2.3-29.26-2.39-29.38l6.26-4.68c.46.61 11.05 15.14 3.51 36.65z"/><path d="m665.16 470.94-7.48-2.26c4.42-14.65-3.93-23.78-4.29-24.16l5.66-5.4c.49.51 11.89 12.67 6.11 31.82z"/><path d="m720.29 455.92s38.46 22.74 57.67 27.36 60.42 23.12 70 55.42 31.67 126.5 31.67 126.5l-202.83 10.8 16.36-96.27 16.94-117.73z" fill="#e679a6"/><path d="m672.13 680.15 17.18-101.09 17.18-119.45 13.79-8.23 2 1.18c.38.22 38.18 22.49 56.59 26.92 16.66 4 62.2 22.27 72.83 58.11 9.5 32 31.51 125.78 31.73 126.72l1.07 4.55zm41.57-215.74-16.7 115.86-15.56 91.55 193.28-10.27c-4.54-19.22-22.31-94-30.54-121.74-8.51-28.68-45.71-47.56-67.17-52.73-17.22-4.14-48.44-21.82-56.73-26.62z"/><path d="m703.78 445.55s16.51 7.16 16.51 10.37 11.71 17 1.93 104l-14.79 3.19s10.79 13.89 2.67 42.89-26.24 58.66-26.24 58.66l-12.32-3.66z" fill="#e7e5c2"/><path d="m685.63 669.27-18.46-5.5 33.5-223.83 4.67 2c18 7.82 18.82 11.73 18.86 13.7.07.26.25.76.4 1.17 2.47 6.95 10 28.09 1.5 103.56l-.31 2.79-12.44 2.68c2.93 6.82 6.32 20.45.51 41.2-8.16 29.22-25.91 58.42-26.66 59.65zm-9.73-11 6.15 1.83c4.49-7.77 17.77-31.8 24.28-55.1 7.5-26.82-1.88-39.28-2-39.4l-3.83-4.91 18.12-3.92c5.17-47.37 4.7-80.09-1.41-97.27a15.75 15.75 0 0 1 -.75-2.5c-1.21-1.19-5.1-3.46-9.61-5.66z"/><path d="m661.84 515.15h7.82v23.32h-7.82z" transform="matrix(.57714519 -.81664156 .81664156 .57714519 -148.67 766.51)"/><path d="m599.22 525.63h7.82v25.07h-7.82z" transform="matrix(.90645525 -.42230187 .42230187 .90645525 -170.84 305.02)"/><path d="m564.47 219.44a129.29 129.29 0 0 1 10.17-15.26 68.26 68.26 0 0 1 15-10.71 46.6 46.6 0 0 1 17.41-5.22 45.73 45.73 0 0 0 -16.43 6.91 65.4 65.4 0 0 0 -13.2 11.76 126.4 126.4 0 0 0 -12.95 12.52z" fill="#c4681f"/><ellipse cx="556.36" cy="294.74" fill="#e7e5c2" rx="29.02" ry="17.98"/><path d="m556.36 316.63c-18.47 0-32.94-9.62-32.94-21.89s14.47-21.89 32.94-21.89 32.93 9.61 32.93 21.89-14.47 21.89-32.93 21.89zm0-36c-13.62 0-25.12 6.44-25.12 14.07s11.5 14.07 25.12 14.07 25.11-6.45 25.11-14.07-11.47-14.03-25.11-14.03z"/><ellipse cx="637.23" cy="294.74" fill="#e7e5c2" rx="29.02" ry="17.98"/><path d="m637.23 316.63c-18.46 0-32.93-9.62-32.93-21.89s14.47-21.89 32.93-21.89 32.93 9.61 32.93 21.89-14.46 21.89-32.93 21.89zm0-36c-13.61 0-25.11 6.44-25.11 14.07s11.5 14.07 25.11 14.07 25.12-6.45 25.12-14.07-11.5-14.03-25.12-14.03z"/><path d="m585.38 290.83h22.83v7.82h-22.83z"/><path d="m603.72 210.07a8 8 0 0 1 .26-7 10.88 10.88 0 0 1 7.13-5.6c3.51-.82 6.83-.07 9.76.58.53.12 1.06.24 1.59.34 2.92.6 5 .45 6.09-.45 1.47-1.23 1.37-3.81 1-7.92-.36-4.53-.77-9.65 2.6-13.77 4-4.85 10.9-5.08 16-3.16.41.15.83.32 1.24.49 1 .38 3 1.19 3.44.94 0 0 .55-.42.84-2.52.21-1.55.29-3.17.37-4.88a44.34 44.34 0 0 1 .89-8c1.14-5 4.57-10.73 10.75-12a20.43 20.43 0 0 1 7.56.23c2.58.42 4.2.62 5 0 1.11-.88.9-3.64.69-6.31-.08-1.06-.17-2.16-.19-3.26-.1-7 4.67-14.49 11.92-14.62a17.69 17.69 0 0 1 4.76.77 7.76 7.76 0 0 0 2.86.45 1.29 1.29 0 0 0 .56-.87 1.27 1.27 0 0 0 -.07-1l5.18-5.86a9.17 9.17 0 0 1 -4 15.38 13.43 13.43 0 0 1 -6.58-.53 10.66 10.66 0 0 0 -2.61-.5c-2.4 0-4.28 3.69-4.24 6.69 0 .84.09 1.77.16 2.76.32 4 .76 9.57-3.61 13-3.59 2.86-7.78 2.18-11.15 1.64a14.35 14.35 0 0 0 -4.7-.3c-2.41.51-4.12 3.46-4.74 6.15a37.25 37.25 0 0 0 -.7 6.64c-.08 1.8-.17 3.67-.44 5.57-.56 4.09-2.2 6.89-4.87 8.33-3.68 2-7.37.51-10.05-.57l-1.08-.42c-2.51-.94-5.79-1-7.22.78s-1.13 4.85-.86 8.21c.38 4.73.84 10.62-3.82 14.53-3 2.52-7.26 3.23-12.68 2.12-.57-.11-1.14-.24-1.72-.37-2.32-.52-4.52-1-6.29-.59a2.81 2.81 0 0 0 -2 1.8z"/><path d="m612.6 176.29c-3.36-5.56-4.46-13.31.64-18.07 3.18-3 7.33-3.28 10.66-3.54 2.22-.16 4.32-.32 5.68-1.15 3.16-1.91 2.66-7.84.23-12-.14-.24-.28-.48-.43-.72a14.1 14.1 0 0 1 -2.53-6.75c-.28-6.58 5.9-10.66 12.16-11.79.77-.14 1.56-.26 2.36-.38 3.07-.47 6-.91 7.44-2.52a4 4 0 0 0 0-4.93 12.75 12.75 0 0 0 -1.48-1.32 16.38 16.38 0 0 1 -2.72-2.56 11 11 0 0 1 -.47-13c2.2-3.13 5.45-4.45 8.32-5.61a28.85 28.85 0 0 0 3.12-1.41 4.25 4.25 0 0 0 2-3.09.71.71 0 0 0 .23.34l4-6.7a7.3 7.3 0 0 1 3.55 6.55 12 12 0 0 1 -6 9.71 34.64 34.64 0 0 1 -4 1.84c-2.14.87-4 1.62-4.85 2.86a3.25 3.25 0 0 0 .12 3.63 12 12 0 0 0 1.56 1.4 18.47 18.47 0 0 1 2.46 2.26 11.8 11.8 0 0 1 -.13 15.32c-3.33 3.68-8.17 4.42-12.06 5-.72.11-1.44.22-2.15.35-2.82.5-5.8 2.14-5.73 3.75a8.39 8.39 0 0 0 1.41 3l.48.81c5.67 9.63 3 19.06-2.92 22.62-3 1.79-6.25 2-9.14 2.26-2.55.19-4.74.36-5.91 1.45-1.72 1.61-1 5.5.71 8.32z"/><path d="m593.21 175.57c-7.14-3-11.13-11.18-8.87-18.16 1.54-4.78 5.27-7.74 8.57-10.36a27.45 27.45 0 0 0 5.13-4.8c1.07-1.47 1.33-3.27.84-3.78a6.84 6.84 0 0 0 -1.71-1l-.7-.33c-6.57-3.18-11.67-10.65-8.83-17.66 1.69-4.17 5.47-6.36 8.51-8.13.69-.4 1.38-.8 2-1.22 2.17-1.4 3.58-3.73 3.09-4.52a6.9 6.9 0 0 0 -1.59-1.32c-.38-.27-.76-.53-1.13-.81a14.61 14.61 0 0 1 -5.93-12.35c.42-5.6 4.9-10.24 10.19-10.56l.48 7.8c-1.35.08-2.75 1.71-2.87 3.34a6.82 6.82 0 0 0 2.9 5.57c.27.21.56.41.85.61a12.61 12.61 0 0 1 3.73 3.58c3.4 5.44-.3 11.91-5.51 15.24-.75.48-1.53.94-2.32 1.4-2.32 1.35-4.51 2.62-5.19 4.31-1 2.6 1.78 6.13 5 7.68l.59.28a12.49 12.49 0 0 1 4.09 2.66c3.65 3.85 2.67 9.84-.19 13.77a33.51 33.51 0 0 1 -6.58 6.32c-2.79 2.21-5.19 4.12-6 6.64-1 3.07 1.15 7.15 4.49 8.57z"/><path d="m579.11 187.53a14.22 14.22 0 0 1 -8.41-2.7 14.4 14.4 0 0 1 -5.54-14.08 24.62 24.62 0 0 1 1.41-4.39c.32-.8.62-1.55.82-2.25a3.36 3.36 0 0 0 0-2.59c-.39-.43-2.27-.34-4.81.93l-.16.08c-3.48 1.75-8.24 4.15-13 1.77-5.05-2.54-6.09-8.75-4.92-13.45a34.81 34.81 0 0 1 1.77-5 23.7 23.7 0 0 0 1.53-4.44c.36-1.89-.31-3.81-1.11-4.06a6.52 6.52 0 0 0 -2.23.11 62.69 62.69 0 0 0 -8.22 1.88h-.11a10.73 10.73 0 0 1 -5 .59c-3.53-.58-6.25-3.52-7.28-7.88-.19-.8-.32-1.57-.44-2.31a10.62 10.62 0 0 0 -.85-3.21l6.8-3.87a16.88 16.88 0 0 1 1.76 5.8c.11.64.21 1.25.34 1.79a3.47 3.47 0 0 0 1 2 13.27 13.27 0 0 0 1.41-.37h.11a69.8 69.8 0 0 1 9.24-2.11 12.47 12.47 0 0 1 5.77.14c5.5 1.71 7.45 8 6.48 13a30.3 30.3 0 0 1 -2 6 27.93 27.93 0 0 0 -1.41 3.88c-.49 2-.1 4.1.84 4.57 1.23.62 3.85-.7 6-1.76l.15-.08c5.85-2.94 11-2.65 14.12.8 2.22 2.44 2.84 6.1 1.7 10-.31 1.06-.69 2-1.06 3a16.48 16.48 0 0 0 -1 3 6.34 6.34 0 0 0 9.24 6.77l3.72 6.87a14 14 0 0 1 -6.66 1.57z"/><path d="m561 201.14-7.81-.28a7 7 0 0 0 -11.32-5.86l-.57.46a9.8 9.8 0 0 1 -4.4 2.38 8.08 8.08 0 0 1 -8.37-4.14 15.82 15.82 0 0 1 -1.79-6.44l-1.07-9a7.47 7.47 0 0 0 -.61-2.59c-.18-.18-1.81-.13-4.87 2-5.93 4.12-11.49 4.41-14.87.77-2.36-2.54-2.39-5.79-2.41-8.17 0-.27 0-.55 0-.82a5.05 5.05 0 0 0 -.23-1.46l-.82.39-.77.37c-3.44 1.58-6.92 1-8.87-1.36l6.09-4.91a1.73 1.73 0 0 0 -1.12-.64 2.28 2.28 0 0 0 .63-.19l.6-.29a9.36 9.36 0 0 1 6.09-1.23c3.67.74 6.11 4.33 6.22 9.14v.94c0 .9 0 2.59.32 2.91.34.15 2.05 0 4.68-1.87 8.06-5.61 12.69-3.19 14.73-1.24 2.37 2.27 2.75 5.44 3 7.33l1.07 9a9.86 9.86 0 0 0 .78 3.41 1.18 1.18 0 0 0 .26.31c.2-.15.53-.43.78-.63l.79-.64a14.85 14.85 0 0 1 23.86 12.35z"/><path d="m644 230.81a14.22 14.22 0 0 1 15.22-21.91 23.72 23.72 0 0 1 2.93 1 12.29 12.29 0 0 0 2.49.81c3 .45 6.14-3 7.73-6.69.58-1.34 1.07-2.75 1.6-4.24 1.38-3.9 2.8-7.93 5.88-11.29a10.48 10.48 0 0 1 5.42-3.37c3.52-.79 6.39.79 8.69 2.06a9.09 9.09 0 0 0 3.28 1.35c1.55 0 2.73-2.76 4.23-6.6 1.87-4.81 4.43-11.39 11.29-11.6 3.2-.1 5.68 1.45 7.7 2.68a9.14 9.14 0 0 0 3.3 1.56c1.75.16 3.84-2.3 5.83-6.89 4.7-10.82 10.86-11.62 14.12-11.13a14.6 14.6 0 0 1 6.45 3.13 20 20 0 0 0 1.89 1.29 2.51 2.51 0 0 0 1.7.26 1.18 1.18 0 0 0 -.55.71l7.56 2a6.68 6.68 0 0 1 -4 4.5 10.12 10.12 0 0 1 -8.58-.66 26.9 26.9 0 0 1 -2.67-1.79 8.5 8.5 0 0 0 -3-1.7c-2.07-.33-4.34 3.16-5.79 6.51-1.31 3-5.27 12.22-13.62 11.57a15.38 15.38 0 0 1 -6.78-2.7 8.7 8.7 0 0 0 -3.37-1.52c-1.56 0-2.74 2.77-4.24 6.62-1.87 4.81-4.44 11.41-11.32 11.58-2.93 0-5.34-1.26-7.27-2.32-1.22-.67-2.59-1.42-3.24-1.28a3.13 3.13 0 0 0 -1.35 1c-2 2.19-3.1 5.31-4.26 8.61-.55 1.55-1.12 3.16-1.81 4.75-2.57 5.93-8.3 12.45-16 11.32a18.61 18.61 0 0 1 -4.26-1.29 17.68 17.68 0 0 0 -2-.72 6.41 6.41 0 0 0 -6.85 9.87z"/><path d="m660.77 250.38a14.05 14.05 0 0 1 19.36-16 25.06 25.06 0 0 1 4.77 3c1.62 1.21 3 2.25 4.31 2.37 2 .19 4.1-1.92 5.33-4.08a40.87 40.87 0 0 0 1.91-4 35 35 0 0 1 3.43-6.6c3-4.25 8.8-7.79 14.5-5.51a15.38 15.38 0 0 1 5.11 3.71 7.51 7.51 0 0 0 2.64 2c1.35.3 3.42-1.9 5.5-5.9 4-7.6 10-10.93 15.39-8.49a12.86 12.86 0 0 1 4.72 4.18 7.5 7.5 0 0 0 1.81 1.89c1 .44 2.91-1.24 5.29-3.5 3.23-3.05 7.64-7.24 13.32-5.57 2.52.73 5.91 2.95 7.74 9.31.12.41.23.84.35 1.26.54 2 1 3.89 2.07 4.85a1.49 1.49 0 0 0 1.16.23 1 1 0 0 0 -.46.61l7.56 2a6.92 6.92 0 0 1 -5 4.91 9.26 9.26 0 0 1 -8.66-2.07c-2.61-2.47-3.51-5.8-4.24-8.48-.1-.39-.21-.77-.32-1.15-.63-2.2-1.55-3.72-2.41-4-1.39-.4-3.7 1.8-5.75 3.75-3.38 3.2-8 7.58-13.87 4.95a12.89 12.89 0 0 1 -4.75-4.18 7.17 7.17 0 0 0 -1.81-1.89c-1.11-.5-3.61 1.86-5.22 5-4.05 7.79-8.82 11.13-14.16 9.92-2.89-.65-4.83-2.55-6.39-4.08a9.54 9.54 0 0 0 -2.53-2c-1.58-.63-3.94.93-5.22 2.75a28.94 28.94 0 0 0 -2.64 5.19 49.68 49.68 0 0 1 -2.29 4.81c-2.4 4.22-7 8.54-12.85 8-3.48-.33-6-2.22-8.26-3.89a18.56 18.56 0 0 0 -3.26-2.11 6.24 6.24 0 0 0 -8.59 7.12z"/><path d="m773.33 292.16a10.3 10.3 0 0 1 -8.91-4.68c-1.56-2.51-1.94-5.36-2.28-7.88s-.62-4.21-1.39-4.59c-.6-.29-2.13.24-3.45 1.51a27.21 27.21 0 0 0 -2 2.26 24.84 24.84 0 0 1 -4.45 4.42c-3.94 2.8-10 3.22-13.26-.95a11.63 11.63 0 0 1 -2.07-5.49l-.08-.49c-.7-3.91-3.53-8-6.4-7.65-2.38.29-4.43 3.27-6.42 6.14l-.51.73c-4.46 6.41-10.2 9.15-15.36 7.35-3.61-1.27-5.56-4.27-7.13-6.67a22.66 22.66 0 0 0 -1.88-2.64 7.38 7.38 0 0 0 -12.58 3l-7.54-2.06a15.19 15.19 0 0 1 25.93-6.15 29.91 29.91 0 0 1 2.63 3.6c1.1 1.7 2.06 3.17 3.15 3.55 1.81.64 4.57-1.85 6.37-4.42l.49-.71c2.69-3.89 6-8.74 11.89-9.46s13.23 3.93 15.05 14l.1.54a7 7 0 0 0 .51 2 3.09 3.09 0 0 0 2.57-.59 18 18 0 0 0 3-3.08 37 37 0 0 1 2.58-2.86c3.75-3.61 8.59-4.74 12.34-2.89 4.57 2.26 5.21 7.06 5.68 10.57a13.49 13.49 0 0 0 1.17 4.79 3.4 3.4 0 0 0 5.19-.51l7.32 2.75a10.49 10.49 0 0 1 -9 6.5c-.46.04-.86.06-1.26.06z"/><path d="m715.89 370.88a18.93 18.93 0 0 0 -2.15-6.15 3.7 3.7 0 0 0 -3-1.85 8.55 8.55 0 0 0 -2.06.83c-.37.18-.73.36-1.1.52-4.11 1.86-8.4 2-11.77.38-3.62-1.74-6.19-5.32-7.42-10.37-.35-1.45-.57-2.86-.79-4.23a31.46 31.46 0 0 0 -1.07-5c-.61-1.8-1.93-3.75-3.5-4a1.74 1.74 0 0 0 -1.5.81.48.48 0 0 0 0-.21l-7.51 2.2a7.74 7.74 0 0 1 1.86-7.45 9.54 9.54 0 0 1 8.55-3.05c4.25.78 7.8 4.22 9.5 9.21a37.22 37.22 0 0 1 1.39 6.26c.2 1.27.39 2.47.67 3.6.64 2.63 1.81 4.51 3.2 5.18a6.45 6.45 0 0 0 5.17-.45c.29-.13.58-.28.87-.42a14.14 14.14 0 0 1 4.45-1.55c3.88-.53 8 1.51 10.49 5.2a25.07 25.07 0 0 1 3.3 8.79z"/><path d="m529.72 229.42a14.87 14.87 0 0 1 -11.51-4.92 20 20 0 0 1 -3.09-5.73c-.24-.6-.48-1.21-.75-1.8-.79-1.72-1.71-2.58-2.27-2.67-.72-.12-2.27.88-4.21 4.08-1.52 2.51-5 8.31-11 8.31h-.45c-6.62-.32-9.54-7.3-10.78-10.28-1.34-3.19-2.95-4.81-3.77-4.68-.37.05-1.09.45-2.38 2.06l-.42.54a15.22 15.22 0 0 1 -5.35 4.8 8.4 8.4 0 0 1 -6.75.18 6.68 6.68 0 0 1 -3.84-4l7.36-2.62a1.11 1.11 0 0 0 -.53-.65.8.8 0 0 0 .43 0 9.21 9.21 0 0 0 2.54-2.57l.46-.59c1.5-1.87 3.9-4.43 7.41-4.91 4.89-.69 9.27 2.75 12.05 9.4 1.5 3.59 2.83 5.44 3.95 5.49h.05c1.59 0 3.66-3.41 4.34-4.54 3.56-5.86 7.65-8.46 12.14-7.75 3.39.54 6.27 3.08 8.14 7.13.32.71.61 1.44.9 2.16a13.72 13.72 0 0 0 1.83 3.62c1.21 1.44 3.56 2.24 6.13 2.09 2.76-.16 5.57-1.24 8.69-2.51l3 7.23c-3.64 1.49-7.24 2.85-11.18 3.08-.42.04-.78.05-1.14.05z"/><path d="m497.56 269.68a11.43 11.43 0 0 1 -4.9-1.08c-2.89-1.37-4.8-3.68-6.48-5.72-1.4-1.69-2.61-3.16-4-3.7a3.66 3.66 0 0 0 -3.91 1 12.13 12.13 0 0 0 -1.24 2.15 13.72 13.72 0 0 1 -3.74 5.12l-4.79-6.18a8 8 0 0 0 1.53-2.42 17.79 17.79 0 0 1 2.18-3.61 11.5 11.5 0 0 1 12.79-3.34c3.28 1.28 5.35 3.79 7.17 6 1.28 1.55 2.49 3 3.82 3.65a4.26 4.26 0 0 0 4.94-1.26 12.63 12.63 0 0 0 1.5-3.68 22 22 0 0 1 2.13-5.22 14.31 14.31 0 0 1 15.35-6.1 17.81 17.81 0 0 1 12 10.29l-7.14 3.19a10.13 10.13 0 0 0 -6.6-5.86 6.61 6.61 0 0 0 -6.93 2.56 15.87 15.87 0 0 0 -1.32 3.41 19 19 0 0 1 -2.66 6 12.12 12.12 0 0 1 -9.7 4.8z"/><path d="m480.8 156.15c-1.95-2.81-3.93-5.72-4.71-9.06s-.07-7.24 2.61-9.37c1.35-1.07 3.07-1.62 4.32-2.8 2.41-2.29 2.3-6.06 2.64-9.36s2.16-7.22 5.48-7.22c1.16 0 2.27.51 3.42.61 4.08.34 6.69-4.22 7.81-8.16s2.39-8.63 6.27-9.94c3.13-1 6.65.7 9.82-.19 7.52-2.12 6-15.68 13.51-18 4.07-1.25 8.48 1.85 12.61.81 3.82-1 5.86-5 8-8.32s5.89-6.65 9.56-5.21c1.42.55 2.5 1.73 3.85 2.43 4.85 2.5 10.22-2 14.12-5.79s10.33-7.42 14.28-3.65c1 .93 1.61 2.21 2.6 3.13 2.75 2.57 7.33 1.6 10.42-.55s5.48-5.25 8.75-7.1c1.69-1 4-1.45 5.39-.08 1.05 1.06 1 2.75 1.71 4.08 1.92 3.79 7.72 2.59 11.2.14s7.34-5.8 11.4-4.52 5.53 6.42 9.26 8.41c7.92 4.23 17.84-8.47 25.46-3.74 2.3 1.42 3.49 4.05 5 6.3s3.9 4.4 6.56 3.93c2.13-.37 3.64-2.29 5.64-3.12 5-2 9.78 3.24 12.47 7.93 4 7 7.77 14.42 9.44 22.38s1.11 16.63-3 23.64c-6.23 10.61-19 15.32-30.92 18.25-53.47 13.1-110 6.23-164.17 15.9-8.59 1.53-17.29 3.48-25.95 2.4-5.4-.67-10.58-2.51-15.71-4.33"/><path d="m500.79 161.12a42.18 42.18 0 0 1 -5.26-.31c-5.47-.68-10.73-2.55-15.81-4.36l.24-.66c-1.75-2.54-3.6-5.39-4.34-8.59-.92-3.92.18-7.8 2.78-9.87a14.34 14.34 0 0 1 2-1.27 11 11 0 0 0 2.26-1.5c1.89-1.79 2.12-4.67 2.34-7.45.05-.54.09-1.07.15-1.6.38-3.68 2.41-7.65 6-7.66a8.28 8.28 0 0 1 2 .33 9.86 9.86 0 0 0 1.46.28c3.66.32 6.16-3.83 7.29-7.8l.05-.19c1.1-3.88 2.47-8.72 6.53-10.08a11.79 11.79 0 0 1 5.25-.16 11.83 11.83 0 0 0 4.6 0c3.54-1 5-4.73 6.47-8.68s3.08-8.09 7-9.3c2.21-.69 4.49-.16 6.69.34s4 .93 6 .45c3.17-.8 5.07-3.88 6.91-6.87.26-.41.52-.82.77-1.23 2.2-3.46 6.18-7 10.15-5.41a10.3 10.3 0 0 1 2.28 1.39 12.15 12.15 0 0 0 1.58 1.08c4.5 2.31 9.61-1.84 13.55-5.71 4.61-4.53 11-7.42 15-3.66a11.87 11.87 0 0 1 1.27 1.57 10.44 10.44 0 0 0 1.25 1.52c2.51 2.33 6.83 1.47 9.81-.6a36 36 0 0 0 3.77-3.12 28.51 28.51 0 0 1 5.06-4c1.77-1 4.39-1.59 6 0a5.71 5.71 0 0 1 1.25 2.64 7.83 7.83 0 0 0 .54 1.57 3.77 3.77 0 0 0 2.57 2c2.19.54 5.45-.29 7.92-2l1.19-.86c3.19-2.31 6.8-4.93 10.63-3.73 2.33.74 3.85 2.67 5.33 4.53a13.74 13.74 0 0 0 4 3.92c3.7 2 7.85 0 12.25-2s9.16-4.26 13.24-1.73c1.88 1.16 3 3.06 4.16 4.89.32.53.64 1 1 1.56.67 1 3.09 4.23 6.07 3.72a7.73 7.73 0 0 0 3.09-1.61 12.8 12.8 0 0 1 2.44-1.48c6.32-2.59 11.61 5.57 13.08 8.14 3.72 6.47 7.76 14.21 9.5 22.51 1.87 8.92.78 17.45-3.07 24-6.57 11.2-20.14 15.75-31.22 18.47-29.31 7.18-60 8.39-89.72 9.56-24.57 1-50 2-74.48 6.35l-3 .54c-5.88 1.01-11.88 2.13-17.87 2.13zm-19.65-5.2a70 70 0 0 0 14.51 3.92c7.57.94 15.31-.48 22.79-1.86l3-.55c24.58-4.38 50-5.38 74.62-6.35 29.65-1.17 60.31-2.38 89.53-9.54 10.89-2.67 24.22-7.13 30.61-18 3.72-6.35 4.77-14.62 2.95-23.3-1.71-8.18-5.71-15.83-9.39-22.24-1.37-2.39-6.28-10-11.85-7.71a11.12 11.12 0 0 0 -2.25 1.37 8.78 8.78 0 0 1 -3.49 1.78c-3.47.6-6.09-2.7-7-4.15-.35-.52-.67-1-1-1.59-1.11-1.81-2.16-3.53-3.83-4.57-3.63-2.25-7.85-.29-12.32 1.79s-9 4.18-13.12 2a14.62 14.62 0 0 1 -4.33-4.18c-1.45-1.83-2.81-3.56-4.85-4.2-3.36-1.06-6.62 1.3-9.76 3.58l-1.21.87c-2.27 1.6-5.84 2.9-8.71 2.18a4.74 4.74 0 0 1 -3.21-2.5 9.32 9.32 0 0 1 -.61-1.75 5 5 0 0 0 -1-2.21c-1.2-1.2-3.33-.67-4.8.16a27.81 27.81 0 0 0 -4.88 3.86 35.07 35.07 0 0 1 -3.83 3.22c-3.2 2.22-8 3.33-11 .51a10.76 10.76 0 0 1 -1.38-1.66 11.31 11.31 0 0 0 -1.33-1.51c-4-3.78-10.42.51-13.61 3.65-4.18 4.1-9.63 8.48-14.69 5.87a13 13 0 0 1 -1.7-1.14 9 9 0 0 0 -2.06-1.27c-3.41-1.34-7 1.87-9 5-.26.4-.51.8-.76 1.22-2 3.15-4 6.4-7.51 7.3-2.13.54-4.31 0-6.41-.44s-4.22-1-6.18-.37c-3.49 1.08-4.9 4.79-6.4 8.71s-3.1 8.15-7.11 9.28a12.84 12.84 0 0 1 -5 .07 11.17 11.17 0 0 0 -4.83.11c-3.57 1.21-4.81 5.57-5.9 9.42l-.05.2c-1.24 4.34-4.06 8.84-8.32 8.51a10.65 10.65 0 0 1 -1.61-.31 7.06 7.06 0 0 0 -1.77-.3c-2.94 0-4.65 3.52-5 6.78 0 .52-.1 1-.14 1.58-.24 3-.49 6-2.65 8.08a11.64 11.64 0 0 1 -2.46 1.65 12.32 12.32 0 0 0 -1.84 1.21c-2.63 2.09-3.12 6-2.44 8.88.76 3.29 2.82 6.27 4.63 8.9z"/><path d="m595.73 429.84a69.5 69.5 0 0 1 -19.73-2.84l2.41-7.44c.32.11 32.2 10.08 48.93-11.5l6.18 4.79c-8.39 10.81-21 16.68-36.63 17z"/><path d="m302.13 437.73a47.77 47.77 0 0 0 -36.81 25c-4 7.76-6.4 17.23-13.85 21.8-5.44 3.33-12.21 3.13-18.57 3.58-8.48.62-17.07 2.69-24.05 7.56-9.52 6.63-15 17.76-17.73 29-2.25 9.43-3.28 20.16-10.65 26.45-6.59 5.63-16.24 5.81-23.85 10-12 6.52-16.66 21.42-17.51 35-1 16.79 2.77 35 15.23 46.34 9.23 8.36 21.92 11.8 34.3 13.19 13.06 1.46 26.72.86 38.68-4.61 18.21-8.31 29.83-26.53 37.67-44.94 7.72-18.14 12.78-37.3 20.23-55.54s17.71-36 33.41-47.91c4.51-3.43 9.4-6.32 14-9.57 2.4-1.68 4.8-3.54 6.2-6.11a16.69 16.69 0 0 0 1.67-8.05c.1-20.92-18.33-40.2-39.24-41.05"/><path d="m200.42 656.85a105 105 0 0 1 -11.84-.7c-15.27-1.71-26.58-6.06-34.57-13.31-11-10-16.61-27-15.38-46.73 1.44-23.21 11.74-32.16 17.76-35.43a52.16 52.16 0 0 1 10.33-3.84c5-1.46 9.67-2.85 13.43-6.05 6-5.12 7.73-13.34 9.42-21.3.35-1.65.69-3.29 1.07-4.89 2.2-9.21 7.09-21.78 17.93-29.34 6.25-4.35 14.43-6.92 24.3-7.63 1-.08 2-.13 3.08-.19 5.31-.29 10.8-.59 15.26-3.33 5.45-3.34 8.19-9.53 10.83-15.51.9-2 1.83-4.13 2.85-6.09a48.56 48.56 0 0 1 37.19-25.27v.2c20.93 1.3 39 20.49 38.93 41.5a17.54 17.54 0 0 1 -1.73 8.29c-1.49 2.72-4.06 4.66-6.35 6.27-1.88 1.32-3.83 2.59-5.71 3.83-2.77 1.82-5.64 3.69-8.32 5.73-13.41 10.17-24.29 25.78-33.24 47.71-3.52 8.61-6.56 17.58-9.5 26.26-3.27 9.69-6.66 19.7-10.74 29.28-9.92 23.29-22.32 38.08-37.92 45.2-7.79 3.57-16.73 5.34-27.08 5.34zm100.87-218.53a47.59 47.59 0 0 0 -35.53 24.68c-1 1.93-1.93 4-2.82 6-2.71 6.13-5.5 12.46-11.22 16-4.67 2.86-10.29 3.17-15.72 3.47q-1.55.07-3.06.18c-9.69.7-17.71 3.21-23.81 7.47-10.59 7.37-15.38 19.71-17.53 28.76-.38 1.59-.73 3.22-1.08 4.87-1.71 8.11-3.49 16.5-9.73 21.83-3.92 3.34-8.94 4.82-13.79 6.25a51.89 51.89 0 0 0 -10.15 3.76c-5.85 3.12-15.85 11.84-17.25 34.58-1.21 19.42 4.29 36.17 15.07 46 7.83 7.1 19 11.37 34 13.06 15.37 1.72 27.94.23 38.43-4.56 15.36-7 27.6-21.64 37.42-44.7 4.06-9.54 7.45-19.53 10.72-29.2 2.94-8.7 6-17.68 9.51-26.32 9-22.1 20-37.84 33.56-48.12 2.7-2.06 5.59-3.94 8.37-5.77 1.88-1.23 3.82-2.5 5.69-3.81 2.2-1.54 4.66-3.4 6.06-5.94a16.81 16.81 0 0 0 1.6-7.82c.1-20.77-18-39.72-38.77-40.56z"/><path d="m491 503.48s62.4 22.7 75.75 79.52 19 131.33 19 131.33h-5.26l-115.71-2.93-10.87-189.63 16.95-20.51z" fill="#e679a6"/><path d="m589.94 718.24h-9.48l-119.38-3-11.16-194.78 19.27-23.32 22.68 2.5.44.17a147.37 147.37 0 0 1 33.86 19c23.35 17.28 38.69 39.17 44.36 63.32 13.27 56.46 19 131.18 19.09 131.93zm-121.46-10.65 112.08 2.84h.92c-1.42-16.52-7.23-78.33-18.56-126.53-12.16-51.77-67.52-74.51-72.87-76.59l-17.53-1.93-14.62 17.69z"/><path d="m336.77 440.84s-1.33 21.8-25.25 13.06-20.19-28.82-7.83-36.82z"/><path d="m321.74 459.88a34 34 0 0 1 -11.56-2.31c-16-5.84-19.39-15.83-20-21.26-1-8.58 3.51-17.41 11.39-22.51l2.24-1.45 37 26.57-.13 2.16c0 .43-.74 10.72-8.71 15.94a18.27 18.27 0 0 1 -10.23 2.86zm-18-37.95c-4.05 3.54-6.33 8.71-5.79 13.51.7 6.28 6 11.53 14.91 14.79 6.45 2.35 11.42 2.44 14.78.27 3.08-2 4.37-5.62 4.89-7.89z"/><path d="m459.46 465.06c15-1.94 31-4.27 42.63-14 9.88-8.25 15.18-20.62 19.92-32.58 9.72-24.54 18.7-51.23 12.47-76.89-3.38-13.92-11.16-26.95-11.37-41.27-.1-6.8 1.54-13.52 1.84-20.31a53.14 53.14 0 0 0 -26.95-47.88c.81-4.35-.78-8.76-2.56-12.82-7.23-16.46-18.47-31.63-34-40.74s-35.58-11.37-51.6-3.22c-17.44 8.87-28 28.31-46 36-14.23 6.06-32.82 4.78-42.28 17s-3.95 31.62-13.21 44.1c-4.65 6.26-12.31 9.69-17.15 15.8a23.74 23.74 0 0 0 -3.83 21.84c2.34 7 8.07 14 5.44 20.91-.89 2.37-2.68 4.27-4.26 6.24-13.09 16.32-13.21 40.42-4.48 59.43s24.93 33.61 42.28 45.31c7.44 5 15.24 9.64 23.68 12.72 35 12.74 75.63-2.58 110.36 10.79"/><path d="m460.29 466c-17.47-6.73-36.82-6.14-55.53-5.59-18.42.56-37.45 1.13-54.83-5.2-7.29-2.66-14.63-6.6-23.79-12.78-21-14.16-34.89-29.05-42.44-45.51-9.48-20.64-7.66-44.73 4.54-59.93l.83-1a19.06 19.06 0 0 0 3.36-5.09c1.79-4.71-.45-9.43-2.82-14.42a55.05 55.05 0 0 1 -2.63-6.16 24.35 24.35 0 0 1 3.91-22.3 47.28 47.28 0 0 1 8.46-7.72c3.11-2.41 6.33-4.9 8.68-8.07 4.51-6.08 5.47-14 6.39-21.69 1-7.92 1.95-16.12 6.82-22.42 6.28-8.12 16.64-10.42 26.67-12.66 5.35-1.19 10.89-2.42 15.81-4.51 9.35-4 16.83-11.33 24.06-18.44 6.64-6.52 13.51-13.27 21.88-17.53 15.4-7.83 35.35-6.59 52.07 3.24 18 10.59 28.53 28.12 34.17 41 1.79 4.07 3.34 8.42 2.65 12.75a53.51 53.51 0 0 1 26.89 48.18c-.13 3-.52 6-.9 8.87a80.43 80.43 0 0 0 -.94 11.41c.13 8.94 3.31 17.57 6.38 25.92a140 140 0 0 1 5 15.25c6.35 26.12-3.12 53.53-12.49 77.18-5 12.62-10.3 24.63-20.06 32.77-11.84 9.88-28.38 12.22-41.91 14zm-39.73-6.88c13.25 0 26.48 1 38.86 5.51 13.57-1.76 30.45-3.95 42.35-13.88 9.59-8 14.83-19.88 19.78-32.38 9.32-23.51 18.73-50.75 12.45-76.59a140.21 140.21 0 0 0 -4.93-15.15c-3.11-8.42-6.31-17.13-6.45-26.24a81.9 81.9 0 0 1 1-11.54c.38-2.88.76-5.86.9-8.79a52.53 52.53 0 0 0 -26.69-47.45l-.31-.17.06-.35c.78-4.18-.75-8.49-2.52-12.53-5.59-12.71-16-30.06-33.78-40.52-16.43-9.66-36-10.89-51.13-3.2-8.23 4.18-15 10.88-21.63 17.35-7.3 7.17-14.85 14.58-24.37 18.63-5 2.14-10.58 3.38-16 4.58-10.31 2.29-20.05 4.46-26.1 12.3-4.72 6.09-5.69 14.15-6.63 21.94s-1.91 15.86-6.58 22.15c-2.43 3.28-5.7 5.81-8.87 8.26a46.54 46.54 0 0 0 -8.29 7.56 23.37 23.37 0 0 0 -3.75 21.38 56.42 56.42 0 0 0 2.59 6.05c2.35 5 4.79 10.08 2.85 15.19a19.74 19.74 0 0 1 -3.52 5.36l-.82 1c-12 14.92-13.74 38.6-4.42 58.92 7.48 16.29 21.26 31 42.11 45.1 9.09 6.13 16.36 10 23.57 12.67 17.21 6.27 36.15 5.7 54.47 5.15 5.24-.2 10.51-.36 15.8-.36z"/><path d="m458.07 479.35-109.28-2.27-2.4-57.83c22.11-9.33 26.93-30.83 26.93-30.83 15.44-36.66-30.35-40.07 3.85-66.26s28.66-31.75 29.62-47 8.18-21.33 33-28.15 24.34-20.91 24.34-20.91c12.92 1.59 23.76 8.79 31.13 19.39 13 18.71 16.58 42.2 17.16 64.5a652.06 652.06 0 0 1 -2.71 77.69c-1.84 19.32-7.32 38.62-21.88 52.32-5.7 5.38-12.64 6.6-20.21 8.67-.47.13-6 1.13-9.38 1.47z" fill="#76320a"/><path d="m462 483.35-117-2.43-2.66-64.22 2.5-1.05a43.2 43.2 0 0 0 24.64-28.1l.07-.33.14-.32c6.39-15.19 1.26-23.55-3.71-31.64-7.21-11.74-10.81-21.21 8.78-36.2 27.88-21.35 27.91-27.62 27.94-38 0-1.83 0-3.91.16-6.17 1.19-18.88 12.51-25.26 35.85-31.68 21.13-5.8 21.47-16.63 21.47-17.09l-.15-4.57 4.54.64c13.56 1.67 25.58 9.15 33.86 21 11.43 16.44 17.1 37.61 17.86 66.62a652.12 652.12 0 0 1 -2.7 78.19c-2.31 24.46-9.86 42.4-23.08 54.85-5.68 5.36-12.44 7.12-19 8.83l-2.88.76c-.56.15-3.57.71-6.52 1.14zm-109.42-10.1 101.64 2.11.17-28.75 3.51-.35c3.15-.31 8.24-1.24 8.81-1.37l2.89-.77c6.09-1.59 11.36-3 15.59-6.95 11.78-11.09 18.53-27.41 20.66-49.89a644.82 644.82 0 0 0 2.69-77.23c-.71-27.42-5.94-47.24-16.46-62.36-6.24-9-15-15-24.81-17.13-1.8 5.63-7.62 15-26.41 20.18-24.88 6.84-29.34 12.15-30.13 24.63-.13 2-.13 3.9-.14 5.71-.05 13.47-1.45 21.56-31 44.18-15.5 11.87-12.62 16.56-6.88 25.91 5.13 8.34 12.14 19.75 4.38 38.47-.77 3-6.35 22.23-26.65 32.08z"/><path d="m407.63 321.85a6.79 6.79 0 0 0 6.59 6.8 6.48 6.48 0 0 0 6.94-6.18 6.79 6.79 0 0 0 -6.58-6.8 6.49 6.49 0 0 0 -6.95 6.18z"/><path d="m399.81 323-5.1-5.93c21.56-18.51 38.44.19 38.61.38l-5.85 5.18c-1.22-1.31-12.31-12.78-27.66.37z"/><path d="m476.44 321.16a6.78 6.78 0 0 0 6.56 6.84 6.49 6.49 0 0 0 6.94-6.18 6.78 6.78 0 0 0 -6.59-6.79 6.49 6.49 0 0 0 -6.91 6.13z"/><path d="m468.62 322.35-5.09-5.93c21.56-18.52 38.44.19 38.61.39l-5.86 5.19c-1.21-1.37-12.28-12.83-27.66.35z"/><path d="m456.43 373.45c-2.88 0-5.82-.1-8.55-.25l.42-7.81c7.46.4 15 .2 18.41-.42-1.68-7.71-12.07-33.67-22.19-56.71l7.15-3.15c.07.15 6.49 14.79 12.46 29.58 3.52 8.72 6.2 15.8 8 21 3.22 9.58 3.46 12.78 1.08 14.86-2.57 2.25-9.52 2.9-16.78 2.9z"/><path d="m451.47 399.09c-22.49 0-24.55-23-24.57-23.23l7.79-.62c.16 1.77 1.95 17.24 18.92 15.95l.6 7.79c-.94.07-1.86.11-2.74.11z"/><path d="m463.35 300.28-5.09-5.93c16.79-14.42 35.63-7.71 43.25-2.14l-4.62 6.31 2.31-3.15-2.29 3.16c-.71-.53-17.34-12.18-33.56 1.75z"/><path d="m395 306.74-5.1-5.93c16.79-14.42 35.64-7.7 43.25-2.13l-4.6 6.32c-.69-.5-17.32-12.19-33.55 1.74z"/><path d="m479.92 508.64-17-14.86s9.59-25.09-14.81-23.63-69.32-1.92-91.63-10.09-14 26.85-14 26.85-7.51 11 .12 39.29 30.7 160.17 30.7 160.17h112.7z" fill="#ee6807"/><path d="m490 690.28h-120l-.56-3.24c-.23-1.31-23.14-132-30.63-159.83-6.52-24.25-2.52-36.65-.48-40.9-1.08-5.33-3.66-21.7 4-28.47 2.59-2.3 7.37-4.42 15.49-1.45 14.94 5.47 56.43 11.87 90.05 9.86 8.22-.5 14.15 1.67 17.63 6.43 2.69 3.66 3.69 8.78 2.91 14.81a38.42 38.42 0 0 1 -1 5l16.38 14.3zm-113.4-7.82h105.3l-5.83-172-17.8-15.54 1-2.55c1-2.75 3.06-10.85-.06-15.09-1.82-2.47-5.47-3.56-10.85-3.24-22.85 1.37-69.19-1.52-93.21-10.32-3.6-1.32-6.16-1.33-7.6-.05-3.71 3.29-2.95 15-1.22 22.33l.4 1.68-1 1.43s-6.26 10.32.67 36.06c7 26.05 26.53 136.42 30.2 157.29z"/><path d="m434.33 509.64a108.66 108.66 0 0 1 -15-1.15c-8.67-1.23-15.25-3.59-21.61-5.88-10.07-3.63-18.78-6.76-34.17-4.75l-1-7.75c17.27-2.25 27.72 1.51 37.83 5.14 6 2.15 12.18 4.38 20.06 5.5 22.13 3.12 31.92-1.18 36.23-5.34a13.28 13.28 0 0 0 4.17-10.33l7.77-.93a21.26 21.26 0 0 1 -6.34 16.72c-5.93 5.84-15.27 8.77-27.94 8.77z"/><path d="m448 506.4-7.26-2.89c3.54-8.89 3.11-16.49-1.26-22.6a22.89 22.89 0 0 0 -8-6.88l3.22-7.13c.22.1 24.5 11.39 13.3 39.5z"/><path d="m410.16 504.77c-7.55-21.5 3-36 3.5-36.64l6.26 4.68-3.13-2.34 3.15 2.32c-.35.48-8.52 12-2.4 29.4z"/><path d="m379.7 496.31c-5.79-19.15 5.62-31.31 6.1-31.82l5.64 5.42-2.82-2.71 2.84 2.69c-.36.38-8.7 9.52-4.28 24.16z"/><path d="m466.8 492.84c5.13-1.2 23.64 9.28 24.17 10.64s17 22.62 20.88 71.93l-11.43 9.14 12.47 4.23s4.46 65.6-20.73 111.69l-6.16-14.1-6-177.73z" fill="#e7e5c2"/><path d="m491.78 709.31-9.71-22.06-6-177.14-16.32-19.65 6.17-1.43c1.18-.27 4.76-1.11 16.43 4.67 10.1 5 11.72 7.16 12.16 8.1l.37.59c11.34 17.88 18.56 43 20.88 72.72l.16 2.07-7.46 6 8.17 2.77.17 2.6c.19 2.73 4.24 67.28-21.2 113.84zm-1.95-23.83 2.56 5.82c17.81-38.64 17.17-87.94 16.72-99.68l-16.71-5.62 15.38-12.29c-2.38-27.52-9.11-50.69-19.51-67.09-.2-.31-.35-.55-.48-.77a66.25 66.25 0 0 0 -9.7-5.49l5.69 6.86.05 1.34zm4.75-183.48v.09z"/><path d="m324.57 481.3s-38.47 22.7-57.67 27.36-60.42 23.12-70 55.41-31.67 126.51-31.67 126.51l202.82 10.78-16.35-96.27-16.94-117.71z" fill="#e679a6"/><path d="m372.73 705.53-212.37-11.3 1.06-4.55c.22-.94 22.23-94.69 31.73-126.72 10.63-35.84 56.18-54.09 72.83-58.1 18.43-4.44 56.22-26.7 56.6-26.93l2-1.18 13.78 8.25.27 1.85 16.94 117.71zm-202.62-18.61 193.27 10.28-15.54-91.45-16.69-116-6.61-3.94c-8.28 4.8-39.51 22.47-56.73 26.62-21.45 5.16-58.66 24-67.16 52.72-8.24 27.85-26 102.55-30.54 121.77z"/><path d="m341.08 470.93s-16.51 7.16-16.51 10.37-11.72 17-1.93 104l14.78 3.2s-10.78 13.83-2.66 42.86 26.24 58.64 26.24 58.64l12.33-3.67z" fill="#e7e5c2"/><path d="m359.23 694.65-1.57-2.57c-.75-1.23-18.5-30.43-26.67-59.65-5.8-20.75-2.41-34.38.52-41.19l-12.44-2.69-.32-2.79c-8.48-75.46-1-96.61 1.51-103.56.15-.41.32-.91.4-1.16 0-2 .84-5.88 18.86-13.7l4.67-2 33.5 223.83zm-33-112.55 18.1 3.9-3.82 4.91s-2.36 3.19-3.78 9.57c-1.33 5.94-2.09 16 1.79 29.84 6.51 23.29 19.8 47.33 24.29 55.09l6.14-1.83-30.95-206.92c-4.51 2.21-8.39 4.48-9.6 5.67a16.78 16.78 0 0 1 -.75 2.49c-6.13 17.18-6.65 49.9-1.44 97.28z"/><path d="m288.27 609.54-7.78-.8c2.44-23.72-4.67-42.5-21.13-55.81a70.32 70.32 0 0 0 -25.64-13l1.7-7.63a77.53 77.53 0 0 1 28.85 14.6c12.83 10.32 27.4 29.61 24 62.64z"/><path d="m453.27 516.32h7.82v27.45h-7.82z" transform="matrix(.811472 -.5843913 .5843913 .811472 -223.56 367.12)"/><path d="m413.58 537.27h24.24v7.82h-24.24z" transform="matrix(.73503295 -.67803139 .67803139 .73503295 -254.14 432.05)"/><path d="m392.43 509.99h7.82v20.7h-7.82z" transform="matrix(.66601187 -.74594115 .74594115 .66601187 -255.77 469.39)"/><path d="m350.33 520.77h27.46v7.82h-27.46z" transform="matrix(.29103617 -.95671205 .95671205 .29103617 -243.86 720.29)"/><path d="m342.14 480.96h18.31v7.82h-18.31z" transform="matrix(.79811002 -.60251173 .60251173 .79811002 -221.22 309.55)"/><path d="m421.2 507.79h12.8v7.82h-12.8z" transform="matrix(.29704158 -.95486454 .95486454 .29704158 -188 768.05)"/><path d="m407.53 281.4c8-5.52 18-11.27 26.75-7.11 3.79 1.81 6.74 5.31 10.81 6.36 8.78 2.27 16-7.71 24.9-9.35 7.05-1.28 13.8 2.79 20.48 5.38s15.77 3 19.52-3.12-.61-13.85-4.85-19.65a143.74 143.74 0 0 0 -12.9-16c-12.63-12.91-31.85-20.91-49.11-15.53-18.69 5.81-46.09 26.22-45.87 45.79.05 4.19-1.56 16.05-4.8 18.72"/><path d="m407.53 281.4a65.26 65.26 0 0 1 10.52-6.4 30.42 30.42 0 0 1 5.86-2.07 18.89 18.89 0 0 1 6.28-.35 15.49 15.49 0 0 1 6 2.07c1.83 1.07 3.46 2.35 5.15 3.41a11.49 11.49 0 0 0 5.34 2 11.73 11.73 0 0 0 5.55-1c3.59-1.54 6.82-4.09 10.47-6.21a25.51 25.51 0 0 1 5.95-2.61 17.42 17.42 0 0 1 6.66-.48c4.42.53 8.37 2.26 12.16 3.78a52.58 52.58 0 0 0 5.57 2 23.48 23.48 0 0 0 5.6.87c3.67.22 7.44-.65 9.33-3.33a7.58 7.58 0 0 0 1.56-4.61 14.56 14.56 0 0 0 -1.09-5.3 30.86 30.86 0 0 0 -2.66-5.17c-1-1.68-2.22-3.3-3.43-5-2.39-3.33-4.79-6.61-7.38-9.72a66.55 66.55 0 0 0 -8.42-8.61 59.39 59.39 0 0 0 -9.93-6.77 47.23 47.23 0 0 0 -23-6.11 39 39 0 0 0 -11.8 2 73.3 73.3 0 0 0 -11.14 4.87 88.79 88.79 0 0 0 -19.77 14.27 58.37 58.37 0 0 0 -7.9 9.3 33.21 33.21 0 0 0 -5 11.07c-.1.49-.23 1-.29 1.49l-.2 1.51c-.06 1-.08 2-.12 3.07a55 55 0 0 1 -.73 6.14 47.47 47.47 0 0 1 -1.4 6c-.64 1.93-1.32 4-2.84 5.4 1.49-1.45 2.12-3.5 2.72-5.43a49.14 49.14 0 0 0 1.27-6 54.27 54.27 0 0 0 .59-6.1c0-1 0-2 .06-3.09l.16-1.55c.06-.51.18-1 .27-1.53a33.84 33.84 0 0 1 4.84-11.38 59.27 59.27 0 0 1 7.82-9.62 90.14 90.14 0 0 1 19.75-14.9 75.2 75.2 0 0 1 11.3-5.22 41.09 41.09 0 0 1 12.34-2.37 49.49 49.49 0 0 1 24.25 5.89 62.31 62.31 0 0 1 10.54 6.87 69.1 69.1 0 0 1 9 8.79c2.73 3.15 5.25 6.44 7.73 9.74a49.63 49.63 0 0 1 6.74 10.8 18.06 18.06 0 0 1 1.47 6.67 11.54 11.54 0 0 1 -2.17 6.9 11.68 11.68 0 0 1 -2.61 2.62 14.07 14.07 0 0 1 -3.24 1.63 18.78 18.78 0 0 1 -6.83.91 27.92 27.92 0 0 1 -6.51-1.28 56.73 56.73 0 0 1 -5.9-2.43c-3.73-1.7-7.36-3.43-11.12-4a14.44 14.44 0 0 0 -5.56.16 22.54 22.54 0 0 0 -5.38 2.12c-3.54 1.84-6.93 4.32-11 5.86a13.57 13.57 0 0 1 -6.49.91 13.41 13.41 0 0 1 -6-2.49c-1.74-1.2-3.29-2.54-5-3.62a14.5 14.5 0 0 0 -5.48-2.14 17.62 17.62 0 0 0 -6 .09 28.45 28.45 0 0 0 -5.81 1.78 64.37 64.37 0 0 0 -10.65 5.9z"/><path d="m455.13 453.42h-1.13c-15.58-.28-28.25-6.14-36.63-17l6.17-4.79c16.74 21.58 48.61 11.61 48.93 11.51l2.42 7.43a69.62 69.62 0 0 1 -19.76 2.85z"/><path d="m126.37 458.47s-106.17 52.8-117.31 86.19-24.8 140.12-24.8 140.12l29.66 10h459.47s-.79-111.12-12.57-134.17 6-32.28-144.26-112.15l-55.18-15.21-73.51-16.59-50.27 43.92z" fill="#049dff"/><path d="m477.33 698.69h-464l-33.33-11.23.41-3.17c.56-4.38 13.84-107.5 25-140.87 11.47-34.53 114.83-86.27 119.22-88.42l1.17-.59 10.66 2 50.33-44 75.63 17.07 55.58 15.32.38.2c129.49 68.84 135.66 86.29 142.19 104.76a70.49 70.49 0 0 0 3.71 9.07c12.06 23.61 13 131.35 13 135.92zm-462.77-7.82h454.88c-.44-39.23-3.44-111.48-12.11-128.48a77.13 77.13 0 0 1 -4.11-10c-6-17-11.66-33-138.11-100.26l-54.68-15.13-71.43-16.09-50.2 43.87-11.8-2.22c-5.41 2.74-28.84 14.78-53 29.83-45.15 28.09-58.17 44.6-61.14 53.5-9.92 29.44-21.94 118.26-24.31 136.21z"/><path d="m186.74 427.5-28.17 19.26 4.71 46.99 34.29 87.57 29.13 65.15 22.67 36.52 10.56-31.31 48-120.91-1.26-59.88-1.82-28.02-69.46-15.37z" fill="#028b3f"/><path d="m250.43 692.1-27.3-44-29.2-65.32-34.49-88.06-5-49.83 31.09-21.26h50.29l.41.09 72.33 16 2 31.12 1.29 60.67-.29.73-47.96 120.76zm-20.27-47.47 18.16 29.25 8-23.64 47.68-120.18-1.25-59-1.62-25-66.13-14.66h-47l-25.26 17.28 4.42 44.15 34.06 87z"/><path d="m165.62 272s2.07 11 2.62 15.94c.2 1.81 0 21.94 4.85 22.94 4.21.87 12.57-3 16.29-11.28s10.8-28.3 10-37.39c-1-12.39-1.62-25 .86-37.16s8.3-24.07 18.09-31.73 23.92-10.34 35-4.77c6.86 3.45 12 9.54 18.38 13.79 5.75 3.82 12.77 6.11 19.59 5.09s13.28-5.77 15.15-12.41c2-7.25-1.71-15.19-7.51-20s-13.3-7-20.68-8.48c-20.49-4.06-42.21-3.26-61.68 4.31s-36.68 22.15-45 41.27c-9.62 22.16-8.5 35.74-6 59.89" fill="#263238"/><path d="m307 192.48c.47-2.47-.34-3.85 1-4.86 1.58-1.15 4.57 1.87 5.67 3.08.35.38 1.47-1.12 1.9-1.41a8.21 8.21 0 0 0 .83-3.15c-.2-1.72-2.9-2.18-4.17-3.35a12.77 12.77 0 0 0 -4.48-2.54c-1.42-.5-3.18-.78-4.29.25a4.16 4.16 0 0 0 -.95 3.21 8.88 8.88 0 0 0 .65 3.35 4.67 4.67 0 0 0 2.28 2.45" fill="#263238"/><path d="m163.86 246.76s23.28 8.54 35.41 13.67l-.69-11.91-33.88-13.4s-.86 8.88-.84 11.64z" fill="#ebebeb"/><path d="m166 228.25c.13-.3 7.51 2.53 16.49 6.33s16.15 7.12 16 7.42-7.51-2.52-16.49-6.32-16.1-7.12-16-7.43z" fill="#ebebeb"/><path d="m327.21 240.16c-1.29 1.65-6.31-.11-12.36-.24-6-.34-11.17 1-12.34-.72-.51-.85.31-2.5 2.56-4a17.89 17.89 0 0 1 19.9.77c2.13 1.67 2.82 3.39 2.24 4.19z"/><path d="m163.86 278.8c-21.26-1.61-28.74 23.74-18.43 39.77a26.41 26.41 0 0 0 22.36 12.43l3.49 92.64s11.45 50.07 69.83 50.07 54.95-46.42 54.95-46.42v-16.74s41.07-8.57 46.11-43.18-6.41-153.53-6.41-153.53l-19.33-27.7-17.5-6.34-81-1.69-36.37 37.06.73 64.74z" fill="#602609"/><path d="m241.11 477.63c-31.7 0-50-14.4-59.84-26.48a72 72 0 0 1 -13.8-26.63l-.08-.36-3.39-89.48a30.62 30.62 0 0 1 -21.88-14c-6.51-10.13-6.92-24.14-1-34.09 4.87-8.16 13.23-12.43 23-11.7l14.21.85-.69-62.15 38.69-39.44 83.32 1.75 19.28 7 20.62 29.56.1 1c.47 4.88 11.44 119.79 6.39 154.47-2.24 15.36-11.51 28.28-26.82 37.37a83.41 83.41 0 0 1 -19.22 8.28v13.6c.12 2 .74 19.79-12.31 33.83-10.27 10.99-25.94 16.62-46.58 16.62zm-65.94-54.54a66.3 66.3 0 0 0 12.37 23.39c12.7 15.48 30.72 23.33 53.57 23.33 18.33 0 32.05-4.72 40.75-14 11.26-12 10.31-28 10.3-28.19v-20.25l3.11-.65a73.85 73.85 0 0 0 20.16-8.26c13.28-7.94 21-18.59 22.88-31.66 4.68-32.07-5.24-139.89-6.34-151.57l-18-25.84-15.77-5.69-78.66-1.65-34 34.7.75 67.31-22.68-1.36c-8.67-.66-13.32 3.93-15.69 7.9-4.47 7.5-4.12 18.13.84 25.86a22.43 22.43 0 0 0 19.08 10.64h3.77z"/><path d="m288.49 414.85c-31.42 0-55.9-19.14-57-20l4.86-6.12c.27.21 27.4 21.34 59.31 18l.82 7.78a77.29 77.29 0 0 1 -7.99.34z"/><path d="m171.28 423.65-44.91 34.82.09 38 21.44.14-9.74 34.09 107.05 152.29h4.16l-75.55-200.9z" fill="#025bc7"/><path d="m255 686.9h-11.82l-109.29-155.48 8.84-30.93-20.17-.14-.1-43.79 52.4-40.63 2.84 65.37zm-112.57-156.9 97.25 138.35-69.74-185.47v-.62l-2.21-50.89-37.42 29 .08 32.21 22.72.14z"/><path d="m281.68 349.7c-22.5 0-24.55-23-24.57-23.23l7.79-.62c.15 1.77 2 17.24 18.91 15.94l.61 7.8c-.95.07-1.86.11-2.74.11z"/><path d="m286.63 324.06c-2.88 0-5.81-.1-8.54-.25l.42-7.81c7.46.4 15 .2 18.41-.42-1.68-7.72-12.08-33.67-22.2-56.71l7.16-3.15c.06.15 6.49 14.79 12.46 29.58 3.52 8.72 6.19 15.8 8 21 3.22 9.58 3.45 12.78 1.08 14.85-2.58 2.26-9.53 2.91-16.79 2.91z"/><path d="m258.22 240.66c-16.24-13.94-34.25-1.35-35-.81l-4.58-6.34c8.12-5.88 27.9-13.19 44.68 1.22z"/><path d="m334.24 241.59c-16.22-13.93-32.86-2.25-33.56-1.75l-4.6-6.32c7.62-5.56 26.46-12.28 43.25 2.14z"/><path d="m297.67 427.51s7.43-1.69 24.41 31l23.5 37.69-29.25 10.13 7.76 17.35-57.43 128.84-7.45 2.07 31.17-125.32z" fill="#025bc7"/><path d="m253.79 660.15 32.72-131.5 7.49-104.31 2.83-.64c3.87-.89 12.74 2.22 28.67 32.83l26 41.72-29.85 10.34 6.73 15.05-58.9 132.16zm47.34-226.25-6.87 96-.08.33-28.7 115.37 54.32-121.95-8.8-19.65 28.65-9.92-21.06-33.8c-8.31-16.03-14.1-23.2-17.46-26.38z"/><path d="m168.21 318.5c-7.42-1.2-12.44-6.31-13.11-13.34a16.53 16.53 0 0 1 10.44-17 45.2 45.2 0 0 1 13.38-2.52l.37 7.81a37.21 37.21 0 0 0 -11.07 2.06c-3.88 1.41-5.64 5.64-5.33 8.91.19 2 1.3 5.51 6.56 6.36z"/><circle cx="239.52" cy="274.51" fill="#e7e5c2" r="28.19"/><path d="m239.52 306.62a32.11 32.11 0 1 1 32.1-32.11 32.14 32.14 0 0 1 -32.1 32.11zm0-56.39a24.29 24.29 0 1 0 24.28 24.28 24.3 24.3 0 0 0 -24.28-24.28z"/><path d="m267.71 270.6h20.53v7.82h-20.53z"/><path d="m247.13 275.75a6.79 6.79 0 0 1 -6.59 6.8 6.49 6.49 0 0 1 -6.95-6.18 6.78 6.78 0 0 1 6.59-6.79 6.49 6.49 0 0 1 6.95 6.17z"/><path d="m254.31 276.94c-15.76-13.53-27.17-.93-27.64-.38l-5.88-5.17c.17-.19 17.05-18.89 38.61-.38z"/><path d="m342.85 202.56 1.67-4.06c3.94-14.46-9.31-18.17-9.31-18.17-4.44-14.91-17.63-15.33-17.63-15.33-7.25-13.38-19.19-10.35-19.19-10.35-7.37-11.45-21.55-6.27-21.55-6.27a17.46 17.46 0 0 0 -18.22-1.58c-13.27-5.37-21.88 1-21.88 1a21.7 21.7 0 0 0 -19.63 3.31 16.55 16.55 0 0 0 -18.57 8.14c-12.78-.27-17 13.09-17 13.09-4.18 0-8.09 3.28-8.09 3.28-5.28 5.27-5.6 10.9-4.56 15.27s-11 5.73-7.34 18.64c0 0-7.56 6.54-3 19.45 0 0-6.67 11.74.38 18.79 0 0-8.39 8 1.62 19l4.39 7.61c1 5.12 2.18 9.51 3.21 12.86 0 .25.06.49.08.71.2 1.81 0 21.94 4.85 22.94 7.38 1.52 13-4.67 16.51-10.29 6.18-9.82 10.63-21.82 10.67-33.53.06-19-3.17-37.52 5.82-55.11 7.12-14 20.84-25.46 37.33-21.1 12.73 3.36 23.28 12.15 36.17 15.36a26.32 26.32 0 0 0 8.63 1.45c21.57 1.72 22.35-15.19 22.35-15.19 15.48 1 18.51 33.67 22.65 48.69 4.23 15.36 7.2 19.26 7.2 19.26 8.59-21.92 8.53-41.52 2.44-57.87z" fill="#726658"/><path d="m175.34 315.13a14.64 14.64 0 0 1 -3.05-.32c-6-1.24-7.53-10.43-8-24.85 0-.77 0-1.33-.06-1.6v-.29c-.8-2.66-1.94-6.82-3.07-12.25l-3.86-6.69c-8.22-9.3-5.77-17.18-3.36-21.26-4.36-7-1.31-15.63.31-19.19-3-10.29.57-17.11 2.95-20.23a19.51 19.51 0 0 1 7.34-19.45c-.48-4.68.52-10.62 6.1-16.19l.26-.24a20 20 0 0 1 7.82-3.88c2.46-5.33 8.14-12.46 17.52-13.33a20.5 20.5 0 0 1 19.91-8.46 25.84 25.84 0 0 1 20-3.39c3.42-1.82 11.48-4.85 22.31-1.06a21.38 21.38 0 0 1 19 1.54c6-1.54 16.13-1.59 22.73 6.35 5.52-.32 14 1.69 19.85 10.94 4.43.82 14 4 18.36 16 5.32 2.41 13.54 9.21 10 22.28l-.16.47-1.08 2.63c6.19 17.87 5.16 38.31-3 59.24l-2.59 6.64-4.32-5.67c-.58-.76-3.66-5.29-7.88-20.63-.87-3.14-1.68-7-2.54-11.08-2.5-11.9-6.14-29.15-13.28-33.61a20.21 20.21 0 0 1 -5.74 8.75c-4.77 4.21-11.4 6-19.73 5.39a30.46 30.46 0 0 1 -9.6-1.62c-7-1.75-13.16-5-19.17-8.07-5.7-3-11.07-5.72-16.9-7.26-9.8-2.59-23.56 1.05-32.75 19.05-6.6 12.92-6.13 26.6-5.64 41.08.13 4 .27 8.1.26 12.22 0 11.49-4 24.15-11.29 35.65-6.19 9.82-12.62 12.39-17.65 12.39zm-.79-8.05c3.89.42 7.79-2.47 11.66-8.61 6.46-10.25 10-21.41 10.06-31.41 0-4-.13-8-.26-11.93-.5-14.86-1-30.23 6.51-45 7.1-13.91 22.34-28.32 41.92-23.15 6.68 1.76 12.71 4.88 18.53 7.89s11.48 5.94 17.59 7.46l.32.09a22.71 22.71 0 0 0 7.32 1.25h.17.17c6.11.48 10.78-.64 13.89-3.33a12.87 12.87 0 0 0 4.14-8.1l.26-4 4 .21c15.4 1 20.07 23.18 23.83 41 .83 4 1.62 7.69 2.42 10.6 1.05 3.79 2 6.84 2.85 9.28 4.62-16.3 4.35-31.55-.81-45.44l-.55-1.47 2.16-5.26c2.54-9.78-5.06-12.58-6.62-13l-2.08-.62-.65-2.09c-3.52-11.83-13.53-12.48-14-12.5l-2.24-.12-1.1-2c-5.52-10.17-13.81-8.58-14.74-8.37l-2.74.63-1.56-2.3c-5.51-8.57-16.37-4.84-16.83-4.68l-1.95.7-1.72-1.2a13.44 13.44 0 0 0 -13.93-1.36l-1.67.92-1.8-.69c-10.85-4.4-17.73.35-18 .56l-1.62 1.15-1.93-.57a17.66 17.66 0 0 0 -15.89 2.58l-1.48 1.21-1.9-.38c-9.72-2-13.73 5.19-14.16 6l-1.12 2.25h-2.52-.29c-9.34 0-12.66 9.88-12.8 10.31l-.89 2.76h-2.92c-2.06 0-4.53 1.57-5.41 2.25-3.28 3.36-4.37 7.08-3.35 11.37l.73 3-2.78 1.44c-.8.43-8 4.64-5.34 14l.71 2.46-1.93 1.67c-.18.17-5.38 5.11-1.86 15.11l.61 1.72-.96 1.63c0 .08-5.05 9.19-.26 14l2.9 2.9-3 2.83c-.87.88-5.06 5.82 1.82 13.4l.29.32 4.93 8.55.13.64c1.16 5.67 2.33 9.92 3.11 12.48l.1.33v.34c0 .26.07.52.1.76 0 .42.06 1 .1 2.22.47 12.23 1.65 16.11 2.33 17.31z"/><path d="m236.2 507.1c-38.63 0-64.18-27-65.25-28.15l5.73-5.33c.24.26 24.38 25.67 59.52 25.67 35.34 0 54.53-18.79 54.72-19l5.53 5.53c-.86.88-21.71 21.28-60.25 21.28z"/><path d="m159.01 272.8h52.41v7.82h-52.41z" transform="matrix(.99647824 -.08385176 .08385176 .99647824 -22.54 16.5)"/><circle cx="316.43" cy="274.51" fill="#e7e5c2" r="28.19"/><path d="m316.44 306.62a32.11 32.11 0 1 1 32.1-32.11 32.15 32.15 0 0 1 -32.1 32.11zm0-56.39a24.29 24.29 0 1 0 24.28 24.28 24.31 24.31 0 0 0 -24.28-24.28z"/><path d="m322.63 275.75a6.78 6.78 0 0 1 -6.59 6.8 6.49 6.49 0 0 1 -7-6.18 6.78 6.78 0 0 1 6.59-6.79 6.49 6.49 0 0 1 7 6.17z"/><path d="m330.45 276.94c-15.76-13.53-27.17-.93-27.64-.38l-5.87-5.17c.16-.19 17-18.89 38.61-.38z"/><path d="m290.38 529.27 7.29-101.76" fill="#025bc7"/><path d="m243.02 474.48h102.02v7.82h-102.02z" transform="matrix(.07149744 -.99744078 .99744078 .07149744 -204.15 737.48)"/><path d="m173.82 482.09-2.54-58.44" fill="#025bc7"/><path d="m168.64 423.62h7.82v58.5h-7.82z" transform="matrix(.99905582 -.04344502 .04344502 .99905582 -19.49 7.92)"/><path d="m249.37 682.99-75.55-200.9" fill="#025bc7"/><path d="m207.69 475.22h7.82v214.64h-7.82z" transform="matrix(.93599811 -.35200502 .35200502 .93599811 -191.51 111.76)"/></g><path d="m172.29 465.32h27.22v7.82h-27.22z" transform="matrix(.62032676 -.78434349 .78434349 .62032676 -297.47 324)"/><path d="m192.84 479.06h29.1v7.82h-29.1z" transform="matrix(.39089178 -.92043664 .92043664 .39089178 -318.22 485.06)"/><path d="m231.21 473.53h7.82v29.68h-7.82z" transform="matrix(.99933477 -.03646929 .03646929 .99933477 -17.62 8.88)"/><path d="m257.87 471.64h7.82v25.71h-7.82z" transform="matrix(.95736993 -.28886471 .28886471 .95736993 -128.8 96.28)"/><path d="m280.05 462.02h7.82v25.55h-7.82z" transform="matrix(.64758809 -.76199059 .76199059 .64758809 -261.71 383.65)"/><path d="m479.54 82.44h7.82v19.98h-7.82z" transform="matrix(.58651373 -.80993929 .80993929 .58651373 125.04 429.78)"/><path d="m500.19 59.77h7.82v20.66h-7.82z" transform="matrix(.78347659 -.6214213 .6214213 .78347659 65.57 328.41)"/><path d="m535.38 42.01h7.82v22.7h-7.82z" transform="matrix(.90967154 -.41532841 .41532841 .90967154 26.56 228.84)"/><path d="m573.59 30.5h7.82v19.49h-7.82z" transform="matrix(.97341925 -.2290305 .2290305 .97341925 6.13 133.33)"/><path d="m607.57 31.87h20.22v7.82h-20.22z" transform="matrix(.1104282 -.9938841 .9938841 .1104282 513.93 645.73)"/><path d="m60.1 26.49h7.82v18.58h-7.82z" transform="matrix(.84113342 -.54082767 .54082767 .84113342 -9.18 40.3)"/><path d="m89.12 16.54h7.82v19.49h-7.82z" transform="matrix(.97341925 -.2290305 .2290305 .97341925 -3.55 22.01)"/><path d="m122.61 9.47h7.82v16.89h-7.82z" transform="matrix(.99 -.13 .13 .99 -1.26 16.88)"/><path d="m150.96 14.29h16.43v7.82h-16.43z" transform="matrix(.16986552 -.98546725 .98546725 .16986552 114.2 171.96)"/><path d="m180.99 23.08h19.98v7.82h-19.98z" transform="matrix(.47485639 -.8800633 .8800633 .47485639 76.54 182.25)"/><path d="m466.05 388.9a5 5 0 1 1 5-5 5 5 0 0 1 -5 5zm0-7.82a2.79 2.79 0 1 0 2.8 2.79 2.79 2.79 0 0 0 -2.8-2.79z"/><g fill="#1026b0"><path d="m483.44 484c-1.48 0-3-.05-4.46-.17l.47-6c20.1 1.57 40.73-8.78 52.16-25.35-4.79-3.9-7.26-9-6.66-13.93a10.87 10.87 0 0 1 6.52-8.36 8.39 8.39 0 0 1 8.48.75c5 3.69 4.11 10.77 1.62 16.16-.54 1.16-1.11 2.31-1.72 3.43a23.85 23.85 0 0 0 13.32 1.63 22.9 22.9 0 0 0 15.14-8.86l4.87 3.5a28.89 28.89 0 0 1 -19.08 11.29 29.78 29.78 0 0 1 -17.41-2.41c-11.77 17.12-32.45 28.32-53.25 28.32zm51.75-48.58a3.55 3.55 0 0 0 -1.35.3 4.93 4.93 0 0 0 -2.93 3.59c-.37 3 1.58 5.92 3.87 8 .47-.89.92-1.79 1.34-2.7 1.54-3.35 2.22-7.37.26-8.82a1.92 1.92 0 0 0 -1.19-.42z"/><path d="m479.07 62a10.66 10.66 0 0 1 -2.09-.21 10.86 10.86 0 0 1 -7.29-5.57 15 15 0 0 1 -1-12.17c2.09-5.69 6.73-9.54 11.63-12.78-6.72-8.16-17.58-13-23.24-15.1l2.09-5.62c6.39 2.37 18.63 7.89 26.26 17.52a154.73 154.73 0 0 1 95.42-21l-.64 6a148.75 148.75 0 0 0 -91.48 20.07 28.17 28.17 0 0 1 3.31 11.24 18.66 18.66 0 0 1 -5.72 14.79 10.94 10.94 0 0 1 -7.25 2.83zm4.59-25.73c-4 2.67-7.8 5.75-9.31 9.85a9 9 0 0 0 .58 7.18 5 5 0 0 0 3.26 2.7 4.72 4.72 0 0 0 4.19-1.3 12.68 12.68 0 0 0 3.7-9.83 22.31 22.31 0 0 0 -2.42-8.56z"/><path d="m541.65 289.1h24.8v6h-24.8z" transform="matrix(.94529106 -.32622817 .32622817 .94529106 -64.97 196.69)"/><path d="m556.98 296.78h15.36v6h-15.36z" transform="matrix(.94494891 -.3272179 .3272179 .94494891 -67 201.22)"/><path d="m622.72 289.72h20.77v6h-20.77z" transform="matrix(.90667625 -.4218272 .4218272 .90667625 -64.39 294.44)"/><path d="m638.65 293.25h16.39v6h-16.39z" transform="matrix(.90251013 -.43066862 .43066862 .90251013 -64.52 307.5)"/></g></svg>