<svg enable-background="new 0 0 682.34 534.35" viewBox="0 0 682.34 534.35" xmlns="http://www.w3.org/2000/svg"><path d="m91.55 0s-91.55 0-91.55 91.28v351.79s0 91.28 91.55 91.28h499.23s91.55 0 91.55-91.28v-351.79s0-91.28-91.55-91.28z" fill="#049dff"/><path d="m97.71 84.96c-.52 1.61 0 377.98 0 377.98h491.22l5.24-377.98-366.58-.54-.52 19.81h-75.93l-.52-19.27z"/><g fill="#e9e7c4"><path d="m269.52 133.71c-1.27 0-2.55-.17-3.83-.54-3.6-1.03-6.59-3.39-8.42-6.67-1.82-3.27-2.26-7.06-1.24-10.66 2.12-7.44 9.89-11.77 17.33-9.65 3.6 1.03 6.59 3.39 8.42 6.67 1.82 3.27 2.26 7.06 1.24 10.66-1.76 6.17-7.39 10.19-13.5 10.19zm.01-18.05c-1.75 0-3.37 1.16-3.87 2.92-.29 1.03-.17 2.12.35 3.06s1.38 1.62 2.42 1.91c2.14.61 4.37-.63 4.97-2.77.29-1.03.17-2.12-.35-3.06s-1.38-1.62-2.42-1.91c-.37-.1-.74-.15-1.1-.15z"/><path d="m131.95 136.29c-1.29 0-2.59-.18-3.86-.54-3.6-1.03-6.59-3.39-8.42-6.67-1.82-3.27-2.26-7.06-1.24-10.66 1.03-3.6 3.39-6.59 6.67-8.41 3.27-1.82 7.06-2.26 10.66-1.24 3.6 1.03 6.59 3.39 8.42 6.67 1.82 3.27 2.26 7.06 1.24 10.66-1.03 3.6-3.39 6.59-6.67 8.41-2.11 1.18-4.45 1.78-6.8 1.78zm-.03-18.06c-.68 0-1.35.17-1.95.51-.94.52-1.62 1.38-1.91 2.42-.29 1.03-.17 2.12.35 3.06s1.38 1.62 2.42 1.91 2.12.17 3.06-.36 1.62-1.38 1.91-2.42c.29-1.03.17-2.12-.35-3.06s-1.38-1.62-2.42-1.91c-.37-.1-.74-.15-1.11-.15z"/><path d="m204.83 402.69c-1.18 0-2.38-.15-3.57-.46-3.62-.95-6.66-3.26-8.54-6.5-1.89-3.24-2.4-7.01-1.44-10.64.95-3.62 3.26-6.66 6.5-8.54 3.24-1.89 7.01-2.4 10.64-1.45 7.48 1.97 11.96 9.66 9.99 17.14-1.67 6.29-7.36 10.45-13.58 10.45zm0-18.05c-.7 0-1.4.19-2.02.55-.93.54-1.59 1.41-1.87 2.45-.27 1.04-.13 2.12.41 3.05s1.41 1.59 2.45 1.87c2.14.56 4.35-.72 4.92-2.87s-.72-4.35-2.87-4.92c-.33-.09-.68-.13-1.02-.13z"/><path d="m140.76 446.13c-1.29 0-2.59-.18-3.86-.54-3.6-1.03-6.59-3.39-8.41-6.67-1.82-3.27-2.26-7.06-1.24-10.66 2.12-7.44 9.89-11.77 17.33-9.65s11.77 9.89 9.65 17.33c-1.03 3.6-3.39 6.59-6.67 8.41-2.11 1.18-4.44 1.78-6.8 1.78zm-.02-18.06c-1.75 0-3.37 1.16-3.87 2.92-.29 1.03-.17 2.12.35 3.06s1.38 1.62 2.42 1.91 2.12.17 3.06-.36c.94-.52 1.62-1.38 1.91-2.42.61-2.14-.64-4.37-2.77-4.97-.37-.09-.74-.14-1.1-.14z"/><path d="m205.75 150.59c-1.2 0-2.41-.16-3.6-.47-7.48-1.97-11.96-9.66-9.99-17.14s9.66-11.96 17.14-9.99c3.62.95 6.66 3.26 8.54 6.5 1.89 3.24 2.4 7.01 1.44 10.64-.95 3.62-3.26 6.66-6.5 8.54-2.16 1.27-4.58 1.92-7.03 1.92zm-.02-18.06c-1.78 0-3.42 1.2-3.89 3-.57 2.15.72 4.35 2.87 4.92 1.04.27 2.12.13 3.05-.41s1.59-1.41 1.87-2.45c.27-1.04.13-2.12-.41-3.05s-1.41-1.59-2.45-1.87c-.36-.1-.7-.14-1.04-.14z"/><path d="m417.44 158.66c-4.55 0-9.01-2.2-11.71-6.27-4.27-6.45-2.51-15.17 3.94-19.44 6.44-4.27 15.17-2.51 19.44 3.94s2.51 15.17-3.94 19.44c-2.38 1.58-5.07 2.33-7.73 2.33zm-.03-18.04c-.76 0-1.54.22-2.22.67-1.85 1.23-2.36 3.73-1.13 5.58s3.73 2.36 5.58 1.13c1.85-1.23 2.36-3.73 1.13-5.58-.77-1.17-2.05-1.8-3.36-1.8z"/><path d="m239.44 182.86c-.93 0-1.88-.09-2.81-.28-3.67-.74-6.83-2.87-8.91-5.99-2.07-3.12-2.8-6.86-2.06-10.54s2.87-6.83 5.99-8.91c3.12-2.07 6.87-2.8 10.54-2.06s6.83 2.87 8.91 5.99c4.27 6.45 2.51 15.17-3.94 19.44-2.32 1.55-4.99 2.35-7.72 2.35zm-.04-18.05c-.78 0-1.55.23-2.22.67-.9.59-1.51 1.5-1.72 2.56-.21 1.05 0 2.13.59 3.02.59.9 1.5 1.51 2.56 1.72s2.13 0 3.02-.59c1.85-1.23 2.36-3.73 1.13-5.58-.59-.9-1.5-1.51-2.56-1.72-.26-.06-.53-.08-.8-.08z"/><path d="m448.57 444.99c-7.73 0-14.03-6.29-14.03-14.03 0-7.73 6.29-14.03 14.03-14.03 7.73 0 14.03 6.29 14.03 14.03-.01 7.74-6.3 14.03-14.03 14.03zm0-18.05c-2.22 0-4.03 1.81-4.03 4.03s1.81 4.03 4.03 4.03 4.03-1.81 4.03-4.03c-.01-2.23-1.81-4.03-4.03-4.03z"/><path d="m259 323.06c-4.96 0-9.77-2.63-12.32-7.27-3.72-6.78-1.24-15.32 5.54-19.05 6.78-3.72 15.32-1.24 19.05 5.54 3.72 6.78 1.24 15.32-5.54 19.05-2.14 1.17-4.45 1.73-6.73 1.73zm-.03-18.05c-.66 0-1.32.16-1.93.5-1.95 1.07-2.66 3.52-1.59 5.47s3.52 2.66 5.47 1.59 2.66-3.52 1.59-5.47c-.74-1.34-2.12-2.09-3.54-2.09z"/><path d="m338.31 227.09c-7.73 0-14.03-6.29-14.03-14.03s6.29-14.03 14.03-14.03c7.73 0 14.03 6.29 14.03 14.03s-6.3 14.03-14.03 14.03zm0-18.05c-2.22 0-4.03 1.81-4.03 4.03s1.81 4.03 4.03 4.03 4.03-1.81 4.03-4.03-1.81-4.03-4.03-4.03z"/><path d="m411.19 444.73c-7.73 0-14.03-6.29-14.03-14.03s6.29-14.03 14.03-14.03c7.73 0 14.03 6.29 14.03 14.03s-6.3 14.03-14.03 14.03zm0-18.05c-2.22 0-4.03 1.81-4.03 4.03s1.81 4.03 4.03 4.03 4.03-1.81 4.03-4.03-1.81-4.03-4.03-4.03z"/><path d="m537.03 154c-5.92 0-11.44-3.78-13.35-9.71-1.15-3.56-.85-7.36.85-10.7 1.71-3.34 4.61-5.81 8.17-6.96 7.36-2.38 15.28 1.67 17.66 9.03 1.15 3.56.85 7.36-.85 10.7s-4.61 5.81-8.17 6.96c-1.43.46-2.88.68-4.31.68zm-.01-18.05c-.41 0-.83.06-1.24.2-1.02.33-1.86 1.04-2.35 2s-.58 2.05-.25 3.07c.68 2.11 2.96 3.27 5.07 2.59 1.02-.33 1.86-1.04 2.34-2 .49-.96.58-2.05.25-3.07-.54-1.71-2.12-2.79-3.82-2.79z"/><path d="m488.98 422.7c-6.14 0-11.8-4.07-13.52-10.28-1-3.61-.54-7.39 1.31-10.66 1.84-3.26 4.85-5.61 8.46-6.61 7.46-2.07 15.2 2.31 17.27 9.77 2.07 7.45-2.32 15.2-9.77 17.26-1.26.35-2.52.52-3.75.52zm-.01-18.06c-.35 0-.72.05-1.07.15-1.04.29-1.9.96-2.43 1.9s-.66 2.02-.38 3.06c.59 2.14 2.82 3.4 4.96 2.8 2.14-.59 3.4-2.82 2.8-4.96-.49-1.78-2.12-2.95-3.88-2.95z"/><path d="m493.68 162c-2.39 0-4.75-.62-6.88-1.82-3.26-1.84-5.61-4.85-6.61-8.46s-.54-7.39 1.31-10.65c1.84-3.26 4.85-5.61 8.46-6.61s7.39-.54 10.66 1.31c3.26 1.84 5.61 4.85 6.61 8.46s.54 7.39-1.31 10.65c-1.84 3.26-4.85 5.61-8.46 6.61-1.25.34-2.52.51-3.78.51zm.03-18.06c-.36 0-.72.05-1.08.15-1.04.29-1.9.96-2.43 1.9s-.66 2.02-.38 3.06c.29 1.04.96 1.9 1.9 2.43s2.02.66 3.06.38c1.04-.29 1.9-.96 2.43-1.9s.66-2.02.38-3.06c-.29-1.04-.96-1.9-1.9-2.43-.62-.36-1.3-.53-1.98-.53z"/><path d="m374.71 308.82c-1.68 0-3.36-.31-4.97-.92-3.5-1.33-6.28-3.94-7.82-7.35-1.54-3.42-1.66-7.23-.33-10.73s3.94-6.28 7.35-7.82c3.42-1.54 7.22-1.66 10.73-.33 7.23 2.74 10.89 10.85 8.15 18.08-1.33 3.5-3.94 6.28-7.35 7.82-1.85.84-3.8 1.25-5.76 1.25zm-.01-18.06c-.56 0-1.12.12-1.65.36-.98.44-1.73 1.24-2.11 2.24-.38 1.01-.35 2.1.09 3.08s1.24 1.73 2.25 2.11 2.1.35 3.08-.09 1.73-1.24 2.11-2.24c.79-2.08-.26-4.41-2.34-5.19-.47-.18-.95-.27-1.43-.27z"/><path d="m372.32 444.65c-1.68 0-3.36-.31-4.97-.92-7.23-2.74-10.89-10.85-8.15-18.08 1.33-3.5 3.94-6.28 7.35-7.82 3.42-1.54 7.23-1.66 10.73-.33s6.28 3.94 7.82 7.35c1.54 3.42 1.66 7.23.33 10.73s-3.94 6.28-7.36 7.82c-1.84.84-3.79 1.25-5.75 1.25zm-.01-18.06c-.56 0-1.12.12-1.65.36-.98.44-1.73 1.24-2.11 2.24-.79 2.08.26 4.41 2.34 5.19 1.01.38 2.1.35 3.08-.09s1.73-1.24 2.11-2.24c.38-1.01.35-2.1-.09-3.08s-1.24-1.73-2.25-2.11c-.47-.18-.95-.27-1.43-.27z"/><path d="m554.4 443.26c-5.92 0-11.44-3.78-13.35-9.71-1.15-3.56-.85-7.36.85-10.7 1.71-3.34 4.61-5.81 8.17-6.96 7.35-2.38 15.28 1.67 17.66 9.03 1.15 3.56.85 7.36-.85 10.7s-4.61 5.81-8.17 6.96c-1.43.46-2.88.68-4.31.68zm-.01-18.05c-.41 0-.83.06-1.24.2-1.02.33-1.86 1.04-2.35 2s-.58 2.05-.25 3.07c.68 2.11 2.96 3.27 5.07 2.59 1.02-.33 1.86-1.04 2.34-2 .49-.96.58-2.05.25-3.07-.54-1.7-2.12-2.79-3.82-2.79z"/><path d="m309.65 133.92c-7.73 0-14.03-6.29-14.03-14.03s6.29-14.03 14.03-14.03c7.73 0 14.03 6.29 14.03 14.03s-6.3 14.03-14.03 14.03zm0-18.05c-2.22 0-4.03 1.81-4.03 4.03s1.81 4.03 4.03 4.03 4.03-1.81 4.03-4.03-1.81-4.03-4.03-4.03z"/><path d="m85.92 256.82h239.35v10h-239.35z" transform="matrix(.00352781 -1 1 .00352781 -56.9497 466.4858)"/><path d="m368.93 274.68h245.47v10h-245.47z" transform="matrix(.0156 -.9999 .9999 .0156 204.3615 766.9256)"/><path d="m558.89 423.34-10-.01.08-61.59-25-33.14 7.85-182.98 9.99.43-7.69 179.39 24.85 32.96z"/><path d="m146.52 426.64-10-.11 2.04-197.96-15.77-21.74 2.87-77.56 10 .37-2.75 74.11 15.69 21.62z"/><path d="m247.78 173.14-.19-9.99 85.85-1.69 24.83-25.56 54.85 3.18-.58 9.99-50.28-2.92-24.52 25.23z"/><path d="m313.79 359.16h120.25v10h-120.25z" transform="matrix(.0105 -.9999 .9999 .0105 5.8302 734.2117)"/><path d="m314.86 357.25-10-.12.62-54.23 27.58.04.38-81.67 10 .05-.42 91.63-27.65-.04z"/><path d="m228.35 261.26h64v10h-64z" transform="matrix(.0139 -.9999 .9999 .0139 -9.5119 522.8738)"/><path d="m476.33 274.44h-111.29v-102.77h111.29zm-101.29-10h91.29v-82.77h-91.29z"/><path d="m458.05 256.5h-74.84v-66.67h74.84zm-64.84-10h54.84v-46.67h-54.84z"/><path d="m440.07 239.61h-38.88v-32.88h38.88zm-28.88-10h18.88v-12.88h-18.88z"/><path d="m426.68 330.6h-29.05v-46.1h29.05zm-19.05-10h9.05v-26.1h-9.05z"/><path d="m462.29 330.6h-29.05v-46.1h29.05zm-19.06-10h9.05v-26.1h-9.05z"/><path d="m257.77 402.66h-29.71v-28.76h29.71zm-19.71-10h9.71v-8.75h-9.71z"/><path d="m324.72 402.99h-29.71v-28.75h29.71zm-19.71-10h9.71v-8.75h-9.71z"/><path d="m257.86 437.84h-29.71v-28.75h29.71zm-19.71-10h9.71v-8.75h-9.71z"/><path d="m324.8 438.18h-29.71v-28.75h29.71zm-19.71-10h9.71v-8.75h-9.71z"/></g><path d="m484.95 61.56-9.55-2.98 2.23-7.14-2.83-8.48 1.61-9.93 9.87 1.59-1.21 7.51 3.06 9.21z" fill="#f7b821"/><path d="m422.24 56.25-8.87-4.61 3.45-6.65-1.18-8.84 3.34-9.45 9.43 3.33-2.54 7.19 1.27 9.58z" fill="#f7b821"/><path d="m549.59 56.46-.67-9.99 2.52-9.15 1.93-8.43 9.75 2.24-2.01 8.73-2.1 7.63.56 8.3z" fill="#f7b821"/><path d="m620.79 122.64-.59-9.98 7.36-.44 6.95-5.31 9.65-1.9 1.93 9.81-7.36 1.45-7.52 5.75z" fill="#f7b821"/><path d="m610.64 64.44-5.77-8.17 6.27-4.43 4.13-7.66 7.23-6.35 6.6 7.52-5.88 5.15-4.39 8.15z" fill="#f7b821"/><path d="m53.01 283.55-9.2-1.68-8.4-1.16 1.37-9.91 8.73 1.21 7.61 1.4 8.05-1.3 1.59 9.87z" fill="#f7b821"/><path d="m61.48 204.05-6.67-3-8.59 1.7-9.5-2.74 2.78-9.61 7.16 2.07 9.33-1.85 9.59 4.3z" fill="#f7b821"/><path d="m620.55 195.98-4.91-8.72 8.6-4.84 9.2-1.63 8.29-1.84 2.17 9.77-8.61 1.9-7.63 1.35z" fill="#f7b821"/><path d="m623.46 272.29-3.74-9.27 9.17-3.71 9.35-.37 8.45-.71.84 9.97-8.78.73-7.72.31z" fill="#f7b821"/><path d="m633.23 329.56-10.31-2.12 2.01-9.8 7.16 1.48 8-3.57 9.88.6-.62 9.99-7.42-.46z" fill="#f7b821"/><path d="m354.44 60.03-10-.24.17-7.49-4.9-7.44-1.15-9.94 9.94-1.15.87 7.58 5.31 8.06z" fill="#f7b821"/><path d="m143.98 59.42-10-.11.08-7.49-4.99-7.38-1.27-9.93 9.92-1.27.97 7.57 5.4 7.99z" fill="#f7b821"/><path d="m274.23 62.72-1.62-7.37-6.2-6.29-3.33-9.31 9.41-3.37 2.59 7.23 6.68 6.78 2.24 10.19z" fill="#f7b821"/><path d="m214.69 64.96-1.62-7.37-6.2-6.3-3.34-9.3 9.41-3.38 2.6 7.23 6.68 6.78 2.23 10.19z" fill="#f7b821"/><path d="m55.68 137.89-5.99-4.34-8.73-.38-8.65-4.65 4.74-8.81 6.63 3.57 9.44.41 8.42 6.1z" fill="#f7b821"/><path d="m73.73 72.75-3.64-6.73-7.24-4.87-5.51-7.95 8.21-5.7 4.44 6.4 7.72 5.2 4.81 8.88z" fill="#f7b821"/><path d="m241.05 517.13-7.66-6.43 4.97-5.92 2.73-9.01 7.5-7.02 6.83 7.29-5.54 5.19-2.54 8.41z" fill="#f7b821"/><path d="m151.5 520.12-7.66-6.43 4.97-5.92 2.73-9.01 7.5-7.02 6.83 7.29-5.54 5.19-2.54 8.41z" fill="#f7b821"/><path d="m61.97 510.68-5.96-8.03 6.26-4.64 5-7.79 8.66-5.09 5.06 8.63-6.6 3.87-4.69 7.32z" fill="#f7b821"/><path d="m36.88 430.71-.04-10 7.45-.04 8.43-4.41 10.42 1.43-1.36 9.9-7.25-.99-7.76 4.06z" fill="#f7b821"/><path d="m373.29 514.45-1.42-8.86-.91-7.84-3.68-7.48 8.97-4.41 4.44 9.02 1.1 9.44 1.38 8.54z" fill="#f7b821"/><path d="m441.13 516.74-.12-7.61-4.58-8.54 1.33-10.59 9.92 1.25-.93 7.42 4.22 7.87.16 10.04z" fill="#f7b821"/><path d="m305.85 517.91-7.99-6.01 4.62-6.16 2.11-9.23 7.19-7.44 7.19 6.94-5.25 5.45-1.96 8.58z" fill="#f7b821"/><path d="m46.21 357.59-9.87-.55.56-9.99 7.43.42 8.68-3.92 10.32 2.07-1.97 9.8-7.16-1.43z" fill="#f7b821"/><path d="m512.84 517.74-3.38-6.94-7.18-6.12-3.37-9.74 9.46-3.27 2.47 7.17 6.69 5.71 4.3 8.81z" fill="#f7b821"/><path d="m591.14 517.14-11.23-13.99-4.83-7.23 8.31-5.56 4.71 7.05 10.84 13.47z" fill="#f7b821"/><path d="m635.54 465.09-7.9-3.94-6.88-3.77-8.05-1.57 1.92-9.81 9.57 1.86 8.16 4.47 7.63 3.8z" fill="#f7b821"/><path d="m619.39 393.13-2.68-9.64 9.54-2.65 9.33.69 8.47.25-.29 9.99-8.81-.26-7.7-.57z" fill="#f7b821"/></svg>