<?xml version="1.0" encoding="UTF-8"?>
<!-- Generator: Adobe Illustrator 24.3.0, SVG Export Plug-In . SVG Version: 6.00 Build 0)  -->
<svg version="1.1" xmlns="http://www.w3.org/2000/svg" xmlns:xlink="http://www.w3.org/1999/xlink" x="0px" y="0px" viewBox="0 0 682.34 534.35" style="enable-background:new 0 0 682.34 534.35;" xml:space="preserve">
<style type="text/css">
	.st0{fill:#0154D5;}
	.st1{fill:#EE8019;}
	.st2{fill:#F0BC00;}
	.st3{fill:#E679A6;}
	.st4{fill:#E9E7C4;}
	.st5{fill:#F5C200;}
	.st6{fill:#00913E;}
	.st7{fill:#028B3F;}
	.st8{fill:#DC0816;}
	.st9{fill:#EA7AAC;}
	.st10{fill:#EB79AC;}
	.st11{fill:#020304;}
	.st12{fill:#049DFF;}
	.st13{fill:#CA6820;}
	.st14{display:none;fill:none;stroke:#000000;stroke-width:1.5;stroke-linecap:square;stroke-miterlimit:10;}
	.st15{fill:none;stroke:#000000;stroke-width:1.5;stroke-linecap:square;stroke-miterlimit:10;}
	.st16{display:none;}
	.st17{display:inline;}
	.st18{fill:none;stroke:#FEF1E2;stroke-width:7;stroke-miterlimit:10;}
	.st19{display:inline;fill:none;stroke:#FEF1E2;stroke-width:7;stroke-miterlimit:10;}
	.st20{fill:#008B3F;}
	.st21{fill:#F6C200;}
	.st22{fill:#F7B821;}
	.st23{fill:#B76032;}
	.st24{fill:#010101;}
	.st25{fill:#295CA8;}
	.st26{fill:#FEF1E2;}
	.st27{fill:#F39126;}
	.st28{fill:#EDEBC8;}
	.st29{fill:#1D1D1B;}
	.st30{fill:#EC79AC;}
	.st31{fill:#F5A67D;}
	.st32{filter:url(#Adobe_OpacityMaskFilter);}
	.st33{mask:url(#SVGID_1_);}
	.st34{fill:#00913F;}
	.st35{fill:#DC0C18;}
	.st36{fill:#6C2F10;}
	.st37{fill:#2D57A4;}
	.st38{stroke:#000000;stroke-miterlimit:10;}
	.st39{display:inline;fill:none;stroke:#0154D5;stroke-width:10;stroke-miterlimit:10;}
	.st40{display:inline;fill:none;stroke:#0154D5;stroke-width:10;stroke-linecap:square;stroke-miterlimit:10;}
	.st41{fill:#893E13;}
	.st42{fill:#191918;}
	.st43{fill:none;stroke:#E9E7C4;stroke-width:10;stroke-miterlimit:10;}
	.st44{fill:none;stroke:#F7B821;stroke-width:10;stroke-miterlimit:10;}
	.st45{fill:none;stroke:#0154D5;stroke-width:10;stroke-miterlimit:10;}
	.st46{fill:none;}
	.st47{fill:#F6B720;}
	.st48{fill:#FDF0E1;}
	.st49{fill:#025BC7;}
	.st50{clip-path:url(#SVGID_3_);}
	.st51{fill:none;stroke:#FBF3A0;stroke-width:1.296;stroke-miterlimit:10;}
	.st52{fill:#1F1332;}
	.st53{fill:#E69B23;}
	.st54{fill:#F08C25;}
	.st55{fill:#5B1A0E;}
	.st56{fill:#5D1A16;}
	.st57{fill:none;stroke:#5AFD06;stroke-width:0.9072;stroke-miterlimit:10;}
	.st58{fill:#F3B5A9;}
	.st59{fill:#E4E1BF;}
	.st60{fill:#FFFFFF;}
	.st61{fill:#F3AD17;}
	.st62{fill:#E7E5C2;}
	.st63{fill:#1026B0;}
	.st64{fill:#EDBCD2;}
	.st65{clip-path:url(#SVGID_5_);}
	.st66{clip-path:url(#SVGID_5_);fill:#EDBCD2;}
	.st67{clip-path:url(#SVGID_7_);}
	.st68{fill:#EE6807;}
	.st69{fill:#E89C1F;}
	.st70{fill:#821987;}
	.st71{fill:#C4681F;}
	.st72{fill:#263238;}
	.st73{fill:#EBEBEB;}
	.st74{fill:none;stroke:#000000;stroke-width:8.4953;stroke-miterlimit:10;}
	.st75{fill:#0491FF;}
	.st76{fill:#ED8019;}
	.st77{fill:#E6E4C1;}
	.st78{clip-path:url(#SVGID_9_);}
	.st79{fill:#049CFF;}
	.st80{fill:#DB0816;}
	.st81{clip-path:url(#SVGID_11_);}
	.st82{clip-path:url(#SVGID_13_);}
	.st83{fill:#1E1232;}
	.st84{fill:#E49924;}
	.st85{fill:none;stroke:#62FC06;stroke-width:0.3063;stroke-miterlimit:10;}
	.st86{fill:none;stroke:#000000;stroke-width:8.1291;stroke-miterlimit:10;}
	.st87{fill:none;stroke:#000000;stroke-width:0.5314;stroke-miterlimit:10;}
	.st88{fill:none;stroke:#000000;stroke-width:7.7722;stroke-miterlimit:10;}
	.st89{fill:#DC0816;stroke:#000000;stroke-width:7.8223;stroke-miterlimit:10;}
	.st90{fill:#DC0816;stroke:#000000;stroke-width:9.4667;stroke-miterlimit:10;}
	.st91{clip-path:url(#SVGID_15_);}
	.st92{opacity:0.79;clip-path:url(#SVGID_17_);fill:#E7E5C2;}
	.st93{fill:#DC0816;stroke:#000000;stroke-width:10;stroke-miterlimit:10;}
	.st94{clip-path:url(#SVGID_19_);}
	.st95{fill:#211232;}
	.st96{fill:#F77B00;}
	.st97{clip-path:url(#SVGID_21_);}
	.st98{fill:#F69225;}
	.st99{fill:#ECEAC6;}
	.st100{clip-path:url(#SVGID_23_);}
	.st101{fill:#711C13;}
	.st102{clip-path:url(#SVGID_25_);}
	.st103{clip-path:url(#SVGID_27_);}
	.st104{clip-path:url(#SVGID_27_);fill:#1026B0;}
	.st105{clip-path:url(#SVGID_27_);fill:#EE6807;}
	.st106{clip-path:url(#SVGID_27_);fill:#DC0816;}
	.st107{clip-path:url(#SVGID_27_);fill:#028B3F;}
	.st108{clip-path:url(#SVGID_29_);}
	.st109{clip-path:url(#SVGID_31_);}
	.st110{clip-path:url(#SVGID_33_);}
	.st111{fill:#EFEDCA;}
	.st112{fill:#561309;}
	.st113{fill:#85BE3F;}
	.st114{fill:none;stroke:#000000;stroke-width:10.905;stroke-miterlimit:10;}
	.st115{clip-path:url(#SVGID_35_);}
	.st116{fill:#76320A;}
	.st117{fill:#0490FF;}
	.st118{fill:#EFBB00;}
	.st119{fill:#DF2E1D;}
	.st120{fill:none;stroke:#000000;stroke-width:10.4483;stroke-miterlimit:10;}
	.st121{fill:#008019;}
	.st122{clip-path:url(#SVGID_37_);}
	.st123{fill:#DE2C71;}
	.st124{fill:none;stroke:#000000;stroke-width:7.8187;stroke-miterlimit:10;}
	.st125{fill:#E59D6C;}
	.st126{stroke:#000000;stroke-width:0.9773;stroke-miterlimit:10;}
	.st127{fill:#602609;}
	.st128{fill:#726658;}
</style>
<g id="KUEBIKO_BG">
</g>
<g id="KUEBIKO_FARBE">
</g>
<g id="FIREWORK_BG_1_">
</g>
<g id="FIREWORK_FARBE">
</g>
<g id="FIREWORK">
</g>
<g id="PP_FARBE">
</g>
<g id="PAP">
</g>
<g id="NAZAR_BG">
</g>
<g id="NAZAR_COLORS">
</g>
<g id="NAZAR">
</g>
<g id="WIKIQUOTE_BG">
</g>
<g id="WIKIQUOTE_FARBE">
</g>
<g id="WIKIQUOTE">
</g>
<g id="WIKIVOYAGE_BG">
</g>
<g id="WIKIVOYAGE_FARBE_1_">
</g>
<g id="WIKIVOYAGE_1_">
</g>
<g id="HAMSA_BG">
</g>
<g id="HAMSA_FARBE">
</g>
<g id="HAMSA">
</g>
<g id="WWW_BG">
</g>
<g id="WWW_FARBE_1_">
</g>
<g id="WWW">
</g>
<g id="FOTO_BG">
</g>
<g id="FOTO_FARBE_1_">
</g>
<g id="FOTO_1_">
</g>
<g id="HUMAN_FIGURE_BG">
</g>
<g id="HUMAN_FIGURE_FARBE">
</g>
<g id="HUMAN_FIGURE">
</g>
<g id="GLASSES_BG">
</g>
<g id="GLASSES_FARBE">
</g>
<g id="GLASSES">
</g>
<g id="KINTSUGO_BG">
</g>
<g id="KINTSUGI_FARBE">
</g>
<g id="KINTSUGI">
</g>
<g id="RANGOLI_BG">
</g>
<g id="RANGOLI_FARBE">
</g>
<g id="RANGOLI">
</g>
<g id="HENNA_BG">
</g>
<g id="HENNA_FARBE">
</g>
<g id="HENNA">
</g>
<g id="BASKETBALL_BG">
</g>
<g id="BASKETBALL_FARBE_1_">
</g>
<g id="BASKETBALL_FARBE">
</g>
<g id="BASKETBALL">
	<g id="Ebene_42">
	</g>
</g>
<g id="RUG_BG">
</g>
<g id="RUG_FARBE">
</g>
<g id="RUG">
</g>
<g id="KAABA_BG">
</g>
<g id="KAABA_FARBE">
</g>
<g id="KAABA">
</g>
<g id="Wikinews_BG">
</g>
<g id="WIKINEWS_FARBE">
</g>
<g id="WIKINEWS">
</g>
<g id="WIKIMEDIA_FOUNDATION_BG">
</g>
<g id="WIKIMEDIA_FARBE">
</g>
<g id="WIKIMEDIA">
</g>
<g id="WIKIMEDIA_COMMONS">
</g>
<g id="COMMONS_FARBE">
</g>
<g id="COMMONS">
</g>
<g id="BIWA_BG">
</g>
<g id="BIWA_FARBE">
</g>
<g id="BIWA">
</g>
<g id="_x2B__BG">
</g>
<g id="_x2B__FARBE">
</g>
<g id="_x2B_">
</g>
<g id="IBIS_OF_THOTH_BG">
</g>
<g id="IBIS_OF_THOTH_FARBEN">
</g>
<g id="IBIS_OF_THOTH">
</g>
<g id="SERPENT_BG">
</g>
<g id="SERPENT_FARBE">
</g>
<g id="SERPENT">
</g>
<g id="TREE_BG_1_">
</g>
<g id="TREE_FARBEN">
</g>
<g id="TREE_1_">
</g>
<g id="BAPHO_BG_1_">
</g>
<g id="BAPHO_FARBE">
</g>
<g id="BAPHO">
</g>
<g id="SALAM_BG">
</g>
<g id="SALAM_FARBE">
</g>
<g id="SALAM_1_">
</g>
<g id="PAINTING_EASLE_BG">
</g>
<g id="PAINTING_EASLE_FARBE">
</g>
<g id="PAINTING_EASLE_FARBEN">
</g>
<g id="WHEAT_BG">
</g>
<g id="WHEAT_FARBE">
</g>
<g id="WHEAT">
</g>
<g id="SMILE_BG">
</g>
<g id="SMILE_FARBE">
</g>
<g id="SMILE">
</g>
<g id="WIFI_BG">
</g>
<g id="WIFI_FARBE">
</g>
<g id="WIFI">
</g>
<g id="WIND_BG">
</g>
<g id="WIND_FARBEN">
</g>
<g id="WIND">
</g>
<g id="CHIC_x40_S_BG">
</g>
<g id="CHIC_x40_S_FARBEN">
</g>
<g id="CHIC_x40_S_1_">
</g>
<g id="ESC_BG">
</g>
<g id="ESC_FARBE">
</g>
<g id="ESC">
</g>
<g id="SPRAYCAN_BG">
</g>
<g id="SPRAYCAN_FARBE">
</g>
<g id="SPRAYCAN_1_">
</g>
<g id="PACHAMAMA_BG">
</g>
<g id="PACHAMAMA_FARBEN">
</g>
<g id="PACHAMAMA">
</g>
<g id="THUNDERBIRD_BG">
</g>
<g id="THUNDERBIRD_FARBE_1_">
</g>
<g id="THUNDERBIRD">
</g>
<g id="MARSHA_BG">
</g>
<g id="MARSHA_FARBE">
</g>
<g id="MARSHA">
</g>
<g id="ARROW_BG">
</g>
<g id="ARROW_FARBE">
</g>
<g id="ARROW">
</g>
<g id="WKTK_BG_1_">
</g>
<g id="WKTK_FARBE">
</g>
<g id="WKTK">
</g>
<g id="YALLAH_BG">
</g>
<g id="YALLAH_COLOR">
</g>
<g id="YALLAH">
</g>
<g id="Ebene_130_Kopie_Kopie_Kopie">
</g>
<g id="WIKIPEDIA_FARBE">
</g>
<g id="WIKIPEDIA">
</g>
<g id="WIKTIONARY_BG">
</g>
<g id="WIKTIONARY">
</g>
<g id="WIKTIONARY_1_">
</g>
<g id="WIKIDATA_BG">
</g>
<g id="WIKIDATA_FARBEN">
</g>
<g id="WIKIDATA_1_">
</g>
<g id="RAVEN_BG">
</g>
<g id="RAVEN_FARBE">
</g>
<g id="RAVEN">
</g>
<g id="OWL_ATHENA_BG">
</g>
<g id="OWL_ATHENA_BG_FARBE">
</g>
<g id="OWL_ATHENA">
</g>
<g id="GHYAMA_BG">
</g>
<g id="GHYAMA_FARBE">
</g>
<g id="GHYAMA">
</g>
<g id="_x32_0_BG">
</g>
<g id="_x32_0_FARBE">
</g>
<g id="_x32__0">
</g>
<g id="BRAILLE_BG">
</g>
<g id="BRAILLE_FARBE">
</g>
<g id="BRAILLE">
</g>
<g id="EYE_OF_HORUS_BG_1_">
</g>
<g id="EYE_OF_HORUS_FARBE">
</g>
<g id="EYE_OF_HORUS">
</g>
<g id="PARTY_ELEMENT_1">
</g>
<g id="PARTY_ELEMENT_FARBEN">
</g>
<g id="PARTY_ELEMENT">
</g>
<g id="CAKE_BG">
</g>
<g id="CAKE_FARBEN">
</g>
<g id="CAKE">
</g>
<g id="PAPERPLANE_BG">
</g>
<g id="PAPERPLANE_FARBE">
</g>
<g id="PAPERPLANE">
</g>
<g id="INCUBATOR_BG">
</g>
<g id="INCUBATOR_FARBEN_1_">
</g>
<g id="INCUBATOR_1_">
</g>
<g id="_x3D__BG">
</g>
<g id="_x3D__FARBE">
</g>
<g id="_x3D_">
</g>
<g id="TECHNOLOGY_02_BG_1_">
</g>
<g id="TECHNOLOGY_01_COLOR">
</g>
<g id="TECHNOLOGY_01">
</g>
<g id="TECHNOLOGY_02_BG">
	<path class="st12" d="M91.55,0C91.55,0,0,0,0,91.28v351.79c0,0,0,91.28,91.55,91.28h499.23c0,0,91.55,0,91.55-91.28V91.28   c0,0,0-91.28-91.55-91.28H91.55z"/>
</g>
<g id="TECH_COLOR_02">
	<path d="M97.71,84.96c-0.52,1.61,0,377.98,0,377.98h491.22l5.24-377.98l-366.58-0.54l-0.52,19.81h-75.93l-0.52-19.27H97.71z"/>
</g>
<g id="TECH_COLOR">
	<path class="st4" d="M269.52,133.71c-1.27,0-2.55-0.17-3.83-0.54c-3.6-1.03-6.59-3.39-8.42-6.67c-1.82-3.27-2.26-7.06-1.24-10.66   c2.12-7.44,9.89-11.77,17.33-9.65c3.6,1.03,6.59,3.39,8.42,6.67c1.82,3.27,2.26,7.06,1.24,10.66l0,0   C281.26,129.69,275.63,133.71,269.52,133.71z M269.53,115.66c-1.75,0-3.37,1.16-3.87,2.92c-0.29,1.03-0.17,2.12,0.35,3.06   c0.52,0.94,1.38,1.62,2.42,1.91c2.14,0.61,4.37-0.63,4.97-2.77l0,0c0.29-1.03,0.17-2.12-0.35-3.06c-0.52-0.94-1.38-1.62-2.42-1.91   C270.26,115.71,269.89,115.66,269.53,115.66z"/>
	<path class="st4" d="M131.95,136.29c-1.29,0-2.59-0.18-3.86-0.54c-3.6-1.03-6.59-3.39-8.42-6.67c-1.82-3.27-2.26-7.06-1.24-10.66   c1.03-3.6,3.39-6.59,6.67-8.41c3.27-1.82,7.06-2.26,10.66-1.24c3.6,1.03,6.59,3.39,8.42,6.67c1.82,3.27,2.26,7.06,1.24,10.66l0,0   c-1.03,3.6-3.39,6.59-6.67,8.41C136.64,135.69,134.3,136.29,131.95,136.29z M131.92,118.23c-0.68,0-1.35,0.17-1.95,0.51   c-0.94,0.52-1.62,1.38-1.91,2.42c-0.29,1.03-0.17,2.12,0.35,3.06c0.52,0.94,1.38,1.62,2.42,1.91c1.04,0.29,2.12,0.17,3.06-0.36   s1.62-1.38,1.91-2.42l0,0c0.29-1.03,0.17-2.12-0.35-3.06c-0.52-0.94-1.38-1.62-2.42-1.91   C132.66,118.28,132.29,118.23,131.92,118.23z"/>
	<path class="st4" d="M204.83,402.69c-1.18,0-2.38-0.15-3.57-0.46c-3.62-0.95-6.66-3.26-8.54-6.5c-1.89-3.24-2.4-7.01-1.44-10.64   c0.95-3.62,3.26-6.66,6.5-8.54c3.24-1.89,7.01-2.4,10.64-1.45c7.48,1.97,11.96,9.66,9.99,17.14v0   C216.74,398.53,211.05,402.69,204.83,402.69z M204.83,384.64c-0.7,0-1.4,0.19-2.02,0.55c-0.93,0.54-1.59,1.41-1.87,2.45   c-0.27,1.04-0.13,2.12,0.41,3.05c0.54,0.93,1.41,1.59,2.45,1.87c2.14,0.56,4.35-0.72,4.92-2.87c0.57-2.15-0.72-4.35-2.87-4.92   C205.52,384.68,205.17,384.64,204.83,384.64z"/>
	<path class="st4" d="M140.76,446.13c-1.29,0-2.59-0.18-3.86-0.54c-3.6-1.03-6.59-3.39-8.41-6.67c-1.82-3.27-2.26-7.06-1.24-10.66   c2.12-7.44,9.89-11.77,17.33-9.65c7.44,2.12,11.77,9.89,9.65,17.33l0,0c-1.03,3.6-3.39,6.59-6.67,8.41   C145.45,445.53,143.12,446.13,140.76,446.13z M140.74,428.07c-1.75,0-3.37,1.16-3.87,2.92c-0.29,1.03-0.17,2.12,0.35,3.06   c0.52,0.94,1.38,1.62,2.42,1.91s2.12,0.17,3.06-0.36c0.94-0.52,1.62-1.38,1.91-2.42c0.61-2.14-0.64-4.37-2.77-4.97   C141.47,428.12,141.1,428.07,140.74,428.07z"/>
	<path class="st4" d="M205.75,150.59c-1.2,0-2.41-0.16-3.6-0.47c-7.48-1.97-11.96-9.66-9.99-17.14c1.97-7.48,9.66-11.96,17.14-9.99   c3.62,0.95,6.66,3.26,8.54,6.5c1.89,3.24,2.4,7.01,1.44,10.64l0,0c-0.95,3.62-3.26,6.66-6.5,8.54   C210.62,149.94,208.2,150.59,205.75,150.59z M205.73,132.53c-1.78,0-3.42,1.2-3.89,3c-0.57,2.15,0.72,4.35,2.87,4.92   c1.04,0.27,2.12,0.13,3.05-0.41c0.93-0.54,1.59-1.41,1.87-2.45v0c0.27-1.04,0.13-2.12-0.41-3.05c-0.54-0.93-1.41-1.59-2.45-1.87   C206.41,132.57,206.07,132.53,205.73,132.53z"/>
	<path class="st4" d="M417.44,158.66c-4.55,0-9.01-2.2-11.71-6.27c-4.27-6.45-2.51-15.17,3.94-19.44   c6.44-4.27,15.17-2.51,19.44,3.94c4.27,6.45,2.51,15.17-3.94,19.44l0,0C422.79,157.91,420.1,158.66,417.44,158.66z M417.41,140.62   c-0.76,0-1.54,0.22-2.22,0.67c-1.85,1.23-2.36,3.73-1.13,5.58c1.23,1.85,3.73,2.36,5.58,1.13l0,0c1.85-1.23,2.36-3.73,1.13-5.58   C420,141.25,418.72,140.62,417.41,140.62z"/>
	<path class="st4" d="M239.44,182.86c-0.93,0-1.88-0.09-2.81-0.28c-3.67-0.74-6.83-2.87-8.91-5.99c-2.07-3.12-2.8-6.86-2.06-10.54   s2.87-6.83,5.99-8.91c3.12-2.07,6.87-2.8,10.54-2.06c3.67,0.74,6.83,2.87,8.91,5.99c4.27,6.45,2.51,15.17-3.94,19.44l0,0   C244.84,182.06,242.17,182.86,239.44,182.86z M239.4,164.81c-0.78,0-1.55,0.23-2.22,0.67c-0.9,0.59-1.51,1.5-1.72,2.56   c-0.21,1.05,0,2.13,0.59,3.02c0.59,0.9,1.5,1.51,2.56,1.72c1.06,0.21,2.13,0,3.02-0.59l0,0c1.85-1.23,2.36-3.73,1.13-5.58   c-0.59-0.9-1.5-1.51-2.56-1.72C239.94,164.83,239.67,164.81,239.4,164.81z"/>
	<path class="st4" d="M448.57,444.99c-7.73,0-14.03-6.29-14.03-14.03c0-7.73,6.29-14.03,14.03-14.03c7.73,0,14.03,6.29,14.03,14.03   C462.59,438.7,456.3,444.99,448.57,444.99z M448.57,426.94c-2.22,0-4.03,1.81-4.03,4.03c0,2.22,1.81,4.03,4.03,4.03   s4.03-1.81,4.03-4.03C452.59,428.74,450.79,426.94,448.57,426.94z"/>
	<path class="st4" d="M259,323.06c-4.96,0-9.77-2.63-12.32-7.27c-3.72-6.78-1.24-15.32,5.54-19.05c6.78-3.72,15.32-1.24,19.05,5.54   l0,0c3.72,6.78,1.24,15.32-5.54,19.05C263.59,322.5,261.28,323.06,259,323.06z M258.97,305.01c-0.66,0-1.32,0.16-1.93,0.5   c-1.95,1.07-2.66,3.52-1.59,5.47c1.07,1.95,3.52,2.66,5.47,1.59c1.95-1.07,2.66-3.52,1.59-5.47l0,0   C261.77,305.76,260.39,305.01,258.97,305.01z"/>
	<path class="st4" d="M338.31,227.09c-7.73,0-14.03-6.29-14.03-14.03s6.29-14.03,14.03-14.03c7.73,0,14.03,6.29,14.03,14.03   S346.04,227.09,338.31,227.09z M338.31,209.04c-2.22,0-4.03,1.81-4.03,4.03s1.81,4.03,4.03,4.03s4.03-1.81,4.03-4.03   S340.53,209.04,338.31,209.04z"/>
	<path class="st4" d="M411.19,444.73c-7.73,0-14.03-6.29-14.03-14.03s6.29-14.03,14.03-14.03c7.73,0,14.03,6.29,14.03,14.03   S418.92,444.73,411.19,444.73z M411.19,426.68c-2.22,0-4.03,1.81-4.03,4.03s1.81,4.03,4.03,4.03s4.03-1.81,4.03-4.03   S413.41,426.68,411.19,426.68z"/>
	<path class="st4" d="M537.03,154c-5.92,0-11.44-3.78-13.35-9.71c-1.15-3.56-0.85-7.36,0.85-10.7c1.71-3.34,4.61-5.81,8.17-6.96   c7.36-2.38,15.28,1.67,17.66,9.03c1.15,3.56,0.85,7.36-0.85,10.7c-1.7,3.34-4.61,5.81-8.17,6.96   C539.91,153.78,538.46,154,537.03,154z M537.02,135.95c-0.41,0-0.83,0.06-1.24,0.2c-1.02,0.33-1.86,1.04-2.35,2   c-0.49,0.96-0.58,2.05-0.25,3.07l0,0c0.68,2.11,2.96,3.27,5.07,2.59c1.02-0.33,1.86-1.04,2.34-2c0.49-0.96,0.58-2.05,0.25-3.07   C540.3,137.03,538.72,135.95,537.02,135.95z"/>
	<path class="st4" d="M488.98,422.7c-6.14,0-11.8-4.07-13.52-10.28c-1-3.61-0.54-7.39,1.31-10.66c1.84-3.26,4.85-5.61,8.46-6.61   c7.46-2.07,15.2,2.31,17.27,9.77v0c2.07,7.45-2.32,15.2-9.77,17.26C491.47,422.53,490.21,422.7,488.98,422.7z M488.97,404.64   c-0.35,0-0.72,0.05-1.07,0.15c-1.04,0.29-1.9,0.96-2.43,1.9c-0.53,0.94-0.66,2.02-0.38,3.06c0.59,2.14,2.82,3.4,4.96,2.8   c2.14-0.59,3.4-2.82,2.8-4.96C492.36,405.81,490.73,404.64,488.97,404.64z"/>
	<path class="st4" d="M493.68,162c-2.39,0-4.75-0.62-6.88-1.82c-3.26-1.84-5.61-4.85-6.61-8.46c-1-3.61-0.54-7.39,1.31-10.65   c1.84-3.26,4.85-5.61,8.46-6.61c3.61-1,7.39-0.54,10.66,1.31c3.26,1.84,5.61,4.85,6.61,8.46c1,3.61,0.54,7.39-1.31,10.65   c-1.84,3.26-4.85,5.61-8.46,6.61C496.21,161.83,494.94,162,493.68,162z M493.71,143.94c-0.36,0-0.72,0.05-1.08,0.15   c-1.04,0.29-1.9,0.96-2.43,1.9c-0.53,0.94-0.66,2.02-0.38,3.06c0.29,1.04,0.96,1.9,1.9,2.43c0.94,0.53,2.02,0.66,3.06,0.38   c1.04-0.29,1.9-0.96,2.43-1.9s0.66-2.02,0.38-3.06v0c-0.29-1.04-0.96-1.9-1.9-2.43C495.07,144.11,494.39,143.94,493.71,143.94z"/>
	<path class="st4" d="M374.71,308.82c-1.68,0-3.36-0.31-4.97-0.92c-3.5-1.33-6.28-3.94-7.82-7.35c-1.54-3.42-1.66-7.23-0.33-10.73   c1.33-3.5,3.94-6.28,7.35-7.82c3.42-1.54,7.22-1.66,10.73-0.33c7.23,2.74,10.89,10.85,8.15,18.08c-1.33,3.5-3.94,6.28-7.35,7.82   C378.62,308.41,376.67,308.82,374.71,308.82z M374.7,290.76c-0.56,0-1.12,0.12-1.65,0.36c-0.98,0.44-1.73,1.24-2.11,2.24   c-0.38,1.01-0.35,2.1,0.09,3.08c0.44,0.98,1.24,1.73,2.25,2.11c1.01,0.38,2.1,0.35,3.08-0.09s1.73-1.24,2.11-2.24   c0.79-2.08-0.26-4.41-2.34-5.19C375.66,290.85,375.18,290.76,374.7,290.76z"/>
	<path class="st4" d="M372.32,444.65c-1.68,0-3.36-0.31-4.97-0.92c-7.23-2.74-10.89-10.85-8.15-18.08c1.33-3.5,3.94-6.28,7.35-7.82   c3.42-1.54,7.23-1.66,10.73-0.33c3.5,1.33,6.28,3.94,7.82,7.35c1.54,3.42,1.66,7.23,0.33,10.73c-1.33,3.5-3.94,6.28-7.36,7.82   C376.23,444.24,374.28,444.65,372.32,444.65z M372.31,426.59c-0.56,0-1.12,0.12-1.65,0.36c-0.98,0.44-1.73,1.24-2.11,2.24   c-0.79,2.08,0.26,4.41,2.34,5.19c1.01,0.38,2.1,0.35,3.08-0.09c0.98-0.44,1.73-1.24,2.11-2.24v0c0.38-1.01,0.35-2.1-0.09-3.08   c-0.44-0.98-1.24-1.73-2.25-2.11C373.27,426.68,372.79,426.59,372.31,426.59z"/>
	<path class="st4" d="M554.4,443.26c-5.92,0-11.44-3.78-13.35-9.71c-1.15-3.56-0.85-7.36,0.85-10.7c1.71-3.34,4.61-5.81,8.17-6.96   c7.35-2.38,15.28,1.67,17.66,9.03c1.15,3.56,0.85,7.36-0.85,10.7c-1.7,3.34-4.61,5.81-8.17,6.96   C557.28,443.04,555.83,443.26,554.4,443.26z M554.39,425.21c-0.41,0-0.83,0.06-1.24,0.2c-1.02,0.33-1.86,1.04-2.35,2   c-0.49,0.96-0.58,2.05-0.25,3.07l0,0c0.68,2.11,2.96,3.27,5.07,2.59c1.02-0.33,1.86-1.04,2.34-2c0.49-0.96,0.58-2.05,0.25-3.07   C557.67,426.3,556.09,425.21,554.39,425.21z"/>
	<path class="st4" d="M309.65,133.92c-7.73,0-14.03-6.29-14.03-14.03s6.29-14.03,14.03-14.03c7.73,0,14.03,6.29,14.03,14.03   S317.38,133.92,309.65,133.92z M309.65,115.87c-2.22,0-4.03,1.81-4.03,4.03s1.81,4.03,4.03,4.03s4.03-1.81,4.03-4.03   S311.87,115.87,309.65,115.87z"/>
	
		<rect x="85.92" y="256.82" transform="matrix(3.527810e-03 -1 1 3.527810e-03 -56.9497 466.4858)" class="st4" width="239.35" height="10"/>
	
		<rect x="368.93" y="274.68" transform="matrix(0.0156 -0.9999 0.9999 0.0156 204.3615 766.9256)" class="st4" width="245.47" height="10"/>
	<polygon class="st4" points="558.89,423.34 548.89,423.33 548.97,361.74 523.97,328.6 531.82,145.62 541.81,146.05 534.12,325.44    558.97,358.4  "/>
	<polygon class="st4" points="146.52,426.64 136.52,426.53 138.56,228.57 122.79,206.83 125.66,129.27 135.66,129.64 132.91,203.75    148.6,225.37  "/>
	<polygon class="st4" points="247.78,173.14 247.59,163.15 333.44,161.46 358.27,135.9 413.12,139.08 412.54,149.07 362.26,146.15    337.74,171.38  "/>
	
		<rect x="313.79" y="359.16" transform="matrix(0.0105 -0.9999 0.9999 0.0105 5.8302 734.2117)" class="st4" width="120.25" height="10"/>
	<polygon class="st4" points="314.86,357.25 304.86,357.13 305.48,302.9 333.06,302.94 333.44,221.27 343.44,221.32 343.02,312.95    315.37,312.91  "/>
	
		<rect x="228.35" y="261.26" transform="matrix(0.0139 -0.9999 0.9999 0.0139 -9.5119 522.8738)" class="st4" width="64" height="10"/>
	<path class="st4" d="M476.33,274.44H365.04V171.67h111.29V274.44z M375.04,264.44h91.29v-82.77h-91.29V264.44z"/>
	<path class="st4" d="M458.05,256.5h-74.84v-66.67h74.84V256.5z M393.21,246.5h54.84v-46.67h-54.84V246.5z"/>
	<path class="st4" d="M440.07,239.61h-38.88v-32.88h38.88V239.61z M411.19,229.61h18.88v-12.88h-18.88V229.61z"/>
	<path class="st4" d="M426.68,330.6h-29.05v-46.1h29.05V330.6z M407.63,320.6h9.05v-26.1h-9.05V320.6z"/>
	<path class="st4" d="M462.29,330.6h-29.05v-46.1h29.05V330.6z M443.23,320.6h9.05v-26.1h-9.05V320.6z"/>
	<path class="st4" d="M257.77,402.66h-29.71V373.9h29.71V402.66z M238.06,392.66h9.71v-8.75h-9.71V392.66z"/>
	<path class="st4" d="M324.72,402.99h-29.71v-28.75h29.71V402.99z M305.01,392.99h9.71v-8.75h-9.71V392.99z"/>
	<path class="st4" d="M257.86,437.84h-29.71v-28.75h29.71V437.84z M238.15,427.84h9.71v-8.75h-9.71V427.84z"/>
	<path class="st4" d="M324.8,438.18h-29.71v-28.75h29.71V438.18z M305.09,428.18h9.71v-8.75h-9.71V428.18z"/>
	<g>
		<polygon class="st22" points="484.95,61.56 475.4,58.58 477.63,51.44 474.8,42.96 476.41,33.03 486.28,34.62 485.07,42.13     488.13,51.34   "/>
		<polygon class="st22" points="422.24,56.25 413.37,51.64 416.82,44.99 415.64,36.15 418.98,26.7 428.41,30.03 425.87,37.22     427.14,46.8   "/>
		<polygon class="st22" points="549.59,56.46 548.92,46.47 551.44,37.32 553.37,28.89 563.12,31.13 561.11,39.86 559.01,47.49     559.57,55.79   "/>
		<polygon class="st22" points="620.79,122.64 620.2,112.66 627.56,112.22 634.51,106.91 644.16,105.01 646.09,114.82     638.73,116.27 631.21,122.02   "/>
		<polygon class="st22" points="610.64,64.44 604.87,56.27 611.14,51.84 615.27,44.18 622.5,37.83 629.1,45.35 623.22,50.5     618.83,58.65   "/>
		<polygon class="st22" points="53.01,283.55 43.81,281.87 35.41,280.71 36.78,270.8 45.51,272.01 53.12,273.41 61.17,272.11     62.76,281.98   "/>
		<polygon class="st22" points="61.48,204.05 54.81,201.05 46.22,202.75 36.72,200.01 39.5,190.4 46.66,192.47 55.99,190.62     65.58,194.92   "/>
		<polygon class="st22" points="620.55,195.98 615.64,187.26 624.24,182.42 633.44,180.79 641.73,178.95 643.9,188.72     635.29,190.62 627.66,191.97   "/>
		<polygon class="st22" points="623.46,272.29 619.72,263.02 628.89,259.31 638.24,258.94 646.69,258.23 647.53,268.2     638.75,268.93 631.03,269.24   "/>
		<polygon class="st22" points="633.23,329.56 622.92,327.44 624.93,317.64 632.09,319.12 640.09,315.55 649.97,316.15     649.35,326.14 641.93,325.68   "/>
		<polygon class="st22" points="354.44,60.03 344.44,59.79 344.61,52.3 339.71,44.86 338.56,34.92 348.5,33.77 349.37,41.35     354.68,49.41   "/>
		<polygon class="st22" points="143.98,59.42 133.98,59.31 134.06,51.82 129.07,44.44 127.8,34.51 137.72,33.24 138.69,40.81     144.09,48.8   "/>
		<polygon class="st22" points="274.23,62.72 272.61,55.35 266.41,49.06 263.08,39.75 272.49,36.38 275.08,43.61 281.76,50.39     284,60.58   "/>
		<polygon class="st22" points="214.69,64.96 213.07,57.59 206.87,51.29 203.53,41.99 212.94,38.61 215.54,45.84 222.22,52.62     224.45,62.81   "/>
		<polygon class="st22" points="55.68,137.89 49.69,133.55 40.96,133.17 32.31,128.52 37.05,119.71 43.68,123.28 53.12,123.69     61.54,129.79   "/>
		<polygon class="st22" points="73.73,72.75 70.09,66.02 62.85,61.15 57.34,53.2 65.55,47.5 69.99,53.9 77.71,59.1 82.52,67.98       "/>
		<polygon class="st22" points="241.05,517.13 233.39,510.7 238.36,504.78 241.09,495.77 248.59,488.75 255.42,496.04     249.88,501.23 247.34,509.64   "/>
		<polygon class="st22" points="151.5,520.12 143.84,513.69 148.81,507.77 151.54,498.76 159.04,491.74 165.87,499.03     160.33,504.22 157.79,512.63   "/>
		<polygon class="st22" points="61.97,510.68 56.01,502.65 62.27,498.01 67.27,490.22 75.93,485.13 80.99,493.76 74.39,497.63     69.7,504.95   "/>
		<polygon class="st22" points="36.88,430.71 36.84,420.71 44.29,420.67 52.72,416.26 63.14,417.69 61.78,427.59 54.53,426.6     46.77,430.66   "/>
		<polygon class="st22" points="373.29,514.45 371.87,505.59 370.96,497.75 367.28,490.27 376.25,485.86 380.69,494.88     381.79,504.32 383.17,512.86   "/>
		<polygon class="st22" points="441.13,516.74 441.01,509.13 436.43,500.59 437.76,490 447.68,491.25 446.75,498.67 450.97,506.54     451.13,516.58   "/>
		<polygon class="st22" points="305.85,517.91 297.86,511.9 302.48,505.74 304.59,496.51 311.78,489.07 318.97,496.01     313.72,501.46 311.76,510.04   "/>
		<polygon class="st22" points="46.21,357.59 36.34,357.04 36.9,347.05 44.33,347.47 53.01,343.55 63.33,345.62 61.36,355.42     54.2,353.99   "/>
		<polygon class="st22" points="512.84,517.74 509.46,510.8 502.28,504.68 498.91,494.94 508.37,491.67 510.84,498.84     517.53,504.55 521.83,513.36   "/>
		<polygon class="st22" points="591.14,517.14 579.91,503.15 575.08,495.92 583.39,490.36 588.1,497.41 598.94,510.88   "/>
		<polygon class="st22" points="635.54,465.09 627.64,461.15 620.76,457.38 612.71,455.81 614.63,446 624.2,447.86 632.36,452.33     639.99,456.13   "/>
		<polygon class="st22" points="619.39,393.13 616.71,383.49 626.25,380.84 635.58,381.53 644.05,381.78 643.76,391.77     634.95,391.51 627.25,390.94   "/>
	</g>
</g>
<g id="MOON_BG">
</g>
<g id="MOON_COLOR">
</g>
<g id="MOON">
</g>
<g id="BRAIN_BG">
</g>
<g id="BRAIN_COLOR">
</g>
<g id="BRAIN">
</g>
<g id="FOOTBALL_BG">
</g>
<g id="FOOTBALL_COLOR">
</g>
<g id="FOOTBALL">
</g>
<g id="COOKING_BG">
</g>
<g id="COOKING_COLOR">
</g>
<g id="COOKING">
</g>
<g id="FLAMENCO_BG">
</g>
<g id="FLAMENCO_COLOR">
</g>
<g id="FLAMENCO">
</g>
<g id="WANDERGESELLE_BG">
</g>
<g id="WANDERGESELLE_COLOR">
</g>
<g id="WANDERGESELLE">
</g>
<g id="MARIONETTE_BG">
</g>
<g id="MARIONETTE_FARBE">
</g>
<g id="MARIONETTE">
</g>
<g id="WORKING_TOGETHER_BG">
</g>
<g id="WORKING_TOGETHER_COLOR">
</g>
<g id="WORKING">
</g>
<g id="_x32_0-2_BG">
</g>
<g id="_x32_0-2">
</g>
<g id="_x32_0-3_COLOR">
</g>
<g id="_x32_0-3">
</g>
<g id="_x32_0-4_BG">
</g>
<g id="_x32_0-4">
</g>
<g id="SALAM_2_BG">
</g>
<g id="SALAM_2">
</g>
<g id="COLOR_PALETTE">
</g>
<g id="TAGS">
</g>
</svg>