<svg viewBox="0 0 681.61 533.78" xmlns="http://www.w3.org/2000/svg"><g fill="#e679a6"><path d="m374.48 111.05c.92.87 2.51 1.17 3.16.6s.74-2.14.19-3.63a10.35 10.35 0 0 0 -6.15-5.84c.1 1.13.25 2.25.46 3.36.51 2.75 1.23 4.46 2.34 5.51z"/><path d="m66.95 246.64h39.75v-16.43z"/><path d="m563.95 246.51h39.48l-39.48-16.32z"/><path d="m46 464.25c1.12-.82 1.79-2.18 1.5-3a2.45 2.45 0 0 0 -2.18-1.31 5.88 5.88 0 0 0 -3.75 1.54 11 11 0 0 0 -2.76 3.47c2.58.77 5.19.74 7.19-.7z"/><path d="m590.16 0h-498.7s-91.46 0-91.46 91.18v351.42s0 91.18 91.46 91.18h498.7s91.45 0 91.45-91.18v-351.42s0-91.18-91.45-91.18zm55.75 92.33 8.21 8.76-17.88 16.75-8.2-8.76zm-43.06-29.12 10.61 5.61-10.05 19-10.6-5.61zm-53.13-17.31 11.94 1.17-2.23 22.78-11.94-1.17zm-46.31 0 6.24 21.67-11.54 3.31-6.23-21.66zm-158.41 64.1c4.24-7.63 10.71-12.87 17.75-14.39a19.29 19.29 0 0 1 3-.39c1.37-15.92 11.11-32 26.12-41.68s35.4-14 58.61-12.21l-.47 6c-21.88-1.72-40.86 2.18-54.88 11.25-13.51 8.75-22.28 23.12-23.42 37.25a16.83 16.83 0 0 1 11.75 10.17c1.44 3.92.71 7.92-1.85 10.18-3.36 3-8.46 1.93-11.27-.75s-3.63-6.23-4.1-8.75a40.59 40.59 0 0 1 -.63-5.4 12.07 12.07 0 0 0 -1.63.23c-5.35 1.15-10.37 5.31-13.77 11.43-7.39 13.3-4.36 31.75 6.89 42l-4 4.44c-13.48-12.29-16.96-33.5-8.1-49.38zm116.65-25.09-10.65 5.58-12.25-23.36 10.62-5.58zm-39.39 21.7-8.85 8.11-16.75-18.28 8.85-8.11zm-150.76-67a28.21 28.21 0 0 1 10.68 4.06c12.9 7.94 21.43 23.62 24.68 45.36a152.2 152.2 0 0 1 -1.86 55.38l-5.86-1.29a146.28 146.28 0 0 0 1.79-53.12c-2.08-13.9-7.56-32.32-21.89-41.14a25.7 25.7 0 0 0 -4.9-2.37c1 4.67.42 9.83-1.72 13.37a10 10 0 0 1 -16 2 12.05 12.05 0 0 1 -3.63-10c.75-5.67 5.58-10.55 11.71-12-6.76-9.61-20.71-17.18-38.33-15.12l-.7-6c16.81-1.89 37.53 4.83 46.03 20.9zm.83 56.55-15.63 19-9.27-7.62 15.63-19zm-47.95-40.1 10.71 5.4-10.6 21-10.71-5.4zm-52.19-14.67 11.94 1.25-2.56 24.56-11.94-1.2zm-40.4 1.61 5 23.44-11.71 2.56-5-23.44zm-46 16.8 11.7 18.33-10.11 6.46-11.72-18.34zm-43 17.65 19 22-9.09 7.84-19-22zm-29.31 32.8 22.88 10.58-5 10.9-22.93-10.59zm63.28 405.05a53.72 53.72 0 0 1 -41.87-29.3c-2.58-5.29-3.79-10.09-3.7-14.68a23 23 0 0 1 .33-3.34 21.77 21.77 0 0 1 -1.86-1.37c-10.28-8.46-13.29-22.14-14-32.13-.93-13.08 1.33-25 6.55-34.38l5.24 2.9c-4.65 8.39-6.66 19.13-5.81 31 .63 8.82 3.19 20.82 11.83 27.93l.07.05a17.09 17.09 0 0 1 4.21-5.25 11.79 11.79 0 0 1 7.76-2.89 8.37 8.37 0 0 1 7.65 5.35c1.16 3.38-.33 7.42-3.62 9.83-3.67 2.68-8.16 2.83-12.31 1.6v.77a26.15 26.15 0 0 0 3.09 11.93 47.61 47.61 0 0 0 37.1 25.94zm342-14.68c-3.68 0-5.42 1.8-8.18 5s-6.12 7-12.71 7-10-3.9-12.7-7-4.51-5-8.18-5-5.42 1.8-8.18 5-6.12 7-12.71 7-10-3.9-12.7-7-4.5-5-8.18-5-5.41 1.8-8.18 5-6.11 7-12.7 7-10-3.9-12.7-7-4.51-5-8.18-5-5.42 1.8-8.18 5-6.12 7-12.7 7-10-3.9-12.7-7-4.51-5-8.18-5v-6c6.59 0 10 3.9 12.7 7s4.5 5 8.18 5 5.41-1.8 8.17-5 6.12-7 12.71-7 10 3.9 12.7 7 4.5 5 8.18 5 5.42-1.8 8.18-5 6.11-7 12.7-7 10 3.9 12.71 7 4.5 5 8.17 5 5.42-1.8 8.18-5 6.12-7 12.71-7 10 3.9 12.7 7 4.51 5 8.18 5 5.42-1.8 8.18-5 6.12-7 12.71-7zm-107.21-99 8.36-8.61 13.07 12.7 13.26-15.71 9.16 7.75-13.83 16.37 17.93 17.38-8.36 8.61-17.34-16.85-13.3 15.74-9.16-7.75 13.84-16.37zm17.72-119.62v-22.7h12v22.7zm263.39 82.61v120.66h-136.28v-48.39h-37.38c-33.15 3.14-38.18-17.18-38.38-18.05l-.14-.6v-23.75a13.88 13.88 0 0 1 -8.28-5.56c-3.39-5-2.73-11.24-1.84-15.05a17.48 17.48 0 0 1 -3.79-11.09 19.14 19.14 0 0 1 4.43-11.35v-7.07h-27.7l34.82-68v-29.85h61.18v-17a6.77 6.77 0 0 0 -6.76-6.76h-65.08a32.7 32.7 0 0 1 -64.55 0h-65.05a6.76 6.76 0 0 0 -6.76 6.76v17.18h61.18v29.81l34.81 68h-27.69v7.07a19.14 19.14 0 0 1 4.42 11.35 17.52 17.52 0 0 1 -3.82 11.08c.89 3.82 1.55 10.1-1.84 15.05a13.85 13.85 0 0 1 -8.28 5.57v23.74l-.14.61c-.2.87-5.24 21.19-38.38 18.05h-37.36v48.38h-136.28v-120.71c-5.23-2.52-15-8.39-24.07-20.22-20.72-27-22.43-64.36-20.09-91.48a124.39 124.39 0 0 1 230.44-93.77l2.11 5.09-142.77 59h48.41v23.3h48.88v-17.15a17.26 17.26 0 0 1 17.24-17.24h65.05a32.7 32.7 0 0 1 64.55 0h65.06a17.26 17.26 0 0 1 17.24 17.24v17h48.6v-23.53h48l-142.1-58.74 2.1-5.1a124.4 124.4 0 0 1 230.44 93.77c2.34 27.13.63 64.53-20.09 91.49-9.08 11.82-18.83 17.65-24.06 20.21zm-242.88-106.19 8.93-8 13 14.51-8.93 8zm-28.95.4-12.06 15.63-9.5-7.33 12.06-15.63zm330.27 92.18c-3.58 2.21-5.63 3.64-6.23 7.26s.9 5.64 3.58 8.88 5.94 7.18 4.88 13.67-5.47 9.22-9 11.4-5.64 3.64-6.23 7.26.89 5.64 3.57 8.88 6 7.18 4.88 13.68-5.46 9.21-9 11.39-5.63 3.64-6.23 7.26.9 5.64 3.58 8.88 5.94 7.18 4.88 13.68-5.47 9.21-9 11.39-5.64 3.64-6.23 7.27.89 5.64 3.57 8.88 6 7.18 4.88 13.68l-5.92-1c.59-3.62-.89-5.63-3.58-8.87s-5.94-7.18-4.87-13.68 5.46-9.22 9-11.4 5.64-3.64 6.23-7.27-.89-5.63-3.57-8.87-5.95-7.18-4.88-13.68 5.47-9.21 9-11.39 5.63-3.64 6.23-7.27-.89-5.63-3.58-8.87-5.94-7.18-4.87-13.68 5.46-9.21 9-11.4 5.64-3.63 6.23-7.26-.89-5.63-3.57-8.87-6-7.18-4.88-13.68 5.47-9.21 9-11.39 5.63-3.64 6.23-7.26l5.92 1c-1.12 6.47-5.49 9.18-9.02 11.38zm-2.73-195.27-1.17-11.94 22.88-2.24 1.17 11.95z"/><path d="m258.78 52.66a6 6 0 0 0 1.87 4.88 4 4 0 0 0 6.63-.83c1.53-2.52 1.79-6.84.64-10.26-.11-.33-.23-.65-.35-1-.31 0-.61.06-.92.11-4.04.66-7.43 3.7-7.87 7.1z"/></g><path d="m264.54 39.89c-6.13 1.43-11 6.31-11.71 12a12.05 12.05 0 0 0 3.63 10 10 10 0 0 0 16-2c2.14-3.54 2.76-8.7 1.72-13.37a25.7 25.7 0 0 1 4.9 2.37c14.33 8.82 19.81 27.24 21.89 41.14a146.28 146.28 0 0 1 -1.79 53.17l5.86 1.29a152.2 152.2 0 0 0 1.86-55.35c-3.25-21.74-11.78-37.42-24.68-45.36a28.21 28.21 0 0 0 -10.68-4.06c-8.52-16.07-29.22-22.79-46-20.83l.7 6c17.59-2.18 31.54 5.39 38.3 15zm2.11 5.7c.31-.05.61-.09.92-.11.12.32.24.64.35 1 1.15 3.42.89 7.74-.64 10.26a4 4 0 0 1 -6.63.83 6 6 0 0 1 -1.87-4.88c.44-3.43 3.83-6.47 7.87-7.1z" fill="#dc0816"/><path d="m40.28 483.39a26.15 26.15 0 0 1 -3.09-11.93c0-.26 0-.52 0-.77 4.15 1.23 8.64 1.08 12.31-1.6 3.29-2.41 4.78-6.45 3.62-9.83a8.37 8.37 0 0 0 -7.65-5.35 11.79 11.79 0 0 0 -7.76 2.89 17.09 17.09 0 0 0 -4.21 5.25l-.07-.05c-8.64-7.11-11.2-19.11-11.83-27.93-.85-11.91 1.16-22.65 5.81-31l-5.25-2.91c-5.22 9.41-7.48 21.3-6.55 34.38.72 10 3.73 23.67 14 32.13a21.77 21.77 0 0 0 1.91 1.33 23 23 0 0 0 -.33 3.34c-.09 4.59 1.12 9.39 3.7 14.68a53.72 53.72 0 0 0 41.87 29.28l.62-6a47.61 47.61 0 0 1 -37.1-25.91zm1.28-21.95a5.88 5.88 0 0 1 3.75-1.54 2.45 2.45 0 0 1 2.18 1.31c.29.86-.38 2.22-1.5 3-2 1.44-4.6 1.47-7.19.66a11 11 0 0 1 2.76-3.43z" fill="#dc0816"/><path d="m449.76 229.46a17.26 17.26 0 0 0 -17.24-17.24h-65.06a32.14 32.14 0 0 1 0 10.48h65.06a6.77 6.77 0 0 1 6.76 6.76v17h10.48z"/><path d="m302.91 212.22h-65.05a17.26 17.26 0 0 0 -17.24 17.24v17.18h10.48v-17.18a6.76 6.76 0 0 1 6.76-6.76h65.05a32.9 32.9 0 0 1 0-10.48z"/><path d="m538.24 347-23.24 14.48v-53.32a64.72 64.72 0 0 0 -21.73 12.64c-17.92 15.85-25.83 40.34-23.5 72.77l-10.45.75c-1.78-24.85 1.53-59.21 27.46-81.77a74.54 74.54 0 0 1 28.22-15.37v-39.5h-16.64v-.13h-109.23v21.45l-27.81 54.35h20.68v22.65l-1.81 1.65a8.83 8.83 0 0 0 -2.62 5.46c0 1.78.93 3.63 2.82 5.52l2.54 2.55-1.3 3.35c-.88 2.33-1.5 6.49-.34 8.17.84 1.21 3.3 1.4 4.69 1.4h5.51v32.63c.9 2.23 5.83 11.19 26.68 9.14h.54 48.69v48.39h114.22v-117.37l3.84-1.23c.09 0 12.12-4.17 23-18.66 13.91-18.52 20-45.92 17.66-79.45h-62.12v103.21zm11.87 120.46-18.63-12.16-15.9 12.12-15.39-12-13.95 9.7-6-8.6 20.28-14.11 15.12 11.8 15.36-11.71 17.87 11.66 13.73-13.16 7.25 7.57z" fill="#db0816"/><path d="m636.82 252.86-.51 1.28-2.11 5.09-30.77-12.72h-39.43v11h62.17c2.32 33.53-3.75 60.93-17.66 79.45-10.88 14.49-22.91 18.63-23 18.66l-3.84 1.23v117.39h-114.26v-48.39h-48.69-.54c-20.85 2.05-25.78-6.91-26.68-9.14v-32.61h-5.5c-1.39 0-3.85-.19-4.69-1.4-1.16-1.68-.54-5.84.34-8.17l1.3-3.35-2.54-2.55c-1.89-1.89-2.84-3.74-2.82-5.52a8.83 8.83 0 0 1 2.62-5.46l1.79-1.65v-22.67h-20.68l27.81-54.33v-21.45h109.23v-11h-120.26v29.81l-34.82 68h27.72v7.07a19.14 19.14 0 0 0 -4.42 11.35 17.48 17.48 0 0 0 3.79 11.09c-.89 3.81-1.55 10.09 1.84 15.05a13.88 13.88 0 0 0 8.28 5.56v23.75l.14.6c.2.87 5.23 21.19 38.38 18.05h37.39v48.39h136.26v-120.71c5.23-2.52 15-8.39 24.07-20.21 20.72-26.96 22.43-64.35 20.09-91.49z"/><path d="m515.25 242.68h10.47v3.97h.28v94.99l11.83-7.36 15.09 8.07v-108.39h-43.53v12.69h5.86z" fill="#025bc7"/><path d="m498.36 257.55v.13h16.64v39.5a41.71 41.71 0 0 1 4.55-1.06l.81 5.17.83 5.18a44.91 44.91 0 0 0 -6.17 1.69v53.32l23.22-14.48 25.76 13.76v-130.56l-17.57-7.27h-48v34.62zm16.89 3.63v-14.53h-5.85v-12.65h43.52v108.35l-15.09-8.07-11.83 7.36v-95h-.28v14.53z"/><path d="m525.72 246.65v-3.97h-10.47v3.97 14.53h10.47z"/><path d="m418.81 158.26 209.29 86.52a113.37 113.37 0 0 0 -209.29-86.52zm98.91-48.92a104.31 104.31 0 0 1 30.75 1.66 95.08 95.08 0 0 1 29.07 11.23 88.12 88.12 0 0 1 12.85 9.21c1 .9 2 1.76 2.94 2.68l2.83 2.8c1.8 1.95 3.6 3.9 5.24 6a118.48 118.48 0 0 1 7.73 13.71c2.23 4.7 4.18 9.49 6 14.31 3.54 9.64 6.29 19.44 9 29.22-4.08-9.3-8.17-18.62-12.93-27.49-2.37-4.43-4.89-8.76-7.62-12.9a111.07 111.07 0 0 0 -8.93-11.7c-10.94-16-28.09-27.53-47.19-32.91a100.83 100.83 0 0 0 -29.61-3.67 117.16 117.16 0 0 0 -29.85 4.61 118.86 118.86 0 0 1 29.72-6.76z" fill="#db0816"/><path d="m603.43 246.51 30.77 12.72 2.11-5.09.51-1.28a124.4 124.4 0 0 0 -230.44-93.77l-2.1 5.1 142.1 58.74 17.62 7.27zm-38.78-144.66a113.38 113.38 0 0 1 63.45 142.93l-209.29-86.52a113.5 113.5 0 0 1 145.84-56.41z"/><path d="m155.13 296.44a73.46 73.46 0 0 1 31.12 16.11c14.31 12.46 30.69 36.75 27.46 81.77l-10.45-.75c2.34-32.68-5.69-57.28-23.89-73.11a63.86 63.86 0 0 0 -24.24-13.22v53.87l-23-14.29-25.43 13.61v-102.76h-62.44c-2.32 33.54 3.75 60.94 17.66 79.46 10.88 14.49 22.91 18.62 23 18.66l3.77 1.26v4 113.31h114.31v-48.36h49.23c20.85 2.06 25.78-6.91 26.68-9.14v-32.64h5.51c1.4 0 3.86-.18 4.7-1.41 1.25-1.83.38-6.28-.35-8.15l-1.3-3.35 2.54-2.55c1.89-1.89 2.84-3.75 2.81-5.52a8.88 8.88 0 0 0 -2.65-5.51l-1.82-1.64.05-2.41v-20.22h20.69l-27.81-54.35v-21.44h-126.15zm14.76 171-18.64-12.16-15.9 12.12-15.39-12-13.96 9.71-6-8.6 20.29-14.11 15.11 11.8 15.36-11.7 17.86 11.66 13.76-13.16 7.24 7.57z" fill="#025bc7"/><path d="m171.74 246.64v10.89h-16.61v.14h126.12v21.44l27.81 54.35h-20.69v20.22l-.05 2.41 1.82 1.64a8.88 8.88 0 0 1 2.65 5.51c0 1.77-.92 3.63-2.81 5.52l-2.54 2.55 1.3 3.35c.73 1.87 1.6 6.32.35 8.15-.84 1.23-3.3 1.41-4.7 1.41h-5.51v32.64c-.9 2.23-5.83 11.2-26.68 9.14h-49.2v48.39h-114.25v-113.39-4l-3.75-1.21c-.12 0-12.15-4.17-23-18.66-13.91-18.52-20-45.92-17.66-79.46h62.36v-11h-39.7l-30.82 12.69-2.11-5.09-.51-1.27c-2.34 27.12-.63 64.53 20.09 91.48 9.09 11.83 18.84 17.7 24.07 20.22v120.7h136.28v-48.4h37.39c33.14 3.14 38.18-17.18 38.38-18.05l.14-.61v-23.73a13.85 13.85 0 0 0 8.28-5.57c3.39-5 2.73-11.23 1.84-15.05a17.52 17.52 0 0 0 3.79-11.08 19.14 19.14 0 0 0 -4.42-11.35v-7.07h27.69l-34.81-68v-29.85z"/><path d="m144.66 247.06v-4.25h10.47v4.25h6.13v-13.25h-44.08v109.13l15.36-8.21 12.12 7.53v-80.95z" fill="#db0816"/><path d="m106.7 246.64v113.79l25.44-13.61 23 14.29v-53.87c-2-.56-3.23-.76-3.27-.77l1.62-10.35c.12 0 .7.11 1.65.32v-35.13h-10.48v80.95l-12.12-7.53-15.36 8.21v-109.13h44.08v13.25h-6.13v10.47h16.61v-34.19h-48.41l-16.63 6.87z"/><path d="m155.13 247.06v-4.25h-10.47v4.25 14.25h10.47v-3.64-.13z"/><path d="m251.57 158.39a113.37 113.37 0 0 0 -209.29 86.51zm-194.57 24.94.34-1.88.48-1.85 1-3.71 1.18-3.63.62-1.82.74-1.78 1.49-3.54 1.72-3.45c.29-.57.57-1.16.87-1.72l1-1.67c.65-1.1 1.29-2.23 2-3.33l2.16-3.2c.37-.53.71-1.08 1.1-1.6l1.17-1.53c.8-1 1.57-2.06 2.38-3.07l2.55-2.92c.43-.49.84-1 1.29-1.46l1.36-1.39c.91-.92 1.81-1.85 2.73-2.76l2.82-2.62c.48-.43 1-.87 1.45-1.29l1.55-1.23 3-2.43 3.19-2.27 1.6-1.13 1.66-1 3.32-2.07 3.45-1.89 1.73-.93 1.77-.84 3.57-1.68 3.65-1.47 1.83-.73 1.86-.64 3.73-1.27 3.79-1.07 1.9-.53 1.92-.44 3.85-.87 3.89-.69 1.94-.34 2-.25 4-.09 3.94.08h2l2 .13 3.91.28c2.6.31 5.19.5 7.76 1l3.84.6 3.81.76 1.9.39 1.88.45 3.76.92 3.71 1.06 1.85.54 1.83.6 3.65 1.2 3.6 1.35 1.79.67 1.77.74 3.52 1.48-3.69-1-1.84-.49-1.86-.41-3.72-.83-3.73-.68-1.87-.34-1.87-.26-3.75-.53-3.76-.37-1.87-.19-1.88-.11-3.75-.22-3.75-.07c-2.5-.09-5 .09-7.47.12l-3.72.27-1.85.13-1.84.21-3.68.44-3.64.6-1.84.1-1.83.19-3.66.38-3.64.57-1.82.28-1.8.37-3.61.76-3.57.94-1.78.47-1.76.57-3.52 1.13-3.43 1.34-1.73.67-1.68.77-3.36 1.54-3.28 1.74-1.64.87-1.58 1-3.18 1.93-3.06 2.12-1.53 1.06c-.5.37-1 .77-1.47 1.15l-3.06 2.28c-1 .81-1.87 1.65-2.81 2.47l-1.4 1.24c-.46.42-.89.88-1.33 1.31l-2.66 2.65c-.85.92-1.66 1.87-2.5 2.8l-1.24 1.4c-.41.48-.78 1-1.17 1.48l-2.31 3c-.73 1-1.42 2.07-2.13 3.1l-1.07 1.55c-.34.53-.64 1.08-1 1.62l-1.92 3.25-1.7 3.38-.85 1.69-.71 1.7-1.46 3.5-1.2 3.6-.6 1.81-.47 1.84-.93 3.7z" fill="#025bc7"/><path d="m36.18 259.36 30.82-12.72 39.75-16.43 16.63-6.87 142.77-59-2.15-5.12a124.39 124.39 0 0 0 -230.44 93.78l.51 1.28zm8.15-96.08a113.36 113.36 0 0 1 207.24-4.89l-209.29 86.51a112.53 112.53 0 0 1 2.05-81.62z"/><path d="m16.39 108.37h12v25.21h-12z" transform="matrix(.41961051 -.90770426 .90770426 .41961051 -96.82 90.54)"/><path d="m41.76 77.82h12v29.13h-12z" transform="matrix(.75710909 -.65328847 .65328847 .75710909 -48.76 53.65)"/><path d="m80.58 61.31h12v21.76h-12z" transform="matrix(.84264041 -.53847668 .53847668 .84264041 -25.25 57.98)"/><path d="m122.44 43.98h12v23.97h-12z" transform="matrix(.97778324 -.20961856 .20961856 .97778324 -8.88 28.15)"/><path d="m164.53 48.29h24.69v12h-24.69z" transform="matrix(.10366054 -.99461273 .99461273 .10366054 104.54 224.59)"/><path d="m212.67 63.27h23.53v12h-23.53z" transform="matrix(.45056594 -.89274315 .89274315 .45056594 61.48 238.43)"/><path d="m247.57 95.89h24.61v12h-24.61z" transform="matrix(.63513503 -.77240112 .77240112 .63513503 16.13 237.92)"/><path d="m403.46 89.13h12v24.79h-12z" transform="matrix(.73739524 -.67546152 .67546152 .73739524 38.94 303.21)"/><path d="m444.2 62.83h12v26.39h-12z" transform="matrix(.88515011 -.46530557 .46530557 .88515011 16.33 218.2)"/><path d="m494.76 47.16h12v22.55h-12z" transform="matrix(.96102079 -.27647611 .27647611 .96102079 3.37 140.76)"/><path d="m543.13 51.87h22.89v12h-22.89z" transform="matrix(.0975829 -.9952274 .9952274 .0975829 442.91 604.16)"/><path d="m592.4 69.5h21.47v12h-21.47z" transform="matrix(.46792981 -.88376563 .88376563 .46792981 254.18 573.2)"/><path d="m628.83 99.09h24.5v12h-24.5z" transform="matrix(.72980442 -.68365599 .68365599 .72980442 101.35 466.64)"/><path d="m647.73 142.62h22.99v12h-22.99z" transform="matrix(.99527836 -.09706179 .09706179 .99527836 -11.31 64.7)"/><path d="m168.65 454.16-17.86-11.66-15.36 11.7-15.12-11.8-20.28 14.11 5.98 8.61 13.95-9.71 15.39 12.02 15.9-12.12 18.64 12.16 19.73-18.87-7.24-7.57z"/><path d="m548.88 454.16-17.87-11.66-15.35 11.7-15.12-11.8-20.28 14.11 5.98 8.61 13.95-9.71 15.39 12.02 15.9-12.12 18.63 12.16 19.74-18.87-7.25-7.57z"/><circle cx="335.19" cy="217.46" fill="#e7e5c2" r="22.22"/><path d="m367.46 212.22a32.7 32.7 0 0 0 -64.55 0 32.9 32.9 0 0 0 0 10.48 32.7 32.7 0 0 0 64.55 0 32.14 32.14 0 0 0 0-10.48zm-32.27 27.46a22.22 22.22 0 1 1 22.22-22.22 22.25 22.25 0 0 1 -22.22 22.22z"/><path d="m57.75 181.55.6-1.81 1.2-3.6 1.46-3.5.74-1.74.85-1.69 1.7-3.38 1.92-3.25c.32-.54.62-1.09 1-1.62l1.07-1.56c.71-1 1.4-2.08 2.13-3.1l2.31-3c.39-.49.76-1 1.17-1.48l1.24-1.4c.84-.93 1.65-1.88 2.5-2.8l2.62-2.62c.44-.43.87-.89 1.33-1.31l1.4-1.24c.94-.82 1.86-1.66 2.81-2.47l2.94-2.3c.49-.38 1-.78 1.47-1.15l1.53-1.06 3.06-2.12 3.2-1.92 1.58-1 1.64-.87 3.28-1.74 3.36-1.54 1.68-.77 1.73-.67 3.43-1.34 3.52-1.13 1.76-.57 1.78-.47 3.57-.94 3.61-.76 1.8-.37 1.82-.28 3.64-.57 3.66-.38 1.83-.19 1.84-.1 3.64-.6 3.68-.44 1.84-.21 1.85-.13 3.72-.27c2.48 0 5-.21 7.47-.12l3.75.07 3.75.22 1.88.11 1.87.19 3.76.37 3.75.53 1.87.26 1.87.34 3.73.68 3.72.83 1.86.41 1.84.49 3.69 1-3.54-1.47-1.77-.74-1.79-.67-3.6-1.35-3.65-1.2-1.83-.6-1.85-.54-3.71-1.06-3.76-.92-1.88-.45-1.9-.39-3.81-.76-3.84-.6c-2.57-.46-5.16-.65-7.76-1l-3.91-.28-2-.13c-.65 0-1.3 0-2 0l-3.94-.08-4 .09-2 .25-1.94.34-3.89.69-3.85.87-1.92.44-1.9.53-3.79 1.07-3.73 1.27-1.86.64-1.83.73-3.65 1.47-3.57 1.68-1.77.84-1.73.93-3.45 1.89-3.15 2.04-1.66 1-1.6 1.13-3.19 2.27-3 2.43-1.52 1.23c-.49.42-1 .86-1.45 1.29l-2.94 2.65c-.92.91-1.82 1.84-2.73 2.76l-1.36 1.39c-.45.47-.86 1-1.29 1.46l-2.55 2.92c-.81 1-1.58 2-2.38 3.07l-1.17 1.53c-.39.52-.73 1.07-1.1 1.6l-2.16 3.27c-.67 1.1-1.31 2.23-2 3.33l-1 1.67c-.3.56-.58 1.15-.87 1.72l-1.72 3.45-1.49 3.54-.74 1.78-.58 1.77-1.22 3.63-1 3.71-.48 1.85-.3 1.88-.67 3.76.93-3.7z"/><path d="m547.45 115.14c19.1 5.38 36.25 16.91 47.19 32.91a111.07 111.07 0 0 1 8.93 11.7c2.73 4.14 5.25 8.47 7.62 12.9 4.76 8.87 8.85 18.19 12.93 27.49-2.75-9.78-5.5-19.58-9-29.22-1.77-4.82-3.72-9.61-6-14.31a118.48 118.48 0 0 0 -7.73-13.71c-1.64-2.07-3.44-4-5.24-6l-2.83-2.8c-1-.92-2-1.78-2.94-2.68a88.12 88.12 0 0 0 -12.85-9.21 95.08 95.08 0 0 0 -29.06-11.21 104.31 104.31 0 0 0 -30.75-1.67 118.86 118.86 0 0 0 -29.72 6.77 117.16 117.16 0 0 1 29.85-4.63 100.83 100.83 0 0 1 29.6 3.67z"/><path d="m300.18 256.97h19.74v12h-19.74z" transform="matrix(.61097451 -.79165027 .79165027 .61097451 -87.56 347.75)"/><path d="m329.27 259.25h12v22.7h-12z"/><path d="m354.76 251.92h12v19.5h-12z" transform="matrix(.74419498 -.66796245 .66796245 .74419498 -82.5 307.9)"/><path d="m459.29 394.32 10.45-.75c-2.33-32.43 5.58-56.92 23.5-72.77a64.72 64.72 0 0 1 21.76-12.64 44.91 44.91 0 0 1 6.17-1.69l-.83-5.18-.81-5.17a41.71 41.71 0 0 0 -4.55 1.06 74.54 74.54 0 0 0 -28.22 15.37c-25.94 22.56-29.25 56.92-27.47 81.77z"/><path d="m203.26 393.57 10.45.75c3.23-45-13.15-69.31-27.46-81.77a73.46 73.46 0 0 0 -31.12-16.11c-.95-.21-1.53-.3-1.65-.32l-1.62 10.35s1.25.21 3.27.77a63.86 63.86 0 0 1 24.24 13.22c18.2 15.83 26.23 40.43 23.89 73.11z"/><path d="m648 345.88c-3.53 2.18-7.93 4.89-9 11.39s2.23 10.48 4.88 13.68 4.17 5.24 3.57 8.87-2.65 5.05-6.23 7.26-7.92 4.9-9 11.4 2.22 10.48 4.87 13.68 4.18 5.25 3.58 8.87-2.65 5.06-6.23 7.27-7.93 4.89-9 11.39 2.23 10.48 4.88 13.68 4.17 5.25 3.57 8.87-2.65 5.06-6.23 7.27-7.93 4.9-9 11.4 2.22 10.48 4.87 13.68 4.17 5.25 3.58 8.87l5.92 1c1.07-6.5-2.23-10.48-4.88-13.68s-4.17-5.25-3.57-8.88 2.65-5.05 6.23-7.27 7.93-4.89 9-11.39-2.23-10.48-4.88-13.68-4.17-5.25-3.58-8.88 2.65-5.05 6.23-7.26 7.93-4.89 9-11.39-2.23-10.48-4.88-13.68-4.17-5.25-3.57-8.88 2.65-5.05 6.23-7.26 7.93-4.9 9-11.4-2.23-10.47-4.88-13.67-4.17-5.25-3.58-8.88 2.65-5.05 6.23-7.26 7.93-4.89 9-11.39l-5.92-1c-.63 3.63-2.68 5.06-6.21 7.27z" fill="#dc0816"/><path d="m406 501.65c-2.76 3.17-4.5 5-8.18 5s-5.41-1.8-8.18-5-6.12-7-12.7-7-10 3.9-12.71 7-4.5 5-8.18 5-5.41-1.8-8.17-5-6.12-7-12.71-7-10 3.9-12.7 7-4.51 5-8.18 5-5.42-1.8-8.18-5-6.12-7-12.7-7-10 3.9-12.71 7-4.5 5-8.17 5-5.42-1.8-8.18-5-6.11-7-12.7-7v6c3.67 0 5.41 1.8 8.18 5s6.11 7 12.7 7 10-3.9 12.7-7 4.5-5 8.18-5 5.41 1.8 8.18 5 6.11 7 12.7 7 10-3.9 12.7-7 4.51-5 8.18-5 5.42 1.8 8.18 5 6.12 7 12.7 7 10-3.9 12.71-7 4.5-5 8.18-5 5.42 1.8 8.18 5 6.12 7 12.7 7 10-3.9 12.71-7 4.5-5 8.18-5v-6c-6.58-.03-9.97 3.87-12.71 7z" fill="#dc0816"/><path d="m353.07 159.33 4-4.44c-11.25-10.24-14.28-28.69-6.89-42 3.4-6.12 8.42-10.28 13.77-11.43a12.07 12.07 0 0 1 1.63-.23 40.59 40.59 0 0 0 .63 5.4c.47 2.52 1.41 6.18 4.1 8.75s7.91 3.73 11.27.75c2.56-2.26 3.29-6.26 1.85-10.18a16.83 16.83 0 0 0 -11.79-10.15c1.14-14.13 9.91-28.5 23.42-37.25 14-9.07 33-13 54.88-11.25l.47-6c-23.21-1.8-43.47 2.42-58.61 12.21s-24.75 25.76-26.12 41.68a19.29 19.29 0 0 0 -3 .39c-7 1.52-13.51 6.76-17.75 14.39-8.79 15.91-5.31 37.12 8.14 49.36zm24.76-51.33c.55 1.49.46 3-.19 3.63s-2.24.27-3.16-.6c-1.11-1.06-1.83-2.76-2.34-5.51-.21-1.11-.36-2.23-.46-3.36a10.35 10.35 0 0 1 6.15 5.84z" fill="#dc0816"/><path d="m320.5 439 13.3-15.74-8.62-8.38-13.84 16.37z"/><path d="m355.4 397.7-9.16-7.75-13.3 15.74 8.63 8.38z"/><path d="m351.14 440.11 8.36-8.61-17.93-17.43-8.63-8.38-13.07-12.7-8.36 8.61 13.67 13.28 8.62 8.38z"/></svg>