<svg xmlns="http://www.w3.org/2000/svg" viewBox="0 0 681.61 533.78"><defs><style>.cls-1{fill:#e679a6;}.cls-2{fill:#dc0816;}.cls-3{fill:#db0816;}.cls-4{fill:#025bc7;}.cls-5{fill:#e7e5c2;}</style></defs><g id="TAGS"><path class="cls-1" d="M374.48,111.05c.92.87,2.51,1.17,3.16.6s.74-2.14.19-3.63a10.35,10.35,0,0,0-6.15-5.84c.1,1.13.25,2.25.46,3.36C372.65,108.29,373.37,110,374.48,111.05Z"/><polygon class="cls-1" points="66.95 246.64 106.7 246.64 106.7 230.21 66.95 246.64"/><polygon class="cls-1" points="563.95 246.51 603.43 246.51 563.95 230.19 563.95 246.51"/><path class="cls-1" d="M46,464.25c1.12-.82,1.79-2.18,1.5-3a2.45,2.45,0,0,0-2.18-1.31,5.88,5.88,0,0,0-3.75,1.54,11,11,0,0,0-2.76,3.47C41.39,465.72,44,465.69,46,464.25Z"/><path class="cls-1" d="M590.16,0H91.46S0,0,0,91.18V442.6s0,91.18,91.46,91.18h498.7s91.45,0,91.45-91.18V91.18S681.61,0,590.16,0Zm55.75,92.33,8.21,8.76-17.88,16.75-8.2-8.76ZM602.85,63.21l10.61,5.61-10.05,19-10.6-5.61ZM549.72,45.9l11.94,1.17-2.23,22.78-11.94-1.17Zm-46.31,0,6.24,21.67-11.54,3.31-6.23-21.66ZM345,110c4.24-7.63,10.71-12.87,17.75-14.39a19.29,19.29,0,0,1,3-.39c1.37-15.92,11.11-32,26.12-41.68s35.4-14,58.61-12.21l-.47,6c-21.88-1.72-40.86,2.18-54.88,11.25-13.51,8.75-22.28,23.12-23.42,37.25A16.83,16.83,0,0,1,383.46,106c1.44,3.92.71,7.92-1.85,10.18-3.36,3-8.46,1.93-11.27-.75s-3.63-6.23-4.1-8.75a40.59,40.59,0,0,1-.63-5.4,12.07,12.07,0,0,0-1.63.23c-5.35,1.15-10.37,5.31-13.77,11.43-7.39,13.3-4.36,31.75,6.89,42l-4,4.44C339.62,147.09,336.14,125.88,345,110ZM461.65,84.91,451,90.49,438.75,67.13l10.62-5.58Zm-39.39,21.7-8.85,8.11L396.66,96.44l8.85-8.11Zm-150.76-67a28.21,28.21,0,0,1,10.68,4.06c12.9,7.94,21.43,23.62,24.68,45.36A152.2,152.2,0,0,1,305,144.41l-5.86-1.29A146.28,146.28,0,0,0,300.93,90c-2.08-13.9-7.56-32.32-21.89-41.14a25.7,25.7,0,0,0-4.9-2.37c1,4.67.42,9.83-1.72,13.37a10,10,0,0,1-16,2,12.05,12.05,0,0,1-3.63-10c.75-5.67,5.58-10.55,11.71-12-6.76-9.61-20.71-17.18-38.33-15.12l-.7-6C242.28,16.85,263,23.57,271.5,39.64Zm.83,56.55-15.63,19-9.27-7.62,15.63-19ZM224.38,56.06l10.71,5.4-10.6,21-10.71-5.4ZM172.19,41.39l11.94,1.25L181.57,67.2,169.63,66ZM131.79,43l5,23.44L125.08,69l-5-23.44Zm-46,16.8L97.49,78.13,87.38,84.59,75.66,66.25Zm-43,17.65,19,22-9.09,7.84-19-22Zm-29.31,32.8,22.88,10.58-5,10.9L8.43,121.14ZM76.76,515.3A53.72,53.72,0,0,1,34.89,486c-2.58-5.29-3.79-10.09-3.7-14.68a23,23,0,0,1,.33-3.34,21.77,21.77,0,0,1-1.86-1.37c-10.28-8.46-13.29-22.14-14-32.13-.93-13.08,1.33-25,6.55-34.38L27.45,403c-4.65,8.39-6.66,19.13-5.81,31,.63,8.82,3.19,20.82,11.83,27.93l.07.05a17.09,17.09,0,0,1,4.21-5.25,11.79,11.79,0,0,1,7.76-2.89,8.37,8.37,0,0,1,7.65,5.35c1.16,3.38-.33,7.42-3.62,9.83-3.67,2.68-8.16,2.83-12.31,1.6,0,.25,0,.51,0,.77a26.15,26.15,0,0,0,3.09,11.93,47.61,47.61,0,0,0,37.1,25.94Zm342-14.68c-3.68,0-5.42,1.8-8.18,5s-6.12,7-12.71,7-10-3.9-12.7-7-4.51-5-8.18-5-5.42,1.8-8.18,5-6.12,7-12.71,7-10-3.9-12.7-7-4.5-5-8.18-5-5.41,1.8-8.18,5-6.11,7-12.7,7-10-3.9-12.7-7-4.51-5-8.18-5-5.42,1.8-8.18,5-6.12,7-12.7,7-10-3.9-12.7-7-4.51-5-8.18-5v-6c6.59,0,10,3.9,12.7,7s4.5,5,8.18,5,5.41-1.8,8.17-5,6.12-7,12.71-7,10,3.9,12.7,7,4.5,5,8.18,5,5.42-1.8,8.18-5,6.11-7,12.7-7,10,3.9,12.71,7,4.5,5,8.17,5,5.42-1.8,8.18-5,6.12-7,12.71-7,10,3.9,12.7,7,4.51,5,8.18,5,5.42-1.8,8.18-5,6.12-7,12.71-7Zm-107.21-99,8.36-8.61,13.07,12.7L346.24,390l9.16,7.75-13.83,16.37L359.5,431.5l-8.36,8.61L333.8,423.26,320.5,439l-9.16-7.75,13.84-16.37ZM329.27,282v-22.7h12V282Zm263.39,82.61V485.27H456.38V436.88H419c-33.15,3.14-38.18-17.18-38.38-18.05l-.14-.6V394.48a13.88,13.88,0,0,1-8.28-5.56c-3.39-5-2.73-11.24-1.84-15.05a17.48,17.48,0,0,1-3.79-11.09A19.14,19.14,0,0,1,371,351.43v-7.07h-27.7l34.82-68V246.51h61.18v-17a6.77,6.77,0,0,0-6.76-6.76H367.46a32.7,32.7,0,0,1-64.55,0H237.86a6.76,6.76,0,0,0-6.76,6.76v17.18h61.18v29.81l34.81,68H299.4v7.07a19.14,19.14,0,0,1,4.42,11.35A17.52,17.52,0,0,1,300,374c.89,3.82,1.55,10.1-1.84,15.05a13.85,13.85,0,0,1-8.28,5.57v23.74l-.14.61c-.2.87-5.24,21.19-38.38,18.05H214V485.4H77.72V364.69c-5.23-2.52-15-8.39-24.07-20.22-20.72-27-22.43-64.36-20.09-91.48A124.39,124.39,0,0,1,264,159.22l2.11,5.09-142.77,59h48.41v23.3h48.88V229.46a17.26,17.26,0,0,1,17.24-17.24h65.05a32.7,32.7,0,0,1,64.55,0h65.06a17.26,17.26,0,0,1,17.24,17.24v17h48.6V222.93h48l-142.1-58.74,2.1-5.1a124.4,124.4,0,0,1,230.44,93.77c2.34,27.13.63,64.53-20.09,91.49C607.64,356.17,597.89,362,592.66,364.56ZM349.78,258.42l8.93-8,13,14.51-8.93,8Zm-28.95.4-12.06,15.63-9.5-7.33,12.06-15.63ZM651.1,351c-3.58,2.21-5.63,3.64-6.23,7.26s.9,5.64,3.58,8.88,5.94,7.18,4.88,13.67-5.47,9.22-9,11.4-5.64,3.64-6.23,7.26.89,5.64,3.57,8.88,6,7.18,4.88,13.68-5.46,9.21-9,11.39-5.63,3.64-6.23,7.26.9,5.64,3.58,8.88,5.94,7.18,4.88,13.68-5.47,9.21-9,11.39-5.64,3.64-6.23,7.27.89,5.64,3.57,8.88,6,7.18,4.88,13.68l-5.92-1c.59-3.62-.89-5.63-3.58-8.87s-5.94-7.18-4.87-13.68,5.46-9.22,9-11.4,5.64-3.64,6.23-7.27-.89-5.63-3.57-8.87-5.95-7.18-4.88-13.68,5.47-9.21,9-11.39,5.63-3.64,6.23-7.27-.89-5.63-3.58-8.87-5.94-7.18-4.87-13.68,5.46-9.21,9-11.4,5.64-3.63,6.23-7.26-.89-5.63-3.57-8.87-6-7.18-4.88-13.68,5.47-9.21,9-11.39,5.63-3.64,6.23-7.26l5.92,1C659,346.09,654.63,348.8,651.1,351Zm-2.73-195.27-1.17-11.94,22.88-2.24,1.17,11.95Z"/><path class="cls-1" d="M258.78,52.66a6,6,0,0,0,1.87,4.88,4,4,0,0,0,6.63-.83c1.53-2.52,1.79-6.84.64-10.26-.11-.33-.23-.65-.35-1-.31,0-.61.06-.92.11C262.61,46.22,259.22,49.26,258.78,52.66Z"/><path class="cls-2" d="M264.54,39.89c-6.13,1.43-11,6.31-11.71,12a12.05,12.05,0,0,0,3.63,10,10,10,0,0,0,16-2c2.14-3.54,2.76-8.7,1.72-13.37a25.7,25.7,0,0,1,4.9,2.37c14.33,8.82,19.81,27.24,21.89,41.14a146.28,146.28,0,0,1-1.79,53.17l5.86,1.29a152.2,152.2,0,0,0,1.86-55.35c-3.25-21.74-11.78-37.42-24.68-45.36a28.21,28.21,0,0,0-10.68-4.06c-8.52-16.07-29.22-22.79-46-20.83l.7,6C243.83,22.71,257.78,30.28,264.54,39.89Zm2.11,5.7c.31-.05.61-.09.92-.11.12.32.24.64.35,1,1.15,3.42.89,7.74-.64,10.26a4,4,0,0,1-6.63.83,6,6,0,0,1-1.87-4.88C259.22,49.26,262.61,46.22,266.65,45.59Z"/><path class="cls-2" d="M40.28,483.39a26.15,26.15,0,0,1-3.09-11.93c0-.26,0-.52,0-.77,4.15,1.23,8.64,1.08,12.31-1.6,3.29-2.41,4.78-6.45,3.62-9.83a8.37,8.37,0,0,0-7.65-5.35,11.79,11.79,0,0,0-7.76,2.89,17.09,17.09,0,0,0-4.21,5.25l-.07-.05c-8.64-7.11-11.2-19.11-11.83-27.93-.85-11.91,1.16-22.65,5.81-31l-5.25-2.91c-5.22,9.41-7.48,21.3-6.55,34.38.72,10,3.73,23.67,14,32.13A21.77,21.77,0,0,0,31.52,468a23,23,0,0,0-.33,3.34c-.09,4.59,1.12,9.39,3.7,14.68A53.72,53.72,0,0,0,76.76,515.3l.62-6A47.61,47.61,0,0,1,40.28,483.39Zm1.28-21.95a5.88,5.88,0,0,1,3.75-1.54,2.45,2.45,0,0,1,2.18,1.31c.29.86-.38,2.22-1.5,3-2,1.44-4.6,1.47-7.19.66A11,11,0,0,1,41.56,461.44Z"/><path d="M449.76,229.46a17.26,17.26,0,0,0-17.24-17.24H367.46a32.14,32.14,0,0,1,0,10.48h65.06a6.77,6.77,0,0,1,6.76,6.76v17h10.48Z"/><path d="M302.91,212.22H237.86a17.26,17.26,0,0,0-17.24,17.24v17.18H231.1V229.46a6.76,6.76,0,0,1,6.76-6.76h65.05a32.9,32.9,0,0,1,0-10.48Z"/><path class="cls-3" d="M538.24,347,515,361.48V308.16a64.72,64.72,0,0,0-21.73,12.64c-17.92,15.85-25.83,40.34-23.5,72.77l-10.45.75c-1.78-24.85,1.53-59.21,27.46-81.77A74.54,74.54,0,0,1,515,297.18v-39.5H498.36v-.13H389.13V279l-27.81,54.35H382V356l-1.81,1.65a8.83,8.83,0,0,0-2.62,5.46c0,1.78.93,3.63,2.82,5.52l2.54,2.55-1.3,3.35c-.88,2.33-1.5,6.49-.34,8.17.84,1.21,3.3,1.4,4.69,1.4h5.51v32.63c.9,2.23,5.83,11.19,26.68,9.14l.54,0h48.69v48.39H581.62V356.89l3.84-1.23c.09,0,12.12-4.17,23-18.66,13.91-18.52,20-45.92,17.66-79.45H564V360.76Zm11.87,120.46-18.63-12.16-15.9,12.12-15.39-12-13.95,9.7-6-8.6,20.28-14.11,15.12,11.8L531,442.5l17.87,11.66L562.6,441l7.25,7.57Z"/><path d="M636.82,252.86l-.51,1.28-2.11,5.09-30.77-12.72H564v11h62.17c2.32,33.53-3.75,60.93-17.66,79.45-10.88,14.49-22.91,18.63-23,18.66l-3.84,1.23V474.24H467.41V425.85H418.72l-.54,0c-20.85,2.05-25.78-6.91-26.68-9.14V384.1H386c-1.39,0-3.85-.19-4.69-1.4-1.16-1.68-.54-5.84.34-8.17l1.3-3.35-2.54-2.55c-1.89-1.89-2.84-3.74-2.82-5.52a8.83,8.83,0,0,1,2.62-5.46L382,356V333.33H361.32L389.13,279V257.55H498.36v-11H378.1v29.81l-34.82,68H371v7.07a19.14,19.14,0,0,0-4.42,11.35,17.48,17.48,0,0,0,3.79,11.09c-.89,3.81-1.55,10.09,1.84,15.05a13.88,13.88,0,0,0,8.28,5.56v23.75l.14.6c.2.87,5.23,21.19,38.38,18.05h37.39v48.39H592.66V364.56c5.23-2.52,15-8.39,24.07-20.21C637.45,317.39,639.16,280,636.82,252.86Z"/><polygon class="cls-4" points="515.25 242.68 525.72 242.68 525.72 246.65 526 246.65 526 341.64 537.83 334.28 552.92 342.35 552.92 233.96 509.39 233.96 509.39 246.65 515.25 246.65 515.25 242.68"/><path d="M498.36,257.55v.13H515v39.5a41.71,41.71,0,0,1,4.55-1.06l.81,5.17.83,5.18h0a44.91,44.91,0,0,0-6.17,1.69v53.32L538.24,347,564,360.76V230.2l-17.57-7.27h-48v34.62Zm16.89,3.63V246.65H509.4V234h43.52V342.35l-15.09-8.07L526,341.64v-95h-.28v14.53Z"/><polygon points="525.72 246.65 525.72 242.68 515.25 242.68 515.25 246.65 515.25 261.18 525.72 261.18 525.72 246.65"/><path class="cls-3" d="M418.81,158.26,628.1,244.78a113.37,113.37,0,0,0-209.29-86.52Zm98.91-48.92A104.31,104.31,0,0,1,548.47,111a95.08,95.08,0,0,1,29.07,11.23,88.12,88.12,0,0,1,12.85,9.21c1,.9,2,1.76,2.94,2.68l2.83,2.8c1.8,1.95,3.6,3.9,5.24,6a118.48,118.48,0,0,1,7.73,13.71c2.23,4.7,4.18,9.49,6,14.31,3.54,9.64,6.29,19.44,9,29.22-4.08-9.3-8.17-18.62-12.93-27.49-2.37-4.43-4.89-8.76-7.62-12.9a111.07,111.07,0,0,0-8.93-11.7c-10.94-16-28.09-27.53-47.19-32.91a100.83,100.83,0,0,0-29.61-3.67A117.16,117.16,0,0,0,488,116.1,118.86,118.86,0,0,1,517.72,109.34Z"/><path d="M603.43,246.51l30.77,12.72,2.11-5.09.51-1.28a124.4,124.4,0,0,0-230.44-93.77l-2.1,5.1,142.1,58.74L564,230.2ZM564.65,101.85A113.38,113.38,0,0,1,628.1,244.78L418.81,158.26A113.5,113.5,0,0,1,564.65,101.85Z"/><path class="cls-4" d="M155.13,296.44a73.46,73.46,0,0,1,31.12,16.11c14.31,12.46,30.69,36.75,27.46,81.77l-10.45-.75c2.34-32.68-5.69-57.28-23.89-73.11a63.86,63.86,0,0,0-24.24-13.22v53.87l-23-14.29L106.7,360.43V257.67H44.26c-2.32,33.54,3.75,60.94,17.66,79.46,10.88,14.49,22.91,18.62,23,18.66l3.77,1.26,0,4V474.36H203V426l49.23,0c20.85,2.06,25.78-6.91,26.68-9.14V384.22h5.51c1.4,0,3.86-.18,4.7-1.41,1.25-1.83.38-6.28-.35-8.15l-1.3-3.35,2.54-2.55c1.89-1.89,2.84-3.75,2.81-5.52a8.88,8.88,0,0,0-2.65-5.51l-1.82-1.64.05-2.41V333.46h20.69l-27.81-54.35V257.67H155.13v38.77Zm14.76,171-18.64-12.16-15.9,12.12-15.39-12L106,465.11l-6-8.6,20.29-14.11,15.11,11.8,15.36-11.7,17.86,11.66L182.38,441l7.24,7.57Z"/><path d="M171.74,246.64v10.89H155.13v.14H281.25v21.44l27.81,54.35H288.37v20.22l-.05,2.41,1.82,1.64a8.88,8.88,0,0,1,2.65,5.51c0,1.77-.92,3.63-2.81,5.52l-2.54,2.55,1.3,3.35c.73,1.87,1.6,6.32.35,8.15-.84,1.23-3.3,1.41-4.7,1.41h-5.51v32.64c-.9,2.23-5.83,11.2-26.68,9.14L203,426v48.39H88.75V361l0-4L85,355.79c-.12,0-12.15-4.17-23-18.66-13.91-18.52-20-45.92-17.66-79.46H106.7v-11H67L36.18,259.36l-2.11-5.09L33.56,253c-2.34,27.12-.63,64.53,20.09,91.48,9.09,11.83,18.84,17.7,24.07,20.22V485.4H214V437h37.39c33.14,3.14,38.18-17.18,38.38-18.05l.14-.61V394.61a13.85,13.85,0,0,0,8.28-5.57c3.39-5,2.73-11.23,1.84-15.05a17.52,17.52,0,0,0,3.79-11.08,19.14,19.14,0,0,0-4.42-11.35v-7.07h27.69l-34.81-68V246.64H171.74Z"/><polygon class="cls-3" points="144.66 247.06 144.66 242.81 155.13 242.81 155.13 247.06 161.26 247.06 161.26 233.81 117.18 233.81 117.18 342.94 132.54 334.73 144.66 342.26 144.66 261.31 144.66 247.06"/><path d="M106.7,246.64V360.43l25.44-13.61,23,14.29V307.24c-2-.56-3.23-.76-3.27-.77l1.62-10.35c.12,0,.7.11,1.65.32V261.31H144.66v80.95l-12.12-7.53-15.36,8.21V233.81h44.08v13.25h-6.13v10.47h16.61V223.34H123.33l-16.63,6.87Z"/><polygon points="155.13 247.06 155.13 242.81 144.66 242.81 144.66 247.06 144.66 261.31 155.13 261.31 155.13 257.67 155.13 257.54 155.13 247.06"/><path class="cls-4" d="M251.57,158.39A113.37,113.37,0,0,0,42.28,244.9ZM57,183.33l.34-1.88.48-1.85,1-3.71L60,172.26l.62-1.82.74-1.78,1.49-3.54,1.72-3.45c.29-.57.57-1.16.87-1.72l1-1.67c.65-1.1,1.29-2.23,2-3.33l2.16-3.2c.37-.53.71-1.08,1.1-1.6l1.17-1.53c.8-1,1.57-2.06,2.38-3.07l2.55-2.92c.43-.49.84-1,1.29-1.46l1.36-1.39c.91-.92,1.81-1.85,2.73-2.76L86,134.4c.48-.43,1-.87,1.45-1.29L89,131.88l3-2.43,3.19-2.27,1.6-1.13,1.66-1,3.32-2.07,3.45-1.89,1.73-.93,1.77-.84,3.57-1.68,3.65-1.47,1.83-.73,1.86-.64,3.73-1.27,3.79-1.07,1.9-.53,1.92-.44,3.85-.87,3.89-.69,1.94-.34,2-.25,4-.09,3.94.08c.66,0,1.31,0,2,0l2,.13,3.91.28c2.6.31,5.19.5,7.76,1l3.84.6,3.81.76,1.9.39,1.88.45,3.76.92,3.71,1.06,1.85.54,1.83.6,3.65,1.2,3.6,1.35,1.79.67,1.77.74,3.52,1.48-3.69-1-1.84-.49-1.86-.41-3.72-.83-3.73-.68-1.87-.34-1.87-.26-3.75-.53-3.76-.37-1.87-.19-1.88-.11-3.75-.22-3.75-.07c-2.5-.09-5,.09-7.47.12l-3.72.27-1.85.13-1.84.21-3.68.44-3.64.6-1.84.1-1.83.19-3.66.38-3.64.57-1.82.28-1.8.37-3.61.76-3.57.94-1.78.47-1.76.57-3.52,1.13-3.43,1.34-1.73.67-1.68.77-3.36,1.54-3.28,1.74-1.64.87-1.58,1-3.18,1.93-3.06,2.12-1.53,1.06c-.5.37-1,.77-1.47,1.15L85.8,140c-1,.81-1.87,1.65-2.81,2.47l-1.4,1.24c-.46.42-.89.88-1.33,1.31l-2.66,2.65c-.85.92-1.66,1.87-2.5,2.8l-1.24,1.4c-.41.48-.78,1-1.17,1.48l-2.31,3c-.73,1-1.42,2.07-2.13,3.1L67.18,161c-.34.53-.64,1.08-1,1.62l-1.92,3.25-1.7,3.38-.85,1.69L61,172.64l-1.46,3.5-1.2,3.6-.6,1.81-.47,1.84-.93,3.7Z"/><path d="M36.18,259.36,67,246.64l39.75-16.43,16.63-6.87,142.77-59L264,159.22A124.39,124.39,0,0,0,33.56,253l.51,1.28Zm8.15-96.08a113.36,113.36,0,0,1,207.24-4.89L42.28,244.9A112.53,112.53,0,0,1,44.33,163.28Z"/><rect x="16.39" y="108.37" width="12" height="25.21" transform="translate(-96.82 90.54) rotate(-65.19)"/><rect x="41.76" y="77.82" width="12" height="29.13" transform="translate(-48.76 53.65) rotate(-40.79)"/><rect x="80.58" y="61.31" width="12" height="21.76" transform="translate(-25.25 57.98) rotate(-32.58)"/><rect x="122.44" y="43.98" width="12" height="23.97" transform="translate(-8.88 28.15) rotate(-12.1)"/><rect x="164.53" y="48.29" width="24.69" height="12" transform="translate(104.54 224.59) rotate(-84.05)"/><rect x="212.67" y="63.27" width="23.53" height="12" transform="translate(61.48 238.43) rotate(-63.22)"/><rect x="247.57" y="95.89" width="24.61" height="12" transform="translate(16.13 237.92) rotate(-50.57)"/><rect x="403.46" y="89.13" width="12" height="24.79" transform="translate(38.94 303.21) rotate(-42.49)"/><rect x="444.2" y="62.83" width="12" height="26.39" transform="translate(16.33 218.2) rotate(-27.73)"/><rect x="494.76" y="47.16" width="12" height="22.55" transform="translate(3.37 140.76) rotate(-16.05)"/><rect x="543.13" y="51.87" width="22.89" height="12" transform="translate(442.91 604.16) rotate(-84.4)"/><rect x="592.4" y="69.5" width="21.47" height="12" transform="translate(254.18 573.2) rotate(-62.1)"/><rect x="628.83" y="99.09" width="24.5" height="12" transform="translate(101.35 466.64) rotate(-43.13)"/><rect x="647.73" y="142.62" width="22.99" height="12" transform="translate(-11.31 64.7) rotate(-5.57)"/><polygon points="168.65 454.16 150.79 442.5 135.43 454.2 120.31 442.4 100.03 456.51 106.01 465.12 119.96 455.41 135.35 467.43 151.25 455.31 169.89 467.47 189.62 448.6 182.38 441.03 168.65 454.16"/><polygon points="548.88 454.16 531.01 442.5 515.66 454.2 500.54 442.4 480.26 456.51 486.24 465.12 500.19 455.41 515.58 467.43 531.48 455.31 550.11 467.47 569.85 448.6 562.6 441.03 548.88 454.16"/><circle class="cls-5" cx="335.19" cy="217.46" r="22.22"/><path d="M367.46,212.22a32.7,32.7,0,0,0-64.55,0,32.9,32.9,0,0,0,0,10.48,32.7,32.7,0,0,0,64.55,0,32.14,32.14,0,0,0,0-10.48Zm-32.27,27.46a22.22,22.22,0,1,1,22.22-22.22A22.25,22.25,0,0,1,335.19,239.68Z"/><path d="M57.75,181.55l.6-1.81,1.2-3.6,1.46-3.5.74-1.74.85-1.69,1.7-3.38,1.92-3.25c.32-.54.62-1.09,1-1.62l1.07-1.56c.71-1,1.4-2.08,2.13-3.1l2.31-3c.39-.49.76-1,1.17-1.48l1.24-1.4c.84-.93,1.65-1.88,2.5-2.8L80.26,145c.44-.43.87-.89,1.33-1.31l1.4-1.24c.94-.82,1.86-1.66,2.81-2.47l2.94-2.3c.49-.38,1-.78,1.47-1.15l1.53-1.06,3.06-2.12L98,131.43l1.58-1,1.64-.87,3.28-1.74,3.36-1.54,1.68-.77,1.73-.67,3.43-1.34,3.52-1.13,1.76-.57,1.78-.47,3.57-.94,3.61-.76,1.8-.37,1.82-.28,3.64-.57,3.66-.38,1.83-.19,1.84-.1,3.64-.6,3.68-.44,1.84-.21,1.85-.13,3.72-.27c2.48,0,5-.21,7.47-.12l3.75.07,3.75.22,1.88.11,1.87.19,3.76.37,3.75.53,1.87.26,1.87.34,3.73.68,3.72.83,1.86.41,1.84.49,3.69,1L199.53,120l-1.77-.74-1.79-.67-3.6-1.35-3.65-1.2-1.83-.6-1.85-.54-3.71-1.06-3.76-.92-1.88-.45-1.9-.39-3.81-.76-3.84-.6c-2.57-.46-5.16-.65-7.76-1l-3.91-.28-2-.13c-.65,0-1.3,0-2,0l-3.94-.08-4,.09-2,.25-1.94.34-3.89.69-3.85.87-1.92.44-1.9.53-3.79,1.07-3.73,1.27-1.86.64-1.83.73-3.65,1.47-3.57,1.68-1.77.84-1.73.93-3.45,1.89L98.5,125l-1.66,1-1.6,1.13-3.19,2.27-3,2.43-1.52,1.23c-.49.42-1,.86-1.45,1.29L83.14,137c-.92.91-1.82,1.84-2.73,2.76l-1.36,1.39c-.45.47-.86,1-1.29,1.46l-2.55,2.92c-.81,1-1.58,2-2.38,3.07l-1.17,1.53c-.39.52-.73,1.07-1.1,1.6L68.4,155c-.67,1.1-1.31,2.23-2,3.33l-1,1.67c-.3.56-.58,1.15-.87,1.72l-1.72,3.45-1.49,3.54-.74,1.78L60,172.26l-1.22,3.63-1,3.71-.48,1.85L57,183.33l-.67,3.76.93-3.7Z"/><path d="M547.45,115.14c19.1,5.38,36.25,16.91,47.19,32.91a111.07,111.07,0,0,1,8.93,11.7c2.73,4.14,5.25,8.47,7.62,12.9,4.76,8.87,8.85,18.19,12.93,27.49-2.75-9.78-5.5-19.58-9-29.22-1.77-4.82-3.72-9.61-6-14.31a118.48,118.48,0,0,0-7.73-13.71c-1.64-2.07-3.44-4-5.24-6l-2.83-2.8c-1-.92-2-1.78-2.94-2.68a88.12,88.12,0,0,0-12.85-9.21A95.08,95.08,0,0,0,548.47,111a104.31,104.31,0,0,0-30.75-1.67A118.86,118.86,0,0,0,488,116.1a117.16,117.16,0,0,1,29.85-4.63A100.83,100.83,0,0,1,547.45,115.14Z"/><rect x="300.18" y="256.97" width="19.74" height="12" transform="translate(-87.56 347.75) rotate(-52.34)"/><rect x="329.27" y="259.25" width="12" height="22.7"/><rect x="354.76" y="251.92" width="12" height="19.5" transform="translate(-82.5 307.9) rotate(-41.91)"/><path d="M459.29,394.32l10.45-.75c-2.33-32.43,5.58-56.92,23.5-72.77A64.72,64.72,0,0,1,515,308.16a44.91,44.91,0,0,1,6.17-1.69h0l-.83-5.18-.81-5.17a41.71,41.71,0,0,0-4.55,1.06,74.54,74.54,0,0,0-28.22,15.37C460.82,335.11,457.51,369.47,459.29,394.32Z"/><path d="M203.26,393.57l10.45.75c3.23-45-13.15-69.31-27.46-81.77a73.46,73.46,0,0,0-31.12-16.11c-.95-.21-1.53-.3-1.65-.32l-1.62,10.35s1.25.21,3.27.77a63.86,63.86,0,0,1,24.24,13.22C197.57,336.29,205.6,360.89,203.26,393.57Z"/><path class="cls-2" d="M648,345.88c-3.53,2.18-7.93,4.89-9,11.39s2.23,10.48,4.88,13.68,4.17,5.24,3.57,8.87-2.65,5.05-6.23,7.26-7.92,4.9-9,11.4,2.22,10.48,4.87,13.68,4.18,5.25,3.58,8.87-2.65,5.06-6.23,7.27-7.93,4.89-9,11.39,2.23,10.48,4.88,13.68,4.17,5.25,3.57,8.87-2.65,5.06-6.23,7.27-7.93,4.9-9,11.4,2.22,10.48,4.87,13.68,4.17,5.25,3.58,8.87l5.92,1c1.07-6.5-2.23-10.48-4.88-13.68s-4.17-5.25-3.57-8.88,2.65-5.05,6.23-7.27,7.93-4.89,9-11.39-2.23-10.48-4.88-13.68-4.17-5.25-3.58-8.88,2.65-5.05,6.23-7.26,7.93-4.89,9-11.39-2.23-10.48-4.88-13.68-4.17-5.25-3.57-8.88,2.65-5.05,6.23-7.26,7.93-4.9,9-11.4-2.23-10.47-4.88-13.67-4.17-5.25-3.58-8.88,2.65-5.05,6.23-7.26,7.93-4.89,9-11.39l-5.92-1C653.58,342.24,651.53,343.67,648,345.88Z"/><path class="cls-2" d="M406,501.65c-2.76,3.17-4.5,5-8.18,5s-5.41-1.8-8.18-5-6.12-7-12.7-7-10,3.9-12.71,7-4.5,5-8.18,5-5.41-1.8-8.17-5-6.12-7-12.71-7-10,3.9-12.7,7-4.51,5-8.18,5-5.42-1.8-8.18-5-6.12-7-12.7-7-10,3.9-12.71,7-4.5,5-8.17,5-5.42-1.8-8.18-5-6.11-7-12.7-7v6c3.67,0,5.41,1.8,8.18,5s6.11,7,12.7,7,10-3.9,12.7-7,4.5-5,8.18-5,5.41,1.8,8.18,5,6.11,7,12.7,7,10-3.9,12.7-7,4.51-5,8.18-5,5.42,1.8,8.18,5,6.12,7,12.7,7,10-3.9,12.71-7,4.5-5,8.18-5,5.42,1.8,8.18,5,6.12,7,12.7,7,10-3.9,12.71-7,4.5-5,8.18-5v-6C412.13,494.62,408.74,498.52,406,501.65Z"/><path class="cls-2" d="M353.07,159.33l4-4.44c-11.25-10.24-14.28-28.69-6.89-42,3.4-6.12,8.42-10.28,13.77-11.43a12.07,12.07,0,0,1,1.63-.23,40.59,40.59,0,0,0,.63,5.4c.47,2.52,1.41,6.18,4.1,8.75s7.91,3.73,11.27.75c2.56-2.26,3.29-6.26,1.85-10.18a16.83,16.83,0,0,0-11.79-10.15c1.14-14.13,9.91-28.5,23.42-37.25,14-9.07,33-13,54.88-11.25l.47-6c-23.21-1.8-43.47,2.42-58.61,12.21s-24.75,25.76-26.12,41.68a19.29,19.29,0,0,0-3,.39c-7,1.52-13.51,6.76-17.75,14.39C336.14,125.88,339.62,147.09,353.07,159.33ZM377.83,108c.55,1.49.46,3-.19,3.63s-2.24.27-3.16-.6c-1.11-1.06-1.83-2.76-2.34-5.51-.21-1.11-.36-2.23-.46-3.36A10.35,10.35,0,0,1,377.83,108Z"/><polygon points="320.5 439 333.8 423.26 325.18 414.88 311.34 431.25 320.5 439"/><polygon points="355.4 397.7 346.24 389.95 332.94 405.69 341.57 414.07 355.4 397.7"/><polygon points="351.14 440.11 359.5 431.5 341.57 414.07 332.94 405.69 319.87 392.99 311.51 401.6 325.18 414.88 333.8 423.26 351.14 440.11"/></g></svg>