<svg enable-background="new 0 0 681.61 533.78" viewBox="0 0 681.61 533.78" xmlns="http://www.w3.org/2000/svg"><path d="m91.46 0s-91.46 0-91.46 91.18v351.42s0 91.19 91.46 91.19h498.7s91.46 0 91.46-91.19v-351.42s0-91.18-91.46-91.18z" fill="#e679a6"/><g fill="#dc0816"><path d="m629.27 136.45c-2.77-2.42-5.26-2.21-9.43-1.63-4.11.57-9.23 1.28-14.2-3.05s-4.96-9.5-4.96-13.65c0-4.21-.13-6.71-2.9-9.12-2.77-2.42-5.27-2.21-9.43-1.63-4.11.57-9.23 1.28-14.2-3.05s-4.96-9.5-4.96-13.65c0-4.21-.13-6.71-2.9-9.12s-5.26-2.2-9.43-1.62c-4.11.57-9.23 1.28-14.19-3.04-4.97-4.33-4.96-9.5-4.96-13.65 0-4.21-.13-6.71-2.9-9.12s-5.26-2.21-9.43-1.63c-4.11.57-9.23 1.28-14.2-3.05s-4.96-9.49-4.96-13.65c0-4.21-.13-6.7-2.9-9.12l3.94-4.52c4.96 4.33 4.96 9.49 4.96 13.65 0 4.21.13 6.7 2.9 9.12 2.77 2.41 5.26 2.21 9.43 1.63 4.11-.57 9.23-1.28 14.2 3.05s4.96 9.5 4.96 13.65c0 4.21.13 6.7 2.9 9.12 2.77 2.41 5.26 2.2 9.43 1.62 4.11-.57 9.23-1.28 14.2 3.04 4.97 4.33 4.96 9.5 4.96 13.65 0 4.21.13 6.71 2.9 9.12s5.26 2.21 9.43 1.63c4.11-.57 9.23-1.28 14.2 3.05s4.96 9.5 4.96 13.65c0 4.21.13 6.71 2.9 9.12 2.77 2.42 5.27 2.21 9.43 1.63 4.11-.57 9.23-1.28 14.2 3.05z"/><path d="m41.08 337.67-5.76-1.68c1.03-3.53-.21-5.7-2.49-9.24-2.25-3.49-5.04-7.84-3.2-14.16 1.84-6.33 6.53-8.49 10.3-10.24 3.82-1.77 6.03-2.94 7.06-6.47s-.21-5.7-2.49-9.24c-2.25-3.49-5.04-7.84-3.2-14.16s6.53-8.49 10.3-10.24c3.82-1.77 6.03-2.94 7.05-6.47 1.03-3.53-.21-5.7-2.49-9.24-2.25-3.49-5.04-7.84-3.2-14.16s6.53-8.49 10.3-10.24c3.82-1.77 6.03-2.94 7.05-6.47 1.03-3.53-.21-5.7-2.49-9.24-2.25-3.49-5.04-7.84-3.21-14.16s6.53-8.49 10.3-10.23c3.82-1.77 6.03-2.94 7.05-6.46l5.76 1.68c-1.84 6.32-6.53 8.49-10.3 10.23-3.82 1.77-6.03 2.94-7.05 6.46s.21 5.7 2.49 9.24c2.25 3.49 5.04 7.84 3.21 14.16-1.84 6.33-6.53 8.49-10.3 10.24-3.82 1.77-6.03 2.94-7.05 6.47-1.03 3.53.21 5.7 2.49 9.24 2.25 3.49 5.04 7.84 3.2 14.16s-6.53 8.49-10.3 10.24c-3.82 1.77-6.03 2.94-7.05 6.47-1.03 3.53.21 5.7 2.49 9.24 2.25 3.49 5.04 7.84 3.2 14.16s-6.53 8.49-10.3 10.24c-3.82 1.77-6.03 2.94-7.06 6.47s.21 5.7 2.49 9.24c2.24 3.49 5.04 7.83 3.2 14.16z"/><path d="m556.47 515.63c-13.45-12.24-16.93-33.45-8.1-49.34 4.24-7.63 10.71-12.87 17.75-14.38 1-.21 2-.34 3-.4 1.36-15.92 11.11-31.97 26.12-41.68 15.14-9.79 35.4-14.01 58.6-12.2l-.47 5.98c-21.88-1.71-40.86 2.19-54.88 11.26-13.51 8.74-22.28 23.11-23.42 37.25 5.4 1.41 9.95 5.1 11.79 10.14 1.44 3.92.71 7.92-1.85 10.19-3.36 2.97-8.47 1.92-11.27-.75-2.69-2.57-3.63-6.23-4.1-8.76-.33-1.78-.54-3.58-.63-5.39-.56.04-1.1.12-1.63.23-5.35 1.15-10.37 5.31-13.76 11.43-7.39 13.3-4.36 31.75 6.89 41.99zm18.62-57.14c.1 1.13.25 2.25.46 3.36.51 2.75 1.23 4.45 2.34 5.51.91.87 2.5 1.17 3.15.6.66-.58.74-2.14.19-3.63-1.01-2.78-3.38-4.76-6.14-5.84z"/><path d="m120.77 498.69c-7.32 0-14.72-1.76-21.06-5.27-10.24-5.67-17.15-15.67-18.42-25.69-13.09-3.57-24.98-14.12-30.03-27.12-6.05-15.6-2.25-30.88 2-40.95 6.09-14.44 16.44-27.01 29.91-36.35l3.42 4.93c-12.54 8.69-22.15 20.36-27.8 33.75-3.82 9.05-7.26 22.72-1.93 36.45 4.17 10.76 13.72 19.57 24.4 23.03.07-.61.17-1.21.29-1.82.91-4.51 3.05-7.99 6.18-10.05 4.11-2.72 9.86-2.63 13.66.2 2.37 1.77 3.79 4.49 3.9 7.48.11 3.11-1.21 6.16-3.53 8.15-3.24 2.79-8.25 4-14.17 3.46 1.65 7.5 7.24 14.97 15.02 19.28 10.51 5.82 24.38 6.08 34.52.66l2.83 5.29c-5.7 3.05-12.4 4.57-19.19 4.57zm-33.61-35.89c.06.01.12.02.18.02 4.59.56 8.43-.15 10.52-1.95.93-.8 1.48-2.1 1.44-3.39-.03-.83-.31-2-1.48-2.88-1.97-1.47-5.05-1.14-6.78 0-1.8 1.19-3.01 3.28-3.6 6.23-.14.65-.23 1.31-.28 1.97z"/><path d="m55.01 128.57c-8.27 0-16.54-2.04-23.69-6.14l2.99-5.2c13.01 7.47 30.29 7.12 42.98-.88 11.47-7.23 18.93-20.52 19.44-34.06-3.71.5-7.83.36-11.6-1.5-3.51-1.74-6.19-5.27-6.99-9.2-.66-3.24.07-6.29 2.05-8.59 1.74-2.02 4.29-3.22 7.18-3.37 3.43-.18 6.95 1.1 9.43 3.43 2.9 2.72 4.75 6.68 5.52 11.79 24.6-7.53 44.8-28.22 51.66-53.03l5.78 1.6c-7.51 27.19-29.89 49.78-57 57.56-.01 0-.01 0-.02 0-.07 15.99-8.72 31.91-22.27 40.44-7.53 4.76-16.5 7.15-25.46 7.15zm33.02-62.96c-.11 0-.22 0-.33.01-.88.05-2.11.31-2.96 1.3-.95 1.1-.91 2.5-.72 3.48.42 2.09 1.94 4.11 3.77 5.02 2.63 1.3 5.77 1.3 8.68.85-.52-4.01-1.79-6.98-3.77-8.84-1.21-1.14-2.97-1.82-4.67-1.82z"/></g><circle cx="340.03" cy="269.41" fill="#025bc7" r="205.53"/><path d="m340.03 479.32c-115.75 0-209.91-94.17-209.91-209.91 0-115.75 94.17-209.91 209.91-209.91s209.91 94.17 209.91 209.91c.01 115.74-94.16 209.91-209.91 209.91zm0-411.05c-110.91 0-201.14 90.23-201.14 201.14s90.23 201.14 201.14 201.14 201.14-90.23 201.14-201.14-90.23-201.14-201.14-201.14z"/><path d="m409.68 258.2-17.77-15.44-12.63-48.8-31.2-6.52-15.15 10.3-8.88-4.15-3.73-11.32-33.67 5.96-10-8.36-25.54 46.02 2.85 15.19-6.58 8.95 27.98 33.88 36.89-6.88 10.34 13.46-5.09 12.59 9.33 19.44-5.38 23.09 13.81 41.11 34.41-1.93s14.47-35.1 14.97-35.47c.51-.37 17.3-12.57 17.3-12.57l2.23-17.05-7.22-15.11 26.66-29.24.72-24.42z" fill="#028b3f"/><path d="m332.15 391.29-15.27-45.47 5.31-22.8-9.5-19.8 4.88-12.06-7.17-9.33-36.78 6.86-31.81-38.51 7.48-10.17-2.79-14.87 28.89-52.05 12.5 10.46 35.4-6.27 4.33 13.12 4.9 2.29 14.63-9.94 35.69 7.46 12.97 50.12 14.53 12.62 18.56-9.22-.98 33.36-25.76 28.26 6.51 13.62-2.64 20.21-1.53 1.11s-12.92 9.38-16.44 11.94c-1.89 4.14-9.57 22.62-14.35 34.21l-1.05 2.55zm-6.16-45.9 12.34 36.76 28.31-1.59c13.9-33.69 14.09-33.83 15.38-34.78.44-.32 11.64-8.45 15.79-11.47l1.82-13.89-7.94-16.61 27.55-30.22.46-15.48-10.69 5.31-21.01-18.24-12.29-47.48-26.7-5.58-15.68 10.65-12.86-6.01-3.14-9.5-31.94 5.66-7.49-6.27-22.2 39.99 2.91 15.51-5.68 7.73 24.16 29.24 36.99-6.9 13.52 17.58-5.31 13.12 9.16 19.09z"/><path d="m439.23 337.8-14.93 2.65-3.64 22.99-8.4 15.03h23.87l8.85-20.33z" fill="#028b3f"/><path d="m439.01 382.86h-34.23l11.67-20.88 4.01-25.31 21.92-3.89 7.25 25.67zm-19.27-8.77h13.52l7.07-16.26-4.24-15.01-7.94 1.41-3.28 20.68z"/><path d="m375.08 66.86-9.64 12.77h-29.6l-11.97 21.23-39.8 9.73-15.04-9.73-10.61 22.11h-21.23l-5.31 26.53 30.95 15.03 15.92-18.57 21.23-11.5 22.11 8.84 13.74-8.84 16.33 3.54 4.42 20.34 22.69 4.42v31.2h17.11l15.87 39.55 27.47-10.61 5.25-15.03 26.59-20.34-14.15-15.92-28.79 5.31-16.36-24.76 6.24-14.16 26.48 14.15 26.59-7.96 30.95 35.68 3.15 58.07 18.08 12.38 11.84-44.33s-27.57-114.34-160.51-139.13z" fill="#028b3f"/><path d="m526.38 257.45-24.98-17.11-3.18-58.73-28.11-32.4-25.6 7.67-23.9-12.77-3.36 7.63 13.44 20.34 28.37-5.23 18.93 21.3-29.29 22.41-5.49 15.71-33.4 12.91-16.38-40.82h-18.53v-31.97l-21.98-4.28-4.44-20.4-11.8-2.56-14.11 9.09-22.3-8.92-18.7 10.13-17.6 20.53-37.05-18 6.68-33.39h22.06l11.58-24.11 17.63 11.41 36.11-8.83 12.29-21.8h29.98l9.96-13.19 2.67.5c70.08 13.07 110.91 51.02 132.83 80.56 23.77 32.03 30.85 60.65 31.14 61.85l.26 1.08zm-16.45-21.91 11.17 7.65 9.94-37.21c-1.49-5.34-9.26-30.63-29.61-57.96-13.35-17.92-29.45-33.22-47.83-45.46-22.3-14.85-48.08-25.23-76.67-30.89l-9.31 12.33h-29.22l-11.64 20.65-43.48 10.63-12.44-8.05-9.65 20.11h-20.39l-3.94 19.68 24.86 12.07 14.24-16.62 23.75-12.86 21.92 8.77 13.36-8.6 20.87 4.52 4.41 20.28 23.4 4.56v30.43h15.69l15.36 38.29 21.53-8.32 5.02-14.36 23.88-18.27-9.37-10.54-29.22 5.38-19.28-29.19 9.12-20.67 29.06 15.53 27.57-8.25 33.8 38.96z"/><path d="m135.51 291 38.01-40.68-13.56-23.88 9.14-27.42-18.28-9.98c-.01 0-20.71 50.98-15.31 101.96z" fill="#028b3f"/><path d="m132.15 301.02-1.01-9.56c-5.45-51.48 14.74-101.95 15.61-104.08l1.85-4.56 25.82 14.1-9.68 29.04 14.19 24.99zm21.02-105.69c-4.39 12.45-15.56 48.18-14.02 85.35l28.96-30.99-12.93-22.77 8.6-25.79z"/><path d="m447.06 444.9-18.44-14.16-31.35 14.15h-34.49l-33.61 11.34-33.61-6.03-26.74 12.06s94.28 35 178.24-17.36z" fill="#028b3f"/><path d="m341.46 478.09c-5.4 0-10.51-.19-15.28-.5-34.31-2.22-57.89-10.86-58.88-11.22l-10.02-3.72 37.72-17.01 33.84 6.07 33.22-11.21h34.27l32.88-14.84 25.55 19.61-5.37 3.35c-37.7 23.51-77.39 29.47-107.93 29.47zm-60.18-16.64c9.99 2.66 26.16 6.15 45.75 7.4 29.05 1.84 71.58-1.04 112.24-24.41l-11.24-8.63-29.81 13.46h-34.72l-33.99 11.47-33.38-5.99z"/><path d="m224.8 439.61 12.4-8.87-5.31-16.8 21.23-9.73-21.23-29.19-32.72 3.45-4.42-29.98-21.23-10.69-9.73-29.99-22.99 12.24c-.01 0 23.15 80.74 84 119.56z" fill="#028b3f"/><path d="m224.94 444.9-2.5-1.6c-32.23-20.56-53.86-52.66-66.33-75.97-13.46-25.16-19.29-45.24-19.53-46.08l-.98-3.41 30.75-16.38 10.78 33.23 21.63 10.89 4.14 28.07 31.05-3.28 25.87 35.57-22.58 10.35 5.1 16.15zm-78.86-122.69c5.08 15.27 28.57 78.61 78.6 112.09l7.37-5.27-5.51-17.46 19.88-9.11-16.58-22.8-34.39 3.63-4.7-31.9-20.83-10.49-8.68-26.75z"/><path d="m340.03 479.32c-115.75 0-209.91-94.17-209.91-209.91 0-115.75 94.17-209.91 209.91-209.91s209.91 94.17 209.91 209.91c.01 115.74-94.16 209.91-209.91 209.91zm0-411.05c-110.91 0-201.14 90.23-201.14 201.14s90.23 201.14 201.14 201.14 201.14-90.23 201.14-201.14-90.23-201.14-201.14-201.14z"/><path d="m178.43 80.6h9.75v25.96h-9.75z" transform="matrix(.657 -.7539 .7539 .657 -7.6818 170.2877)"/><path d="m204.36 61.24h9.75v25.72h-9.75z" transform="matrix(.7949 -.6067 .6067 .7949 -2.0529 142.1393)"/><path d="m233.02 45.04h9.75v24.87h-9.75z" transform="matrix(.8756 -.4831 .4831 .8756 1.8356 122.0733)"/><path d="m270.78 33.99h9.75v24.1h-9.75z" transform="matrix(.9487 -.3162 .3162 .9487 -.4127 89.5373)"/><path d="m308.53 26.45h9.75v23.21h-9.75z" transform="matrix(.9851 -.172 .172 .9851 -1.875 54.4711)"/><path d="m341.56 23.34h9.75v22.71h-9.75z" transform="matrix(.9988 -.0479 .0479 .9988 -1.2652 16.6504)"/><path d="m374.67 34.63h23.48v9.75h-23.48z" transform="matrix(.2275 -.9738 .9738 .2275 260.0372 406.7977)"/><path d="m413.72 44.52h21.46v9.75h-21.46z" transform="matrix(.3879 -.9217 .9217 .3879 214.2911 421.4643)"/><path d="m447.68 58.01h26.15v9.75h-26.15z" transform="matrix(.5134 -.8581 .8581 .5134 170.2312 425.9943)"/><path d="m480.18 78.15h23.95v9.75h-23.95z" transform="matrix(.6668 -.7452 .7452 .6668 102.1004 394.4258)"/><path d="m503.73 102.86h24.03v9.75h-24.03z" transform="matrix(.7853 -.6191 .6191 .7853 44.0258 342.4357)"/><path d="m523.63 129.72h21.97v9.75h-21.97z" transform="matrix(.8589 -.5121 .5121 .8589 6.4866 292.7448)"/><path d="m541.07 157.96h23.04v9.75h-23.04z" transform="matrix(.9296 -.3687 .3687 .9296 -21.1096 215.1862)"/><path d="m552.46 189.97h21.12v9.75h-21.12z" transform="matrix(.988 -.1547 .1547 .988 -23.3631 89.4342)"/><path d="m559.3 224.27h24.68v9.75h-24.68z"/><path d="m563.02 258.48h22.41v9.75h-22.41z"/><path d="m570.26 285.41h9.75v24.29h-9.75z" transform="matrix(.0747 -.9972 .9972 .0747 235.4483 848.8615)"/><path d="m565.67 315.2h9.75v23.88h-9.75z" transform="matrix(.3344 -.9424 .9424 .3344 71.437 755.4308)"/><path d="m557.35 346.94h9.75v26.82h-9.75z" transform="matrix(.4465 -.8948 .8948 .4465 -11.251 702.5087)"/><path d="m544.62 374.75h9.75v28.91h-9.75z" transform="matrix(.6278 -.7784 .7784 .6278 -98.4124 572.6114)"/><path d="m522.85 403.77h9.75v28.58h-9.75z" transform="matrix(.6476 -.7619 .7619 .6476 -132.5894 549.3982)"/><path d="m497.8 428.72h9.75v25.53h-9.75z" transform="matrix(.8415 -.5402 .5402 .8415 -158.8313 341.4949)"/><path d="m471.67 450h9.75v25.93h-9.75z" transform="matrix(.8286 -.5598 .5598 .8286 -177.5085 346.1389)"/><path d="m435.88 471.97h9.75v24.59h-9.75z" transform="matrix(.8583 -.5131 .5131 .8583 -186.0326 294.7507)"/><path d="m399.08 483.67h9.75v22.64h-9.75z" transform="matrix(.9472 -.3207 .3207 .9472 -137.3971 155.6812)"/><path d="m360.79 489h9.75v21.44h-9.75z" transform="matrix(.9987 -.0508 .0508 .9987 -24.9063 19.2153)"/><path d="m312.32 493.57h23.96v9.75h-23.96z" transform="matrix(.0152 -.9999 .9999 .0152 -179.0318 815.1184)"/><path d="m274.04 490.11h22.12v9.75h-22.12z" transform="matrix(.2461 -.9692 .9692 .2461 -264.8282 649.5031)"/><path d="m238.14 479.47h24.59v9.75h-24.59z" transform="matrix(.5018 -.865 .865 .5018 -294.1891 457.9391)"/><path d="m197.22 461.63h30.57v9.75h-30.57z" transform="matrix(.6768 -.7362 .7362 .6768 -274.7468 307.2178)"/><path d="m152.46 101.58h9.76v27.38h-9.76z" transform="matrix(.5501 -.8351 .8351 .5501 -25.4772 183.2516)"/><path d="m128.69 131.51h9.75v27.59h-9.75z" transform="matrix(.5788 -.8155 .8155 .5788 -62.2321 170.1338)"/><path d="m113.99 164.54h9.75v24.67h-9.75z" transform="matrix(.4413 -.8973 .8973 .4413 -92.3151 205.4838)"/><path d="m105.1 202.73h9.76v26.34h-9.76z" transform="matrix(.124 -.9923 .9923 .124 -117.8925 298.2529)"/><path d="m94.21 250.58h24.82v9.75h-24.82z" transform="matrix(.987 -.1608 .1608 .987 -39.6887 20.4676)"/><path d="m98.97 289.31h21.65v9.75h-21.65z" transform="matrix(.9557 -.2944 .2944 .9557 -81.7518 45.3675)"/><path d="m101.09 329.22h25.76v9.75h-25.76z" transform="matrix(.9579 -.2869 .2869 .9579 -91.0757 46.7524)"/><path d="m115.55 364.24h22.97v9.75h-22.97z" transform="matrix(.9165 -.4 .4 .9165 -137.0372 81.626)"/><path d="m135.95 401.93h22.45v9.75h-22.45z" transform="matrix(.8246 -.5658 .5658 .8246 -204.336 154.6346)"/><path d="m158.34 436.61h29.58v9.75h-29.58z" transform="matrix(.6872 -.7265 .7265 .6872 -266.5665 263.8614)"/><path d="m605.44 362.72-.78-5.95c18.92-2.49 36.22-16.13 43.06-33.94 6.61-17.2 3.36-38.05-8.02-52.53-2.05 1.86-4.36 3.3-6.91 4.3-4.97 1.93-11.52 1.4-14.44-3.35-1.6-2.61-1.6-5.8.02-8.75 1.95-3.55 5.84-5.97 9.67-6.03s7.64 1.53 11.35 4.74c3.8-6.37 5.07-15.15 4.77-22.96-1.34-35.06-21.74-56.17-40.13-60.95l1.51-5.81c13.12 3.41 24.37 12.24 32.52 25.53 7.24 11.79 11.53 26.35 12.09 40.99.21 5.44-.17 13.54-3.13 21.18-.93 2.39-2.05 4.55-3.35 6.48 13.24 16.13 17.13 39.82 9.64 59.3-7.6 19.81-26.84 34.98-47.87 37.75zm22.8-100.26c-.04 0-.07 0-.11 0-1.7.03-3.59 1.26-4.51 2.92-.4.72-.74 1.77-.16 2.72 1.14 1.86 4.53 1.92 7.14.9 1.9-.74 3.57-1.81 5.03-3.12-2.57-2.27-5.04-3.42-7.39-3.42z" fill="#dc0816"/></svg>