<?xml version="1.0" encoding="UTF-8"?>
<!-- Generator: Adobe Illustrator 24.3.0, SVG Export Plug-In . SVG Version: 6.00 Build 0)  -->
<svg version="1.1" xmlns="http://www.w3.org/2000/svg" xmlns:xlink="http://www.w3.org/1999/xlink" x="0px" y="0px" viewBox="0 0 681.61 533.78" style="enable-background:new 0 0 681.61 533.78;" xml:space="preserve">
<style type="text/css">
	.st0{fill:#00913E;}
	.st1{fill:#0154D5;}
	.st2{fill:#EE8019;}
	.st3{fill:#F0BC00;}
	.st4{fill:#E679A6;}
	.st5{fill:#E9E7C4;}
	.st6{fill:#F5C200;}
	.st7{fill:#028B3F;}
	.st8{fill:#DC0816;}
	.st9{fill:#EA7AAC;}
	.st10{fill:#020304;}
	.st11{fill:#049DFF;}
	.st12{clip-path:url(#SVGID_2_);}
	.st13{fill:#1026B0;}
	.st14{fill:#1E1232;}
	.st15{fill:#E49924;}
	.st16{fill:#0491FF;}
	.st17{fill:none;stroke:#62FC06;stroke-width:0.3063;stroke-miterlimit:10;}
	.st18{fill:none;stroke:#000000;stroke-width:8.1291;stroke-miterlimit:10;}
	.st19{fill:none;stroke:#000000;stroke-width:0.5314;stroke-miterlimit:10;}
	.st20{fill:none;stroke:#000000;stroke-width:7.7722;stroke-miterlimit:10;}
	.st21{fill:#E7E5C2;}
	.st22{fill:#025BC7;}
	.st23{clip-path:url(#SVGID_4_);}
	.st24{clip-path:url(#SVGID_6_);}
	.st25{fill:#5B1A0E;}
	.st26{fill:#FFFFFF;}
	.st27{fill:#F69225;}
	.st28{fill:#EFEDCA;}
	.st29{fill:#561309;}
	.st30{fill:none;stroke:#000000;stroke-width:10.905;stroke-miterlimit:10;}
	.st31{fill:#EDBCD2;}
	.st32{clip-path:url(#SVGID_8_);}
	.st33{fill:none;stroke:#FBF3A0;stroke-width:1.296;stroke-miterlimit:10;}
	.st34{fill:#1F1332;}
	.st35{fill:#E69B23;}
	.st36{fill:#F08C25;}
	.st37{fill:#5D1A16;}
	.st38{fill:none;stroke:#5AFD06;stroke-width:0.9072;stroke-miterlimit:10;}
	.st39{fill:#F3B5A9;}
	.st40{fill:#E4E1BF;}
	.st41{fill:#F3AD17;}
	.st42{clip-path:url(#SVGID_10_);}
	.st43{fill:#EE6807;}
	.st44{clip-path:url(#SVGID_12_);}
	.st45{fill:#C4681F;}
	.st46{fill:#711C13;}
	.st47{clip-path:url(#SVGID_14_);}
	.st48{clip-path:url(#SVGID_14_);fill:#EDBCD2;}
	.st49{clip-path:url(#SVGID_16_);}
	.st50{fill:#DC0816;stroke:#000000;stroke-width:7.8223;stroke-miterlimit:10;}
	.st51{fill:#DC0816;stroke:#000000;stroke-width:9.4667;stroke-miterlimit:10;}
	.st52{fill:#DC0C18;}
	.st53{fill:#F7B821;}
	.st54{clip-path:url(#SVGID_18_);}
	.st55{fill:none;stroke:#05FF28;stroke-miterlimit:10;}
	.st56{fill:#CA6820;}
	.st57{display:none;fill:none;stroke:#000000;stroke-width:1.5;stroke-linecap:square;stroke-miterlimit:10;}
	.st58{fill:none;stroke:#000000;stroke-width:1.5;stroke-linecap:square;stroke-miterlimit:10;}
	.st59{fill:#008B3F;}
	.st60{fill:#F6C200;}
	.st61{fill:#B76032;}
	.st62{fill:#010101;}
	.st63{fill:#295CA8;}
	.st64{fill:#FEF1E2;}
	.st65{fill:#F39126;}
	.st66{fill:#EDEBC8;}
	.st67{fill:#1D1D1B;}
	.st68{fill:#EC79AC;}
	.st69{fill:#F5A67D;}
	.st70{filter:url(#Adobe_OpacityMaskFilter);}
	.st71{mask:url(#SVGID_19_);}
	.st72{fill:#00913F;}
	.st73{fill:#6C2F10;}
	.st74{fill:#2D57A4;}
	.st75{fill:#893E13;}
	.st76{fill:none;}
</style>
<g id="KUEBIKO_BG">
</g>
<g id="KUEBIKO_FARBE">
</g>
<g id="FIREWORK_BG_1_">
</g>
<g id="FIREWORK_FARBE">
</g>
<g id="FIREWORK">
</g>
<g id="PP_FARBE">
</g>
<g id="PAP">
	<g>
		<path class="st4" d="M91.46,0C91.46,0,0,0,0,91.18V442.6c0,0,0,91.19,91.46,91.19h498.7c0,0,91.46,0,91.46-91.19V91.18    c0,0,0-91.18-91.46-91.18H91.46z"/>
		<path class="st8" d="M629.27,136.45c-2.77-2.42-5.26-2.21-9.43-1.63c-4.11,0.57-9.23,1.28-14.2-3.05    c-4.97-4.33-4.96-9.5-4.96-13.65c0-4.21-0.13-6.71-2.9-9.12c-2.77-2.42-5.27-2.21-9.43-1.63c-4.11,0.57-9.23,1.28-14.2-3.05    c-4.97-4.33-4.96-9.5-4.96-13.65c0-4.21-0.13-6.71-2.9-9.12c-2.77-2.41-5.26-2.2-9.43-1.62c-4.11,0.57-9.23,1.28-14.19-3.04    c-4.97-4.33-4.96-9.5-4.96-13.65c0-4.21-0.13-6.71-2.9-9.12s-5.26-2.21-9.43-1.63c-4.11,0.57-9.23,1.28-14.2-3.05    c-4.97-4.33-4.96-9.49-4.96-13.65c0-4.21-0.13-6.7-2.9-9.12l3.94-4.52c4.96,4.33,4.96,9.49,4.96,13.65c0,4.21,0.13,6.7,2.9,9.12    c2.77,2.41,5.26,2.21,9.43,1.63c4.11-0.57,9.23-1.28,14.2,3.05c4.97,4.33,4.96,9.5,4.96,13.65c0,4.21,0.13,6.7,2.9,9.12    c2.77,2.41,5.26,2.2,9.43,1.62c4.11-0.57,9.23-1.28,14.2,3.04c4.97,4.33,4.96,9.5,4.96,13.65c0,4.21,0.13,6.71,2.9,9.12    c2.77,2.41,5.26,2.21,9.43,1.63c4.11-0.57,9.23-1.28,14.2,3.05c4.97,4.33,4.96,9.5,4.96,13.65c0,4.21,0.13,6.71,2.9,9.12    c2.77,2.42,5.27,2.21,9.43,1.63c4.11-0.57,9.23-1.28,14.2,3.05L629.27,136.45z"/>
		<path class="st8" d="M41.08,337.67l-5.76-1.68c1.03-3.53-0.21-5.7-2.49-9.24c-2.25-3.49-5.04-7.84-3.2-14.16    c1.84-6.33,6.53-8.49,10.3-10.24c3.82-1.77,6.03-2.94,7.06-6.47c1.03-3.53-0.21-5.7-2.49-9.24c-2.25-3.49-5.04-7.84-3.2-14.16    c1.84-6.32,6.53-8.49,10.3-10.24c3.82-1.77,6.03-2.94,7.05-6.47c1.03-3.53-0.21-5.7-2.49-9.24c-2.25-3.49-5.04-7.84-3.2-14.16    s6.53-8.49,10.3-10.24c3.82-1.77,6.03-2.94,7.05-6.47c1.03-3.53-0.21-5.7-2.49-9.24c-2.25-3.49-5.04-7.84-3.21-14.16    s6.53-8.49,10.3-10.23c3.82-1.77,6.03-2.94,7.05-6.46l5.76,1.68c-1.84,6.32-6.53,8.49-10.3,10.23c-3.82,1.77-6.03,2.94-7.05,6.46    s0.21,5.7,2.49,9.24c2.25,3.49,5.04,7.84,3.21,14.16c-1.84,6.33-6.53,8.49-10.3,10.24c-3.82,1.77-6.03,2.94-7.05,6.47    c-1.03,3.53,0.21,5.7,2.49,9.24c2.25,3.49,5.04,7.84,3.2,14.16c-1.84,6.32-6.53,8.49-10.3,10.24c-3.82,1.77-6.03,2.94-7.05,6.47    c-1.03,3.53,0.21,5.7,2.49,9.24c2.25,3.49,5.04,7.84,3.2,14.16s-6.53,8.49-10.3,10.24c-3.82,1.77-6.03,2.94-7.06,6.47    s0.21,5.7,2.49,9.24C40.12,327,42.92,331.34,41.08,337.67z"/>
		<path class="st8" d="M556.47,515.63c-13.45-12.24-16.93-33.45-8.1-49.34c4.24-7.63,10.71-12.87,17.75-14.38c1-0.21,2-0.34,3-0.4    c1.36-15.92,11.11-31.97,26.12-41.68c15.14-9.79,35.4-14.01,58.6-12.2l-0.47,5.98c-21.88-1.71-40.86,2.19-54.88,11.26    c-13.51,8.74-22.28,23.11-23.42,37.25c5.4,1.41,9.95,5.1,11.79,10.14c1.44,3.92,0.71,7.92-1.85,10.19    c-3.36,2.97-8.47,1.92-11.27-0.75c-2.69-2.57-3.63-6.23-4.1-8.76c-0.33-1.78-0.54-3.58-0.63-5.39c-0.56,0.04-1.1,0.12-1.63,0.23    c-5.35,1.15-10.37,5.31-13.76,11.43c-7.39,13.3-4.36,31.75,6.89,41.99L556.47,515.63z M575.09,458.49    c0.1,1.13,0.25,2.25,0.46,3.36c0.51,2.75,1.23,4.45,2.34,5.51c0.91,0.87,2.5,1.17,3.15,0.6c0.66-0.58,0.74-2.14,0.19-3.63    C580.22,461.55,577.85,459.57,575.09,458.49z"/>
		<path class="st8" d="M120.77,498.69c-7.32,0-14.72-1.76-21.06-5.27c-10.24-5.67-17.15-15.67-18.42-25.69    c-13.09-3.57-24.98-14.12-30.03-27.12c-6.05-15.6-2.25-30.88,2-40.95c6.09-14.44,16.44-27.01,29.91-36.35l3.42,4.93    c-12.54,8.69-22.15,20.36-27.8,33.75c-3.82,9.05-7.26,22.72-1.93,36.45c4.17,10.76,13.72,19.57,24.4,23.03    c0.07-0.61,0.17-1.21,0.29-1.82c0.91-4.51,3.05-7.99,6.18-10.05c4.11-2.72,9.86-2.63,13.66,0.2c2.37,1.77,3.79,4.49,3.9,7.48    c0.11,3.11-1.21,6.16-3.53,8.15c-3.24,2.79-8.25,4-14.17,3.46c1.65,7.5,7.24,14.97,15.02,19.28c10.51,5.82,24.38,6.08,34.52,0.66    l2.83,5.29C134.26,497.17,127.56,498.69,120.77,498.69z M87.16,462.8c0.06,0.01,0.12,0.02,0.18,0.02    c4.59,0.56,8.43-0.15,10.52-1.95c0.93-0.8,1.48-2.1,1.44-3.39c-0.03-0.83-0.31-2-1.48-2.88c-1.97-1.47-5.05-1.14-6.78,0    c-1.8,1.19-3.01,3.28-3.6,6.23C87.3,461.48,87.21,462.14,87.16,462.8z"/>
		<path class="st8" d="M55.01,128.57c-8.27,0-16.54-2.04-23.69-6.14l2.99-5.2c13.01,7.47,30.29,7.12,42.98-0.88    c11.47-7.23,18.93-20.52,19.44-34.06c-3.71,0.5-7.83,0.36-11.6-1.5c-3.51-1.74-6.19-5.27-6.99-9.2c-0.66-3.24,0.07-6.29,2.05-8.59    c1.74-2.02,4.29-3.22,7.18-3.37c3.43-0.18,6.95,1.1,9.43,3.43c2.9,2.72,4.75,6.68,5.52,11.79c24.6-7.53,44.8-28.22,51.66-53.03    l5.78,1.6c-7.51,27.19-29.89,49.78-57,57.56c-0.01,0-0.01,0-0.02,0c-0.07,15.99-8.72,31.91-22.27,40.44    C72.94,126.18,63.97,128.57,55.01,128.57z M88.03,65.61c-0.11,0-0.22,0-0.33,0.01c-0.88,0.05-2.11,0.31-2.96,1.3    c-0.95,1.1-0.91,2.5-0.72,3.48c0.42,2.09,1.94,4.11,3.77,5.02c2.63,1.3,5.77,1.3,8.68,0.85c-0.52-4.01-1.79-6.98-3.77-8.84    C91.49,66.29,89.73,65.61,88.03,65.61z"/>
		<g>
			<g>
				<g>
					<g>
						<circle class="st22" cx="340.03" cy="269.41" r="205.53"/>
						<path d="M340.03,479.32c-115.75,0-209.91-94.17-209.91-209.91c0-115.75,94.17-209.91,209.91-209.91        s209.91,94.17,209.91,209.91C549.95,385.15,455.78,479.32,340.03,479.32z M340.03,68.27c-110.91,0-201.14,90.23-201.14,201.14        c0,110.91,90.23,201.14,201.14,201.14c110.91,0,201.14-90.23,201.14-201.14C541.17,158.5,450.94,68.27,340.03,68.27z"/>
					</g>
					<g>
						<g>
							<g>
								<path class="st7" d="M409.68,258.2l-17.77-15.44l-12.63-48.8l-31.2-6.52l-15.15,10.3l-8.88-4.15l-3.73-11.32l-33.67,5.96          l-10-8.36l-25.54,46.02l2.85,15.19l-6.58,8.95l27.98,33.88l36.89-6.88l10.34,13.46l-5.09,12.59l9.33,19.44l-5.38,23.09          l13.81,41.11l34.41-1.93c0,0,14.47-35.1,14.97-35.47c0.51-0.37,17.3-12.57,17.3-12.57l2.23-17.05l-7.22-15.11l26.66-29.24          l0.72-24.42L409.68,258.2z"/>
								<path d="M332.15,391.29l-15.27-45.47l5.31-22.8l-9.5-19.8l4.88-12.06l-7.17-9.33l-36.78,6.86l-31.81-38.51l7.48-10.17          l-2.79-14.87l28.89-52.05l12.5,10.46l35.4-6.27l4.33,13.12l4.9,2.29l14.63-9.94l35.69,7.46l12.97,50.12l14.53,12.62          l18.56-9.22l-0.98,33.36l-25.76,28.26l6.51,13.62l-2.64,20.21l-1.53,1.11c0,0-12.92,9.38-16.44,11.94          c-1.89,4.14-9.57,22.62-14.35,34.21l-1.05,2.55L332.15,391.29z M325.99,345.39l12.34,36.76l28.31-1.59          c13.9-33.69,14.09-33.83,15.38-34.78c0.44-0.32,11.64-8.45,15.79-11.47l1.82-13.89l-7.94-16.61l27.55-30.22l0.46-15.48          l-10.69,5.31L388,245.18l-12.29-47.48l-26.7-5.58l-15.68,10.65l-12.86-6.01l-3.14-9.5l-31.94,5.66l-7.49-6.27l-22.2,39.99          l2.91,15.51l-5.68,7.73l24.16,29.24l36.99-6.9l13.52,17.58l-5.31,13.12l9.16,19.09L325.99,345.39z"/>
							</g>
						</g>
					</g>
					<g>
						<polygon class="st7" points="439.23,337.8 424.3,340.45 420.66,363.44 412.26,378.47 436.13,378.47 444.98,358.14       "/>
						<path d="M439.01,382.86h-34.23l11.67-20.88l4.01-25.31l21.92-3.89l7.25,25.67L439.01,382.86z M419.74,374.09h13.52l7.07-16.26        l-4.24-15.01l-7.94,1.41l-3.28,20.68L419.74,374.09z"/>
					</g>
					<g>
						<path class="st7" d="M375.08,66.86l-9.64,12.77h-29.6l-11.97,21.23l-39.8,9.73l-15.04-9.73l-10.61,22.11h-21.23l-5.31,26.53        l30.95,15.03l15.92-18.57l21.23-11.5l22.11,8.84l13.74-8.84l16.33,3.54l4.42,20.34l22.69,4.42v31.2h17.11l15.87,39.55        l27.47-10.61l5.25-15.03l26.59-20.34l-14.15-15.92l-28.79,5.31l-16.36-24.76L418.5,138l26.48,14.15l26.59-7.96l30.95,35.68        l3.15,58.07l18.08,12.38l11.84-44.33C535.59,205.99,508.02,91.65,375.08,66.86z"/>
						<path d="M526.38,257.45l-24.98-17.11l-3.18-58.73l-28.11-32.4l-25.6,7.67l-23.9-12.77l-3.36,7.63l13.44,20.34l28.37-5.23        l18.93,21.3l-29.29,22.41l-5.49,15.71l-33.4,12.91l-16.38-40.82h-18.53v-31.97l-21.98-4.28l-4.44-20.4l-11.8-2.56l-14.11,9.09        l-22.3-8.92l-18.7,10.13l-17.6,20.53l-37.05-18l6.68-33.39h22.06l11.58-24.11l17.63,11.41l36.11-8.83l12.29-21.8h29.98        l9.96-13.19l2.67,0.5c70.08,13.07,110.91,51.02,132.83,80.56c23.77,32.03,30.85,60.65,31.14,61.85l0.26,1.08L526.38,257.45z         M509.93,235.54l11.17,7.65l9.94-37.21c-1.49-5.34-9.26-30.63-29.61-57.96c-13.35-17.92-29.45-33.22-47.83-45.46        c-22.3-14.85-48.08-25.23-76.67-30.89l-9.31,12.33H338.4l-11.64,20.65l-43.48,10.63l-12.44-8.05l-9.65,20.11h-20.39        l-3.94,19.68l24.86,12.07l14.24-16.62l23.75-12.86l21.92,8.77l13.36-8.6l20.87,4.52l4.41,20.28l23.4,4.56v30.43h15.69        l15.36,38.29l21.53-8.32l5.02-14.36l23.88-18.27l-9.37-10.54l-29.22,5.38l-19.28-29.19l9.12-20.67l29.06,15.53l27.57-8.25        l33.8,38.96L509.93,235.54z"/>
					</g>
					<g>
						<path class="st7" d="M135.51,291l38.01-40.68l-13.56-23.88l9.14-27.42l-18.28-9.98C150.81,189.04,130.11,240.02,135.51,291z"/>
						<path d="M132.15,301.02l-1.01-9.56c-5.45-51.48,14.74-101.95,15.61-104.08l1.85-4.56l25.82,14.1l-9.68,29.04l14.19,24.99        L132.15,301.02z M153.17,195.33c-4.39,12.45-15.56,48.18-14.02,85.35l28.96-30.99l-12.93-22.77l8.6-25.79L153.17,195.33z"/>
					</g>
					<g>
						<path class="st7" d="M447.06,444.9l-18.44-14.16l-31.35,14.15h-34.49l-33.61,11.34l-33.61-6.03l-26.74,12.06        C268.82,462.26,363.1,497.26,447.06,444.9z"/>
						<path d="M341.46,478.09c-5.4,0-10.51-0.19-15.28-0.5c-34.31-2.22-57.89-10.86-58.88-11.22l-10.02-3.72L295,445.64l33.84,6.07        l33.22-11.21h34.27l32.88-14.84l25.55,19.61l-5.37,3.35C411.69,472.13,372,478.09,341.46,478.09z M281.28,461.45        c9.99,2.66,26.16,6.15,45.75,7.4c29.05,1.84,71.58-1.04,112.24-24.41l-11.24-8.63l-29.81,13.46H363.5l-33.99,11.47        l-33.38-5.99L281.28,461.45z"/>
					</g>
					<g>
						<path class="st7" d="M224.8,439.61l12.4-8.87l-5.31-16.8l21.23-9.73l-21.23-29.19l-32.72,3.45l-4.42-29.98l-21.23-10.69        l-9.73-29.99l-22.99,12.24C140.79,320.05,163.95,400.79,224.8,439.61z"/>
						<path d="M224.94,444.9l-2.5-1.6c-32.23-20.56-53.86-52.66-66.33-75.97c-13.46-25.16-19.29-45.24-19.53-46.08l-0.98-3.41        l30.75-16.38l10.78,33.23l21.63,10.89l4.14,28.07l31.05-3.28l25.87,35.57l-22.58,10.35l5.1,16.15L224.94,444.9z         M146.08,322.21c5.08,15.27,28.57,78.61,78.6,112.09l7.37-5.27l-5.51-17.46l19.88-9.11l-16.58-22.8l-34.39,3.63l-4.7-31.9        l-20.83-10.49l-8.68-26.75L146.08,322.21z"/>
					</g>
					<path d="M340.03,479.32c-115.75,0-209.91-94.17-209.91-209.91c0-115.75,94.17-209.91,209.91-209.91s209.91,94.17,209.91,209.91       C549.95,385.15,455.78,479.32,340.03,479.32z M340.03,68.27c-110.91,0-201.14,90.23-201.14,201.14       c0,110.91,90.23,201.14,201.14,201.14c110.91,0,201.14-90.23,201.14-201.14C541.17,158.5,450.94,68.27,340.03,68.27z"/>
				</g>
			</g>
			<rect x="178.43" y="80.6" transform="matrix(0.657 -0.7539 0.7539 0.657 -7.6818 170.2877)" width="9.75" height="25.96"/>
			<rect x="204.36" y="61.24" transform="matrix(0.7949 -0.6067 0.6067 0.7949 -2.0529 142.1393)" width="9.75" height="25.72"/>
			<rect x="233.02" y="45.04" transform="matrix(0.8756 -0.4831 0.4831 0.8756 1.8356 122.0733)" width="9.75" height="24.87"/>
			<rect x="270.78" y="33.99" transform="matrix(0.9487 -0.3162 0.3162 0.9487 -0.4127 89.5373)" width="9.75" height="24.1"/>
			<rect x="308.53" y="26.45" transform="matrix(0.9851 -0.172 0.172 0.9851 -1.875 54.4711)" width="9.75" height="23.21"/>
			<rect x="341.56" y="23.34" transform="matrix(0.9988 -0.0479 0.0479 0.9988 -1.2652 16.6504)" width="9.75" height="22.71"/>
			<rect x="374.67" y="34.63" transform="matrix(0.2275 -0.9738 0.9738 0.2275 260.0372 406.7977)" width="23.48" height="9.75"/>
			<rect x="413.72" y="44.52" transform="matrix(0.3879 -0.9217 0.9217 0.3879 214.2911 421.4643)" width="21.46" height="9.75"/>
			<rect x="447.68" y="58.01" transform="matrix(0.5134 -0.8581 0.8581 0.5134 170.2312 425.9943)" width="26.15" height="9.75"/>
			<rect x="480.18" y="78.15" transform="matrix(0.6668 -0.7452 0.7452 0.6668 102.1004 394.4258)" width="23.95" height="9.75"/>
			<rect x="503.73" y="102.86" transform="matrix(0.7853 -0.6191 0.6191 0.7853 44.0258 342.4357)" width="24.03" height="9.75"/>
			<rect x="523.63" y="129.72" transform="matrix(0.8589 -0.5121 0.5121 0.8589 6.4866 292.7448)" width="21.97" height="9.75"/>
			<rect x="541.07" y="157.96" transform="matrix(0.9296 -0.3687 0.3687 0.9296 -21.1096 215.1862)" width="23.04" height="9.75"/>
			<rect x="552.46" y="189.97" transform="matrix(0.988 -0.1547 0.1547 0.988 -23.3631 89.4342)" width="21.12" height="9.75"/>
			<rect x="559.3" y="224.27" width="24.68" height="9.75"/>
			<rect x="563.02" y="258.48" width="22.41" height="9.75"/>
			<rect x="570.26" y="285.41" transform="matrix(0.0747 -0.9972 0.9972 0.0747 235.4483 848.8615)" width="9.75" height="24.29"/>
			<rect x="565.67" y="315.2" transform="matrix(0.3344 -0.9424 0.9424 0.3344 71.437 755.4308)" width="9.75" height="23.88"/>
			<rect x="557.35" y="346.94" transform="matrix(0.4465 -0.8948 0.8948 0.4465 -11.251 702.5087)" width="9.75" height="26.82"/>
			<rect x="544.62" y="374.75" transform="matrix(0.6278 -0.7784 0.7784 0.6278 -98.4124 572.6114)" width="9.75" height="28.91"/>
			<rect x="522.85" y="403.77" transform="matrix(0.6476 -0.7619 0.7619 0.6476 -132.5894 549.3982)" width="9.75" height="28.58"/>
			<rect x="497.8" y="428.72" transform="matrix(0.8415 -0.5402 0.5402 0.8415 -158.8313 341.4949)" width="9.75" height="25.53"/>
			<rect x="471.67" y="450" transform="matrix(0.8286 -0.5598 0.5598 0.8286 -177.5085 346.1389)" width="9.75" height="25.93"/>
			<rect x="435.88" y="471.97" transform="matrix(0.8583 -0.5131 0.5131 0.8583 -186.0326 294.7507)" width="9.75" height="24.59"/>
			<rect x="399.08" y="483.67" transform="matrix(0.9472 -0.3207 0.3207 0.9472 -137.3971 155.6812)" width="9.75" height="22.64"/>
			<rect x="360.79" y="489" transform="matrix(0.9987 -0.0508 0.0508 0.9987 -24.9063 19.2153)" width="9.75" height="21.44"/>
			<rect x="312.32" y="493.57" transform="matrix(0.0152 -0.9999 0.9999 0.0152 -179.0318 815.1184)" width="23.96" height="9.75"/>
			<rect x="274.04" y="490.11" transform="matrix(0.2461 -0.9692 0.9692 0.2461 -264.8282 649.5031)" width="22.12" height="9.75"/>
			<rect x="238.14" y="479.47" transform="matrix(0.5018 -0.865 0.865 0.5018 -294.1891 457.9391)" width="24.59" height="9.75"/>
			<rect x="197.22" y="461.63" transform="matrix(0.6768 -0.7362 0.7362 0.6768 -274.7468 307.2178)" width="30.57" height="9.75"/>
			<rect x="152.46" y="101.58" transform="matrix(0.5501 -0.8351 0.8351 0.5501 -25.4772 183.2516)" width="9.76" height="27.38"/>
			<rect x="128.69" y="131.51" transform="matrix(0.5788 -0.8155 0.8155 0.5788 -62.2321 170.1338)" width="9.75" height="27.59"/>
			<rect x="113.99" y="164.54" transform="matrix(0.4413 -0.8973 0.8973 0.4413 -92.3151 205.4838)" width="9.75" height="24.67"/>
			<rect x="105.1" y="202.73" transform="matrix(0.124 -0.9923 0.9923 0.124 -117.8925 298.2529)" width="9.76" height="26.34"/>
			<rect x="94.21" y="250.58" transform="matrix(0.987 -0.1608 0.1608 0.987 -39.6887 20.4676)" width="24.82" height="9.75"/>
			<rect x="98.97" y="289.31" transform="matrix(0.9557 -0.2944 0.2944 0.9557 -81.7518 45.3675)" width="21.65" height="9.75"/>
			<rect x="101.09" y="329.22" transform="matrix(0.9579 -0.2869 0.2869 0.9579 -91.0757 46.7524)" width="25.76" height="9.75"/>
			<rect x="115.55" y="364.24" transform="matrix(0.9165 -0.4 0.4 0.9165 -137.0372 81.626)" width="22.97" height="9.75"/>
			<rect x="135.95" y="401.93" transform="matrix(0.8246 -0.5658 0.5658 0.8246 -204.336 154.6346)" width="22.45" height="9.75"/>
			<rect x="158.34" y="436.61" transform="matrix(0.6872 -0.7265 0.7265 0.6872 -266.5665 263.8614)" width="29.58" height="9.75"/>
		</g>
		<path class="st8" d="M605.44,362.72l-0.78-5.95c18.92-2.49,36.22-16.13,43.06-33.94c6.61-17.2,3.36-38.05-8.02-52.53    c-2.05,1.86-4.36,3.3-6.91,4.3c-4.97,1.93-11.52,1.4-14.44-3.35c-1.6-2.61-1.6-5.8,0.02-8.75c1.95-3.55,5.84-5.97,9.67-6.03    c3.83-0.06,7.64,1.53,11.35,4.74c3.8-6.37,5.07-15.15,4.77-22.96c-1.34-35.06-21.74-56.17-40.13-60.95l1.51-5.81    c13.12,3.41,24.37,12.24,32.52,25.53c7.24,11.79,11.53,26.35,12.09,40.99c0.21,5.44-0.17,13.54-3.13,21.18    c-0.93,2.39-2.05,4.55-3.35,6.48c13.24,16.13,17.13,39.82,9.64,59.3C645.71,344.78,626.47,359.95,605.44,362.72z M628.24,262.46    c-0.04,0-0.07,0-0.11,0c-1.7,0.03-3.59,1.26-4.51,2.92c-0.4,0.72-0.74,1.77-0.16,2.72c1.14,1.86,4.53,1.92,7.14,0.9    c1.9-0.74,3.57-1.81,5.03-3.12C633.06,263.61,630.59,262.46,628.24,262.46z"/>
	</g>
</g>
<g id="NAZAR_BG">
</g>
<g id="NAZAR_COLORS">
</g>
<g id="NAZAR">
</g>
<g id="WIKIQUOTE_BG">
</g>
<g id="WIKIQUOTE_FARBE">
</g>
<g id="WIKIQUOTE">
</g>
<g id="WIKIVOYAGE_BG">
</g>
<g id="WIKIVOYAGE_FARBE_1_">
</g>
<g id="WIKIVOYAGE_1_">
</g>
<g id="HAMSA_BG">
</g>
<g id="HAMSA_FARBE">
</g>
<g id="HAMSA">
</g>
<g id="WWW">
</g>
<g id="FOTO_1_">
</g>
<g id="HUMAN_FIGURE">
</g>
<g id="GLASSES">
</g>
<g id="KINTSUGI">
</g>
<g id="RANGOLI">
</g>
<g id="HENNA">
</g>
<g id="BASKETBALL">
	<g id="Ebene_42">
	</g>
</g>
<g id="RUG">
</g>
<g id="KAABA">
</g>
<g id="WIKINEWS">
</g>
<g id="COMMONS">
</g>
<g id="BIWA">
</g>
<g id="_x2B_">
</g>
<g id="IBIS_OF_THOTH">
</g>
<g id="SERPENT">
</g>
<g id="TREE_BG_1_">
</g>
<g id="TREE_FARBEN">
</g>
<g id="TREE_1_">
</g>
<g id="BAPHO_BG_1_">
</g>
<g id="BAPHO_FARBE">
</g>
<g id="BAPHO">
</g>
<g id="SALAM_BG">
</g>
<g id="SALAM_FARBE">
</g>
<g id="SALAM">
</g>
<g id="PAINTING_EASLE_BG">
</g>
<g id="PAINTING_EASLE_FARBE">
</g>
<g id="PAINTING_EASLE_FARBEN">
</g>
<g id="WHEAT_BG">
</g>
<g id="WHEAT_FARBE">
</g>
<g id="WHEAT">
</g>
<g id="SMILE_BG">
</g>
<g id="SMILE_FARBE">
</g>
<g id="SMILE">
</g>
<g id="WIFI_BG">
</g>
<g id="Layer_142">
</g>
<g id="WIFI_FARBE">
</g>
<g id="WIFI">
</g>
<g id="WIND">
</g>
<g id="CHIC_x40_S_1_">
</g>
<g id="ESC">
</g>
<g id="SPRAYCAN_1_">
</g>
<g id="PACHAMAMA">
</g>
<g id="THUNDERBIRD">
</g>
<g id="MARSHA">
</g>
<g id="ARROW">
</g>
<g id="WKTK">
</g>
<g id="psst">
</g>
<g id="WIKIPEDIA">
</g>
<g id="WIKTIONARY_1_">
</g>
<g id="WIKIDATA_1_">
</g>
<g id="RAVEN">
</g>
<g id="OWL_ATHENA">
</g>
<g id="GHYAMA">
</g>
<g id="Ebene_170">
</g>
<g id="BRAILLE">
</g>
<g id="EYE_OF_HORUS">
</g>
<g id="PARTY_ELEMENT">
</g>
<g id="CAKE">
</g>
<g id="PAPERPLANE">
</g>
<g id="INCUBATOR_1_">
</g>
<g id="_x3D_">
</g>
<g id="COLOR_PALETTE">
</g>
<g id="TAGS">
</g>
</svg>